G04*
G04 #@! TF.GenerationSoftware,Altium Limited,Altium Designer,24.0.1 (36)*
G04*
G04 Layer_Color=255*
%FSLAX25Y25*%
%MOIN*%
G70*
G04*
G04 #@! TF.SameCoordinates,1973DDD8-50FA-473A-AABA-CD6713E7F6C3*
G04*
G04*
G04 #@! TF.FilePolarity,Positive*
G04*
G01*
G75*
%ADD13C,0.00984*%
%ADD32C,0.11811*%
%ADD33R,0.11811X0.11811*%
%ADD34C,0.05512*%
%ADD35R,0.05512X0.05512*%
%ADD36C,0.05906*%
%ADD37R,0.05906X0.05906*%
%ADD38C,0.12598*%
D13*
X152559Y-4921D02*
Y144685D01*
X0Y0D02*
Y139764D01*
Y0D02*
X47244D01*
X52165Y4921D01*
X108268D01*
X118110Y-4921D01*
X152559D01*
X118110Y144685D02*
X152559D01*
X108268Y134843D02*
X118110Y144685D01*
X52165Y134843D02*
X108268D01*
X47244Y139764D02*
X52165Y134843D01*
X0Y139764D02*
X47244D01*
D32*
X94488Y17717D02*
D03*
X71850D02*
D03*
D33*
X94488Y37402D02*
D03*
X71850D02*
D03*
D34*
X142717Y125000D02*
D03*
Y115157D02*
D03*
Y134843D02*
D03*
Y74803D02*
D03*
Y64961D02*
D03*
Y84646D02*
D03*
Y24606D02*
D03*
Y14764D02*
D03*
Y34449D02*
D03*
D35*
Y105315D02*
D03*
Y55118D02*
D03*
Y4921D02*
D03*
D36*
X71850Y100709D02*
D03*
Y90709D02*
D03*
X44291Y81535D02*
D03*
Y91535D02*
D03*
Y101535D02*
D03*
X83661Y100709D02*
D03*
Y90709D02*
D03*
X107283Y101850D02*
D03*
Y81850D02*
D03*
X44291Y61496D02*
D03*
Y51496D02*
D03*
Y41496D02*
D03*
X32480Y41496D02*
D03*
Y51496D02*
D03*
Y61496D02*
D03*
Y71496D02*
D03*
Y81496D02*
D03*
Y91496D02*
D03*
Y101496D02*
D03*
X4921Y134921D02*
D03*
Y124921D02*
D03*
Y114921D02*
D03*
Y104921D02*
D03*
Y94921D02*
D03*
Y84921D02*
D03*
Y74921D02*
D03*
Y64921D02*
D03*
Y54921D02*
D03*
Y44921D02*
D03*
Y34921D02*
D03*
Y24921D02*
D03*
Y14921D02*
D03*
D37*
X71850Y80709D02*
D03*
X44291Y71535D02*
D03*
X83661Y80709D02*
D03*
X107283Y91850D02*
D03*
Y71850D02*
D03*
X44291Y31496D02*
D03*
X32480Y31496D02*
D03*
X4921Y4921D02*
D03*
D38*
X33465Y126969D02*
D03*
M02*
