G04*
G04 #@! TF.GenerationSoftware,Altium Limited,Altium Designer,24.0.1 (36)*
G04*
G04 Layer_Color=65535*
%FSLAX25Y25*%
%MOIN*%
G70*
G04*
G04 #@! TF.SameCoordinates,1973DDD8-50FA-473A-AABA-CD6713E7F6C3*
G04*
G04*
G04 #@! TF.FilePolarity,Positive*
G04*
G01*
G75*
%ADD10C,0.00472*%
%ADD11C,0.00787*%
%ADD12C,0.00394*%
%ADD13C,0.00984*%
G36*
X92111Y115890D02*
X90394D01*
Y116320D01*
X92111D01*
Y115890D01*
D02*
G37*
G36*
X86960Y115890D02*
X86530D01*
Y115032D01*
X86101D01*
Y114173D01*
X85242D01*
Y115032D01*
X84813D01*
Y115890D01*
X84384D01*
Y118037D01*
X85242D01*
Y115890D01*
X86101D01*
Y118037D01*
X86960D01*
Y115890D01*
D02*
G37*
G36*
X64207Y116749D02*
X64636D01*
Y115890D01*
X63777D01*
Y116749D01*
X62919D01*
Y114173D01*
X62060D01*
Y117178D01*
X64207D01*
Y116749D01*
D02*
G37*
G36*
X79662Y114173D02*
X77515D01*
Y114602D01*
X77086D01*
Y117178D01*
X77944D01*
Y114602D01*
X78803D01*
Y117178D01*
X79662D01*
Y114173D01*
D02*
G37*
G36*
X94258Y114602D02*
X95116D01*
Y114173D01*
X92541D01*
Y114602D01*
X93399D01*
Y117178D01*
X92541D01*
Y117608D01*
X93399D01*
Y118037D01*
X94258D01*
Y114602D01*
D02*
G37*
G36*
X89106D02*
X89965D01*
Y114173D01*
X87389Y114173D01*
Y114602D01*
X88248Y114602D01*
Y117178D01*
X87389Y117178D01*
Y117608D01*
X88248Y117608D01*
Y118037D01*
X89106D01*
Y114602D01*
D02*
G37*
G36*
X81808Y117178D02*
X82667D01*
Y116749D01*
X81808D01*
Y114602D01*
X82667D01*
Y114173D01*
X81379D01*
Y114602D01*
X80949D01*
Y116749D01*
X80091D01*
Y117178D01*
X80949D01*
Y118037D01*
X81808D01*
Y117178D01*
D02*
G37*
G36*
X76227Y116749D02*
X76656D01*
Y114602D01*
X76227D01*
Y114173D01*
X74510D01*
Y114602D01*
X74081D01*
Y116749D01*
X74510D01*
Y117178D01*
X76227D01*
Y116749D01*
D02*
G37*
G36*
X71934Y115890D02*
X72363D01*
Y116320D01*
X72793D01*
Y117178D01*
X73651D01*
Y116320D01*
X73222D01*
Y115890D01*
X72793D01*
Y115461D01*
X73222D01*
Y115032D01*
X73651D01*
Y114173D01*
X72793D01*
Y115032D01*
X72363D01*
Y115461D01*
X71934D01*
Y114173D01*
X71075D01*
Y118037D01*
X71934D01*
Y115890D01*
D02*
G37*
G36*
X70217Y116749D02*
X70646D01*
Y114173D01*
X68500D01*
Y114602D01*
X68070D01*
Y115461D01*
X68500D01*
Y115890D01*
X69788D01*
Y116749D01*
X68929D01*
Y116320D01*
X68070D01*
Y116749D01*
X68500D01*
Y117178D01*
X70217D01*
Y116749D01*
D02*
G37*
G36*
X67212D02*
X67641D01*
Y115461D01*
X65924D01*
Y114602D01*
X66782D01*
Y115032D01*
X67641D01*
Y114602D01*
X67212D01*
Y114173D01*
X65495D01*
Y114602D01*
X65065D01*
Y116749D01*
X65495D01*
Y117178D01*
X67212D01*
Y116749D01*
D02*
G37*
G36*
X61202Y117608D02*
X61631D01*
Y116320D01*
X61202D01*
Y115890D01*
X61631D01*
Y114602D01*
X61202D01*
Y114173D01*
X59055D01*
Y118037D01*
X61202D01*
Y117608D01*
D02*
G37*
G36*
X92541Y122529D02*
X91682D01*
Y123388D01*
X92541D01*
Y122529D01*
D02*
G37*
G36*
X86960Y122529D02*
X87389D01*
Y121670D01*
X86530D01*
Y122529D01*
X85672D01*
Y121241D01*
X86960D01*
Y120812D01*
X87389D01*
Y119524D01*
X86960D01*
Y119095D01*
X85242D01*
Y119524D01*
X84813D01*
Y120382D01*
X85672D01*
Y119524D01*
X86530D01*
Y120812D01*
X85242D01*
Y121241D01*
X84813D01*
Y122529D01*
X85242D01*
Y122958D01*
X86960D01*
Y122529D01*
D02*
G37*
G36*
X64636Y121670D02*
X65065D01*
Y119095D01*
X64207D01*
Y121241D01*
X63777D01*
Y119524D01*
X63348D01*
Y121241D01*
X62919D01*
Y119095D01*
X62060D01*
Y122100D01*
X63348D01*
Y121670D01*
X63777D01*
Y122100D01*
X64636D01*
Y121670D01*
D02*
G37*
G36*
X61202Y122529D02*
X61631D01*
Y121670D01*
X60772D01*
Y122529D01*
X59914D01*
Y121241D01*
X61202D01*
Y120812D01*
X61631D01*
Y119524D01*
X61202D01*
Y119095D01*
X59484D01*
Y119524D01*
X59055D01*
Y120382D01*
X59914D01*
Y119524D01*
X60772D01*
Y120812D01*
X59484D01*
Y121241D01*
X59055D01*
Y122529D01*
X59484D01*
Y122958D01*
X61202D01*
Y122529D01*
D02*
G37*
G36*
X70646Y121670D02*
X71075D01*
Y120812D01*
X70217D01*
Y121670D01*
X69358D01*
Y119095D01*
X68500D01*
Y122100D01*
X70646D01*
Y121670D01*
D02*
G37*
G36*
X102414Y119095D02*
X100268D01*
Y119524D01*
X99839D01*
Y121670D01*
X100268D01*
Y122100D01*
X101556D01*
Y122958D01*
X102414D01*
Y119095D01*
D02*
G37*
G36*
X98551Y119524D02*
X99409D01*
Y119095D01*
X96833D01*
Y119524D01*
X97692D01*
Y122529D01*
X96833D01*
Y122958D01*
X98551D01*
Y119524D01*
D02*
G37*
G36*
X95975Y121670D02*
X96404D01*
Y120382D01*
X94687D01*
Y119524D01*
X95546D01*
Y119953D01*
X96404D01*
Y119524D01*
X95975D01*
Y119095D01*
X94258D01*
Y119524D01*
X93828D01*
Y121670D01*
X94258D01*
Y122100D01*
X95975D01*
Y121670D01*
D02*
G37*
G36*
X92541Y119524D02*
X93399D01*
Y119095D01*
X90823D01*
Y119524D01*
X91682D01*
Y121670D01*
X90823D01*
Y122100D01*
X92541D01*
Y119524D01*
D02*
G37*
G36*
X88677Y122100D02*
X89965D01*
Y121670D01*
X90394D01*
Y119095D01*
X89535D01*
Y121670D01*
X88677D01*
Y119095D01*
X87818D01*
Y122958D01*
X88677D01*
Y122100D01*
D02*
G37*
G36*
X82667Y122529D02*
X83096D01*
Y119524D01*
X82667D01*
Y119095D01*
X80520D01*
Y122958D01*
X82667D01*
Y122529D01*
D02*
G37*
G36*
X80091D02*
X78374D01*
Y121241D01*
X79662D01*
Y120812D01*
X78374D01*
Y119524D01*
X80091D01*
Y119095D01*
X77515D01*
Y122958D01*
X80091D01*
Y122529D01*
D02*
G37*
G36*
X75368Y119524D02*
X77086D01*
Y119095D01*
X74510D01*
Y122958D01*
X75368D01*
Y119524D01*
D02*
G37*
G36*
X73222Y122100D02*
X74081D01*
Y121670D01*
X73222D01*
Y119524D01*
X74081D01*
Y119095D01*
X72793D01*
Y119524D01*
X72363D01*
Y121670D01*
X71505D01*
Y122100D01*
X72363D01*
Y122958D01*
X73222D01*
Y122100D01*
D02*
G37*
G36*
X67641Y121670D02*
X68070D01*
Y119095D01*
X65924D01*
Y119524D01*
X65495D01*
Y120382D01*
X65924D01*
Y120812D01*
X67212D01*
Y121670D01*
X66353D01*
Y121241D01*
X65495D01*
Y121670D01*
X65924D01*
Y122100D01*
X67641D01*
Y121670D01*
D02*
G37*
G36*
X102654Y130160D02*
X101794D01*
Y131020D01*
X100934D01*
Y132740D01*
X102654D01*
Y130160D01*
D02*
G37*
G36*
X87175Y131880D02*
X88035D01*
Y130160D01*
X86315D01*
Y131880D01*
X84595D01*
Y125860D01*
X86315D01*
Y127580D01*
X88035D01*
Y125860D01*
X87175D01*
Y125000D01*
X83735D01*
Y125860D01*
X82875D01*
Y131880D01*
X83735D01*
Y132740D01*
X87175D01*
Y131880D01*
D02*
G37*
G36*
X54497Y131880D02*
X55357D01*
Y130160D01*
X53637D01*
Y131880D01*
X51917D01*
Y125860D01*
X53637D01*
Y127580D01*
X55357D01*
Y125860D01*
X54497D01*
Y125000D01*
X51057D01*
Y125860D01*
X50197D01*
Y131880D01*
X51057D01*
Y132740D01*
X54497D01*
Y131880D01*
D02*
G37*
G36*
X101794Y129300D02*
X100934D01*
Y130160D01*
X101794D01*
Y129300D01*
D02*
G37*
G36*
X112113Y132740D02*
X112973D01*
Y130160D01*
X112113D01*
Y127580D01*
X110393D01*
Y130160D01*
X109533D01*
Y132740D01*
X110393D01*
Y133599D01*
X112113D01*
Y132740D01*
D02*
G37*
G36*
Y125000D02*
X110393D01*
Y126720D01*
X112113D01*
Y125000D01*
D02*
G37*
G36*
X106954Y131020D02*
X108674D01*
Y130160D01*
X106954D01*
Y125860D01*
X108674D01*
Y125000D01*
X106094D01*
Y125860D01*
X105234D01*
Y130160D01*
X103514D01*
Y131020D01*
X105234D01*
Y132740D01*
X106954D01*
Y131020D01*
D02*
G37*
G36*
X99214Y130160D02*
X100074D01*
Y125000D01*
X98354D01*
Y130160D01*
X96634D01*
Y125000D01*
X94914D01*
Y131020D01*
X99214D01*
Y130160D01*
D02*
G37*
G36*
X93194D02*
X94054D01*
Y125000D01*
X89754D01*
Y125860D01*
X88895D01*
Y127580D01*
X89754D01*
Y128440D01*
X92334D01*
Y130160D01*
X90614D01*
Y129300D01*
X88895D01*
Y130160D01*
X89754D01*
Y131020D01*
X93194D01*
Y130160D01*
D02*
G37*
G36*
X78575Y130160D02*
X79435Y130160D01*
Y125000D01*
X75135Y125000D01*
Y125860D01*
X74275D01*
Y127580D01*
X75135D01*
Y128440D01*
X77715D01*
Y130160D01*
X75995D01*
Y129300D01*
X74275D01*
Y130160D01*
X75135D01*
Y131020D01*
X78575D01*
Y130160D01*
D02*
G37*
G36*
X71696Y125860D02*
X73415D01*
Y125000D01*
X68256D01*
Y125860D01*
X69976D01*
Y131880D01*
X68256D01*
Y132740D01*
X71696D01*
Y125860D01*
D02*
G37*
G36*
X66536Y130160D02*
X67396D01*
Y127580D01*
X63956D01*
Y125860D01*
X65676D01*
Y126720D01*
X67396D01*
Y125860D01*
X66536D01*
Y125000D01*
X63096D01*
Y125860D01*
X62236D01*
Y130160D01*
X63096D01*
Y131020D01*
X66536D01*
Y130160D01*
D02*
G37*
G36*
X60516D02*
X61376D01*
Y125860D01*
X60516D01*
Y125000D01*
X57076D01*
Y125860D01*
X56217D01*
Y130160D01*
X57076D01*
Y131020D01*
X60516D01*
Y130160D01*
D02*
G37*
%LPC*%
G36*
X75798Y116749D02*
X74939D01*
Y114602D01*
X75798D01*
Y116749D01*
D02*
G37*
G36*
X69788Y115461D02*
X68929D01*
Y114602D01*
X69788D01*
Y115461D01*
D02*
G37*
G36*
X66782Y116749D02*
X65924D01*
Y115890D01*
X66782D01*
Y116749D01*
D02*
G37*
G36*
X60772Y117608D02*
X59914D01*
Y116320D01*
X60772D01*
Y117608D01*
D02*
G37*
G36*
Y115890D02*
X59914D01*
Y114602D01*
X60772D01*
Y115890D01*
D02*
G37*
G36*
X101556Y121670D02*
X100697D01*
Y119524D01*
X101556D01*
Y121670D01*
D02*
G37*
G36*
X95546D02*
X94687D01*
Y120812D01*
X95546D01*
Y121670D01*
D02*
G37*
G36*
X82237Y122529D02*
X81379D01*
Y119524D01*
X82237D01*
Y122529D01*
D02*
G37*
G36*
X67212Y120382D02*
X66353D01*
Y119524D01*
X67212D01*
Y120382D01*
D02*
G37*
G36*
X92334Y127580D02*
X90614D01*
Y125860D01*
X92334D01*
Y127580D01*
D02*
G37*
G36*
X77715Y127580D02*
X75995D01*
Y125860D01*
X77715D01*
Y127580D01*
D02*
G37*
G36*
X65676Y130160D02*
X63956D01*
Y128440D01*
X65676D01*
Y130160D01*
D02*
G37*
G36*
X59656D02*
X57936D01*
Y125860D01*
X59656D01*
Y130160D01*
D02*
G37*
%LPD*%
D10*
X102067Y8071D02*
Y10433D01*
X100886Y9252D02*
X103248D01*
X85630D02*
X87992D01*
X86811Y8071D02*
Y10433D01*
X64173Y8071D02*
Y10433D01*
X62992Y9252D02*
X65354D01*
X78248D02*
X80610D01*
X79429Y8071D02*
Y10433D01*
D11*
X100886Y47736D02*
X102362Y46260D01*
X100640Y47736D02*
X100886D01*
X98179Y45276D02*
X100640Y47736D01*
X90551Y45276D02*
X98179D01*
X102362Y30512D02*
X104527D01*
X100689Y28839D02*
X102362Y30512D01*
X100689Y22343D02*
Y28839D01*
X102362Y20669D02*
X104527D01*
X100689Y22343D02*
X102362Y20669D01*
X84145Y43790D02*
X84332Y6791D01*
X84145Y43790D02*
X89567Y49213D01*
X99410D01*
X104602Y44021D01*
X104790Y6791D01*
X84332D02*
X104790D01*
X84449Y12008D02*
X88386D01*
X89567Y10827D01*
Y6890D02*
Y10827D01*
X99410Y6890D02*
Y10827D01*
X100394Y11811D01*
X104626D01*
X88090Y47736D02*
X90551Y45276D01*
X151575Y95669D02*
Y144488D01*
X133661Y95669D02*
X151575D01*
X133661D02*
Y95681D01*
Y95669D02*
Y144488D01*
X151575D01*
Y45472D02*
Y94291D01*
X133661Y45472D02*
X151575D01*
X133661D02*
Y45484D01*
Y45472D02*
Y94291D01*
X151575D01*
Y-4724D02*
Y44094D01*
X133661Y-4724D02*
X151575D01*
X133661D02*
Y-4713D01*
Y-4724D02*
Y44094D01*
X151575D01*
X111909Y46161D02*
X112500D01*
X111909Y40453D02*
X112500D01*
X111909Y36319D02*
X112500D01*
X111909Y30610D02*
X112500D01*
X111909Y26476D02*
X112500D01*
X111909Y20768D02*
X112500D01*
X66850Y75709D02*
X76850D01*
X66850D02*
Y105709D01*
X76850D01*
Y75709D02*
Y105709D01*
X111909Y16634D02*
X112500D01*
X111909Y10925D02*
X112500D01*
X39291Y106535D02*
X49291D01*
Y66535D02*
Y106535D01*
X39291Y66535D02*
Y106535D01*
Y66535D02*
X49291D01*
X78661Y75709D02*
X88661D01*
X78661D02*
Y105709D01*
X88661D01*
Y75709D02*
Y105709D01*
X14469Y45866D02*
Y46654D01*
X18996Y45866D02*
Y46654D01*
X14469Y33071D02*
Y33858D01*
X18996Y33071D02*
Y33858D01*
Y82284D02*
Y83071D01*
X14469Y82284D02*
Y83071D01*
Y69488D02*
Y70275D01*
X18996Y69488D02*
Y70275D01*
X72244Y60039D02*
Y63976D01*
Y60039D02*
X73425D01*
X72244Y63976D02*
X73425D01*
X87205Y59744D02*
X87992D01*
X87205Y64272D02*
X87992D01*
X72244Y67913D02*
Y71850D01*
Y67913D02*
X73425D01*
X72244Y71850D02*
X73425D01*
X87205Y67618D02*
X87992D01*
X87205Y72146D02*
X87992D01*
X102284Y86850D02*
Y106850D01*
Y86850D02*
X112284D01*
Y106850D01*
X102284D02*
X112284D01*
X102284Y86850D02*
X112284D01*
Y66850D02*
Y86850D01*
X102284Y66850D02*
X112284D01*
X102284D02*
Y86850D01*
X65453Y47736D02*
X67913Y45276D01*
X77756Y11811D02*
X81988D01*
X76772Y10827D02*
X77756Y11811D01*
X76772Y6890D02*
Y10827D01*
X66929Y6890D02*
Y10827D01*
X65748Y12008D02*
X66929Y10827D01*
X61811Y12008D02*
X65748D01*
X61694Y6791D02*
X82152D01*
X81964Y44021D02*
X82152Y6791D01*
X76772Y49213D02*
X81964Y44021D01*
X66929Y49213D02*
X76772D01*
X61507Y43790D02*
X66929Y49213D01*
X61507Y43790D02*
X61694Y6791D01*
X78051Y22343D02*
X79724Y20669D01*
X81890D01*
X78051Y22343D02*
Y28839D01*
X79724Y30512D01*
X81890D01*
X67913Y45276D02*
X75541D01*
X78002Y47736D01*
X78248D01*
X79724Y46260D01*
X39291Y26496D02*
X49291D01*
X39291D02*
Y66496D01*
X49291Y26496D02*
Y66496D01*
X39291D02*
X49291D01*
X27480Y106496D02*
X37480D01*
Y26496D02*
Y106496D01*
X27480Y26496D02*
X37480D01*
X27480D02*
Y106496D01*
X-79Y7421D02*
Y139921D01*
Y-79D02*
Y7421D01*
Y-79D02*
X9921D01*
Y139921D01*
X-79D02*
X9921D01*
X132087Y132677D02*
Y133727D01*
Y133202D01*
X128938D01*
X129463Y132677D01*
Y135301D02*
X128938Y135826D01*
Y136875D01*
X129463Y137400D01*
X129988D01*
X130512Y136875D01*
X131037Y137400D01*
X131562D01*
X132087Y136875D01*
Y135826D01*
X131562Y135301D01*
X131037D01*
X130512Y135826D01*
X129988Y135301D01*
X129463D01*
X130512Y135826D02*
Y136875D01*
X91077Y77690D02*
X90552Y77165D01*
Y76115D01*
X91077Y75590D01*
X93176D01*
X93701Y76115D01*
Y77165D01*
X93176Y77690D01*
X92127D01*
Y76640D01*
X93701Y78739D02*
X90552D01*
X93701Y80838D01*
X90552D01*
Y81888D02*
X93701D01*
Y83462D01*
X93176Y83987D01*
X91077D01*
X90552Y83462D01*
Y81888D01*
X91077Y86417D02*
X90552Y86942D01*
Y87992D01*
X91077Y88516D01*
X91602D01*
X92127Y87992D01*
Y87467D01*
Y87992D01*
X92651Y88516D01*
X93176D01*
X93701Y87992D01*
Y86942D01*
X93176Y86417D01*
X90552Y89566D02*
X92651D01*
X93701Y90615D01*
X92651Y91665D01*
X90552D01*
X91077Y92715D02*
X90552Y93239D01*
Y94289D01*
X91077Y94814D01*
X91602D01*
X92127Y94289D01*
Y93764D01*
Y94289D01*
X92651Y94814D01*
X93176D01*
X93701Y94289D01*
Y93239D01*
X93176Y92715D01*
X93701Y98228D02*
Y99278D01*
Y98753D01*
X90552D01*
X91077Y98228D01*
X90552Y102951D02*
Y100852D01*
X92127D01*
X91602Y101902D01*
Y102427D01*
X92127Y102951D01*
X93176D01*
X93701Y102427D01*
Y101377D01*
X93176Y100852D01*
X62534Y86417D02*
X62009Y86942D01*
Y87992D01*
X62534Y88516D01*
X63058D01*
X63583Y87992D01*
Y87467D01*
Y87992D01*
X64108Y88516D01*
X64633D01*
X65158Y87992D01*
Y86942D01*
X64633Y86417D01*
X62009Y89566D02*
X64108D01*
X65158Y90615D01*
X64108Y91665D01*
X62009D01*
X62534Y92715D02*
X62009Y93239D01*
Y94289D01*
X62534Y94814D01*
X63058D01*
X63583Y94289D01*
Y93764D01*
Y94289D01*
X64108Y94814D01*
X64633D01*
X65158Y94289D01*
Y93239D01*
X64633Y92715D01*
X65158Y98228D02*
Y99278D01*
Y98753D01*
X62009D01*
X62534Y98228D01*
X65158Y102427D02*
X62009D01*
X63583Y100852D01*
Y102951D01*
X62534Y77690D02*
X62009Y77165D01*
Y76115D01*
X62534Y75590D01*
X64633D01*
X65158Y76115D01*
Y77165D01*
X64633Y77690D01*
X63583D01*
Y76640D01*
X65158Y78739D02*
X62009D01*
X65158Y80838D01*
X62009D01*
Y81888D02*
X65158D01*
Y83462D01*
X64633Y83987D01*
X62534D01*
X62009Y83462D01*
Y81888D01*
X54331Y89370D02*
Y90420D01*
Y89895D01*
X51182D01*
X51707Y89370D01*
Y91994D02*
X51182Y92519D01*
Y93568D01*
X51707Y94093D01*
X52232D01*
X52756Y93568D01*
X53281Y94093D01*
X53806D01*
X54331Y93568D01*
Y92519D01*
X53806Y91994D01*
X53281D01*
X52756Y92519D01*
X52232Y91994D01*
X51707D01*
X52756Y92519D02*
Y93568D01*
X54331Y99213D02*
Y100262D01*
Y99737D01*
X51182D01*
X51707Y99213D01*
X53806Y101836D02*
X54331Y102361D01*
Y103411D01*
X53806Y103936D01*
X51707D01*
X51182Y103411D01*
Y102361D01*
X51707Y101836D01*
X52232D01*
X52756Y102361D01*
Y103936D01*
X129463Y918D02*
X128938Y393D01*
Y-656D01*
X129463Y-1181D01*
X131562D01*
X132087Y-656D01*
Y393D01*
X131562Y918D01*
X130512D01*
Y-132D01*
X132087Y1967D02*
X128938D01*
X132087Y4067D01*
X128938D01*
Y5116D02*
X132087D01*
Y6690D01*
X131562Y7215D01*
X129463D01*
X128938Y6690D01*
Y5116D01*
X129463Y10630D02*
X128938Y11155D01*
Y12204D01*
X129463Y12729D01*
X129988D01*
X130512Y12204D01*
Y11680D01*
Y12204D01*
X131037Y12729D01*
X131562D01*
X132087Y12204D01*
Y11155D01*
X131562Y10630D01*
X128938Y13779D02*
X131037D01*
X132087Y14828D01*
X131037Y15878D01*
X128938D01*
X129463Y16927D02*
X128938Y17452D01*
Y18501D01*
X129463Y19026D01*
X129988D01*
X130512Y18501D01*
Y17977D01*
Y18501D01*
X131037Y19026D01*
X131562D01*
X132087Y18501D01*
Y17452D01*
X131562Y16927D01*
X132087Y32283D02*
Y33333D01*
Y32808D01*
X128938D01*
X129463Y32283D01*
Y34907D02*
X128938Y35432D01*
Y36482D01*
X129463Y37006D01*
X129988D01*
X130512Y36482D01*
X131037Y37006D01*
X131562D01*
X132087Y36482D01*
Y35432D01*
X131562Y34907D01*
X131037D01*
X130512Y35432D01*
X129988Y34907D01*
X129463D01*
X130512Y35432D02*
Y36482D01*
X129463Y52099D02*
X128938Y51574D01*
Y50525D01*
X129463Y50000D01*
X131562D01*
X132087Y50525D01*
Y51574D01*
X131562Y52099D01*
X130512D01*
Y51050D01*
X132087Y53149D02*
X128938D01*
X132087Y55248D01*
X128938D01*
Y56297D02*
X132087D01*
Y57872D01*
X131562Y58396D01*
X129463D01*
X128938Y57872D01*
Y56297D01*
X117323Y81627D02*
Y79528D01*
X115224Y81627D01*
X114699D01*
X114174Y81102D01*
Y80052D01*
X114699Y79528D01*
X117323Y82676D02*
Y83726D01*
Y83201D01*
X114174D01*
X114699Y82676D01*
Y68831D02*
X114174Y68307D01*
Y67257D01*
X114699Y66732D01*
X116798D01*
X117323Y67257D01*
Y68307D01*
X116798Y68831D01*
X115749D01*
Y67782D01*
X117323Y69881D02*
X114174D01*
X117323Y71980D01*
X114174D01*
Y73030D02*
X117323D01*
Y74604D01*
X116798Y75129D01*
X114699D01*
X114174Y74604D01*
Y73030D01*
X51707Y77559D02*
X51182Y78084D01*
Y79133D01*
X51707Y79658D01*
X52232D01*
X52756Y79133D01*
Y78609D01*
Y79133D01*
X53281Y79658D01*
X53806D01*
X54331Y79133D01*
Y78084D01*
X53806Y77559D01*
X51182Y80708D02*
X53281D01*
X54331Y81757D01*
X53281Y82807D01*
X51182D01*
X51707Y83856D02*
X51182Y84381D01*
Y85431D01*
X51707Y85955D01*
X52232D01*
X52756Y85431D01*
Y84906D01*
Y85431D01*
X53281Y85955D01*
X53806D01*
X54331Y85431D01*
Y84381D01*
X53806Y83856D01*
X51707Y68831D02*
X51182Y68307D01*
Y67257D01*
X51707Y66732D01*
X53806D01*
X54331Y67257D01*
Y68307D01*
X53806Y68831D01*
X52756D01*
Y67782D01*
X54331Y69881D02*
X51182D01*
X54331Y71980D01*
X51182D01*
Y73029D02*
X54331D01*
Y74604D01*
X53806Y75129D01*
X51707D01*
X51182Y74604D01*
Y73029D01*
X25787Y101312D02*
Y99213D01*
X23688Y101312D01*
X23164D01*
X22639Y100787D01*
Y99737D01*
X23164Y99213D01*
Y102361D02*
X22639Y102886D01*
Y103936D01*
X23164Y104460D01*
X23688D01*
X24213Y103936D01*
Y103411D01*
Y103936D01*
X24738Y104460D01*
X25263D01*
X25787Y103936D01*
Y102886D01*
X25263Y102361D01*
X25787Y91469D02*
Y89370D01*
X23688Y91469D01*
X23164D01*
X22639Y90944D01*
Y89895D01*
X23164Y89370D01*
X25787Y94618D02*
Y92519D01*
X23688Y94618D01*
X23164D01*
X22639Y94093D01*
Y93043D01*
X23164Y92519D01*
X22639Y80642D02*
Y78543D01*
X24213D01*
X23688Y79593D01*
Y80118D01*
X24213Y80642D01*
X25263D01*
X25787Y80118D01*
Y79068D01*
X25263Y78543D01*
X22639Y81692D02*
X24738D01*
X25787Y82741D01*
X24738Y83791D01*
X22639D01*
Y70800D02*
Y68701D01*
X24213D01*
X23688Y69750D01*
Y70275D01*
X24213Y70800D01*
X25263D01*
X25787Y70275D01*
Y69226D01*
X25263Y68701D01*
X22639Y71849D02*
X24738D01*
X25787Y72899D01*
X24738Y73948D01*
X22639D01*
X23164Y57874D02*
X22639Y58399D01*
Y59448D01*
X23164Y59973D01*
X23688D01*
X24213Y59448D01*
Y58924D01*
Y59448D01*
X24738Y59973D01*
X25263D01*
X25787Y59448D01*
Y58399D01*
X25263Y57874D01*
X22639Y61023D02*
X24738D01*
X25787Y62072D01*
X24738Y63122D01*
X22639D01*
X23164Y64171D02*
X22639Y64696D01*
Y65746D01*
X23164Y66270D01*
X23688D01*
X24213Y65746D01*
Y65221D01*
Y65746D01*
X24738Y66270D01*
X25263D01*
X25787Y65746D01*
Y64696D01*
X25263Y64171D01*
X23164Y47047D02*
X22639Y47572D01*
Y48621D01*
X23164Y49146D01*
X23688D01*
X24213Y48621D01*
Y48097D01*
Y48621D01*
X24738Y49146D01*
X25263D01*
X25787Y48621D01*
Y47572D01*
X25263Y47047D01*
X22639Y50196D02*
X24738D01*
X25787Y51245D01*
X24738Y52295D01*
X22639D01*
X23164Y53344D02*
X22639Y53869D01*
Y54919D01*
X23164Y55444D01*
X23688D01*
X24213Y54919D01*
Y54394D01*
Y54919D01*
X24738Y55444D01*
X25263D01*
X25787Y54919D01*
Y53869D01*
X25263Y53344D01*
X23164Y39304D02*
X22639Y38779D01*
Y37729D01*
X23164Y37205D01*
X25263D01*
X25787Y37729D01*
Y38779D01*
X25263Y39304D01*
X24213D01*
Y38254D01*
X25787Y40353D02*
X22639D01*
X25787Y42452D01*
X22639D01*
Y43502D02*
X25787D01*
Y45076D01*
X25263Y45601D01*
X23164D01*
X22639Y45076D01*
Y43502D01*
X23164Y28477D02*
X22639Y27952D01*
Y26903D01*
X23164Y26378D01*
X25263D01*
X25787Y26903D01*
Y27952D01*
X25263Y28477D01*
X24213D01*
Y27428D01*
X25787Y29526D02*
X22639D01*
X25787Y31626D01*
X22639D01*
Y32675D02*
X25787D01*
Y34249D01*
X25263Y34774D01*
X23164D01*
X22639Y34249D01*
Y32675D01*
X51707Y28477D02*
X51182Y27952D01*
Y26903D01*
X51707Y26378D01*
X53806D01*
X54331Y26903D01*
Y27952D01*
X53806Y28477D01*
X52756D01*
Y27428D01*
X54331Y29526D02*
X51182D01*
X54331Y31626D01*
X51182D01*
Y32675D02*
X54331D01*
Y34249D01*
X53806Y34774D01*
X51707D01*
X51182Y34249D01*
Y32675D01*
X51707Y37205D02*
X51182Y37729D01*
Y38779D01*
X51707Y39304D01*
X52232D01*
X52756Y38779D01*
Y38254D01*
Y38779D01*
X53281Y39304D01*
X53806D01*
X54331Y38779D01*
Y37729D01*
X53806Y37205D01*
X51182Y40353D02*
X53281D01*
X54331Y41403D01*
X53281Y42452D01*
X51182D01*
X51707Y43502D02*
X51182Y44027D01*
Y45076D01*
X51707Y45601D01*
X52232D01*
X52756Y45076D01*
Y44551D01*
Y45076D01*
X53281Y45601D01*
X53806D01*
X54331Y45076D01*
Y44027D01*
X53806Y43502D01*
X129463Y102296D02*
X128938Y101771D01*
Y100722D01*
X129463Y100197D01*
X131562D01*
X132087Y100722D01*
Y101771D01*
X131562Y102296D01*
X130512D01*
Y101246D01*
X132087Y103345D02*
X128938D01*
X132087Y105445D01*
X128938D01*
Y106494D02*
X132087D01*
Y108068D01*
X131562Y108593D01*
X129463D01*
X128938Y108068D01*
Y106494D01*
X129463Y111024D02*
X128938Y111548D01*
Y112598D01*
X129463Y113123D01*
X129988D01*
X130512Y112598D01*
Y112073D01*
Y112598D01*
X131037Y113123D01*
X131562D01*
X132087Y112598D01*
Y111548D01*
X131562Y111024D01*
X128938Y114172D02*
X131037D01*
X132087Y115222D01*
X131037Y116271D01*
X128938D01*
X129463Y117321D02*
X128938Y117846D01*
Y118895D01*
X129463Y119420D01*
X129988D01*
X130512Y118895D01*
Y118370D01*
Y118895D01*
X131037Y119420D01*
X131562D01*
X132087Y118895D01*
Y117846D01*
X131562Y117321D01*
X132087Y122835D02*
Y123884D01*
Y123359D01*
X128938D01*
X129463Y122835D01*
X131562Y125459D02*
X132087Y125983D01*
Y127033D01*
X131562Y127558D01*
X129463D01*
X128938Y127033D01*
Y125983D01*
X129463Y125459D01*
X129988D01*
X130512Y125983D01*
Y127558D01*
X129463Y60827D02*
X128938Y61352D01*
Y62401D01*
X129463Y62926D01*
X129988D01*
X130512Y62401D01*
Y61876D01*
Y62401D01*
X131037Y62926D01*
X131562D01*
X132087Y62401D01*
Y61352D01*
X131562Y60827D01*
X128938Y63975D02*
X131037D01*
X132087Y65025D01*
X131037Y66074D01*
X128938D01*
X129463Y67124D02*
X128938Y67649D01*
Y68698D01*
X129463Y69223D01*
X129988D01*
X130512Y68698D01*
Y68173D01*
Y68698D01*
X131037Y69223D01*
X131562D01*
X132087Y68698D01*
Y67649D01*
X131562Y67124D01*
X132087Y72638D02*
Y73687D01*
Y73163D01*
X128938D01*
X129463Y72638D01*
X131562Y75262D02*
X132087Y75786D01*
Y76836D01*
X131562Y77361D01*
X129463D01*
X128938Y76836D01*
Y75786D01*
X129463Y75262D01*
X129988D01*
X130512Y75786D01*
Y77361D01*
X132087Y82480D02*
Y83530D01*
Y83005D01*
X128938D01*
X129463Y82480D01*
Y85104D02*
X128938Y85629D01*
Y86678D01*
X129463Y87203D01*
X129988D01*
X130512Y86678D01*
X131037Y87203D01*
X131562D01*
X132087Y86678D01*
Y85629D01*
X131562Y85104D01*
X131037D01*
X130512Y85629D01*
X129988Y85104D01*
X129463D01*
X130512Y85629D02*
Y86678D01*
X132087Y23425D02*
Y24475D01*
Y23950D01*
X128938D01*
X129463Y23425D01*
X131562Y26049D02*
X132087Y26574D01*
Y27623D01*
X131562Y28148D01*
X129463D01*
X128938Y27623D01*
Y26574D01*
X129463Y26049D01*
X129988D01*
X130512Y26574D01*
Y28148D01*
X57612Y35367D02*
X57088Y34842D01*
Y33792D01*
X57612Y33268D01*
X59711D01*
X60236Y33792D01*
Y34842D01*
X59711Y35367D01*
X58662D01*
Y34317D01*
X60236Y36416D02*
X57088D01*
X60236Y38515D01*
X57088D01*
Y39565D02*
X60236D01*
Y41139D01*
X59711Y41664D01*
X57612D01*
X57088Y41139D01*
Y39565D01*
X58662Y13583D02*
Y15682D01*
X57612Y14632D02*
X59711D01*
X57088Y18830D02*
Y16731D01*
X58662D01*
X58137Y17781D01*
Y18306D01*
X58662Y18830D01*
X59711D01*
X60236Y18306D01*
Y17256D01*
X59711Y16731D01*
X57088Y19880D02*
X59187D01*
X60236Y20929D01*
X59187Y21979D01*
X57088D01*
X114699Y89501D02*
X114174Y88976D01*
Y87926D01*
X114699Y87402D01*
X116798D01*
X117323Y87926D01*
Y88976D01*
X116798Y89501D01*
X115749D01*
Y88451D01*
X117323Y90550D02*
X114174D01*
X117323Y92649D01*
X114174D01*
Y93699D02*
X117323D01*
Y95273D01*
X116798Y95798D01*
X114699D01*
X114174Y95273D01*
Y93699D01*
X117323Y102296D02*
Y100197D01*
X115224Y102296D01*
X114699D01*
X114174Y101771D01*
Y100722D01*
X114699Y100197D01*
Y103346D02*
X114174Y103870D01*
Y104920D01*
X114699Y105445D01*
X116798D01*
X117323Y104920D01*
Y103870D01*
X116798Y103346D01*
X114699D01*
X54331Y58858D02*
Y59908D01*
Y59383D01*
X51182D01*
X51707Y58858D01*
X51182Y61482D02*
Y63581D01*
X51707D01*
X53806Y61482D01*
X54331D01*
Y49016D02*
Y50065D01*
Y49540D01*
X51182D01*
X51707Y49016D01*
X51182Y53739D02*
X51707Y52689D01*
X52756Y51640D01*
X53806D01*
X54331Y52164D01*
Y53214D01*
X53806Y53739D01*
X53281D01*
X52756Y53214D01*
Y51640D01*
X120013Y42782D02*
X119489Y42258D01*
Y41208D01*
X120013Y40683D01*
X122113D01*
X122637Y41208D01*
Y42258D01*
X122113Y42782D01*
X122637Y45406D02*
X119489D01*
X121063Y43832D01*
Y45931D01*
X120013Y32940D02*
X119489Y32415D01*
Y31365D01*
X120013Y30841D01*
X122113D01*
X122637Y31365D01*
Y32415D01*
X122113Y32940D01*
X120013Y33989D02*
X119489Y34514D01*
Y35564D01*
X120013Y36088D01*
X120538D01*
X121063Y35564D01*
Y35039D01*
Y35564D01*
X121588Y36088D01*
X122113D01*
X122637Y35564D01*
Y34514D01*
X122113Y33989D01*
X120013Y23097D02*
X119489Y22572D01*
Y21523D01*
X120013Y20998D01*
X122113D01*
X122637Y21523D01*
Y22572D01*
X122113Y23097D01*
X122637Y26246D02*
Y24147D01*
X120538Y26246D01*
X120013D01*
X119489Y25721D01*
Y24672D01*
X120013Y24147D01*
Y14764D02*
X119489Y14239D01*
Y13190D01*
X120013Y12665D01*
X122113D01*
X122637Y13190D01*
Y14239D01*
X122113Y14764D01*
X122637Y15813D02*
Y16863D01*
Y16338D01*
X119489D01*
X120013Y15813D01*
X94817Y68308D02*
Y71456D01*
X96391D01*
X96916Y70931D01*
Y69882D01*
X96391Y69357D01*
X94817D01*
X95867D02*
X96916Y68308D01*
X100065Y71456D02*
X99015Y70931D01*
X97966Y69882D01*
Y68832D01*
X98491Y68308D01*
X99540D01*
X100065Y68832D01*
Y69357D01*
X99540Y69882D01*
X97966D01*
X94817Y60434D02*
Y63582D01*
X96391D01*
X96916Y63057D01*
Y62008D01*
X96391Y61483D01*
X94817D01*
X95867D02*
X96916Y60434D01*
X100065Y63582D02*
X97966D01*
Y62008D01*
X99015Y62533D01*
X99540D01*
X100065Y62008D01*
Y60958D01*
X99540Y60434D01*
X98491D01*
X97966Y60958D01*
X14108Y23032D02*
Y26181D01*
X15683D01*
X16207Y25656D01*
Y24606D01*
X15683Y24081D01*
X14108D01*
X15158D02*
X16207Y23032D01*
X18831D02*
Y26181D01*
X17257Y24606D01*
X19356D01*
X14108Y52560D02*
Y55708D01*
X15683D01*
X16207Y55183D01*
Y54134D01*
X15683Y53609D01*
X14108D01*
X15158D02*
X16207Y52560D01*
X17257Y55183D02*
X17782Y55708D01*
X18831D01*
X19356Y55183D01*
Y54659D01*
X18831Y54134D01*
X18307D01*
X18831D01*
X19356Y53609D01*
Y53084D01*
X18831Y52560D01*
X17782D01*
X17257Y53084D01*
X14108Y60434D02*
Y63582D01*
X15683D01*
X16207Y63057D01*
Y62008D01*
X15683Y61483D01*
X14108D01*
X15158D02*
X16207Y60434D01*
X19356D02*
X17257D01*
X19356Y62533D01*
Y63057D01*
X18831Y63582D01*
X17782D01*
X17257Y63057D01*
X14633Y89961D02*
Y93110D01*
X16207D01*
X16732Y92585D01*
Y91536D01*
X16207Y91011D01*
X14633D01*
X15683D02*
X16732Y89961D01*
X17782D02*
X18831D01*
X18307D01*
Y93110D01*
X17782Y92585D01*
X61483Y71456D02*
X59384D01*
Y69882D01*
X60434Y70407D01*
X60958D01*
X61483Y69882D01*
Y68832D01*
X60958Y68308D01*
X59909D01*
X59384Y68832D01*
X62533Y71456D02*
Y69357D01*
X63582Y68308D01*
X64632Y69357D01*
Y71456D01*
X55841Y63057D02*
X56366Y63582D01*
X57415D01*
X57940Y63057D01*
Y62533D01*
X57415Y62008D01*
X56891D01*
X57415D01*
X57940Y61483D01*
Y60958D01*
X57415Y60434D01*
X56366D01*
X55841Y60958D01*
X58990Y63582D02*
Y61483D01*
X60039Y60434D01*
X61089Y61483D01*
Y63582D01*
X62138Y63057D02*
X62663Y63582D01*
X63713D01*
X64237Y63057D01*
Y62533D01*
X63713Y62008D01*
X63188D01*
X63713D01*
X64237Y61483D01*
Y60958D01*
X63713Y60434D01*
X62663D01*
X62138Y60958D01*
D12*
X95538Y46719D02*
X95800Y46457D01*
X96325D01*
X96587Y46719D01*
Y47769D01*
X96325Y48031D01*
X95800D01*
X95538Y47769D01*
Y47244D01*
X96062D01*
X95013Y48031D02*
Y46457D01*
X93963Y48031D01*
Y46457D01*
X93439D02*
Y48031D01*
X92651D01*
X92389Y47769D01*
Y46719D01*
X92651Y46457D01*
X93439D01*
X101969Y22803D02*
X103543Y23852D01*
X101969D02*
X103543Y22803D01*
X101969Y24377D02*
Y25427D01*
Y24902D01*
X103543D01*
X102231Y25951D02*
X101969Y26214D01*
Y26739D01*
X102231Y27001D01*
X102494D01*
X102756Y26739D01*
Y26476D01*
Y26739D01*
X103019Y27001D01*
X103281D01*
X103543Y26739D01*
Y26214D01*
X103281Y25951D01*
X102231Y27526D02*
X101969Y27788D01*
Y28313D01*
X102231Y28575D01*
X103281D01*
X103543Y28313D01*
Y27788D01*
X103281Y27526D01*
X102231D01*
X79331Y22803D02*
X80905Y23852D01*
X79331D02*
X80905Y22803D01*
X79331Y24377D02*
Y25427D01*
Y24902D01*
X80905D01*
X79594Y25951D02*
X79331Y26214D01*
Y26739D01*
X79594Y27001D01*
X79856D01*
X80118Y26739D01*
Y26476D01*
Y26739D01*
X80381Y27001D01*
X80643D01*
X80905Y26739D01*
Y26214D01*
X80643Y25951D01*
X79594Y27526D02*
X79331Y27788D01*
Y28313D01*
X79594Y28575D01*
X80643D01*
X80905Y28313D01*
Y27788D01*
X80643Y27526D01*
X79594D01*
X72900Y46719D02*
X73162Y46457D01*
X73687D01*
X73949Y46719D01*
Y47769D01*
X73687Y48031D01*
X73162D01*
X72900Y47769D01*
Y47244D01*
X73425D01*
X72375Y48031D02*
Y46457D01*
X71326Y48031D01*
Y46457D01*
X70801D02*
Y48031D01*
X70014D01*
X69751Y47769D01*
Y46719D01*
X70014Y46457D01*
X70801D01*
D13*
X64961Y108333D02*
Y110432D01*
X66010Y111482D01*
X67060Y110432D01*
Y108333D01*
Y109907D01*
X64961D01*
X68109Y108333D02*
Y110432D01*
X69683D01*
X70208Y109907D01*
Y108333D01*
X71783Y110432D02*
X72832D01*
X73357Y109907D01*
Y108333D01*
X71783D01*
X71258Y108858D01*
X71783Y109382D01*
X73357D01*
X74406Y108333D02*
X75456D01*
X74931D01*
Y111482D01*
X74406D01*
X77555Y108333D02*
X78605D01*
X79129Y108858D01*
Y109907D01*
X78605Y110432D01*
X77555D01*
X77030Y109907D01*
Y108858D01*
X77555Y108333D01*
X81228Y107283D02*
X81753D01*
X82278Y107808D01*
Y110432D01*
X80704D01*
X80179Y109907D01*
Y108858D01*
X80704Y108333D01*
X82278D01*
X86476Y111482D02*
X87525D01*
X87001D01*
Y108333D01*
X86476D01*
X87525D01*
X89100D02*
Y110432D01*
X90674D01*
X91199Y109907D01*
Y108333D01*
X28543Y109252D02*
Y112400D01*
X29593Y111351D01*
X30642Y112400D01*
Y109252D01*
X31692D02*
X32741D01*
X32217D01*
Y111351D01*
X31692D01*
X34316Y109252D02*
X35890D01*
X36415Y109777D01*
X35890Y110301D01*
X34841D01*
X34316Y110826D01*
X34841Y111351D01*
X36415D01*
X39563D02*
X37989D01*
X37464Y110826D01*
Y109777D01*
X37989Y109252D01*
X39563D01*
X43762Y112400D02*
X44811D01*
X44286D01*
Y109252D01*
X43762D01*
X44811D01*
X47960Y112400D02*
X46910D01*
X46385Y111876D01*
Y109777D01*
X46910Y109252D01*
X47960D01*
X48484Y109777D01*
Y111876D01*
X47960Y112400D01*
X64961Y54330D02*
Y51181D01*
X67060D01*
X70208Y54330D02*
X68109D01*
Y51181D01*
X70208D01*
X68109Y52755D02*
X69159D01*
X71258Y54330D02*
Y51181D01*
X72832D01*
X73357Y51706D01*
Y53805D01*
X72832Y54330D01*
X71258D01*
X74406Y51181D02*
X76505Y53280D01*
X77555Y54330D02*
Y51181D01*
X79129D01*
X79654Y51706D01*
Y52231D01*
X79129Y52755D01*
X77555D01*
X79129D01*
X79654Y53280D01*
Y53805D01*
X79129Y54330D01*
X77555D01*
X80704D02*
Y51706D01*
X81228Y51181D01*
X82278D01*
X82803Y51706D01*
Y54330D01*
X85951Y53805D02*
X85426Y54330D01*
X84377D01*
X83852Y53805D01*
Y51706D01*
X84377Y51181D01*
X85426D01*
X85951Y51706D01*
X87001Y54330D02*
Y51181D01*
Y52231D01*
X89100Y54330D01*
X87525Y52755D01*
X89100Y51181D01*
X93298D02*
Y54330D01*
X94872D01*
X95397Y53805D01*
Y52755D01*
X94872Y52231D01*
X93298D01*
X96447Y54330D02*
Y51181D01*
X97496Y52231D01*
X98546Y51181D01*
Y54330D01*
X99595Y51181D02*
Y54330D01*
X101169D01*
X101694Y53805D01*
Y52755D01*
X101169Y52231D01*
X99595D01*
X100645D02*
X101694Y51181D01*
X99409Y111731D02*
Y108583D01*
X100984D01*
X101508Y109107D01*
Y109632D01*
X100984Y110157D01*
X99409D01*
X100984D01*
X101508Y110682D01*
Y111206D01*
X100984Y111731D01*
X99409D01*
X102558Y110682D02*
Y109107D01*
X103083Y108583D01*
X104657D01*
Y110682D01*
X106231Y111206D02*
Y110682D01*
X105707D01*
X106756D01*
X106231D01*
Y109107D01*
X106756Y108583D01*
X108855Y111206D02*
Y110682D01*
X108330D01*
X109380D01*
X108855D01*
Y109107D01*
X109380Y108583D01*
X111479D02*
X112529D01*
X113053Y109107D01*
Y110157D01*
X112529Y110682D01*
X111479D01*
X110954Y110157D01*
Y109107D01*
X111479Y108583D01*
X114103D02*
Y110682D01*
X115677D01*
X116202Y110157D01*
Y108583D01*
X117251D02*
X118826D01*
X119351Y109107D01*
X118826Y109632D01*
X117776D01*
X117251Y110157D01*
X117776Y110682D01*
X119351D01*
X152559Y-4921D02*
Y144685D01*
X0Y0D02*
Y139764D01*
Y0D02*
X47244D01*
X52165Y4921D01*
X108268D01*
X118110Y-4921D01*
X152559D01*
X118110Y144685D02*
X152559D01*
X108268Y134843D02*
X118110Y144685D01*
X52165Y134843D02*
X108268D01*
X47244Y139764D02*
X52165Y134843D01*
X0Y139764D02*
X47244D01*
M02*
