%TF.GenerationSoftware,KiCad,Pcbnew,8.0.1*%
%TF.CreationDate,2024-09-10T00:04:31-04:00*%
%TF.ProjectId,SmartLED_Shield_Breakout,536d6172-744c-4454-945f-536869656c64,1.1*%
%TF.SameCoordinates,Original*%
%TF.FileFunction,Drillmap*%
%TF.FilePolarity,Positive*%
%FSLAX45Y45*%
G04 Gerber Fmt 4.5, Leading zero omitted, Abs format (unit mm)*
G04 Created by KiCad (PCBNEW 8.0.1) date 2024-09-10 00:04:31*
%MOMM*%
%LPD*%
G01*
G04 APERTURE LIST*
%ADD10C,0.025400*%
%ADD11C,0.200000*%
%ADD12C,0.110000*%
%ADD13C,0.320000*%
G04 APERTURE END LIST*
D10*
X15250000Y-9075001D02*
X13575000Y-9075000D01*
X15375000Y-12750000D02*
X16249999Y-12750000D01*
X13575000Y-12625000D02*
X13700000Y-12500000D01*
X12375000Y-9075000D02*
X12375000Y-12625000D01*
X15125000Y-12500000D02*
X15375000Y-12750000D01*
X13575000Y-9075000D02*
X12375000Y-9075000D01*
X13700000Y-12500000D02*
X15125000Y-12500000D01*
X16249999Y-12750000D02*
X16250000Y-8950001D01*
X16250000Y-8950001D02*
X15375000Y-8950001D01*
X12375000Y-12625000D02*
X13575000Y-12625000D01*
X15375000Y-8950001D02*
X15250000Y-9075001D01*
D11*
D12*
X14662800Y-9549400D02*
X14772800Y-9659400D01*
X14772800Y-9549400D02*
X14662800Y-9659400D01*
D13*
X13385000Y-9400000D02*
G75*
G02*
X13065000Y-9400000I-160000J0D01*
G01*
X13065000Y-9400000D02*
G75*
G02*
X13385000Y-9400000I160000J0D01*
G01*
X13385000Y-12300000D02*
G75*
G02*
X13065000Y-12300000I-160000J0D01*
G01*
X13065000Y-12300000D02*
G75*
G02*
X13385000Y-12300000I160000J0D01*
G01*
D11*
X12634507Y-13062754D02*
X12634507Y-12862754D01*
X12634507Y-12862754D02*
X12682126Y-12862754D01*
X12682126Y-12862754D02*
X12710697Y-12872278D01*
X12710697Y-12872278D02*
X12729745Y-12891325D01*
X12729745Y-12891325D02*
X12739269Y-12910373D01*
X12739269Y-12910373D02*
X12748792Y-12948468D01*
X12748792Y-12948468D02*
X12748792Y-12977039D01*
X12748792Y-12977039D02*
X12739269Y-13015135D01*
X12739269Y-13015135D02*
X12729745Y-13034182D01*
X12729745Y-13034182D02*
X12710697Y-13053230D01*
X12710697Y-13053230D02*
X12682126Y-13062754D01*
X12682126Y-13062754D02*
X12634507Y-13062754D01*
X12834507Y-13062754D02*
X12834507Y-12929420D01*
X12834507Y-12967516D02*
X12844031Y-12948468D01*
X12844031Y-12948468D02*
X12853554Y-12938944D01*
X12853554Y-12938944D02*
X12872602Y-12929420D01*
X12872602Y-12929420D02*
X12891650Y-12929420D01*
X12958316Y-13062754D02*
X12958316Y-12929420D01*
X12958316Y-12862754D02*
X12948792Y-12872278D01*
X12948792Y-12872278D02*
X12958316Y-12881801D01*
X12958316Y-12881801D02*
X12967840Y-12872278D01*
X12967840Y-12872278D02*
X12958316Y-12862754D01*
X12958316Y-12862754D02*
X12958316Y-12881801D01*
X13082126Y-13062754D02*
X13063078Y-13053230D01*
X13063078Y-13053230D02*
X13053554Y-13034182D01*
X13053554Y-13034182D02*
X13053554Y-12862754D01*
X13186888Y-13062754D02*
X13167840Y-13053230D01*
X13167840Y-13053230D02*
X13158316Y-13034182D01*
X13158316Y-13034182D02*
X13158316Y-12862754D01*
X13415459Y-13062754D02*
X13415459Y-12862754D01*
X13415459Y-12862754D02*
X13482126Y-13005611D01*
X13482126Y-13005611D02*
X13548792Y-12862754D01*
X13548792Y-12862754D02*
X13548792Y-13062754D01*
X13729745Y-13062754D02*
X13729745Y-12957992D01*
X13729745Y-12957992D02*
X13720221Y-12938944D01*
X13720221Y-12938944D02*
X13701173Y-12929420D01*
X13701173Y-12929420D02*
X13663078Y-12929420D01*
X13663078Y-12929420D02*
X13644031Y-12938944D01*
X13729745Y-13053230D02*
X13710697Y-13062754D01*
X13710697Y-13062754D02*
X13663078Y-13062754D01*
X13663078Y-13062754D02*
X13644031Y-13053230D01*
X13644031Y-13053230D02*
X13634507Y-13034182D01*
X13634507Y-13034182D02*
X13634507Y-13015135D01*
X13634507Y-13015135D02*
X13644031Y-12996087D01*
X13644031Y-12996087D02*
X13663078Y-12986563D01*
X13663078Y-12986563D02*
X13710697Y-12986563D01*
X13710697Y-12986563D02*
X13729745Y-12977039D01*
X13824983Y-12929420D02*
X13824983Y-13129420D01*
X13824983Y-12938944D02*
X13844031Y-12929420D01*
X13844031Y-12929420D02*
X13882126Y-12929420D01*
X13882126Y-12929420D02*
X13901173Y-12938944D01*
X13901173Y-12938944D02*
X13910697Y-12948468D01*
X13910697Y-12948468D02*
X13920221Y-12967516D01*
X13920221Y-12967516D02*
X13920221Y-13024658D01*
X13920221Y-13024658D02*
X13910697Y-13043706D01*
X13910697Y-13043706D02*
X13901173Y-13053230D01*
X13901173Y-13053230D02*
X13882126Y-13062754D01*
X13882126Y-13062754D02*
X13844031Y-13062754D01*
X13844031Y-13062754D02*
X13824983Y-13053230D01*
X14005935Y-13043706D02*
X14015459Y-13053230D01*
X14015459Y-13053230D02*
X14005935Y-13062754D01*
X14005935Y-13062754D02*
X13996412Y-13053230D01*
X13996412Y-13053230D02*
X14005935Y-13043706D01*
X14005935Y-13043706D02*
X14005935Y-13062754D01*
X14005935Y-12938944D02*
X14015459Y-12948468D01*
X14015459Y-12948468D02*
X14005935Y-12957992D01*
X14005935Y-12957992D02*
X13996412Y-12948468D01*
X13996412Y-12948468D02*
X14005935Y-12938944D01*
X14005935Y-12938944D02*
X14005935Y-12957992D01*
D12*
X12263730Y-13336270D02*
X12373730Y-13446270D01*
X12373730Y-13336270D02*
X12263730Y-13446270D01*
D11*
X12739269Y-13482754D02*
X12624983Y-13482754D01*
X12682126Y-13482754D02*
X12682126Y-13282754D01*
X12682126Y-13282754D02*
X12663078Y-13311325D01*
X12663078Y-13311325D02*
X12644031Y-13330373D01*
X12644031Y-13330373D02*
X12624983Y-13339897D01*
X12824983Y-13463706D02*
X12834507Y-13473230D01*
X12834507Y-13473230D02*
X12824983Y-13482754D01*
X12824983Y-13482754D02*
X12815459Y-13473230D01*
X12815459Y-13473230D02*
X12824983Y-13463706D01*
X12824983Y-13463706D02*
X12824983Y-13482754D01*
X13024983Y-13482754D02*
X12910697Y-13482754D01*
X12967840Y-13482754D02*
X12967840Y-13282754D01*
X12967840Y-13282754D02*
X12948792Y-13311325D01*
X12948792Y-13311325D02*
X12929745Y-13330373D01*
X12929745Y-13330373D02*
X12910697Y-13339897D01*
X13148792Y-13282754D02*
X13167840Y-13282754D01*
X13167840Y-13282754D02*
X13186888Y-13292278D01*
X13186888Y-13292278D02*
X13196412Y-13301801D01*
X13196412Y-13301801D02*
X13205935Y-13320849D01*
X13205935Y-13320849D02*
X13215459Y-13358944D01*
X13215459Y-13358944D02*
X13215459Y-13406563D01*
X13215459Y-13406563D02*
X13205935Y-13444658D01*
X13205935Y-13444658D02*
X13196412Y-13463706D01*
X13196412Y-13463706D02*
X13186888Y-13473230D01*
X13186888Y-13473230D02*
X13167840Y-13482754D01*
X13167840Y-13482754D02*
X13148792Y-13482754D01*
X13148792Y-13482754D02*
X13129745Y-13473230D01*
X13129745Y-13473230D02*
X13120221Y-13463706D01*
X13120221Y-13463706D02*
X13110697Y-13444658D01*
X13110697Y-13444658D02*
X13101173Y-13406563D01*
X13101173Y-13406563D02*
X13101173Y-13358944D01*
X13101173Y-13358944D02*
X13110697Y-13320849D01*
X13110697Y-13320849D02*
X13120221Y-13301801D01*
X13120221Y-13301801D02*
X13129745Y-13292278D01*
X13129745Y-13292278D02*
X13148792Y-13282754D01*
X13339269Y-13282754D02*
X13358316Y-13282754D01*
X13358316Y-13282754D02*
X13377364Y-13292278D01*
X13377364Y-13292278D02*
X13386888Y-13301801D01*
X13386888Y-13301801D02*
X13396412Y-13320849D01*
X13396412Y-13320849D02*
X13405935Y-13358944D01*
X13405935Y-13358944D02*
X13405935Y-13406563D01*
X13405935Y-13406563D02*
X13396412Y-13444658D01*
X13396412Y-13444658D02*
X13386888Y-13463706D01*
X13386888Y-13463706D02*
X13377364Y-13473230D01*
X13377364Y-13473230D02*
X13358316Y-13482754D01*
X13358316Y-13482754D02*
X13339269Y-13482754D01*
X13339269Y-13482754D02*
X13320221Y-13473230D01*
X13320221Y-13473230D02*
X13310697Y-13463706D01*
X13310697Y-13463706D02*
X13301173Y-13444658D01*
X13301173Y-13444658D02*
X13291650Y-13406563D01*
X13291650Y-13406563D02*
X13291650Y-13358944D01*
X13291650Y-13358944D02*
X13301173Y-13320849D01*
X13301173Y-13320849D02*
X13310697Y-13301801D01*
X13310697Y-13301801D02*
X13320221Y-13292278D01*
X13320221Y-13292278D02*
X13339269Y-13282754D01*
X13491650Y-13482754D02*
X13491650Y-13349420D01*
X13491650Y-13368468D02*
X13501173Y-13358944D01*
X13501173Y-13358944D02*
X13520221Y-13349420D01*
X13520221Y-13349420D02*
X13548793Y-13349420D01*
X13548793Y-13349420D02*
X13567840Y-13358944D01*
X13567840Y-13358944D02*
X13577364Y-13377992D01*
X13577364Y-13377992D02*
X13577364Y-13482754D01*
X13577364Y-13377992D02*
X13586888Y-13358944D01*
X13586888Y-13358944D02*
X13605935Y-13349420D01*
X13605935Y-13349420D02*
X13634507Y-13349420D01*
X13634507Y-13349420D02*
X13653554Y-13358944D01*
X13653554Y-13358944D02*
X13663078Y-13377992D01*
X13663078Y-13377992D02*
X13663078Y-13482754D01*
X13758316Y-13482754D02*
X13758316Y-13349420D01*
X13758316Y-13368468D02*
X13767840Y-13358944D01*
X13767840Y-13358944D02*
X13786888Y-13349420D01*
X13786888Y-13349420D02*
X13815459Y-13349420D01*
X13815459Y-13349420D02*
X13834507Y-13358944D01*
X13834507Y-13358944D02*
X13844031Y-13377992D01*
X13844031Y-13377992D02*
X13844031Y-13482754D01*
X13844031Y-13377992D02*
X13853554Y-13358944D01*
X13853554Y-13358944D02*
X13872602Y-13349420D01*
X13872602Y-13349420D02*
X13901173Y-13349420D01*
X13901173Y-13349420D02*
X13920221Y-13358944D01*
X13920221Y-13358944D02*
X13929745Y-13377992D01*
X13929745Y-13377992D02*
X13929745Y-13482754D01*
X14320221Y-13273230D02*
X14148793Y-13530373D01*
X14577364Y-13282754D02*
X14596412Y-13282754D01*
X14596412Y-13282754D02*
X14615459Y-13292278D01*
X14615459Y-13292278D02*
X14624983Y-13301801D01*
X14624983Y-13301801D02*
X14634507Y-13320849D01*
X14634507Y-13320849D02*
X14644031Y-13358944D01*
X14644031Y-13358944D02*
X14644031Y-13406563D01*
X14644031Y-13406563D02*
X14634507Y-13444658D01*
X14634507Y-13444658D02*
X14624983Y-13463706D01*
X14624983Y-13463706D02*
X14615459Y-13473230D01*
X14615459Y-13473230D02*
X14596412Y-13482754D01*
X14596412Y-13482754D02*
X14577364Y-13482754D01*
X14577364Y-13482754D02*
X14558316Y-13473230D01*
X14558316Y-13473230D02*
X14548793Y-13463706D01*
X14548793Y-13463706D02*
X14539269Y-13444658D01*
X14539269Y-13444658D02*
X14529745Y-13406563D01*
X14529745Y-13406563D02*
X14529745Y-13358944D01*
X14529745Y-13358944D02*
X14539269Y-13320849D01*
X14539269Y-13320849D02*
X14548793Y-13301801D01*
X14548793Y-13301801D02*
X14558316Y-13292278D01*
X14558316Y-13292278D02*
X14577364Y-13282754D01*
X14729745Y-13463706D02*
X14739269Y-13473230D01*
X14739269Y-13473230D02*
X14729745Y-13482754D01*
X14729745Y-13482754D02*
X14720221Y-13473230D01*
X14720221Y-13473230D02*
X14729745Y-13463706D01*
X14729745Y-13463706D02*
X14729745Y-13482754D01*
X14863078Y-13282754D02*
X14882126Y-13282754D01*
X14882126Y-13282754D02*
X14901174Y-13292278D01*
X14901174Y-13292278D02*
X14910697Y-13301801D01*
X14910697Y-13301801D02*
X14920221Y-13320849D01*
X14920221Y-13320849D02*
X14929745Y-13358944D01*
X14929745Y-13358944D02*
X14929745Y-13406563D01*
X14929745Y-13406563D02*
X14920221Y-13444658D01*
X14920221Y-13444658D02*
X14910697Y-13463706D01*
X14910697Y-13463706D02*
X14901174Y-13473230D01*
X14901174Y-13473230D02*
X14882126Y-13482754D01*
X14882126Y-13482754D02*
X14863078Y-13482754D01*
X14863078Y-13482754D02*
X14844031Y-13473230D01*
X14844031Y-13473230D02*
X14834507Y-13463706D01*
X14834507Y-13463706D02*
X14824983Y-13444658D01*
X14824983Y-13444658D02*
X14815459Y-13406563D01*
X14815459Y-13406563D02*
X14815459Y-13358944D01*
X14815459Y-13358944D02*
X14824983Y-13320849D01*
X14824983Y-13320849D02*
X14834507Y-13301801D01*
X14834507Y-13301801D02*
X14844031Y-13292278D01*
X14844031Y-13292278D02*
X14863078Y-13282754D01*
X15101174Y-13349420D02*
X15101174Y-13482754D01*
X15053555Y-13273230D02*
X15005936Y-13416087D01*
X15005936Y-13416087D02*
X15129745Y-13416087D01*
X15186888Y-13282754D02*
X15310697Y-13282754D01*
X15310697Y-13282754D02*
X15244031Y-13358944D01*
X15244031Y-13358944D02*
X15272602Y-13358944D01*
X15272602Y-13358944D02*
X15291650Y-13368468D01*
X15291650Y-13368468D02*
X15301174Y-13377992D01*
X15301174Y-13377992D02*
X15310697Y-13397039D01*
X15310697Y-13397039D02*
X15310697Y-13444658D01*
X15310697Y-13444658D02*
X15301174Y-13463706D01*
X15301174Y-13463706D02*
X15291650Y-13473230D01*
X15291650Y-13473230D02*
X15272602Y-13482754D01*
X15272602Y-13482754D02*
X15215459Y-13482754D01*
X15215459Y-13482754D02*
X15196412Y-13473230D01*
X15196412Y-13473230D02*
X15186888Y-13463706D01*
X15377364Y-13282754D02*
X15501174Y-13282754D01*
X15501174Y-13282754D02*
X15434507Y-13358944D01*
X15434507Y-13358944D02*
X15463078Y-13358944D01*
X15463078Y-13358944D02*
X15482126Y-13368468D01*
X15482126Y-13368468D02*
X15491650Y-13377992D01*
X15491650Y-13377992D02*
X15501174Y-13397039D01*
X15501174Y-13397039D02*
X15501174Y-13444658D01*
X15501174Y-13444658D02*
X15491650Y-13463706D01*
X15491650Y-13463706D02*
X15482126Y-13473230D01*
X15482126Y-13473230D02*
X15463078Y-13482754D01*
X15463078Y-13482754D02*
X15405936Y-13482754D01*
X15405936Y-13482754D02*
X15386888Y-13473230D01*
X15386888Y-13473230D02*
X15377364Y-13463706D01*
X15577364Y-13282754D02*
X15577364Y-13320849D01*
X15653555Y-13282754D02*
X15653555Y-13320849D01*
X15948793Y-13558944D02*
X15939269Y-13549420D01*
X15939269Y-13549420D02*
X15920221Y-13520849D01*
X15920221Y-13520849D02*
X15910698Y-13501801D01*
X15910698Y-13501801D02*
X15901174Y-13473230D01*
X15901174Y-13473230D02*
X15891650Y-13425611D01*
X15891650Y-13425611D02*
X15891650Y-13387516D01*
X15891650Y-13387516D02*
X15901174Y-13339897D01*
X15901174Y-13339897D02*
X15910698Y-13311325D01*
X15910698Y-13311325D02*
X15920221Y-13292278D01*
X15920221Y-13292278D02*
X15939269Y-13263706D01*
X15939269Y-13263706D02*
X15948793Y-13254182D01*
X16129745Y-13482754D02*
X16015459Y-13482754D01*
X16072602Y-13482754D02*
X16072602Y-13282754D01*
X16072602Y-13282754D02*
X16053555Y-13311325D01*
X16053555Y-13311325D02*
X16034507Y-13330373D01*
X16034507Y-13330373D02*
X16015459Y-13339897D01*
X16367840Y-13482754D02*
X16367840Y-13282754D01*
X16453555Y-13482754D02*
X16453555Y-13377992D01*
X16453555Y-13377992D02*
X16444031Y-13358944D01*
X16444031Y-13358944D02*
X16424983Y-13349420D01*
X16424983Y-13349420D02*
X16396412Y-13349420D01*
X16396412Y-13349420D02*
X16377364Y-13358944D01*
X16377364Y-13358944D02*
X16367840Y-13368468D01*
X16577364Y-13482754D02*
X16558317Y-13473230D01*
X16558317Y-13473230D02*
X16548793Y-13463706D01*
X16548793Y-13463706D02*
X16539269Y-13444658D01*
X16539269Y-13444658D02*
X16539269Y-13387516D01*
X16539269Y-13387516D02*
X16548793Y-13368468D01*
X16548793Y-13368468D02*
X16558317Y-13358944D01*
X16558317Y-13358944D02*
X16577364Y-13349420D01*
X16577364Y-13349420D02*
X16605936Y-13349420D01*
X16605936Y-13349420D02*
X16624983Y-13358944D01*
X16624983Y-13358944D02*
X16634507Y-13368468D01*
X16634507Y-13368468D02*
X16644031Y-13387516D01*
X16644031Y-13387516D02*
X16644031Y-13444658D01*
X16644031Y-13444658D02*
X16634507Y-13463706D01*
X16634507Y-13463706D02*
X16624983Y-13473230D01*
X16624983Y-13473230D02*
X16605936Y-13482754D01*
X16605936Y-13482754D02*
X16577364Y-13482754D01*
X16758317Y-13482754D02*
X16739269Y-13473230D01*
X16739269Y-13473230D02*
X16729745Y-13454182D01*
X16729745Y-13454182D02*
X16729745Y-13282754D01*
X16910698Y-13473230D02*
X16891650Y-13482754D01*
X16891650Y-13482754D02*
X16853555Y-13482754D01*
X16853555Y-13482754D02*
X16834507Y-13473230D01*
X16834507Y-13473230D02*
X16824983Y-13454182D01*
X16824983Y-13454182D02*
X16824983Y-13377992D01*
X16824983Y-13377992D02*
X16834507Y-13358944D01*
X16834507Y-13358944D02*
X16853555Y-13349420D01*
X16853555Y-13349420D02*
X16891650Y-13349420D01*
X16891650Y-13349420D02*
X16910698Y-13358944D01*
X16910698Y-13358944D02*
X16920222Y-13377992D01*
X16920222Y-13377992D02*
X16920222Y-13397039D01*
X16920222Y-13397039D02*
X16824983Y-13416087D01*
X16986888Y-13558944D02*
X16996412Y-13549420D01*
X16996412Y-13549420D02*
X17015460Y-13520849D01*
X17015460Y-13520849D02*
X17024983Y-13501801D01*
X17024983Y-13501801D02*
X17034507Y-13473230D01*
X17034507Y-13473230D02*
X17044031Y-13425611D01*
X17044031Y-13425611D02*
X17044031Y-13387516D01*
X17044031Y-13387516D02*
X17034507Y-13339897D01*
X17034507Y-13339897D02*
X17024983Y-13311325D01*
X17024983Y-13311325D02*
X17015460Y-13292278D01*
X17015460Y-13292278D02*
X16996412Y-13263706D01*
X16996412Y-13263706D02*
X16986888Y-13254182D01*
X17348793Y-13558944D02*
X17339269Y-13549420D01*
X17339269Y-13549420D02*
X17320222Y-13520849D01*
X17320222Y-13520849D02*
X17310698Y-13501801D01*
X17310698Y-13501801D02*
X17301174Y-13473230D01*
X17301174Y-13473230D02*
X17291650Y-13425611D01*
X17291650Y-13425611D02*
X17291650Y-13387516D01*
X17291650Y-13387516D02*
X17301174Y-13339897D01*
X17301174Y-13339897D02*
X17310698Y-13311325D01*
X17310698Y-13311325D02*
X17320222Y-13292278D01*
X17320222Y-13292278D02*
X17339269Y-13263706D01*
X17339269Y-13263706D02*
X17348793Y-13254182D01*
X17424983Y-13349420D02*
X17424983Y-13482754D01*
X17424983Y-13368468D02*
X17434507Y-13358944D01*
X17434507Y-13358944D02*
X17453555Y-13349420D01*
X17453555Y-13349420D02*
X17482126Y-13349420D01*
X17482126Y-13349420D02*
X17501174Y-13358944D01*
X17501174Y-13358944D02*
X17510698Y-13377992D01*
X17510698Y-13377992D02*
X17510698Y-13482754D01*
X17634507Y-13482754D02*
X17615460Y-13473230D01*
X17615460Y-13473230D02*
X17605936Y-13463706D01*
X17605936Y-13463706D02*
X17596412Y-13444658D01*
X17596412Y-13444658D02*
X17596412Y-13387516D01*
X17596412Y-13387516D02*
X17605936Y-13368468D01*
X17605936Y-13368468D02*
X17615460Y-13358944D01*
X17615460Y-13358944D02*
X17634507Y-13349420D01*
X17634507Y-13349420D02*
X17663079Y-13349420D01*
X17663079Y-13349420D02*
X17682126Y-13358944D01*
X17682126Y-13358944D02*
X17691650Y-13368468D01*
X17691650Y-13368468D02*
X17701174Y-13387516D01*
X17701174Y-13387516D02*
X17701174Y-13444658D01*
X17701174Y-13444658D02*
X17691650Y-13463706D01*
X17691650Y-13463706D02*
X17682126Y-13473230D01*
X17682126Y-13473230D02*
X17663079Y-13482754D01*
X17663079Y-13482754D02*
X17634507Y-13482754D01*
X17758317Y-13349420D02*
X17834507Y-13349420D01*
X17786888Y-13282754D02*
X17786888Y-13454182D01*
X17786888Y-13454182D02*
X17796412Y-13473230D01*
X17796412Y-13473230D02*
X17815460Y-13482754D01*
X17815460Y-13482754D02*
X17834507Y-13482754D01*
X18053555Y-13349420D02*
X18053555Y-13549420D01*
X18053555Y-13358944D02*
X18072603Y-13349420D01*
X18072603Y-13349420D02*
X18110698Y-13349420D01*
X18110698Y-13349420D02*
X18129745Y-13358944D01*
X18129745Y-13358944D02*
X18139269Y-13368468D01*
X18139269Y-13368468D02*
X18148793Y-13387516D01*
X18148793Y-13387516D02*
X18148793Y-13444658D01*
X18148793Y-13444658D02*
X18139269Y-13463706D01*
X18139269Y-13463706D02*
X18129745Y-13473230D01*
X18129745Y-13473230D02*
X18110698Y-13482754D01*
X18110698Y-13482754D02*
X18072603Y-13482754D01*
X18072603Y-13482754D02*
X18053555Y-13473230D01*
X18263079Y-13482754D02*
X18244031Y-13473230D01*
X18244031Y-13473230D02*
X18234507Y-13454182D01*
X18234507Y-13454182D02*
X18234507Y-13282754D01*
X18424984Y-13482754D02*
X18424984Y-13377992D01*
X18424984Y-13377992D02*
X18415460Y-13358944D01*
X18415460Y-13358944D02*
X18396412Y-13349420D01*
X18396412Y-13349420D02*
X18358317Y-13349420D01*
X18358317Y-13349420D02*
X18339269Y-13358944D01*
X18424984Y-13473230D02*
X18405936Y-13482754D01*
X18405936Y-13482754D02*
X18358317Y-13482754D01*
X18358317Y-13482754D02*
X18339269Y-13473230D01*
X18339269Y-13473230D02*
X18329745Y-13454182D01*
X18329745Y-13454182D02*
X18329745Y-13435135D01*
X18329745Y-13435135D02*
X18339269Y-13416087D01*
X18339269Y-13416087D02*
X18358317Y-13406563D01*
X18358317Y-13406563D02*
X18405936Y-13406563D01*
X18405936Y-13406563D02*
X18424984Y-13397039D01*
X18491650Y-13349420D02*
X18567841Y-13349420D01*
X18520222Y-13282754D02*
X18520222Y-13454182D01*
X18520222Y-13454182D02*
X18529745Y-13473230D01*
X18529745Y-13473230D02*
X18548793Y-13482754D01*
X18548793Y-13482754D02*
X18567841Y-13482754D01*
X18710698Y-13473230D02*
X18691650Y-13482754D01*
X18691650Y-13482754D02*
X18653555Y-13482754D01*
X18653555Y-13482754D02*
X18634507Y-13473230D01*
X18634507Y-13473230D02*
X18624984Y-13454182D01*
X18624984Y-13454182D02*
X18624984Y-13377992D01*
X18624984Y-13377992D02*
X18634507Y-13358944D01*
X18634507Y-13358944D02*
X18653555Y-13349420D01*
X18653555Y-13349420D02*
X18691650Y-13349420D01*
X18691650Y-13349420D02*
X18710698Y-13358944D01*
X18710698Y-13358944D02*
X18720222Y-13377992D01*
X18720222Y-13377992D02*
X18720222Y-13397039D01*
X18720222Y-13397039D02*
X18624984Y-13416087D01*
X18891650Y-13482754D02*
X18891650Y-13282754D01*
X18891650Y-13473230D02*
X18872603Y-13482754D01*
X18872603Y-13482754D02*
X18834507Y-13482754D01*
X18834507Y-13482754D02*
X18815460Y-13473230D01*
X18815460Y-13473230D02*
X18805936Y-13463706D01*
X18805936Y-13463706D02*
X18796412Y-13444658D01*
X18796412Y-13444658D02*
X18796412Y-13387516D01*
X18796412Y-13387516D02*
X18805936Y-13368468D01*
X18805936Y-13368468D02*
X18815460Y-13358944D01*
X18815460Y-13358944D02*
X18834507Y-13349420D01*
X18834507Y-13349420D02*
X18872603Y-13349420D01*
X18872603Y-13349420D02*
X18891650Y-13358944D01*
X18967841Y-13558944D02*
X18977365Y-13549420D01*
X18977365Y-13549420D02*
X18996412Y-13520849D01*
X18996412Y-13520849D02*
X19005936Y-13501801D01*
X19005936Y-13501801D02*
X19015460Y-13473230D01*
X19015460Y-13473230D02*
X19024984Y-13425611D01*
X19024984Y-13425611D02*
X19024984Y-13387516D01*
X19024984Y-13387516D02*
X19015460Y-13339897D01*
X19015460Y-13339897D02*
X19005936Y-13311325D01*
X19005936Y-13311325D02*
X18996412Y-13292278D01*
X18996412Y-13292278D02*
X18977365Y-13263706D01*
X18977365Y-13263706D02*
X18967841Y-13254182D01*
X12373730Y-13655270D02*
G75*
G02*
X12173730Y-13655270I-100000J0D01*
G01*
X12173730Y-13655270D02*
G75*
G02*
X12373730Y-13655270I100000J0D01*
G01*
X12615459Y-13546754D02*
X12739269Y-13546754D01*
X12739269Y-13546754D02*
X12672602Y-13622944D01*
X12672602Y-13622944D02*
X12701173Y-13622944D01*
X12701173Y-13622944D02*
X12720221Y-13632468D01*
X12720221Y-13632468D02*
X12729745Y-13641992D01*
X12729745Y-13641992D02*
X12739269Y-13661039D01*
X12739269Y-13661039D02*
X12739269Y-13708658D01*
X12739269Y-13708658D02*
X12729745Y-13727706D01*
X12729745Y-13727706D02*
X12720221Y-13737230D01*
X12720221Y-13737230D02*
X12701173Y-13746754D01*
X12701173Y-13746754D02*
X12644031Y-13746754D01*
X12644031Y-13746754D02*
X12624983Y-13737230D01*
X12624983Y-13737230D02*
X12615459Y-13727706D01*
X12824983Y-13727706D02*
X12834507Y-13737230D01*
X12834507Y-13737230D02*
X12824983Y-13746754D01*
X12824983Y-13746754D02*
X12815459Y-13737230D01*
X12815459Y-13737230D02*
X12824983Y-13727706D01*
X12824983Y-13727706D02*
X12824983Y-13746754D01*
X12910697Y-13565801D02*
X12920221Y-13556278D01*
X12920221Y-13556278D02*
X12939269Y-13546754D01*
X12939269Y-13546754D02*
X12986888Y-13546754D01*
X12986888Y-13546754D02*
X13005935Y-13556278D01*
X13005935Y-13556278D02*
X13015459Y-13565801D01*
X13015459Y-13565801D02*
X13024983Y-13584849D01*
X13024983Y-13584849D02*
X13024983Y-13603897D01*
X13024983Y-13603897D02*
X13015459Y-13632468D01*
X13015459Y-13632468D02*
X12901173Y-13746754D01*
X12901173Y-13746754D02*
X13024983Y-13746754D01*
X13148792Y-13546754D02*
X13167840Y-13546754D01*
X13167840Y-13546754D02*
X13186888Y-13556278D01*
X13186888Y-13556278D02*
X13196412Y-13565801D01*
X13196412Y-13565801D02*
X13205935Y-13584849D01*
X13205935Y-13584849D02*
X13215459Y-13622944D01*
X13215459Y-13622944D02*
X13215459Y-13670563D01*
X13215459Y-13670563D02*
X13205935Y-13708658D01*
X13205935Y-13708658D02*
X13196412Y-13727706D01*
X13196412Y-13727706D02*
X13186888Y-13737230D01*
X13186888Y-13737230D02*
X13167840Y-13746754D01*
X13167840Y-13746754D02*
X13148792Y-13746754D01*
X13148792Y-13746754D02*
X13129745Y-13737230D01*
X13129745Y-13737230D02*
X13120221Y-13727706D01*
X13120221Y-13727706D02*
X13110697Y-13708658D01*
X13110697Y-13708658D02*
X13101173Y-13670563D01*
X13101173Y-13670563D02*
X13101173Y-13622944D01*
X13101173Y-13622944D02*
X13110697Y-13584849D01*
X13110697Y-13584849D02*
X13120221Y-13565801D01*
X13120221Y-13565801D02*
X13129745Y-13556278D01*
X13129745Y-13556278D02*
X13148792Y-13546754D01*
X13339269Y-13546754D02*
X13358316Y-13546754D01*
X13358316Y-13546754D02*
X13377364Y-13556278D01*
X13377364Y-13556278D02*
X13386888Y-13565801D01*
X13386888Y-13565801D02*
X13396412Y-13584849D01*
X13396412Y-13584849D02*
X13405935Y-13622944D01*
X13405935Y-13622944D02*
X13405935Y-13670563D01*
X13405935Y-13670563D02*
X13396412Y-13708658D01*
X13396412Y-13708658D02*
X13386888Y-13727706D01*
X13386888Y-13727706D02*
X13377364Y-13737230D01*
X13377364Y-13737230D02*
X13358316Y-13746754D01*
X13358316Y-13746754D02*
X13339269Y-13746754D01*
X13339269Y-13746754D02*
X13320221Y-13737230D01*
X13320221Y-13737230D02*
X13310697Y-13727706D01*
X13310697Y-13727706D02*
X13301173Y-13708658D01*
X13301173Y-13708658D02*
X13291650Y-13670563D01*
X13291650Y-13670563D02*
X13291650Y-13622944D01*
X13291650Y-13622944D02*
X13301173Y-13584849D01*
X13301173Y-13584849D02*
X13310697Y-13565801D01*
X13310697Y-13565801D02*
X13320221Y-13556278D01*
X13320221Y-13556278D02*
X13339269Y-13546754D01*
X13491650Y-13746754D02*
X13491650Y-13613420D01*
X13491650Y-13632468D02*
X13501173Y-13622944D01*
X13501173Y-13622944D02*
X13520221Y-13613420D01*
X13520221Y-13613420D02*
X13548793Y-13613420D01*
X13548793Y-13613420D02*
X13567840Y-13622944D01*
X13567840Y-13622944D02*
X13577364Y-13641992D01*
X13577364Y-13641992D02*
X13577364Y-13746754D01*
X13577364Y-13641992D02*
X13586888Y-13622944D01*
X13586888Y-13622944D02*
X13605935Y-13613420D01*
X13605935Y-13613420D02*
X13634507Y-13613420D01*
X13634507Y-13613420D02*
X13653554Y-13622944D01*
X13653554Y-13622944D02*
X13663078Y-13641992D01*
X13663078Y-13641992D02*
X13663078Y-13746754D01*
X13758316Y-13746754D02*
X13758316Y-13613420D01*
X13758316Y-13632468D02*
X13767840Y-13622944D01*
X13767840Y-13622944D02*
X13786888Y-13613420D01*
X13786888Y-13613420D02*
X13815459Y-13613420D01*
X13815459Y-13613420D02*
X13834507Y-13622944D01*
X13834507Y-13622944D02*
X13844031Y-13641992D01*
X13844031Y-13641992D02*
X13844031Y-13746754D01*
X13844031Y-13641992D02*
X13853554Y-13622944D01*
X13853554Y-13622944D02*
X13872602Y-13613420D01*
X13872602Y-13613420D02*
X13901173Y-13613420D01*
X13901173Y-13613420D02*
X13920221Y-13622944D01*
X13920221Y-13622944D02*
X13929745Y-13641992D01*
X13929745Y-13641992D02*
X13929745Y-13746754D01*
X14320221Y-13537230D02*
X14148793Y-13794373D01*
X14577364Y-13546754D02*
X14596412Y-13546754D01*
X14596412Y-13546754D02*
X14615459Y-13556278D01*
X14615459Y-13556278D02*
X14624983Y-13565801D01*
X14624983Y-13565801D02*
X14634507Y-13584849D01*
X14634507Y-13584849D02*
X14644031Y-13622944D01*
X14644031Y-13622944D02*
X14644031Y-13670563D01*
X14644031Y-13670563D02*
X14634507Y-13708658D01*
X14634507Y-13708658D02*
X14624983Y-13727706D01*
X14624983Y-13727706D02*
X14615459Y-13737230D01*
X14615459Y-13737230D02*
X14596412Y-13746754D01*
X14596412Y-13746754D02*
X14577364Y-13746754D01*
X14577364Y-13746754D02*
X14558316Y-13737230D01*
X14558316Y-13737230D02*
X14548793Y-13727706D01*
X14548793Y-13727706D02*
X14539269Y-13708658D01*
X14539269Y-13708658D02*
X14529745Y-13670563D01*
X14529745Y-13670563D02*
X14529745Y-13622944D01*
X14529745Y-13622944D02*
X14539269Y-13584849D01*
X14539269Y-13584849D02*
X14548793Y-13565801D01*
X14548793Y-13565801D02*
X14558316Y-13556278D01*
X14558316Y-13556278D02*
X14577364Y-13546754D01*
X14729745Y-13727706D02*
X14739269Y-13737230D01*
X14739269Y-13737230D02*
X14729745Y-13746754D01*
X14729745Y-13746754D02*
X14720221Y-13737230D01*
X14720221Y-13737230D02*
X14729745Y-13727706D01*
X14729745Y-13727706D02*
X14729745Y-13746754D01*
X14929745Y-13746754D02*
X14815459Y-13746754D01*
X14872602Y-13746754D02*
X14872602Y-13546754D01*
X14872602Y-13546754D02*
X14853555Y-13575325D01*
X14853555Y-13575325D02*
X14834507Y-13594373D01*
X14834507Y-13594373D02*
X14815459Y-13603897D01*
X15005936Y-13565801D02*
X15015459Y-13556278D01*
X15015459Y-13556278D02*
X15034507Y-13546754D01*
X15034507Y-13546754D02*
X15082126Y-13546754D01*
X15082126Y-13546754D02*
X15101174Y-13556278D01*
X15101174Y-13556278D02*
X15110697Y-13565801D01*
X15110697Y-13565801D02*
X15120221Y-13584849D01*
X15120221Y-13584849D02*
X15120221Y-13603897D01*
X15120221Y-13603897D02*
X15110697Y-13632468D01*
X15110697Y-13632468D02*
X14996412Y-13746754D01*
X14996412Y-13746754D02*
X15120221Y-13746754D01*
X15291650Y-13546754D02*
X15253555Y-13546754D01*
X15253555Y-13546754D02*
X15234507Y-13556278D01*
X15234507Y-13556278D02*
X15224983Y-13565801D01*
X15224983Y-13565801D02*
X15205936Y-13594373D01*
X15205936Y-13594373D02*
X15196412Y-13632468D01*
X15196412Y-13632468D02*
X15196412Y-13708658D01*
X15196412Y-13708658D02*
X15205936Y-13727706D01*
X15205936Y-13727706D02*
X15215459Y-13737230D01*
X15215459Y-13737230D02*
X15234507Y-13746754D01*
X15234507Y-13746754D02*
X15272602Y-13746754D01*
X15272602Y-13746754D02*
X15291650Y-13737230D01*
X15291650Y-13737230D02*
X15301174Y-13727706D01*
X15301174Y-13727706D02*
X15310697Y-13708658D01*
X15310697Y-13708658D02*
X15310697Y-13661039D01*
X15310697Y-13661039D02*
X15301174Y-13641992D01*
X15301174Y-13641992D02*
X15291650Y-13632468D01*
X15291650Y-13632468D02*
X15272602Y-13622944D01*
X15272602Y-13622944D02*
X15234507Y-13622944D01*
X15234507Y-13622944D02*
X15215459Y-13632468D01*
X15215459Y-13632468D02*
X15205936Y-13641992D01*
X15205936Y-13641992D02*
X15196412Y-13661039D01*
X15434507Y-13546754D02*
X15453555Y-13546754D01*
X15453555Y-13546754D02*
X15472602Y-13556278D01*
X15472602Y-13556278D02*
X15482126Y-13565801D01*
X15482126Y-13565801D02*
X15491650Y-13584849D01*
X15491650Y-13584849D02*
X15501174Y-13622944D01*
X15501174Y-13622944D02*
X15501174Y-13670563D01*
X15501174Y-13670563D02*
X15491650Y-13708658D01*
X15491650Y-13708658D02*
X15482126Y-13727706D01*
X15482126Y-13727706D02*
X15472602Y-13737230D01*
X15472602Y-13737230D02*
X15453555Y-13746754D01*
X15453555Y-13746754D02*
X15434507Y-13746754D01*
X15434507Y-13746754D02*
X15415459Y-13737230D01*
X15415459Y-13737230D02*
X15405936Y-13727706D01*
X15405936Y-13727706D02*
X15396412Y-13708658D01*
X15396412Y-13708658D02*
X15386888Y-13670563D01*
X15386888Y-13670563D02*
X15386888Y-13622944D01*
X15386888Y-13622944D02*
X15396412Y-13584849D01*
X15396412Y-13584849D02*
X15405936Y-13565801D01*
X15405936Y-13565801D02*
X15415459Y-13556278D01*
X15415459Y-13556278D02*
X15434507Y-13546754D01*
X15577364Y-13546754D02*
X15577364Y-13584849D01*
X15653555Y-13546754D02*
X15653555Y-13584849D01*
X15948793Y-13822944D02*
X15939269Y-13813420D01*
X15939269Y-13813420D02*
X15920221Y-13784849D01*
X15920221Y-13784849D02*
X15910698Y-13765801D01*
X15910698Y-13765801D02*
X15901174Y-13737230D01*
X15901174Y-13737230D02*
X15891650Y-13689611D01*
X15891650Y-13689611D02*
X15891650Y-13651516D01*
X15891650Y-13651516D02*
X15901174Y-13603897D01*
X15901174Y-13603897D02*
X15910698Y-13575325D01*
X15910698Y-13575325D02*
X15920221Y-13556278D01*
X15920221Y-13556278D02*
X15939269Y-13527706D01*
X15939269Y-13527706D02*
X15948793Y-13518182D01*
X16015459Y-13565801D02*
X16024983Y-13556278D01*
X16024983Y-13556278D02*
X16044031Y-13546754D01*
X16044031Y-13546754D02*
X16091650Y-13546754D01*
X16091650Y-13546754D02*
X16110698Y-13556278D01*
X16110698Y-13556278D02*
X16120221Y-13565801D01*
X16120221Y-13565801D02*
X16129745Y-13584849D01*
X16129745Y-13584849D02*
X16129745Y-13603897D01*
X16129745Y-13603897D02*
X16120221Y-13632468D01*
X16120221Y-13632468D02*
X16005936Y-13746754D01*
X16005936Y-13746754D02*
X16129745Y-13746754D01*
X16367840Y-13746754D02*
X16367840Y-13546754D01*
X16453555Y-13746754D02*
X16453555Y-13641992D01*
X16453555Y-13641992D02*
X16444031Y-13622944D01*
X16444031Y-13622944D02*
X16424983Y-13613420D01*
X16424983Y-13613420D02*
X16396412Y-13613420D01*
X16396412Y-13613420D02*
X16377364Y-13622944D01*
X16377364Y-13622944D02*
X16367840Y-13632468D01*
X16577364Y-13746754D02*
X16558317Y-13737230D01*
X16558317Y-13737230D02*
X16548793Y-13727706D01*
X16548793Y-13727706D02*
X16539269Y-13708658D01*
X16539269Y-13708658D02*
X16539269Y-13651516D01*
X16539269Y-13651516D02*
X16548793Y-13632468D01*
X16548793Y-13632468D02*
X16558317Y-13622944D01*
X16558317Y-13622944D02*
X16577364Y-13613420D01*
X16577364Y-13613420D02*
X16605936Y-13613420D01*
X16605936Y-13613420D02*
X16624983Y-13622944D01*
X16624983Y-13622944D02*
X16634507Y-13632468D01*
X16634507Y-13632468D02*
X16644031Y-13651516D01*
X16644031Y-13651516D02*
X16644031Y-13708658D01*
X16644031Y-13708658D02*
X16634507Y-13727706D01*
X16634507Y-13727706D02*
X16624983Y-13737230D01*
X16624983Y-13737230D02*
X16605936Y-13746754D01*
X16605936Y-13746754D02*
X16577364Y-13746754D01*
X16758317Y-13746754D02*
X16739269Y-13737230D01*
X16739269Y-13737230D02*
X16729745Y-13718182D01*
X16729745Y-13718182D02*
X16729745Y-13546754D01*
X16910698Y-13737230D02*
X16891650Y-13746754D01*
X16891650Y-13746754D02*
X16853555Y-13746754D01*
X16853555Y-13746754D02*
X16834507Y-13737230D01*
X16834507Y-13737230D02*
X16824983Y-13718182D01*
X16824983Y-13718182D02*
X16824983Y-13641992D01*
X16824983Y-13641992D02*
X16834507Y-13622944D01*
X16834507Y-13622944D02*
X16853555Y-13613420D01*
X16853555Y-13613420D02*
X16891650Y-13613420D01*
X16891650Y-13613420D02*
X16910698Y-13622944D01*
X16910698Y-13622944D02*
X16920222Y-13641992D01*
X16920222Y-13641992D02*
X16920222Y-13661039D01*
X16920222Y-13661039D02*
X16824983Y-13680087D01*
X16996412Y-13737230D02*
X17015460Y-13746754D01*
X17015460Y-13746754D02*
X17053555Y-13746754D01*
X17053555Y-13746754D02*
X17072603Y-13737230D01*
X17072603Y-13737230D02*
X17082126Y-13718182D01*
X17082126Y-13718182D02*
X17082126Y-13708658D01*
X17082126Y-13708658D02*
X17072603Y-13689611D01*
X17072603Y-13689611D02*
X17053555Y-13680087D01*
X17053555Y-13680087D02*
X17024983Y-13680087D01*
X17024983Y-13680087D02*
X17005936Y-13670563D01*
X17005936Y-13670563D02*
X16996412Y-13651516D01*
X16996412Y-13651516D02*
X16996412Y-13641992D01*
X16996412Y-13641992D02*
X17005936Y-13622944D01*
X17005936Y-13622944D02*
X17024983Y-13613420D01*
X17024983Y-13613420D02*
X17053555Y-13613420D01*
X17053555Y-13613420D02*
X17072603Y-13622944D01*
X17148793Y-13822944D02*
X17158317Y-13813420D01*
X17158317Y-13813420D02*
X17177364Y-13784849D01*
X17177364Y-13784849D02*
X17186888Y-13765801D01*
X17186888Y-13765801D02*
X17196412Y-13737230D01*
X17196412Y-13737230D02*
X17205936Y-13689611D01*
X17205936Y-13689611D02*
X17205936Y-13651516D01*
X17205936Y-13651516D02*
X17196412Y-13603897D01*
X17196412Y-13603897D02*
X17186888Y-13575325D01*
X17186888Y-13575325D02*
X17177364Y-13556278D01*
X17177364Y-13556278D02*
X17158317Y-13527706D01*
X17158317Y-13527706D02*
X17148793Y-13518182D01*
X17510698Y-13822944D02*
X17501174Y-13813420D01*
X17501174Y-13813420D02*
X17482126Y-13784849D01*
X17482126Y-13784849D02*
X17472603Y-13765801D01*
X17472603Y-13765801D02*
X17463079Y-13737230D01*
X17463079Y-13737230D02*
X17453555Y-13689611D01*
X17453555Y-13689611D02*
X17453555Y-13651516D01*
X17453555Y-13651516D02*
X17463079Y-13603897D01*
X17463079Y-13603897D02*
X17472603Y-13575325D01*
X17472603Y-13575325D02*
X17482126Y-13556278D01*
X17482126Y-13556278D02*
X17501174Y-13527706D01*
X17501174Y-13527706D02*
X17510698Y-13518182D01*
X17586888Y-13613420D02*
X17586888Y-13746754D01*
X17586888Y-13632468D02*
X17596412Y-13622944D01*
X17596412Y-13622944D02*
X17615460Y-13613420D01*
X17615460Y-13613420D02*
X17644031Y-13613420D01*
X17644031Y-13613420D02*
X17663079Y-13622944D01*
X17663079Y-13622944D02*
X17672603Y-13641992D01*
X17672603Y-13641992D02*
X17672603Y-13746754D01*
X17796412Y-13746754D02*
X17777364Y-13737230D01*
X17777364Y-13737230D02*
X17767841Y-13727706D01*
X17767841Y-13727706D02*
X17758317Y-13708658D01*
X17758317Y-13708658D02*
X17758317Y-13651516D01*
X17758317Y-13651516D02*
X17767841Y-13632468D01*
X17767841Y-13632468D02*
X17777364Y-13622944D01*
X17777364Y-13622944D02*
X17796412Y-13613420D01*
X17796412Y-13613420D02*
X17824984Y-13613420D01*
X17824984Y-13613420D02*
X17844031Y-13622944D01*
X17844031Y-13622944D02*
X17853555Y-13632468D01*
X17853555Y-13632468D02*
X17863079Y-13651516D01*
X17863079Y-13651516D02*
X17863079Y-13708658D01*
X17863079Y-13708658D02*
X17853555Y-13727706D01*
X17853555Y-13727706D02*
X17844031Y-13737230D01*
X17844031Y-13737230D02*
X17824984Y-13746754D01*
X17824984Y-13746754D02*
X17796412Y-13746754D01*
X17920222Y-13613420D02*
X17996412Y-13613420D01*
X17948793Y-13546754D02*
X17948793Y-13718182D01*
X17948793Y-13718182D02*
X17958317Y-13737230D01*
X17958317Y-13737230D02*
X17977364Y-13746754D01*
X17977364Y-13746754D02*
X17996412Y-13746754D01*
X18215460Y-13613420D02*
X18215460Y-13813420D01*
X18215460Y-13622944D02*
X18234507Y-13613420D01*
X18234507Y-13613420D02*
X18272603Y-13613420D01*
X18272603Y-13613420D02*
X18291650Y-13622944D01*
X18291650Y-13622944D02*
X18301174Y-13632468D01*
X18301174Y-13632468D02*
X18310698Y-13651516D01*
X18310698Y-13651516D02*
X18310698Y-13708658D01*
X18310698Y-13708658D02*
X18301174Y-13727706D01*
X18301174Y-13727706D02*
X18291650Y-13737230D01*
X18291650Y-13737230D02*
X18272603Y-13746754D01*
X18272603Y-13746754D02*
X18234507Y-13746754D01*
X18234507Y-13746754D02*
X18215460Y-13737230D01*
X18424984Y-13746754D02*
X18405936Y-13737230D01*
X18405936Y-13737230D02*
X18396412Y-13718182D01*
X18396412Y-13718182D02*
X18396412Y-13546754D01*
X18586888Y-13746754D02*
X18586888Y-13641992D01*
X18586888Y-13641992D02*
X18577365Y-13622944D01*
X18577365Y-13622944D02*
X18558317Y-13613420D01*
X18558317Y-13613420D02*
X18520222Y-13613420D01*
X18520222Y-13613420D02*
X18501174Y-13622944D01*
X18586888Y-13737230D02*
X18567841Y-13746754D01*
X18567841Y-13746754D02*
X18520222Y-13746754D01*
X18520222Y-13746754D02*
X18501174Y-13737230D01*
X18501174Y-13737230D02*
X18491650Y-13718182D01*
X18491650Y-13718182D02*
X18491650Y-13699135D01*
X18491650Y-13699135D02*
X18501174Y-13680087D01*
X18501174Y-13680087D02*
X18520222Y-13670563D01*
X18520222Y-13670563D02*
X18567841Y-13670563D01*
X18567841Y-13670563D02*
X18586888Y-13661039D01*
X18653555Y-13613420D02*
X18729745Y-13613420D01*
X18682126Y-13546754D02*
X18682126Y-13718182D01*
X18682126Y-13718182D02*
X18691650Y-13737230D01*
X18691650Y-13737230D02*
X18710698Y-13746754D01*
X18710698Y-13746754D02*
X18729745Y-13746754D01*
X18872603Y-13737230D02*
X18853555Y-13746754D01*
X18853555Y-13746754D02*
X18815460Y-13746754D01*
X18815460Y-13746754D02*
X18796412Y-13737230D01*
X18796412Y-13737230D02*
X18786888Y-13718182D01*
X18786888Y-13718182D02*
X18786888Y-13641992D01*
X18786888Y-13641992D02*
X18796412Y-13622944D01*
X18796412Y-13622944D02*
X18815460Y-13613420D01*
X18815460Y-13613420D02*
X18853555Y-13613420D01*
X18853555Y-13613420D02*
X18872603Y-13622944D01*
X18872603Y-13622944D02*
X18882126Y-13641992D01*
X18882126Y-13641992D02*
X18882126Y-13661039D01*
X18882126Y-13661039D02*
X18786888Y-13680087D01*
X19053555Y-13746754D02*
X19053555Y-13546754D01*
X19053555Y-13737230D02*
X19034507Y-13746754D01*
X19034507Y-13746754D02*
X18996412Y-13746754D01*
X18996412Y-13746754D02*
X18977365Y-13737230D01*
X18977365Y-13737230D02*
X18967841Y-13727706D01*
X18967841Y-13727706D02*
X18958317Y-13708658D01*
X18958317Y-13708658D02*
X18958317Y-13651516D01*
X18958317Y-13651516D02*
X18967841Y-13632468D01*
X18967841Y-13632468D02*
X18977365Y-13622944D01*
X18977365Y-13622944D02*
X18996412Y-13613420D01*
X18996412Y-13613420D02*
X19034507Y-13613420D01*
X19034507Y-13613420D02*
X19053555Y-13622944D01*
X19129746Y-13822944D02*
X19139269Y-13813420D01*
X19139269Y-13813420D02*
X19158317Y-13784849D01*
X19158317Y-13784849D02*
X19167841Y-13765801D01*
X19167841Y-13765801D02*
X19177365Y-13737230D01*
X19177365Y-13737230D02*
X19186888Y-13689611D01*
X19186888Y-13689611D02*
X19186888Y-13651516D01*
X19186888Y-13651516D02*
X19177365Y-13603897D01*
X19177365Y-13603897D02*
X19167841Y-13575325D01*
X19167841Y-13575325D02*
X19158317Y-13556278D01*
X19158317Y-13556278D02*
X19139269Y-13527706D01*
X19139269Y-13527706D02*
X19129746Y-13518182D01*
M02*
