M48
; DRILL file {KiCad 8.0.1} date 2024-09-10T00:04:28-0400
; FORMAT={-:-/ absolute / inch / decimal}
; #@! TF.CreationDate,2024-09-10T00:04:28-04:00
; #@! TF.GenerationSoftware,Kicad,Pcbnew,8.0.1
; #@! TF.FileFunction,Plated,1,2,PTH
FMAT,2
INCH
; #@! TA.AperFunction,Plated,PTH,ViaDrill
T1C0.0118
; #@! TA.AperFunction,Plated,PTH,ViaDrill
T2C0.0157
; #@! TA.AperFunction,Plated,PTH,ComponentDrill
T3C0.0374
; #@! TA.AperFunction,Plated,PTH,ComponentDrill
T4C0.0394
; #@! TA.AperFunction,Plated,PTH,ComponentDrill
T5C0.0402
; #@! TA.AperFunction,Plated,PTH,ComponentDrill
T6C0.0709
%
G90
G05
T1
X5.0213Y-3.7913
X5.0263Y-3.8263
X5.0413Y-3.9913
X5.0413Y-4.4013
X5.1213Y-3.8913
X5.1313Y-3.9313
X5.2713Y-4.2513
X5.4113Y-4.1613
X5.4213Y-3.8813
X5.4413Y-4.5113
X6.0913Y-3.7213
X6.0913Y-4.0713
X6.0913Y-4.2213
X6.1413Y-4.5213
T2
X5.7113Y-3.7013
X5.8469Y-4.3209
X5.9713Y-3.7913
X6.0913Y-3.5913
T3
X5.6006Y-3.7444
X5.6006Y-3.8428
X5.6006Y-3.9413
X6.2992Y-3.622
X6.2992Y-3.7205
X6.2992Y-3.8189
X6.2992Y-3.9173
X6.2992Y-4.124
X6.2992Y-4.2224
X6.2992Y-4.3209
X6.2992Y-4.4193
X6.2992Y-4.626
X6.2992Y-4.7244
X6.2992Y-4.8228
X6.2992Y-4.9213
T4
X4.9213Y-3.6213
X4.9213Y-3.7213
X4.9213Y-3.8213
X4.9213Y-3.9213
X4.9213Y-4.0213
X4.9213Y-4.1213
X4.9213Y-4.2213
X4.9213Y-4.3213
X4.9213Y-4.4213
X4.9213Y-4.5213
X4.9213Y-4.6213
X4.9213Y-4.7213
X4.9213Y-4.8213
X4.9213Y-4.9213
X5.2213Y-3.9213
X5.2213Y-4.0213
X5.2213Y-4.1213
X5.2213Y-4.2213
X5.2213Y-4.3213
X5.2213Y-4.4213
X5.2213Y-4.5213
X5.2213Y-4.6213
X5.3213Y-3.9213
X5.3213Y-4.0213
X5.3213Y-4.1213
X5.3213Y-4.2213
X5.3213Y-4.3213
X5.3213Y-4.4213
X5.3213Y-4.5213
X5.3213Y-4.6213
X5.5907Y-4.177
X5.6907Y-4.177
X5.7907Y-4.177
X5.9913Y-4.1113
X5.9913Y-4.2113
X5.9913Y-4.3113
X5.9913Y-4.4113
T5
X5.8794Y-3.6813
X5.8794Y-3.7813
X5.8794Y-3.8813
X5.8794Y-3.9813
T6
X5.5669Y-4.5971
X5.5669Y-4.7939
X5.8169Y-4.5965
X5.8169Y-4.7933
M30
