M48
;Layer_Color=9474304
;FILE_FORMAT=2:5
INCH,LZ
;TYPE=PLATED
T01F00S00C0.01968
T02F00S00C0.02362
T03F00S00C0.03543
T04F00S00C0.09055
;TYPE=NON_PLATED
T05F00S00C0.12598
%
T01
X0060039Y0050197
X0097441Y0057087
Y0074803
X005649Y0104318
X001799Y0098891
X0021891Y0083925
X0021654Y0064961
X0019685Y0058071
T02
X0015748Y000689
X0054134Y0012795
X0051181Y0018701
X0054134Y0024606
Y0036417
X0060039
X0057087Y0030512
X0060039Y0024606
X0057087Y0018701
X0060039Y0012795
X0083661Y0024606
Y0036417
Y0048228
X0089567
X0095472
X0101378
X0086614Y0054134
X0080709
X0074803
X0068898
X0065945Y0048228
X007185
X0077756
X0125
X0127953Y0042323
X0122047
X0125Y0036417
X0130905
X0127953Y0030512
X0122047
X0125Y0024606
X0130905
X0127953Y0018701
X0122047
X0125Y0012795
X0130905
X0133858Y000689
X0127953
X0122047
X0119094Y0000984
X0125
X0130905
X0101378Y0024606
X0095472Y0083661
X0125
X0127953Y0077756
X0122047
X0148622Y0095472
X0127953Y0125
X0122047
X0116142
X0110236
X0104331
X0098425
X009252
X0086614
X0080709
X0074803
X0068898
X0062992
X0057087
X0060039Y0130905
X0065945
X007185
X0077756
X0083661
X0089567
X0095472
X0101378
X0107283
X0113189
X0119094
X0125
X0130905
X0133858Y0136811
X0127953
X0122047
X0116142
X0060039Y0119094
X0054134
X0048228
X0051181Y0125
X0054134Y0130905
X0012795Y0119094
T03
X0004921Y0004921
Y0014921
Y0024921
Y0034921
Y0044921
Y0054921
X003248Y0051496
Y0041496
Y0031496
X0044291Y0031496
Y0041496
Y0051496
X0142717Y0055118
Y0034449
Y0024606
Y0014764
Y0004921
Y0064961
Y0074803
Y0084646
Y0105315
Y0115157
Y0125
Y0134843
X0107283Y010185
Y009185
Y008185
Y007185
X0083661Y0080709
Y0090709
Y0100709
X007185
Y0090709
Y0080709
X0044291Y0081535
Y0071535
Y0061496
X003248Y0061496
Y0071496
Y0081496
Y0091496
Y0101496
X0044291Y0101535
Y0091535
X0004921Y0094921
Y0104921
Y0114921
Y0124921
Y0134921
Y0084921
Y0074921
Y0064921
T04
X007185Y0017717
Y0037402
X0094488
Y0017717
T05
X0033465Y0012795
Y0126969
M30
