%TF.GenerationSoftware,KiCad,Pcbnew,8.0.1*%
%TF.CreationDate,2024-09-10T20:12:53-04:00*%
%TF.ProjectId,SmartLED_Shield_Breakout,536d6172-744c-4454-945f-536869656c64,1.1*%
%TF.SameCoordinates,Original*%
%TF.FileFunction,Legend,Top*%
%TF.FilePolarity,Positive*%
%FSLAX46Y46*%
G04 Gerber Fmt 4.6, Leading zero omitted, Abs format (unit mm)*
G04 Created by KiCad (PCBNEW 8.0.1) date 2024-09-10 20:12:53*
%MOMM*%
%LPD*%
G01*
G04 APERTURE LIST*
%ADD10C,0.120000*%
%ADD11C,0.152400*%
%ADD12C,0.190500*%
%ADD13C,0.203200*%
%ADD14C,0.100000*%
%ADD15C,0.150000*%
G04 APERTURE END LIST*
D10*
X133890000Y-98270000D02*
X133890000Y-116110000D01*
X136430000Y-108490000D02*
X133890000Y-108490000D01*
D11*
X129986169Y-102768951D02*
X129946860Y-102729642D01*
X129946860Y-102729642D02*
X129907550Y-102651023D01*
X129907550Y-102651023D02*
X129907550Y-102454475D01*
X129907550Y-102454475D02*
X129946860Y-102375856D01*
X129946860Y-102375856D02*
X129986169Y-102336547D01*
X129986169Y-102336547D02*
X130064788Y-102297237D01*
X130064788Y-102297237D02*
X130143407Y-102297237D01*
X130143407Y-102297237D02*
X130261336Y-102336547D01*
X130261336Y-102336547D02*
X130733050Y-102808261D01*
X130733050Y-102808261D02*
X130733050Y-102297237D01*
X129986169Y-101982761D02*
X129946860Y-101943452D01*
X129946860Y-101943452D02*
X129907550Y-101864833D01*
X129907550Y-101864833D02*
X129907550Y-101668285D01*
X129907550Y-101668285D02*
X129946860Y-101589666D01*
X129946860Y-101589666D02*
X129986169Y-101550357D01*
X129986169Y-101550357D02*
X130064788Y-101511047D01*
X130064788Y-101511047D02*
X130143407Y-101511047D01*
X130143407Y-101511047D02*
X130261336Y-101550357D01*
X130261336Y-101550357D02*
X130733050Y-102022071D01*
X130733050Y-102022071D02*
X130733050Y-101511047D01*
X156265714Y-96548467D02*
X156776738Y-96548467D01*
X156776738Y-96548467D02*
X156501571Y-96862943D01*
X156501571Y-96862943D02*
X156619500Y-96862943D01*
X156619500Y-96862943D02*
X156698119Y-96902253D01*
X156698119Y-96902253D02*
X156737428Y-96941562D01*
X156737428Y-96941562D02*
X156776738Y-97020181D01*
X156776738Y-97020181D02*
X156776738Y-97216729D01*
X156776738Y-97216729D02*
X156737428Y-97295348D01*
X156737428Y-97295348D02*
X156698119Y-97334658D01*
X156698119Y-97334658D02*
X156619500Y-97373967D01*
X156619500Y-97373967D02*
X156383643Y-97373967D01*
X156383643Y-97373967D02*
X156305024Y-97334658D01*
X156305024Y-97334658D02*
X156265714Y-97295348D01*
X157012595Y-96548467D02*
X157287761Y-97373967D01*
X157287761Y-97373967D02*
X157562928Y-96548467D01*
X157759475Y-96548467D02*
X158270499Y-96548467D01*
X158270499Y-96548467D02*
X157995332Y-96862943D01*
X157995332Y-96862943D02*
X158113261Y-96862943D01*
X158113261Y-96862943D02*
X158191880Y-96902253D01*
X158191880Y-96902253D02*
X158231189Y-96941562D01*
X158231189Y-96941562D02*
X158270499Y-97020181D01*
X158270499Y-97020181D02*
X158270499Y-97216729D01*
X158270499Y-97216729D02*
X158231189Y-97295348D01*
X158231189Y-97295348D02*
X158191880Y-97334658D01*
X158191880Y-97334658D02*
X158113261Y-97373967D01*
X158113261Y-97373967D02*
X157877404Y-97373967D01*
X157877404Y-97373967D02*
X157798785Y-97334658D01*
X157798785Y-97334658D02*
X157759475Y-97295348D01*
X156305023Y-120334658D02*
X156422951Y-120373967D01*
X156422951Y-120373967D02*
X156619499Y-120373967D01*
X156619499Y-120373967D02*
X156698118Y-120334658D01*
X156698118Y-120334658D02*
X156737427Y-120295348D01*
X156737427Y-120295348D02*
X156776737Y-120216729D01*
X156776737Y-120216729D02*
X156776737Y-120138110D01*
X156776737Y-120138110D02*
X156737427Y-120059491D01*
X156737427Y-120059491D02*
X156698118Y-120020181D01*
X156698118Y-120020181D02*
X156619499Y-119980872D01*
X156619499Y-119980872D02*
X156462261Y-119941562D01*
X156462261Y-119941562D02*
X156383642Y-119902253D01*
X156383642Y-119902253D02*
X156344332Y-119862943D01*
X156344332Y-119862943D02*
X156305023Y-119784324D01*
X156305023Y-119784324D02*
X156305023Y-119705705D01*
X156305023Y-119705705D02*
X156344332Y-119627086D01*
X156344332Y-119627086D02*
X156383642Y-119587777D01*
X156383642Y-119587777D02*
X156462261Y-119548467D01*
X156462261Y-119548467D02*
X156658808Y-119548467D01*
X156658808Y-119548467D02*
X156776737Y-119587777D01*
X157602236Y-120295348D02*
X157562927Y-120334658D01*
X157562927Y-120334658D02*
X157444998Y-120373967D01*
X157444998Y-120373967D02*
X157366379Y-120373967D01*
X157366379Y-120373967D02*
X157248451Y-120334658D01*
X157248451Y-120334658D02*
X157169832Y-120256038D01*
X157169832Y-120256038D02*
X157130522Y-120177419D01*
X157130522Y-120177419D02*
X157091213Y-120020181D01*
X157091213Y-120020181D02*
X157091213Y-119902253D01*
X157091213Y-119902253D02*
X157130522Y-119745015D01*
X157130522Y-119745015D02*
X157169832Y-119666396D01*
X157169832Y-119666396D02*
X157248451Y-119587777D01*
X157248451Y-119587777D02*
X157366379Y-119548467D01*
X157366379Y-119548467D02*
X157444998Y-119548467D01*
X157444998Y-119548467D02*
X157562927Y-119587777D01*
X157562927Y-119587777D02*
X157602236Y-119627086D01*
X158349117Y-120373967D02*
X157956022Y-120373967D01*
X157956022Y-120373967D02*
X157956022Y-119548467D01*
X136969384Y-115862046D02*
X136969384Y-115351022D01*
X136969384Y-115351022D02*
X137283860Y-115626189D01*
X137283860Y-115626189D02*
X137283860Y-115508260D01*
X137283860Y-115508260D02*
X137323170Y-115429641D01*
X137323170Y-115429641D02*
X137362479Y-115390332D01*
X137362479Y-115390332D02*
X137441098Y-115351022D01*
X137441098Y-115351022D02*
X137637646Y-115351022D01*
X137637646Y-115351022D02*
X137716265Y-115390332D01*
X137716265Y-115390332D02*
X137755575Y-115429641D01*
X137755575Y-115429641D02*
X137794884Y-115508260D01*
X137794884Y-115508260D02*
X137794884Y-115744117D01*
X137794884Y-115744117D02*
X137755575Y-115822736D01*
X137755575Y-115822736D02*
X137716265Y-115862046D01*
X136969384Y-115115165D02*
X137794884Y-114839999D01*
X137794884Y-114839999D02*
X136969384Y-114564832D01*
X136969384Y-114368285D02*
X136969384Y-113857261D01*
X136969384Y-113857261D02*
X137283860Y-114132428D01*
X137283860Y-114132428D02*
X137283860Y-114014499D01*
X137283860Y-114014499D02*
X137323170Y-113935880D01*
X137323170Y-113935880D02*
X137362479Y-113896571D01*
X137362479Y-113896571D02*
X137441098Y-113857261D01*
X137441098Y-113857261D02*
X137637646Y-113857261D01*
X137637646Y-113857261D02*
X137716265Y-113896571D01*
X137716265Y-113896571D02*
X137755575Y-113935880D01*
X137755575Y-113935880D02*
X137794884Y-114014499D01*
X137794884Y-114014499D02*
X137794884Y-114250356D01*
X137794884Y-114250356D02*
X137755575Y-114328975D01*
X137755575Y-114328975D02*
X137716265Y-114368285D01*
G36*
X147983918Y-103487853D02*
G01*
X148041141Y-103543762D01*
X148071329Y-103602045D01*
X148107515Y-103741866D01*
X148108613Y-103841455D01*
X148074945Y-103981029D01*
X148044585Y-104043974D01*
X147987254Y-104102653D01*
X147899564Y-104132911D01*
X147788020Y-104133684D01*
X147786845Y-103459231D01*
X147892667Y-103458498D01*
X147983918Y-103487853D01*
G37*
G36*
X148351588Y-104376972D02*
G01*
X145814411Y-104376972D01*
X145814411Y-103737336D01*
X145906133Y-103737336D01*
X145907387Y-103851141D01*
X145906223Y-103858968D01*
X145907574Y-103868109D01*
X145907597Y-103870130D01*
X145908026Y-103871167D01*
X145908408Y-103873745D01*
X145947625Y-104025276D01*
X145948148Y-104032629D01*
X145952411Y-104043770D01*
X145952743Y-104045050D01*
X145953070Y-104045492D01*
X145953487Y-104046580D01*
X145994042Y-104124880D01*
X145997594Y-104133455D01*
X146000004Y-104136392D01*
X146000755Y-104137841D01*
X146002275Y-104139159D01*
X146007070Y-104145002D01*
X146078578Y-104214869D01*
X146079374Y-104216461D01*
X146086793Y-104222895D01*
X146097236Y-104233099D01*
X146099765Y-104234146D01*
X146101834Y-104235941D01*
X146115475Y-104242031D01*
X146233442Y-104279979D01*
X146242633Y-104283786D01*
X146246443Y-104284161D01*
X146247969Y-104284652D01*
X146249977Y-104284509D01*
X146257499Y-104285250D01*
X146336627Y-104284010D01*
X146345648Y-104284652D01*
X146349343Y-104283811D01*
X146350984Y-104283786D01*
X146352842Y-104283016D01*
X146360214Y-104281340D01*
X146467048Y-104244476D01*
X146468914Y-104244476D01*
X146478222Y-104240620D01*
X146491784Y-104235941D01*
X146493853Y-104234146D01*
X146496382Y-104233099D01*
X146507929Y-104223622D01*
X146556715Y-104172765D01*
X146568092Y-104145296D01*
X146569556Y-104130431D01*
X146568092Y-103840398D01*
X146556714Y-103812930D01*
X146535690Y-103791906D01*
X146508222Y-103780528D01*
X146493356Y-103779064D01*
X146321252Y-103780528D01*
X146293784Y-103791906D01*
X146272760Y-103812930D01*
X146261382Y-103840398D01*
X146261382Y-103870130D01*
X146272760Y-103897598D01*
X146293784Y-103918622D01*
X146321252Y-103930000D01*
X146336118Y-103931464D01*
X146417537Y-103930771D01*
X146418383Y-104098535D01*
X146414215Y-104102880D01*
X146326946Y-104132993D01*
X146272535Y-104133845D01*
X146182079Y-104104747D01*
X146124857Y-104048838D01*
X146094669Y-103990554D01*
X146058483Y-103850733D01*
X146057385Y-103751144D01*
X146091053Y-103611570D01*
X146121412Y-103548627D01*
X146178745Y-103489947D01*
X146266545Y-103459650D01*
X146355783Y-103458666D01*
X146433920Y-103496354D01*
X146463577Y-103498462D01*
X146491783Y-103489059D01*
X146514244Y-103469580D01*
X146527541Y-103442987D01*
X146529649Y-103413330D01*
X146520246Y-103385124D01*
X146518881Y-103383550D01*
X146770942Y-103383550D01*
X146772406Y-104223916D01*
X146783784Y-104251384D01*
X146804808Y-104272408D01*
X146832276Y-104283786D01*
X146862008Y-104283786D01*
X146889476Y-104272408D01*
X146910500Y-104251384D01*
X146921878Y-104223916D01*
X146923342Y-104209050D01*
X146922399Y-103667967D01*
X147251709Y-104242238D01*
X147255498Y-104251384D01*
X147258911Y-104254797D01*
X147261342Y-104259036D01*
X147269356Y-104265242D01*
X147276522Y-104272408D01*
X147281010Y-104274267D01*
X147284849Y-104277240D01*
X147294620Y-104279904D01*
X147303990Y-104283786D01*
X147308852Y-104283786D01*
X147313534Y-104285063D01*
X147323580Y-104283786D01*
X147333722Y-104283786D01*
X147338211Y-104281926D01*
X147343028Y-104281314D01*
X147351825Y-104276287D01*
X147361190Y-104272408D01*
X147364624Y-104268973D01*
X147368843Y-104266563D01*
X147375047Y-104258550D01*
X147382214Y-104251384D01*
X147384073Y-104246894D01*
X147387046Y-104243056D01*
X147389710Y-104233286D01*
X147393592Y-104223916D01*
X147394341Y-104216306D01*
X147394869Y-104214372D01*
X147394679Y-104212877D01*
X147395056Y-104209050D01*
X147393618Y-103383550D01*
X147635752Y-103383550D01*
X147637216Y-104223916D01*
X147648594Y-104251384D01*
X147669618Y-104272408D01*
X147697086Y-104283786D01*
X147711952Y-104285250D01*
X147907402Y-104283896D01*
X147918030Y-104284652D01*
X147921790Y-104283796D01*
X147923366Y-104283786D01*
X147925224Y-104283016D01*
X147932596Y-104281340D01*
X148039429Y-104244476D01*
X148041295Y-104244476D01*
X148050603Y-104240620D01*
X148064165Y-104235941D01*
X148066234Y-104234146D01*
X148068763Y-104233099D01*
X148080310Y-104223622D01*
X148157887Y-104144221D01*
X148165244Y-104137841D01*
X148167278Y-104134608D01*
X148168406Y-104133455D01*
X148169177Y-104131592D01*
X148173202Y-104125199D01*
X148209256Y-104050447D01*
X148213256Y-104045050D01*
X148217244Y-104033885D01*
X148217851Y-104032629D01*
X148217890Y-104032080D01*
X148218282Y-104030983D01*
X148255245Y-103877751D01*
X148258402Y-103870130D01*
X148259311Y-103860892D01*
X148259776Y-103858968D01*
X148259610Y-103857856D01*
X148259866Y-103855264D01*
X148258611Y-103741458D01*
X148259776Y-103733632D01*
X148258424Y-103724490D01*
X148258402Y-103722470D01*
X148257972Y-103721432D01*
X148257591Y-103718855D01*
X148218373Y-103567323D01*
X148217851Y-103559971D01*
X148213587Y-103548829D01*
X148213256Y-103547550D01*
X148212928Y-103547107D01*
X148212512Y-103546020D01*
X148171956Y-103467719D01*
X148168405Y-103459144D01*
X148165993Y-103456205D01*
X148165244Y-103454759D01*
X148163724Y-103453441D01*
X148158928Y-103447597D01*
X148087420Y-103377731D01*
X148086625Y-103376141D01*
X148079205Y-103369705D01*
X148068762Y-103359502D01*
X148066234Y-103358455D01*
X148064165Y-103356660D01*
X148050525Y-103350570D01*
X147932553Y-103312619D01*
X147923366Y-103308814D01*
X147919556Y-103308438D01*
X147918031Y-103307948D01*
X147916022Y-103308090D01*
X147908500Y-103307350D01*
X147697086Y-103308814D01*
X147669618Y-103320192D01*
X147648594Y-103341216D01*
X147637216Y-103368684D01*
X147635752Y-103383550D01*
X147393618Y-103383550D01*
X147393592Y-103368684D01*
X147382214Y-103341216D01*
X147361190Y-103320192D01*
X147333722Y-103308814D01*
X147303990Y-103308814D01*
X147276522Y-103320192D01*
X147255498Y-103341216D01*
X147244120Y-103368684D01*
X147242656Y-103383550D01*
X147243598Y-103924632D01*
X146914289Y-103350363D01*
X146910500Y-103341216D01*
X146907085Y-103337801D01*
X146904655Y-103333563D01*
X146896639Y-103327355D01*
X146889476Y-103320192D01*
X146884990Y-103318333D01*
X146881149Y-103315359D01*
X146871370Y-103312692D01*
X146862008Y-103308814D01*
X146857150Y-103308814D01*
X146852464Y-103307536D01*
X146842410Y-103308814D01*
X146832276Y-103308814D01*
X146827789Y-103310672D01*
X146822970Y-103311285D01*
X146814168Y-103316314D01*
X146804808Y-103320192D01*
X146801373Y-103323626D01*
X146797155Y-103326037D01*
X146790947Y-103334052D01*
X146783784Y-103341216D01*
X146781925Y-103345701D01*
X146778951Y-103349543D01*
X146776284Y-103359321D01*
X146772406Y-103368684D01*
X146771657Y-103376287D01*
X146771128Y-103378228D01*
X146771318Y-103379726D01*
X146770942Y-103383550D01*
X146518881Y-103383550D01*
X146500767Y-103362663D01*
X146488125Y-103354705D01*
X146418872Y-103321302D01*
X146417762Y-103320192D01*
X146409317Y-103316694D01*
X146395555Y-103310056D01*
X146392823Y-103309861D01*
X146390294Y-103308814D01*
X146375428Y-103307350D01*
X146257798Y-103308646D01*
X146247968Y-103307948D01*
X146244238Y-103308796D01*
X146242633Y-103308814D01*
X146240772Y-103309584D01*
X146233402Y-103311261D01*
X146126569Y-103348125D01*
X146124705Y-103348125D01*
X146115400Y-103351978D01*
X146101834Y-103356660D01*
X146099765Y-103358454D01*
X146097236Y-103359502D01*
X146085689Y-103368979D01*
X146008118Y-103448373D01*
X146000755Y-103454759D01*
X145998718Y-103457993D01*
X145997594Y-103459145D01*
X145996824Y-103461003D01*
X145992797Y-103467401D01*
X145956742Y-103542152D01*
X145952743Y-103547550D01*
X145948754Y-103558714D01*
X145948148Y-103559971D01*
X145948108Y-103560519D01*
X145947717Y-103561617D01*
X145910753Y-103714848D01*
X145907597Y-103722470D01*
X145906687Y-103731707D01*
X145906223Y-103733632D01*
X145906388Y-103734743D01*
X145906133Y-103737336D01*
X145814411Y-103737336D01*
X145814411Y-103215628D01*
X148351588Y-103215628D01*
X148351588Y-104376972D01*
G37*
X156265714Y-92334658D02*
X156383642Y-92373967D01*
X156383642Y-92373967D02*
X156580190Y-92373967D01*
X156580190Y-92373967D02*
X156658809Y-92334658D01*
X156658809Y-92334658D02*
X156698118Y-92295348D01*
X156698118Y-92295348D02*
X156737428Y-92216729D01*
X156737428Y-92216729D02*
X156737428Y-92138110D01*
X156737428Y-92138110D02*
X156698118Y-92059491D01*
X156698118Y-92059491D02*
X156658809Y-92020181D01*
X156658809Y-92020181D02*
X156580190Y-91980872D01*
X156580190Y-91980872D02*
X156422952Y-91941562D01*
X156422952Y-91941562D02*
X156344333Y-91902253D01*
X156344333Y-91902253D02*
X156305023Y-91862943D01*
X156305023Y-91862943D02*
X156265714Y-91784324D01*
X156265714Y-91784324D02*
X156265714Y-91705705D01*
X156265714Y-91705705D02*
X156305023Y-91627086D01*
X156305023Y-91627086D02*
X156344333Y-91587777D01*
X156344333Y-91587777D02*
X156422952Y-91548467D01*
X156422952Y-91548467D02*
X156619499Y-91548467D01*
X156619499Y-91548467D02*
X156737428Y-91587777D01*
X157091213Y-92373967D02*
X157091213Y-91548467D01*
X157091213Y-91548467D02*
X157287761Y-91548467D01*
X157287761Y-91548467D02*
X157405689Y-91587777D01*
X157405689Y-91587777D02*
X157484308Y-91666396D01*
X157484308Y-91666396D02*
X157523618Y-91745015D01*
X157523618Y-91745015D02*
X157562927Y-91902253D01*
X157562927Y-91902253D02*
X157562927Y-92020181D01*
X157562927Y-92020181D02*
X157523618Y-92177419D01*
X157523618Y-92177419D02*
X157484308Y-92256038D01*
X157484308Y-92256038D02*
X157405689Y-92334658D01*
X157405689Y-92334658D02*
X157287761Y-92373967D01*
X157287761Y-92373967D02*
X157091213Y-92373967D01*
X157877404Y-92138110D02*
X158270499Y-92138110D01*
X157798785Y-92373967D02*
X158073951Y-91548467D01*
X158073951Y-91548467D02*
X158349118Y-92373967D01*
X129907550Y-110782046D02*
X129907550Y-110271022D01*
X129907550Y-110271022D02*
X130222026Y-110546189D01*
X130222026Y-110546189D02*
X130222026Y-110428260D01*
X130222026Y-110428260D02*
X130261336Y-110349641D01*
X130261336Y-110349641D02*
X130300645Y-110310332D01*
X130300645Y-110310332D02*
X130379264Y-110271022D01*
X130379264Y-110271022D02*
X130575812Y-110271022D01*
X130575812Y-110271022D02*
X130654431Y-110310332D01*
X130654431Y-110310332D02*
X130693741Y-110349641D01*
X130693741Y-110349641D02*
X130733050Y-110428260D01*
X130733050Y-110428260D02*
X130733050Y-110664117D01*
X130733050Y-110664117D02*
X130693741Y-110742736D01*
X130693741Y-110742736D02*
X130654431Y-110782046D01*
X129907550Y-110035165D02*
X130733050Y-109759999D01*
X130733050Y-109759999D02*
X129907550Y-109484832D01*
X129907550Y-109288285D02*
X129907550Y-108777261D01*
X129907550Y-108777261D02*
X130222026Y-109052428D01*
X130222026Y-109052428D02*
X130222026Y-108934499D01*
X130222026Y-108934499D02*
X130261336Y-108855880D01*
X130261336Y-108855880D02*
X130300645Y-108816571D01*
X130300645Y-108816571D02*
X130379264Y-108777261D01*
X130379264Y-108777261D02*
X130575812Y-108777261D01*
X130575812Y-108777261D02*
X130654431Y-108816571D01*
X130654431Y-108816571D02*
X130693741Y-108855880D01*
X130693741Y-108855880D02*
X130733050Y-108934499D01*
X130733050Y-108934499D02*
X130733050Y-109170356D01*
X130733050Y-109170356D02*
X130693741Y-109248975D01*
X130693741Y-109248975D02*
X130654431Y-109288285D01*
X129907550Y-104837237D02*
X129907550Y-105230332D01*
X129907550Y-105230332D02*
X130300645Y-105269641D01*
X130300645Y-105269641D02*
X130261336Y-105230332D01*
X130261336Y-105230332D02*
X130222026Y-105151713D01*
X130222026Y-105151713D02*
X130222026Y-104955165D01*
X130222026Y-104955165D02*
X130261336Y-104876546D01*
X130261336Y-104876546D02*
X130300645Y-104837237D01*
X130300645Y-104837237D02*
X130379264Y-104797927D01*
X130379264Y-104797927D02*
X130575812Y-104797927D01*
X130575812Y-104797927D02*
X130654431Y-104837237D01*
X130654431Y-104837237D02*
X130693741Y-104876546D01*
X130693741Y-104876546D02*
X130733050Y-104955165D01*
X130733050Y-104955165D02*
X130733050Y-105151713D01*
X130733050Y-105151713D02*
X130693741Y-105230332D01*
X130693741Y-105230332D02*
X130654431Y-105269641D01*
X129907550Y-104562070D02*
X130733050Y-104286904D01*
X130733050Y-104286904D02*
X129907550Y-104011737D01*
X137755575Y-103122737D02*
X137794884Y-103004809D01*
X137794884Y-103004809D02*
X137794884Y-102808261D01*
X137794884Y-102808261D02*
X137755575Y-102729642D01*
X137755575Y-102729642D02*
X137716265Y-102690333D01*
X137716265Y-102690333D02*
X137637646Y-102651023D01*
X137637646Y-102651023D02*
X137559027Y-102651023D01*
X137559027Y-102651023D02*
X137480408Y-102690333D01*
X137480408Y-102690333D02*
X137441098Y-102729642D01*
X137441098Y-102729642D02*
X137401789Y-102808261D01*
X137401789Y-102808261D02*
X137362479Y-102965499D01*
X137362479Y-102965499D02*
X137323170Y-103044118D01*
X137323170Y-103044118D02*
X137283860Y-103083428D01*
X137283860Y-103083428D02*
X137205241Y-103122737D01*
X137205241Y-103122737D02*
X137126622Y-103122737D01*
X137126622Y-103122737D02*
X137048003Y-103083428D01*
X137048003Y-103083428D02*
X137008694Y-103044118D01*
X137008694Y-103044118D02*
X136969384Y-102965499D01*
X136969384Y-102965499D02*
X136969384Y-102768952D01*
X136969384Y-102768952D02*
X137008694Y-102651023D01*
X137716265Y-101825524D02*
X137755575Y-101864833D01*
X137755575Y-101864833D02*
X137794884Y-101982762D01*
X137794884Y-101982762D02*
X137794884Y-102061381D01*
X137794884Y-102061381D02*
X137755575Y-102179309D01*
X137755575Y-102179309D02*
X137676955Y-102257928D01*
X137676955Y-102257928D02*
X137598336Y-102297238D01*
X137598336Y-102297238D02*
X137441098Y-102336547D01*
X137441098Y-102336547D02*
X137323170Y-102336547D01*
X137323170Y-102336547D02*
X137165932Y-102297238D01*
X137165932Y-102297238D02*
X137087313Y-102257928D01*
X137087313Y-102257928D02*
X137008694Y-102179309D01*
X137008694Y-102179309D02*
X136969384Y-102061381D01*
X136969384Y-102061381D02*
X136969384Y-101982762D01*
X136969384Y-101982762D02*
X137008694Y-101864833D01*
X137008694Y-101864833D02*
X137048003Y-101825524D01*
X137794884Y-101078643D02*
X137794884Y-101471738D01*
X137794884Y-101471738D02*
X136969384Y-101471738D01*
X156265714Y-122048467D02*
X156776738Y-122048467D01*
X156776738Y-122048467D02*
X156501571Y-122362943D01*
X156501571Y-122362943D02*
X156619500Y-122362943D01*
X156619500Y-122362943D02*
X156698119Y-122402253D01*
X156698119Y-122402253D02*
X156737428Y-122441562D01*
X156737428Y-122441562D02*
X156776738Y-122520181D01*
X156776738Y-122520181D02*
X156776738Y-122716729D01*
X156776738Y-122716729D02*
X156737428Y-122795348D01*
X156737428Y-122795348D02*
X156698119Y-122834658D01*
X156698119Y-122834658D02*
X156619500Y-122873967D01*
X156619500Y-122873967D02*
X156383643Y-122873967D01*
X156383643Y-122873967D02*
X156305024Y-122834658D01*
X156305024Y-122834658D02*
X156265714Y-122795348D01*
X157012595Y-122048467D02*
X157287761Y-122873967D01*
X157287761Y-122873967D02*
X157562928Y-122048467D01*
X157759475Y-122048467D02*
X158270499Y-122048467D01*
X158270499Y-122048467D02*
X157995332Y-122362943D01*
X157995332Y-122362943D02*
X158113261Y-122362943D01*
X158113261Y-122362943D02*
X158191880Y-122402253D01*
X158191880Y-122402253D02*
X158231189Y-122441562D01*
X158231189Y-122441562D02*
X158270499Y-122520181D01*
X158270499Y-122520181D02*
X158270499Y-122716729D01*
X158270499Y-122716729D02*
X158231189Y-122795348D01*
X158231189Y-122795348D02*
X158191880Y-122834658D01*
X158191880Y-122834658D02*
X158113261Y-122873967D01*
X158113261Y-122873967D02*
X157877404Y-122873967D01*
X157877404Y-122873967D02*
X157798785Y-122834658D01*
X157798785Y-122834658D02*
X157759475Y-122795348D01*
X141845762Y-104209050D02*
X141374048Y-104209050D01*
X141609905Y-104209050D02*
X141609905Y-103383550D01*
X141609905Y-103383550D02*
X141531286Y-103501479D01*
X141531286Y-103501479D02*
X141452667Y-103580098D01*
X141452667Y-103580098D02*
X141374048Y-103619407D01*
X142553333Y-103658717D02*
X142553333Y-104209050D01*
X142356785Y-103344241D02*
X142160238Y-103933883D01*
X142160238Y-103933883D02*
X142671261Y-103933883D01*
D12*
X149196874Y-103373713D02*
X149196874Y-103736571D01*
X148979160Y-103301142D02*
X149741160Y-103555142D01*
X149741160Y-103555142D02*
X148979160Y-103809142D01*
X149487160Y-104063142D02*
X148979160Y-104063142D01*
X149414588Y-104063142D02*
X149450874Y-104099428D01*
X149450874Y-104099428D02*
X149487160Y-104171999D01*
X149487160Y-104171999D02*
X149487160Y-104280856D01*
X149487160Y-104280856D02*
X149450874Y-104353428D01*
X149450874Y-104353428D02*
X149378303Y-104389714D01*
X149378303Y-104389714D02*
X148979160Y-104389714D01*
X148979160Y-105079143D02*
X149378303Y-105079143D01*
X149378303Y-105079143D02*
X149450874Y-105042857D01*
X149450874Y-105042857D02*
X149487160Y-104970285D01*
X149487160Y-104970285D02*
X149487160Y-104825143D01*
X149487160Y-104825143D02*
X149450874Y-104752571D01*
X149015446Y-105079143D02*
X148979160Y-105006571D01*
X148979160Y-105006571D02*
X148979160Y-104825143D01*
X148979160Y-104825143D02*
X149015446Y-104752571D01*
X149015446Y-104752571D02*
X149088017Y-104716285D01*
X149088017Y-104716285D02*
X149160588Y-104716285D01*
X149160588Y-104716285D02*
X149233160Y-104752571D01*
X149233160Y-104752571D02*
X149269446Y-104825143D01*
X149269446Y-104825143D02*
X149269446Y-105006571D01*
X149269446Y-105006571D02*
X149305731Y-105079143D01*
X148979160Y-105550857D02*
X149015446Y-105478286D01*
X149015446Y-105478286D02*
X149088017Y-105442000D01*
X149088017Y-105442000D02*
X149741160Y-105442000D01*
X148979160Y-105950000D02*
X149015446Y-105877429D01*
X149015446Y-105877429D02*
X149051731Y-105841143D01*
X149051731Y-105841143D02*
X149124303Y-105804857D01*
X149124303Y-105804857D02*
X149342017Y-105804857D01*
X149342017Y-105804857D02*
X149414588Y-105841143D01*
X149414588Y-105841143D02*
X149450874Y-105877429D01*
X149450874Y-105877429D02*
X149487160Y-105950000D01*
X149487160Y-105950000D02*
X149487160Y-106058857D01*
X149487160Y-106058857D02*
X149450874Y-106131429D01*
X149450874Y-106131429D02*
X149414588Y-106167715D01*
X149414588Y-106167715D02*
X149342017Y-106204000D01*
X149342017Y-106204000D02*
X149124303Y-106204000D01*
X149124303Y-106204000D02*
X149051731Y-106167715D01*
X149051731Y-106167715D02*
X149015446Y-106131429D01*
X149015446Y-106131429D02*
X148979160Y-106058857D01*
X148979160Y-106058857D02*
X148979160Y-105950000D01*
X149487160Y-106857144D02*
X148870303Y-106857144D01*
X148870303Y-106857144D02*
X148797731Y-106820858D01*
X148797731Y-106820858D02*
X148761446Y-106784572D01*
X148761446Y-106784572D02*
X148725160Y-106712001D01*
X148725160Y-106712001D02*
X148725160Y-106603144D01*
X148725160Y-106603144D02*
X148761446Y-106530572D01*
X149015446Y-106857144D02*
X148979160Y-106784572D01*
X148979160Y-106784572D02*
X148979160Y-106639429D01*
X148979160Y-106639429D02*
X149015446Y-106566858D01*
X149015446Y-106566858D02*
X149051731Y-106530572D01*
X149051731Y-106530572D02*
X149124303Y-106494286D01*
X149124303Y-106494286D02*
X149342017Y-106494286D01*
X149342017Y-106494286D02*
X149414588Y-106530572D01*
X149414588Y-106530572D02*
X149450874Y-106566858D01*
X149450874Y-106566858D02*
X149487160Y-106639429D01*
X149487160Y-106639429D02*
X149487160Y-106784572D01*
X149487160Y-106784572D02*
X149450874Y-106857144D01*
X148979160Y-107800572D02*
X149741160Y-107800572D01*
X149487160Y-108163429D02*
X148979160Y-108163429D01*
X149414588Y-108163429D02*
X149450874Y-108199715D01*
X149450874Y-108199715D02*
X149487160Y-108272286D01*
X149487160Y-108272286D02*
X149487160Y-108381143D01*
X149487160Y-108381143D02*
X149450874Y-108453715D01*
X149450874Y-108453715D02*
X149378303Y-108490001D01*
X149378303Y-108490001D02*
X148979160Y-108490001D01*
D11*
X156265714Y-109308467D02*
X156776738Y-109308467D01*
X156776738Y-109308467D02*
X156501571Y-109622943D01*
X156501571Y-109622943D02*
X156619500Y-109622943D01*
X156619500Y-109622943D02*
X156698119Y-109662253D01*
X156698119Y-109662253D02*
X156737428Y-109701562D01*
X156737428Y-109701562D02*
X156776738Y-109780181D01*
X156776738Y-109780181D02*
X156776738Y-109976729D01*
X156776738Y-109976729D02*
X156737428Y-110055348D01*
X156737428Y-110055348D02*
X156698119Y-110094658D01*
X156698119Y-110094658D02*
X156619500Y-110133967D01*
X156619500Y-110133967D02*
X156383643Y-110133967D01*
X156383643Y-110133967D02*
X156305024Y-110094658D01*
X156305024Y-110094658D02*
X156265714Y-110055348D01*
X157012595Y-109308467D02*
X157287761Y-110133967D01*
X157287761Y-110133967D02*
X157562928Y-109308467D01*
X157759475Y-109308467D02*
X158270499Y-109308467D01*
X158270499Y-109308467D02*
X157995332Y-109622943D01*
X157995332Y-109622943D02*
X158113261Y-109622943D01*
X158113261Y-109622943D02*
X158191880Y-109662253D01*
X158191880Y-109662253D02*
X158231189Y-109701562D01*
X158231189Y-109701562D02*
X158270499Y-109780181D01*
X158270499Y-109780181D02*
X158270499Y-109976729D01*
X158270499Y-109976729D02*
X158231189Y-110055348D01*
X158231189Y-110055348D02*
X158191880Y-110094658D01*
X158191880Y-110094658D02*
X158113261Y-110133967D01*
X158113261Y-110133967D02*
X157877404Y-110133967D01*
X157877404Y-110133967D02*
X157798785Y-110094658D01*
X157798785Y-110094658D02*
X157759475Y-110055348D01*
G36*
X130505029Y-116388053D02*
G01*
X130567974Y-116418413D01*
X130626653Y-116475745D01*
X130656911Y-116563434D01*
X130657684Y-116674978D01*
X129983231Y-116676153D01*
X129982498Y-116570331D01*
X130011853Y-116479080D01*
X130067762Y-116421857D01*
X130126045Y-116391669D01*
X130265866Y-116355483D01*
X130365455Y-116354385D01*
X130505029Y-116388053D01*
G37*
G36*
X130900972Y-118648588D02*
G01*
X129739628Y-118648588D01*
X129739628Y-118087571D01*
X129831350Y-118087571D01*
X129832646Y-118205199D01*
X129831948Y-118215031D01*
X129832796Y-118218761D01*
X129832814Y-118220366D01*
X129833583Y-118222223D01*
X129835260Y-118229597D01*
X129872124Y-118336427D01*
X129872124Y-118338294D01*
X129875980Y-118347604D01*
X129880660Y-118361165D01*
X129882455Y-118363234D01*
X129883502Y-118365762D01*
X129892978Y-118377310D01*
X129972378Y-118454887D01*
X129978759Y-118462244D01*
X129981991Y-118464278D01*
X129983144Y-118465405D01*
X129985004Y-118466175D01*
X129991401Y-118470202D01*
X130066152Y-118506256D01*
X130071550Y-118510256D01*
X130082714Y-118514244D01*
X130083971Y-118514851D01*
X130084519Y-118514890D01*
X130085617Y-118515282D01*
X130238848Y-118552245D01*
X130246470Y-118555402D01*
X130255707Y-118556311D01*
X130257632Y-118556776D01*
X130258743Y-118556610D01*
X130261336Y-118556866D01*
X130375141Y-118555611D01*
X130382968Y-118556776D01*
X130392109Y-118555424D01*
X130394130Y-118555402D01*
X130395167Y-118554972D01*
X130397745Y-118554591D01*
X130549276Y-118515373D01*
X130556629Y-118514851D01*
X130567770Y-118510587D01*
X130569050Y-118510256D01*
X130569492Y-118509928D01*
X130570580Y-118509512D01*
X130648880Y-118468956D01*
X130657455Y-118465405D01*
X130660392Y-118462994D01*
X130661841Y-118462244D01*
X130663159Y-118460723D01*
X130669002Y-118455929D01*
X130738869Y-118384420D01*
X130740461Y-118383625D01*
X130746895Y-118376205D01*
X130757099Y-118365763D01*
X130758146Y-118363233D01*
X130759941Y-118361165D01*
X130766031Y-118347524D01*
X130803979Y-118229556D01*
X130807786Y-118220366D01*
X130808161Y-118216555D01*
X130808652Y-118215030D01*
X130808509Y-118213021D01*
X130809250Y-118205500D01*
X130808010Y-118126371D01*
X130808652Y-118117351D01*
X130807811Y-118113655D01*
X130807786Y-118112015D01*
X130807016Y-118110156D01*
X130805340Y-118102785D01*
X130768476Y-117995951D01*
X130768476Y-117994085D01*
X130764618Y-117984771D01*
X130759941Y-117971216D01*
X130758147Y-117969147D01*
X130757099Y-117966617D01*
X130747622Y-117955070D01*
X130696765Y-117906284D01*
X130677341Y-117898239D01*
X130669297Y-117894907D01*
X130654431Y-117893443D01*
X130364398Y-117894907D01*
X130336930Y-117906285D01*
X130315906Y-117927309D01*
X130304528Y-117954777D01*
X130303064Y-117969643D01*
X130304528Y-118141747D01*
X130315906Y-118169215D01*
X130336930Y-118190239D01*
X130364398Y-118201617D01*
X130394130Y-118201617D01*
X130421598Y-118190239D01*
X130442622Y-118169215D01*
X130454000Y-118141747D01*
X130455464Y-118126881D01*
X130454771Y-118045461D01*
X130622535Y-118044615D01*
X130626880Y-118048783D01*
X130656993Y-118136053D01*
X130657845Y-118190463D01*
X130628747Y-118280919D01*
X130572838Y-118338141D01*
X130514554Y-118368329D01*
X130374733Y-118404515D01*
X130275144Y-118405613D01*
X130135570Y-118371945D01*
X130072625Y-118341585D01*
X130013946Y-118284253D01*
X129983650Y-118196454D01*
X129982666Y-118107215D01*
X130020354Y-118029079D01*
X130022462Y-117999422D01*
X130013059Y-117971216D01*
X129993580Y-117948755D01*
X129966987Y-117935458D01*
X129937330Y-117933350D01*
X129909124Y-117942753D01*
X129886663Y-117962232D01*
X129878705Y-117974874D01*
X129845302Y-118044126D01*
X129844192Y-118045237D01*
X129840694Y-118053681D01*
X129834056Y-118067444D01*
X129833861Y-118070175D01*
X129832814Y-118072705D01*
X129831350Y-118087571D01*
X129739628Y-118087571D01*
X129739628Y-117610535D01*
X129831536Y-117610535D01*
X129832814Y-117620589D01*
X129832814Y-117630723D01*
X129834672Y-117635209D01*
X129835285Y-117640029D01*
X129840314Y-117648830D01*
X129844192Y-117658191D01*
X129847626Y-117661625D01*
X129850037Y-117665844D01*
X129858052Y-117672051D01*
X129865216Y-117679215D01*
X129869701Y-117681073D01*
X129873543Y-117684048D01*
X129883321Y-117686714D01*
X129892684Y-117690593D01*
X129900287Y-117691341D01*
X129902228Y-117691871D01*
X129903726Y-117691680D01*
X129907550Y-117692057D01*
X130747916Y-117690593D01*
X130775384Y-117679215D01*
X130796408Y-117658191D01*
X130807786Y-117630723D01*
X130807786Y-117600991D01*
X130796408Y-117573523D01*
X130775384Y-117552499D01*
X130747916Y-117541121D01*
X130733050Y-117539657D01*
X130191967Y-117540599D01*
X130766238Y-117211289D01*
X130775384Y-117207501D01*
X130778797Y-117204087D01*
X130783036Y-117201657D01*
X130789242Y-117193642D01*
X130796408Y-117186477D01*
X130798267Y-117181988D01*
X130801240Y-117178150D01*
X130803904Y-117168378D01*
X130807786Y-117159009D01*
X130807786Y-117154147D01*
X130809063Y-117149465D01*
X130807786Y-117139418D01*
X130807786Y-117129277D01*
X130805926Y-117124787D01*
X130805314Y-117119971D01*
X130800287Y-117111173D01*
X130796408Y-117101809D01*
X130792973Y-117098374D01*
X130790563Y-117094156D01*
X130782550Y-117087951D01*
X130775384Y-117080785D01*
X130770894Y-117078925D01*
X130767056Y-117075953D01*
X130757286Y-117073288D01*
X130747916Y-117069407D01*
X130740306Y-117068657D01*
X130738372Y-117068130D01*
X130736877Y-117068319D01*
X130733050Y-117067943D01*
X129892684Y-117069407D01*
X129865216Y-117080785D01*
X129844192Y-117101809D01*
X129832814Y-117129277D01*
X129832814Y-117159009D01*
X129844192Y-117186477D01*
X129865216Y-117207501D01*
X129892684Y-117218879D01*
X129907550Y-117220343D01*
X130448632Y-117219400D01*
X129874363Y-117548709D01*
X129865216Y-117552499D01*
X129861801Y-117555913D01*
X129857563Y-117558344D01*
X129851355Y-117566359D01*
X129844192Y-117573523D01*
X129842333Y-117578008D01*
X129839359Y-117581850D01*
X129836692Y-117591628D01*
X129832814Y-117600991D01*
X129832814Y-117605848D01*
X129831536Y-117610535D01*
X129739628Y-117610535D01*
X129739628Y-116554499D01*
X129831350Y-116554499D01*
X129832814Y-116765913D01*
X129844192Y-116793381D01*
X129865216Y-116814405D01*
X129892684Y-116825783D01*
X129907550Y-116827247D01*
X130747916Y-116825783D01*
X130775384Y-116814405D01*
X130796408Y-116793381D01*
X130807786Y-116765913D01*
X130809250Y-116751047D01*
X130807896Y-116555596D01*
X130808652Y-116544969D01*
X130807796Y-116541208D01*
X130807786Y-116539633D01*
X130807016Y-116537774D01*
X130805340Y-116530403D01*
X130768477Y-116423571D01*
X130768477Y-116421704D01*
X130764617Y-116412386D01*
X130759941Y-116398834D01*
X130758146Y-116396765D01*
X130757099Y-116394236D01*
X130747622Y-116382689D01*
X130668226Y-116305117D01*
X130661841Y-116297755D01*
X130658606Y-116295718D01*
X130657455Y-116294594D01*
X130655596Y-116293824D01*
X130649199Y-116289797D01*
X130574447Y-116253742D01*
X130569050Y-116249743D01*
X130557885Y-116245754D01*
X130556629Y-116245148D01*
X130556080Y-116245108D01*
X130554983Y-116244717D01*
X130401751Y-116207753D01*
X130394130Y-116204597D01*
X130384892Y-116203687D01*
X130382968Y-116203223D01*
X130381856Y-116203388D01*
X130379264Y-116203133D01*
X130265458Y-116204387D01*
X130257632Y-116203223D01*
X130248490Y-116204574D01*
X130246470Y-116204597D01*
X130245432Y-116205026D01*
X130242855Y-116205408D01*
X130091323Y-116244625D01*
X130083971Y-116245148D01*
X130072829Y-116249411D01*
X130071550Y-116249743D01*
X130071107Y-116250070D01*
X130070020Y-116250487D01*
X129991719Y-116291042D01*
X129983144Y-116294594D01*
X129980205Y-116297005D01*
X129978759Y-116297755D01*
X129977441Y-116299274D01*
X129971597Y-116304071D01*
X129901731Y-116375578D01*
X129900141Y-116376374D01*
X129893705Y-116383793D01*
X129883502Y-116394237D01*
X129882455Y-116396764D01*
X129880660Y-116398834D01*
X129874570Y-116412474D01*
X129836619Y-116530445D01*
X129832814Y-116539633D01*
X129832438Y-116543442D01*
X129831948Y-116544968D01*
X129832090Y-116546976D01*
X129831350Y-116554499D01*
X129739628Y-116554499D01*
X129739628Y-116111411D01*
X130900972Y-116111411D01*
X130900972Y-118648588D01*
G37*
D13*
X139343093Y-97386571D02*
X138327093Y-97386571D01*
X138327093Y-97386571D02*
X139052808Y-97047904D01*
X139052808Y-97047904D02*
X138327093Y-96709237D01*
X138327093Y-96709237D02*
X139343093Y-96709237D01*
X139343093Y-96225428D02*
X138665760Y-96225428D01*
X138327093Y-96225428D02*
X138375474Y-96273809D01*
X138375474Y-96273809D02*
X138423855Y-96225428D01*
X138423855Y-96225428D02*
X138375474Y-96177047D01*
X138375474Y-96177047D02*
X138327093Y-96225428D01*
X138327093Y-96225428D02*
X138423855Y-96225428D01*
X139294713Y-95306189D02*
X139343093Y-95402951D01*
X139343093Y-95402951D02*
X139343093Y-95596475D01*
X139343093Y-95596475D02*
X139294713Y-95693237D01*
X139294713Y-95693237D02*
X139246332Y-95741618D01*
X139246332Y-95741618D02*
X139149570Y-95789999D01*
X139149570Y-95789999D02*
X138859284Y-95789999D01*
X138859284Y-95789999D02*
X138762522Y-95741618D01*
X138762522Y-95741618D02*
X138714141Y-95693237D01*
X138714141Y-95693237D02*
X138665760Y-95596475D01*
X138665760Y-95596475D02*
X138665760Y-95402951D01*
X138665760Y-95402951D02*
X138714141Y-95306189D01*
X139343093Y-94096666D02*
X138327093Y-94096666D01*
X138665760Y-93612856D02*
X139343093Y-93612856D01*
X138762522Y-93612856D02*
X138714141Y-93564475D01*
X138714141Y-93564475D02*
X138665760Y-93467713D01*
X138665760Y-93467713D02*
X138665760Y-93322570D01*
X138665760Y-93322570D02*
X138714141Y-93225808D01*
X138714141Y-93225808D02*
X138810903Y-93177427D01*
X138810903Y-93177427D02*
X139343093Y-93177427D01*
D11*
G36*
X157308750Y-111902770D02*
G01*
X157365973Y-111958679D01*
X157396161Y-112016962D01*
X157432347Y-112156783D01*
X157433445Y-112256372D01*
X157399777Y-112395946D01*
X157369417Y-112458891D01*
X157312086Y-112517570D01*
X157224396Y-112547828D01*
X157112852Y-112548601D01*
X157111677Y-111874148D01*
X157217499Y-111873415D01*
X157308750Y-111902770D01*
G37*
G36*
X157676420Y-112791889D02*
G01*
X155139243Y-112791889D01*
X155139243Y-112152253D01*
X155230965Y-112152253D01*
X155232219Y-112266058D01*
X155231055Y-112273885D01*
X155232406Y-112283026D01*
X155232429Y-112285047D01*
X155232858Y-112286084D01*
X155233240Y-112288662D01*
X155272457Y-112440193D01*
X155272980Y-112447546D01*
X155277243Y-112458687D01*
X155277575Y-112459967D01*
X155277902Y-112460409D01*
X155278319Y-112461497D01*
X155318874Y-112539797D01*
X155322426Y-112548372D01*
X155324836Y-112551309D01*
X155325587Y-112552758D01*
X155327107Y-112554076D01*
X155331902Y-112559919D01*
X155403410Y-112629786D01*
X155404206Y-112631378D01*
X155411625Y-112637812D01*
X155422068Y-112648016D01*
X155424597Y-112649063D01*
X155426666Y-112650858D01*
X155440307Y-112656948D01*
X155558274Y-112694896D01*
X155567465Y-112698703D01*
X155571275Y-112699078D01*
X155572801Y-112699569D01*
X155574809Y-112699426D01*
X155582331Y-112700167D01*
X155661459Y-112698927D01*
X155670480Y-112699569D01*
X155674175Y-112698728D01*
X155675816Y-112698703D01*
X155677674Y-112697933D01*
X155685046Y-112696257D01*
X155791880Y-112659393D01*
X155793746Y-112659393D01*
X155803054Y-112655537D01*
X155816616Y-112650858D01*
X155818685Y-112649063D01*
X155821214Y-112648016D01*
X155832761Y-112638539D01*
X155881547Y-112587682D01*
X155892924Y-112560213D01*
X155894388Y-112545348D01*
X155892924Y-112255315D01*
X155881546Y-112227847D01*
X155860522Y-112206823D01*
X155833054Y-112195445D01*
X155818188Y-112193981D01*
X155646084Y-112195445D01*
X155618616Y-112206823D01*
X155597592Y-112227847D01*
X155586214Y-112255315D01*
X155586214Y-112285047D01*
X155597592Y-112312515D01*
X155618616Y-112333539D01*
X155646084Y-112344917D01*
X155660950Y-112346381D01*
X155742369Y-112345688D01*
X155743215Y-112513452D01*
X155739047Y-112517797D01*
X155651778Y-112547910D01*
X155597367Y-112548762D01*
X155506911Y-112519664D01*
X155449689Y-112463755D01*
X155419501Y-112405471D01*
X155383315Y-112265650D01*
X155382217Y-112166061D01*
X155415885Y-112026487D01*
X155446244Y-111963544D01*
X155503577Y-111904864D01*
X155591377Y-111874567D01*
X155680615Y-111873583D01*
X155758752Y-111911271D01*
X155788409Y-111913379D01*
X155816615Y-111903976D01*
X155839076Y-111884497D01*
X155852373Y-111857904D01*
X155854481Y-111828247D01*
X155845078Y-111800041D01*
X155843713Y-111798467D01*
X156095774Y-111798467D01*
X156097238Y-112638833D01*
X156108616Y-112666301D01*
X156129640Y-112687325D01*
X156157108Y-112698703D01*
X156186840Y-112698703D01*
X156214308Y-112687325D01*
X156235332Y-112666301D01*
X156246710Y-112638833D01*
X156248174Y-112623967D01*
X156247231Y-112082884D01*
X156576541Y-112657155D01*
X156580330Y-112666301D01*
X156583743Y-112669714D01*
X156586174Y-112673953D01*
X156594188Y-112680159D01*
X156601354Y-112687325D01*
X156605842Y-112689184D01*
X156609681Y-112692157D01*
X156619452Y-112694821D01*
X156628822Y-112698703D01*
X156633684Y-112698703D01*
X156638366Y-112699980D01*
X156648412Y-112698703D01*
X156658554Y-112698703D01*
X156663043Y-112696843D01*
X156667860Y-112696231D01*
X156676657Y-112691204D01*
X156686022Y-112687325D01*
X156689456Y-112683890D01*
X156693675Y-112681480D01*
X156699879Y-112673467D01*
X156707046Y-112666301D01*
X156708905Y-112661811D01*
X156711878Y-112657973D01*
X156714542Y-112648203D01*
X156718424Y-112638833D01*
X156719173Y-112631223D01*
X156719701Y-112629289D01*
X156719511Y-112627794D01*
X156719888Y-112623967D01*
X156718450Y-111798467D01*
X156960584Y-111798467D01*
X156962048Y-112638833D01*
X156973426Y-112666301D01*
X156994450Y-112687325D01*
X157021918Y-112698703D01*
X157036784Y-112700167D01*
X157232234Y-112698813D01*
X157242862Y-112699569D01*
X157246622Y-112698713D01*
X157248198Y-112698703D01*
X157250056Y-112697933D01*
X157257428Y-112696257D01*
X157364261Y-112659393D01*
X157366127Y-112659393D01*
X157375435Y-112655537D01*
X157388997Y-112650858D01*
X157391066Y-112649063D01*
X157393595Y-112648016D01*
X157405142Y-112638539D01*
X157482719Y-112559138D01*
X157490076Y-112552758D01*
X157492110Y-112549525D01*
X157493238Y-112548372D01*
X157494009Y-112546509D01*
X157498034Y-112540116D01*
X157534088Y-112465364D01*
X157538088Y-112459967D01*
X157542076Y-112448802D01*
X157542683Y-112447546D01*
X157542722Y-112446997D01*
X157543114Y-112445900D01*
X157580077Y-112292668D01*
X157583234Y-112285047D01*
X157584143Y-112275809D01*
X157584608Y-112273885D01*
X157584442Y-112272773D01*
X157584698Y-112270181D01*
X157583443Y-112156375D01*
X157584608Y-112148549D01*
X157583256Y-112139407D01*
X157583234Y-112137387D01*
X157582804Y-112136349D01*
X157582423Y-112133772D01*
X157543205Y-111982240D01*
X157542683Y-111974888D01*
X157538419Y-111963746D01*
X157538088Y-111962467D01*
X157537760Y-111962024D01*
X157537344Y-111960937D01*
X157496788Y-111882636D01*
X157493237Y-111874061D01*
X157490825Y-111871122D01*
X157490076Y-111869676D01*
X157488556Y-111868358D01*
X157483760Y-111862514D01*
X157412252Y-111792648D01*
X157411457Y-111791058D01*
X157404037Y-111784622D01*
X157393594Y-111774419D01*
X157391066Y-111773372D01*
X157388997Y-111771577D01*
X157375357Y-111765487D01*
X157257385Y-111727536D01*
X157248198Y-111723731D01*
X157244388Y-111723355D01*
X157242863Y-111722865D01*
X157240854Y-111723007D01*
X157233332Y-111722267D01*
X157021918Y-111723731D01*
X156994450Y-111735109D01*
X156973426Y-111756133D01*
X156962048Y-111783601D01*
X156960584Y-111798467D01*
X156718450Y-111798467D01*
X156718424Y-111783601D01*
X156707046Y-111756133D01*
X156686022Y-111735109D01*
X156658554Y-111723731D01*
X156628822Y-111723731D01*
X156601354Y-111735109D01*
X156580330Y-111756133D01*
X156568952Y-111783601D01*
X156567488Y-111798467D01*
X156568430Y-112339549D01*
X156239121Y-111765280D01*
X156235332Y-111756133D01*
X156231917Y-111752718D01*
X156229487Y-111748480D01*
X156221471Y-111742272D01*
X156214308Y-111735109D01*
X156209822Y-111733250D01*
X156205981Y-111730276D01*
X156196202Y-111727609D01*
X156186840Y-111723731D01*
X156181982Y-111723731D01*
X156177296Y-111722453D01*
X156167242Y-111723731D01*
X156157108Y-111723731D01*
X156152621Y-111725589D01*
X156147802Y-111726202D01*
X156139000Y-111731231D01*
X156129640Y-111735109D01*
X156126205Y-111738543D01*
X156121987Y-111740954D01*
X156115779Y-111748969D01*
X156108616Y-111756133D01*
X156106757Y-111760618D01*
X156103783Y-111764460D01*
X156101116Y-111774238D01*
X156097238Y-111783601D01*
X156096489Y-111791204D01*
X156095960Y-111793145D01*
X156096150Y-111794643D01*
X156095774Y-111798467D01*
X155843713Y-111798467D01*
X155825599Y-111777580D01*
X155812957Y-111769622D01*
X155743704Y-111736219D01*
X155742594Y-111735109D01*
X155734149Y-111731611D01*
X155720387Y-111724973D01*
X155717655Y-111724778D01*
X155715126Y-111723731D01*
X155700260Y-111722267D01*
X155582630Y-111723563D01*
X155572800Y-111722865D01*
X155569070Y-111723713D01*
X155567465Y-111723731D01*
X155565604Y-111724501D01*
X155558234Y-111726178D01*
X155451401Y-111763042D01*
X155449537Y-111763042D01*
X155440232Y-111766895D01*
X155426666Y-111771577D01*
X155424597Y-111773371D01*
X155422068Y-111774419D01*
X155410521Y-111783896D01*
X155332950Y-111863290D01*
X155325587Y-111869676D01*
X155323550Y-111872910D01*
X155322426Y-111874062D01*
X155321656Y-111875920D01*
X155317629Y-111882318D01*
X155281574Y-111957069D01*
X155277575Y-111962467D01*
X155273586Y-111973631D01*
X155272980Y-111974888D01*
X155272940Y-111975436D01*
X155272549Y-111976534D01*
X155235585Y-112129765D01*
X155232429Y-112137387D01*
X155231519Y-112146624D01*
X155231055Y-112148549D01*
X155231220Y-112149660D01*
X155230965Y-112152253D01*
X155139243Y-112152253D01*
X155139243Y-111630545D01*
X157676420Y-111630545D01*
X157676420Y-112791889D01*
G37*
X154066003Y-105054951D02*
X154026694Y-105015642D01*
X154026694Y-105015642D02*
X153987384Y-104937023D01*
X153987384Y-104937023D02*
X153987384Y-104740475D01*
X153987384Y-104740475D02*
X154026694Y-104661856D01*
X154026694Y-104661856D02*
X154066003Y-104622547D01*
X154066003Y-104622547D02*
X154144622Y-104583237D01*
X154144622Y-104583237D02*
X154223241Y-104583237D01*
X154223241Y-104583237D02*
X154341170Y-104622547D01*
X154341170Y-104622547D02*
X154812884Y-105094261D01*
X154812884Y-105094261D02*
X154812884Y-104583237D01*
X153987384Y-104072214D02*
X153987384Y-103993595D01*
X153987384Y-103993595D02*
X154026694Y-103914976D01*
X154026694Y-103914976D02*
X154066003Y-103875666D01*
X154066003Y-103875666D02*
X154144622Y-103836357D01*
X154144622Y-103836357D02*
X154301860Y-103797047D01*
X154301860Y-103797047D02*
X154498408Y-103797047D01*
X154498408Y-103797047D02*
X154655646Y-103836357D01*
X154655646Y-103836357D02*
X154734265Y-103875666D01*
X154734265Y-103875666D02*
X154773575Y-103914976D01*
X154773575Y-103914976D02*
X154812884Y-103993595D01*
X154812884Y-103993595D02*
X154812884Y-104072214D01*
X154812884Y-104072214D02*
X154773575Y-104150833D01*
X154773575Y-104150833D02*
X154734265Y-104190142D01*
X154734265Y-104190142D02*
X154655646Y-104229452D01*
X154655646Y-104229452D02*
X154498408Y-104268761D01*
X154498408Y-104268761D02*
X154301860Y-104268761D01*
X154301860Y-104268761D02*
X154144622Y-104229452D01*
X154144622Y-104229452D02*
X154066003Y-104190142D01*
X154066003Y-104190142D02*
X154026694Y-104150833D01*
X154026694Y-104150833D02*
X153987384Y-104072214D01*
D12*
X140385142Y-113521839D02*
X140022285Y-113521839D01*
X140022285Y-113521839D02*
X140022285Y-112759839D01*
X140639142Y-113122696D02*
X140893142Y-113122696D01*
X141001999Y-113521839D02*
X140639142Y-113521839D01*
X140639142Y-113521839D02*
X140639142Y-112759839D01*
X140639142Y-112759839D02*
X141001999Y-112759839D01*
X141328571Y-113521839D02*
X141328571Y-112759839D01*
X141328571Y-112759839D02*
X141510000Y-112759839D01*
X141510000Y-112759839D02*
X141618857Y-112796125D01*
X141618857Y-112796125D02*
X141691428Y-112868696D01*
X141691428Y-112868696D02*
X141727714Y-112941268D01*
X141727714Y-112941268D02*
X141764000Y-113086411D01*
X141764000Y-113086411D02*
X141764000Y-113195268D01*
X141764000Y-113195268D02*
X141727714Y-113340411D01*
X141727714Y-113340411D02*
X141691428Y-113412982D01*
X141691428Y-113412982D02*
X141618857Y-113485554D01*
X141618857Y-113485554D02*
X141510000Y-113521839D01*
X141510000Y-113521839D02*
X141328571Y-113521839D01*
X142634857Y-112723554D02*
X141981714Y-113703268D01*
X143142857Y-113122696D02*
X143251714Y-113158982D01*
X143251714Y-113158982D02*
X143288000Y-113195268D01*
X143288000Y-113195268D02*
X143324286Y-113267839D01*
X143324286Y-113267839D02*
X143324286Y-113376696D01*
X143324286Y-113376696D02*
X143288000Y-113449268D01*
X143288000Y-113449268D02*
X143251714Y-113485554D01*
X143251714Y-113485554D02*
X143179143Y-113521839D01*
X143179143Y-113521839D02*
X142888857Y-113521839D01*
X142888857Y-113521839D02*
X142888857Y-112759839D01*
X142888857Y-112759839D02*
X143142857Y-112759839D01*
X143142857Y-112759839D02*
X143215429Y-112796125D01*
X143215429Y-112796125D02*
X143251714Y-112832411D01*
X143251714Y-112832411D02*
X143288000Y-112904982D01*
X143288000Y-112904982D02*
X143288000Y-112977554D01*
X143288000Y-112977554D02*
X143251714Y-113050125D01*
X143251714Y-113050125D02*
X143215429Y-113086411D01*
X143215429Y-113086411D02*
X143142857Y-113122696D01*
X143142857Y-113122696D02*
X142888857Y-113122696D01*
X143650857Y-112759839D02*
X143650857Y-113376696D01*
X143650857Y-113376696D02*
X143687143Y-113449268D01*
X143687143Y-113449268D02*
X143723429Y-113485554D01*
X143723429Y-113485554D02*
X143796000Y-113521839D01*
X143796000Y-113521839D02*
X143941143Y-113521839D01*
X143941143Y-113521839D02*
X144013714Y-113485554D01*
X144013714Y-113485554D02*
X144050000Y-113449268D01*
X144050000Y-113449268D02*
X144086286Y-113376696D01*
X144086286Y-113376696D02*
X144086286Y-112759839D01*
X144884572Y-113449268D02*
X144848286Y-113485554D01*
X144848286Y-113485554D02*
X144739429Y-113521839D01*
X144739429Y-113521839D02*
X144666857Y-113521839D01*
X144666857Y-113521839D02*
X144558000Y-113485554D01*
X144558000Y-113485554D02*
X144485429Y-113412982D01*
X144485429Y-113412982D02*
X144449143Y-113340411D01*
X144449143Y-113340411D02*
X144412857Y-113195268D01*
X144412857Y-113195268D02*
X144412857Y-113086411D01*
X144412857Y-113086411D02*
X144449143Y-112941268D01*
X144449143Y-112941268D02*
X144485429Y-112868696D01*
X144485429Y-112868696D02*
X144558000Y-112796125D01*
X144558000Y-112796125D02*
X144666857Y-112759839D01*
X144666857Y-112759839D02*
X144739429Y-112759839D01*
X144739429Y-112759839D02*
X144848286Y-112796125D01*
X144848286Y-112796125D02*
X144884572Y-112832411D01*
X145211143Y-113521839D02*
X145211143Y-112759839D01*
X145646572Y-113521839D02*
X145320000Y-113086411D01*
X145646572Y-112759839D02*
X145211143Y-113195268D01*
X146553714Y-113521839D02*
X146553714Y-112759839D01*
X146553714Y-112759839D02*
X146844000Y-112759839D01*
X146844000Y-112759839D02*
X146916571Y-112796125D01*
X146916571Y-112796125D02*
X146952857Y-112832411D01*
X146952857Y-112832411D02*
X146989143Y-112904982D01*
X146989143Y-112904982D02*
X146989143Y-113013839D01*
X146989143Y-113013839D02*
X146952857Y-113086411D01*
X146952857Y-113086411D02*
X146916571Y-113122696D01*
X146916571Y-113122696D02*
X146844000Y-113158982D01*
X146844000Y-113158982D02*
X146553714Y-113158982D01*
X147243143Y-112759839D02*
X147424571Y-113521839D01*
X147424571Y-113521839D02*
X147569714Y-112977554D01*
X147569714Y-112977554D02*
X147714857Y-113521839D01*
X147714857Y-113521839D02*
X147896286Y-112759839D01*
X148622000Y-113521839D02*
X148368000Y-113158982D01*
X148186571Y-113521839D02*
X148186571Y-112759839D01*
X148186571Y-112759839D02*
X148476857Y-112759839D01*
X148476857Y-112759839D02*
X148549428Y-112796125D01*
X148549428Y-112796125D02*
X148585714Y-112832411D01*
X148585714Y-112832411D02*
X148622000Y-112904982D01*
X148622000Y-112904982D02*
X148622000Y-113013839D01*
X148622000Y-113013839D02*
X148585714Y-113086411D01*
X148585714Y-113086411D02*
X148549428Y-113122696D01*
X148549428Y-113122696D02*
X148476857Y-113158982D01*
X148476857Y-113158982D02*
X148186571Y-113158982D01*
D11*
X139295618Y-108800467D02*
X138902523Y-108800467D01*
X138902523Y-108800467D02*
X138863214Y-109193562D01*
X138863214Y-109193562D02*
X138902523Y-109154253D01*
X138902523Y-109154253D02*
X138981142Y-109114943D01*
X138981142Y-109114943D02*
X139177690Y-109114943D01*
X139177690Y-109114943D02*
X139256309Y-109154253D01*
X139256309Y-109154253D02*
X139295618Y-109193562D01*
X139295618Y-109193562D02*
X139334928Y-109272181D01*
X139334928Y-109272181D02*
X139334928Y-109468729D01*
X139334928Y-109468729D02*
X139295618Y-109547348D01*
X139295618Y-109547348D02*
X139256309Y-109586658D01*
X139256309Y-109586658D02*
X139177690Y-109625967D01*
X139177690Y-109625967D02*
X138981142Y-109625967D01*
X138981142Y-109625967D02*
X138902523Y-109586658D01*
X138902523Y-109586658D02*
X138863214Y-109547348D01*
X139570785Y-108800467D02*
X139845951Y-109625967D01*
X139845951Y-109625967D02*
X140121118Y-108800467D01*
D14*
G36*
X139054000Y-107726246D02*
G01*
X138960210Y-107726246D01*
X138960210Y-107820036D01*
X138788263Y-107820036D01*
X138788263Y-107644913D01*
X138966805Y-107644913D01*
X138966805Y-107476142D01*
X138694474Y-107476142D01*
X138694474Y-107726246D01*
X138616316Y-107726246D01*
X138616316Y-107820036D01*
X138350580Y-107820036D01*
X138350580Y-107726246D01*
X138272422Y-107726246D01*
X138272422Y-107382352D01*
X138350580Y-107382352D01*
X138350580Y-107301019D01*
X138522527Y-107301019D01*
X138522527Y-107476142D01*
X138359617Y-107476142D01*
X138359617Y-107644913D01*
X138616316Y-107644913D01*
X138616316Y-107382352D01*
X138694474Y-107382352D01*
X138694474Y-107301019D01*
X138960210Y-107301019D01*
X138960210Y-107382352D01*
X139054000Y-107382352D01*
X139054000Y-107726246D01*
G37*
G36*
X139054000Y-107207474D02*
G01*
X138444369Y-107207474D01*
X138444369Y-106941738D01*
X138538159Y-106941738D01*
X138538159Y-106847949D01*
X138444369Y-106847949D01*
X138444369Y-106688458D01*
X138538159Y-106688458D01*
X138538159Y-106594669D01*
X139054000Y-106594669D01*
X139054000Y-106769791D01*
X138616316Y-106769791D01*
X138616316Y-106847949D01*
X138975842Y-106847949D01*
X138975842Y-106941738D01*
X138616316Y-106941738D01*
X138616316Y-107032352D01*
X139054000Y-107032352D01*
X139054000Y-107207474D01*
G37*
G36*
X139054000Y-106414174D02*
G01*
X138960210Y-106414174D01*
X138960210Y-106507963D01*
X138788263Y-106507963D01*
X138788263Y-106414174D01*
X138701069Y-106414174D01*
X138701069Y-106164069D01*
X138788263Y-106164069D01*
X138788263Y-106332841D01*
X138966805Y-106332841D01*
X138966805Y-106164069D01*
X138788263Y-106164069D01*
X138701069Y-106164069D01*
X138531564Y-106164069D01*
X138531564Y-106332841D01*
X138616316Y-106332841D01*
X138616316Y-106507963D01*
X138529122Y-106507963D01*
X138529122Y-106414174D01*
X138444369Y-106414174D01*
X138444369Y-106070280D01*
X138529122Y-106070280D01*
X138529122Y-105988947D01*
X139054000Y-105988947D01*
X139054000Y-106414174D01*
G37*
G36*
X139054000Y-105895402D02*
G01*
X138444369Y-105895402D01*
X138444369Y-105464069D01*
X138538159Y-105464069D01*
X138538159Y-105376386D01*
X138710106Y-105376386D01*
X138710106Y-105551508D01*
X138531564Y-105551508D01*
X138531564Y-105720280D01*
X139054000Y-105720280D01*
X139054000Y-105895402D01*
G37*
G36*
X139054000Y-105017105D02*
G01*
X138975842Y-105017105D01*
X138975842Y-105110894D01*
X138531564Y-105110894D01*
X138531564Y-105282841D01*
X138444369Y-105282841D01*
X138444369Y-105110894D01*
X138272422Y-105110894D01*
X138272422Y-104935772D01*
X138444369Y-104935772D01*
X138444369Y-104751368D01*
X138531564Y-104751368D01*
X138531564Y-104935772D01*
X138966805Y-104935772D01*
X138966805Y-104751368D01*
X139054000Y-104751368D01*
X139054000Y-105017105D01*
G37*
G36*
X139054000Y-104670280D02*
G01*
X138272422Y-104670280D01*
X138272422Y-104495158D01*
X138966805Y-104495158D01*
X138966805Y-104146623D01*
X139054000Y-104146623D01*
X139054000Y-104670280D01*
G37*
G36*
X139054000Y-104057719D02*
G01*
X138272422Y-104057719D01*
X138272422Y-103534062D01*
X138359617Y-103534062D01*
X138359617Y-103882597D01*
X138616316Y-103882597D01*
X138616316Y-103620036D01*
X138703511Y-103620036D01*
X138703511Y-103882597D01*
X138966805Y-103882597D01*
X138966805Y-103534062D01*
X139054000Y-103534062D01*
X139054000Y-104057719D01*
G37*
G36*
X138960210Y-103013825D02*
G01*
X139054000Y-103013825D01*
X139054000Y-103445158D01*
X138272422Y-103445158D01*
X138272422Y-103101264D01*
X138359617Y-103101264D01*
X138359617Y-103270036D01*
X138966805Y-103270036D01*
X138966805Y-103101264D01*
X138359617Y-103101264D01*
X138272422Y-103101264D01*
X138272422Y-103013825D01*
X138350580Y-103013825D01*
X138350580Y-102926142D01*
X138960210Y-102926142D01*
X138960210Y-103013825D01*
G37*
G36*
X139054000Y-102476979D02*
G01*
X138960210Y-102476979D01*
X138960210Y-102570768D01*
X138788263Y-102570768D01*
X138788263Y-102395646D01*
X138966805Y-102395646D01*
X138966805Y-102226874D01*
X138694474Y-102226874D01*
X138694474Y-102476979D01*
X138616316Y-102476979D01*
X138616316Y-102570768D01*
X138350580Y-102570768D01*
X138350580Y-102476979D01*
X138272422Y-102476979D01*
X138272422Y-102133085D01*
X138350580Y-102133085D01*
X138350580Y-102051752D01*
X138522527Y-102051752D01*
X138522527Y-102226874D01*
X138359617Y-102226874D01*
X138359617Y-102395646D01*
X138616316Y-102395646D01*
X138616316Y-102133085D01*
X138694474Y-102133085D01*
X138694474Y-102051752D01*
X138960210Y-102051752D01*
X138960210Y-102133085D01*
X139054000Y-102133085D01*
X139054000Y-102476979D01*
G37*
G36*
X138788263Y-101783085D02*
G01*
X138966805Y-101783085D01*
X138966805Y-101614313D01*
X138882053Y-101614313D01*
X138882053Y-101439191D01*
X138966805Y-101439191D01*
X138966805Y-101520524D01*
X139054000Y-101520524D01*
X139054000Y-101864418D01*
X138966805Y-101864418D01*
X138966805Y-101958207D01*
X138529122Y-101958207D01*
X138529122Y-101864418D01*
X138444369Y-101864418D01*
X138444369Y-101614313D01*
X138531564Y-101614313D01*
X138531564Y-101783085D01*
X138701069Y-101783085D01*
X138701069Y-101614313D01*
X138531564Y-101614313D01*
X138444369Y-101614313D01*
X138444369Y-101520524D01*
X138529122Y-101520524D01*
X138529122Y-101439191D01*
X138788263Y-101439191D01*
X138788263Y-101783085D01*
G37*
G36*
X139054000Y-101345646D02*
G01*
X138444369Y-101345646D01*
X138444369Y-100914313D01*
X138538159Y-100914313D01*
X138538159Y-100826630D01*
X139054000Y-100826630D01*
X139054000Y-101001752D01*
X138531564Y-101001752D01*
X138531564Y-101170524D01*
X139054000Y-101170524D01*
X139054000Y-101345646D01*
G37*
G36*
X139054000Y-100639296D02*
G01*
X138966805Y-100639296D01*
X138966805Y-100733085D01*
X138882053Y-100733085D01*
X138882053Y-100557963D01*
X138966805Y-100557963D01*
X138966805Y-100389191D01*
X138788263Y-100389191D01*
X138788263Y-100639296D01*
X138701069Y-100639296D01*
X138701069Y-100733085D01*
X138538159Y-100733085D01*
X138538159Y-100639296D01*
X138444369Y-100639296D01*
X138444369Y-100295402D01*
X138538159Y-100295402D01*
X138538159Y-100214069D01*
X138625353Y-100214069D01*
X138625353Y-100389191D01*
X138531564Y-100389191D01*
X138531564Y-100557963D01*
X138701069Y-100557963D01*
X138701069Y-100295402D01*
X138794858Y-100295402D01*
X138794858Y-100214069D01*
X138966805Y-100214069D01*
X138966805Y-100295402D01*
X139054000Y-100295402D01*
X139054000Y-100639296D01*
G37*
G36*
X138788263Y-99945402D02*
G01*
X138966805Y-99945402D01*
X138966805Y-99776630D01*
X138882053Y-99776630D01*
X138882053Y-99601508D01*
X138966805Y-99601508D01*
X138966805Y-99682841D01*
X139054000Y-99682841D01*
X139054000Y-100026735D01*
X138966805Y-100026735D01*
X138966805Y-100120524D01*
X138529122Y-100120524D01*
X138529122Y-100026735D01*
X138444369Y-100026735D01*
X138444369Y-99776630D01*
X138531564Y-99776630D01*
X138531564Y-99945402D01*
X138701069Y-99945402D01*
X138701069Y-99776630D01*
X138531564Y-99776630D01*
X138444369Y-99776630D01*
X138444369Y-99682841D01*
X138529122Y-99682841D01*
X138529122Y-99601508D01*
X138788263Y-99601508D01*
X138788263Y-99945402D01*
G37*
D11*
X156265714Y-117834658D02*
X156383642Y-117873967D01*
X156383642Y-117873967D02*
X156580190Y-117873967D01*
X156580190Y-117873967D02*
X156658809Y-117834658D01*
X156658809Y-117834658D02*
X156698118Y-117795348D01*
X156698118Y-117795348D02*
X156737428Y-117716729D01*
X156737428Y-117716729D02*
X156737428Y-117638110D01*
X156737428Y-117638110D02*
X156698118Y-117559491D01*
X156698118Y-117559491D02*
X156658809Y-117520181D01*
X156658809Y-117520181D02*
X156580190Y-117480872D01*
X156580190Y-117480872D02*
X156422952Y-117441562D01*
X156422952Y-117441562D02*
X156344333Y-117402253D01*
X156344333Y-117402253D02*
X156305023Y-117362943D01*
X156305023Y-117362943D02*
X156265714Y-117284324D01*
X156265714Y-117284324D02*
X156265714Y-117205705D01*
X156265714Y-117205705D02*
X156305023Y-117127086D01*
X156305023Y-117127086D02*
X156344333Y-117087777D01*
X156344333Y-117087777D02*
X156422952Y-117048467D01*
X156422952Y-117048467D02*
X156619499Y-117048467D01*
X156619499Y-117048467D02*
X156737428Y-117087777D01*
X157091213Y-117873967D02*
X157091213Y-117048467D01*
X157091213Y-117048467D02*
X157287761Y-117048467D01*
X157287761Y-117048467D02*
X157405689Y-117087777D01*
X157405689Y-117087777D02*
X157484308Y-117166396D01*
X157484308Y-117166396D02*
X157523618Y-117245015D01*
X157523618Y-117245015D02*
X157562927Y-117402253D01*
X157562927Y-117402253D02*
X157562927Y-117520181D01*
X157562927Y-117520181D02*
X157523618Y-117677419D01*
X157523618Y-117677419D02*
X157484308Y-117756038D01*
X157484308Y-117756038D02*
X157405689Y-117834658D01*
X157405689Y-117834658D02*
X157287761Y-117873967D01*
X157287761Y-117873967D02*
X157091213Y-117873967D01*
X157877404Y-117638110D02*
X158270499Y-117638110D01*
X157798785Y-117873967D02*
X158073951Y-117048467D01*
X158073951Y-117048467D02*
X158349118Y-117873967D01*
X137794884Y-109897583D02*
X137401789Y-110172749D01*
X137794884Y-110369297D02*
X136969384Y-110369297D01*
X136969384Y-110369297D02*
X136969384Y-110054821D01*
X136969384Y-110054821D02*
X137008694Y-109976202D01*
X137008694Y-109976202D02*
X137048003Y-109936892D01*
X137048003Y-109936892D02*
X137126622Y-109897583D01*
X137126622Y-109897583D02*
X137244551Y-109897583D01*
X137244551Y-109897583D02*
X137323170Y-109936892D01*
X137323170Y-109936892D02*
X137362479Y-109976202D01*
X137362479Y-109976202D02*
X137401789Y-110054821D01*
X137401789Y-110054821D02*
X137401789Y-110369297D01*
X136969384Y-109622416D02*
X137794884Y-109072083D01*
X136969384Y-109072083D02*
X137794884Y-109622416D01*
X129907550Y-113322046D02*
X129907550Y-112811022D01*
X129907550Y-112811022D02*
X130222026Y-113086189D01*
X130222026Y-113086189D02*
X130222026Y-112968260D01*
X130222026Y-112968260D02*
X130261336Y-112889641D01*
X130261336Y-112889641D02*
X130300645Y-112850332D01*
X130300645Y-112850332D02*
X130379264Y-112811022D01*
X130379264Y-112811022D02*
X130575812Y-112811022D01*
X130575812Y-112811022D02*
X130654431Y-112850332D01*
X130654431Y-112850332D02*
X130693741Y-112889641D01*
X130693741Y-112889641D02*
X130733050Y-112968260D01*
X130733050Y-112968260D02*
X130733050Y-113204117D01*
X130733050Y-113204117D02*
X130693741Y-113282736D01*
X130693741Y-113282736D02*
X130654431Y-113322046D01*
X129907550Y-112575165D02*
X130733050Y-112299999D01*
X130733050Y-112299999D02*
X129907550Y-112024832D01*
X129907550Y-111828285D02*
X129907550Y-111317261D01*
X129907550Y-111317261D02*
X130222026Y-111592428D01*
X130222026Y-111592428D02*
X130222026Y-111474499D01*
X130222026Y-111474499D02*
X130261336Y-111395880D01*
X130261336Y-111395880D02*
X130300645Y-111356571D01*
X130300645Y-111356571D02*
X130379264Y-111317261D01*
X130379264Y-111317261D02*
X130575812Y-111317261D01*
X130575812Y-111317261D02*
X130654431Y-111356571D01*
X130654431Y-111356571D02*
X130693741Y-111395880D01*
X130693741Y-111395880D02*
X130733050Y-111474499D01*
X130733050Y-111474499D02*
X130733050Y-111710356D01*
X130733050Y-111710356D02*
X130693741Y-111788975D01*
X130693741Y-111788975D02*
X130654431Y-111828285D01*
X154066003Y-110134951D02*
X154026694Y-110095642D01*
X154026694Y-110095642D02*
X153987384Y-110017023D01*
X153987384Y-110017023D02*
X153987384Y-109820475D01*
X153987384Y-109820475D02*
X154026694Y-109741856D01*
X154026694Y-109741856D02*
X154066003Y-109702547D01*
X154066003Y-109702547D02*
X154144622Y-109663237D01*
X154144622Y-109663237D02*
X154223241Y-109663237D01*
X154223241Y-109663237D02*
X154341170Y-109702547D01*
X154341170Y-109702547D02*
X154812884Y-110174261D01*
X154812884Y-110174261D02*
X154812884Y-109663237D01*
X154812884Y-108877047D02*
X154812884Y-109348761D01*
X154812884Y-109112904D02*
X153987384Y-109112904D01*
X153987384Y-109112904D02*
X154105313Y-109191523D01*
X154105313Y-109191523D02*
X154183932Y-109270142D01*
X154183932Y-109270142D02*
X154223241Y-109348761D01*
G36*
X137566863Y-106228053D02*
G01*
X137629808Y-106258413D01*
X137688487Y-106315745D01*
X137718745Y-106403434D01*
X137719518Y-106514978D01*
X137045065Y-106516153D01*
X137044332Y-106410331D01*
X137073687Y-106319080D01*
X137129596Y-106261857D01*
X137187879Y-106231669D01*
X137327700Y-106195483D01*
X137427289Y-106194385D01*
X137566863Y-106228053D01*
G37*
G36*
X137962806Y-108488588D02*
G01*
X136801462Y-108488588D01*
X136801462Y-107927571D01*
X136893184Y-107927571D01*
X136894480Y-108045199D01*
X136893782Y-108055031D01*
X136894630Y-108058761D01*
X136894648Y-108060366D01*
X136895417Y-108062223D01*
X136897094Y-108069597D01*
X136933958Y-108176427D01*
X136933958Y-108178294D01*
X136937814Y-108187604D01*
X136942494Y-108201165D01*
X136944289Y-108203234D01*
X136945336Y-108205762D01*
X136954812Y-108217310D01*
X137034212Y-108294887D01*
X137040593Y-108302244D01*
X137043825Y-108304278D01*
X137044978Y-108305405D01*
X137046838Y-108306175D01*
X137053235Y-108310202D01*
X137127986Y-108346256D01*
X137133384Y-108350256D01*
X137144548Y-108354244D01*
X137145805Y-108354851D01*
X137146353Y-108354890D01*
X137147451Y-108355282D01*
X137300682Y-108392245D01*
X137308304Y-108395402D01*
X137317541Y-108396311D01*
X137319466Y-108396776D01*
X137320577Y-108396610D01*
X137323170Y-108396866D01*
X137436975Y-108395611D01*
X137444802Y-108396776D01*
X137453943Y-108395424D01*
X137455964Y-108395402D01*
X137457001Y-108394972D01*
X137459579Y-108394591D01*
X137611110Y-108355373D01*
X137618463Y-108354851D01*
X137629604Y-108350587D01*
X137630884Y-108350256D01*
X137631326Y-108349928D01*
X137632414Y-108349512D01*
X137710714Y-108308956D01*
X137719289Y-108305405D01*
X137722226Y-108302994D01*
X137723675Y-108302244D01*
X137724993Y-108300723D01*
X137730836Y-108295929D01*
X137800703Y-108224420D01*
X137802295Y-108223625D01*
X137808729Y-108216205D01*
X137818933Y-108205763D01*
X137819980Y-108203233D01*
X137821775Y-108201165D01*
X137827865Y-108187524D01*
X137865813Y-108069556D01*
X137869620Y-108060366D01*
X137869995Y-108056555D01*
X137870486Y-108055030D01*
X137870343Y-108053021D01*
X137871084Y-108045500D01*
X137869844Y-107966371D01*
X137870486Y-107957351D01*
X137869645Y-107953655D01*
X137869620Y-107952015D01*
X137868850Y-107950156D01*
X137867174Y-107942785D01*
X137830310Y-107835951D01*
X137830310Y-107834085D01*
X137826452Y-107824771D01*
X137821775Y-107811216D01*
X137819981Y-107809147D01*
X137818933Y-107806617D01*
X137809456Y-107795070D01*
X137758599Y-107746284D01*
X137739175Y-107738239D01*
X137731131Y-107734907D01*
X137716265Y-107733443D01*
X137426232Y-107734907D01*
X137398764Y-107746285D01*
X137377740Y-107767309D01*
X137366362Y-107794777D01*
X137364898Y-107809643D01*
X137366362Y-107981747D01*
X137377740Y-108009215D01*
X137398764Y-108030239D01*
X137426232Y-108041617D01*
X137455964Y-108041617D01*
X137483432Y-108030239D01*
X137504456Y-108009215D01*
X137515834Y-107981747D01*
X137517298Y-107966881D01*
X137516605Y-107885461D01*
X137684369Y-107884615D01*
X137688714Y-107888783D01*
X137718827Y-107976053D01*
X137719679Y-108030463D01*
X137690581Y-108120919D01*
X137634672Y-108178141D01*
X137576388Y-108208329D01*
X137436567Y-108244515D01*
X137336978Y-108245613D01*
X137197404Y-108211945D01*
X137134459Y-108181585D01*
X137075780Y-108124253D01*
X137045484Y-108036454D01*
X137044500Y-107947215D01*
X137082188Y-107869079D01*
X137084296Y-107839422D01*
X137074893Y-107811216D01*
X137055414Y-107788755D01*
X137028821Y-107775458D01*
X136999164Y-107773350D01*
X136970958Y-107782753D01*
X136948497Y-107802232D01*
X136940539Y-107814874D01*
X136907136Y-107884126D01*
X136906026Y-107885237D01*
X136902528Y-107893681D01*
X136895890Y-107907444D01*
X136895695Y-107910175D01*
X136894648Y-107912705D01*
X136893184Y-107927571D01*
X136801462Y-107927571D01*
X136801462Y-107450535D01*
X136893370Y-107450535D01*
X136894648Y-107460589D01*
X136894648Y-107470723D01*
X136896506Y-107475209D01*
X136897119Y-107480029D01*
X136902148Y-107488830D01*
X136906026Y-107498191D01*
X136909460Y-107501625D01*
X136911871Y-107505844D01*
X136919886Y-107512051D01*
X136927050Y-107519215D01*
X136931535Y-107521073D01*
X136935377Y-107524048D01*
X136945155Y-107526714D01*
X136954518Y-107530593D01*
X136962121Y-107531341D01*
X136964062Y-107531871D01*
X136965560Y-107531680D01*
X136969384Y-107532057D01*
X137809750Y-107530593D01*
X137837218Y-107519215D01*
X137858242Y-107498191D01*
X137869620Y-107470723D01*
X137869620Y-107440991D01*
X137858242Y-107413523D01*
X137837218Y-107392499D01*
X137809750Y-107381121D01*
X137794884Y-107379657D01*
X137253801Y-107380599D01*
X137828072Y-107051289D01*
X137837218Y-107047501D01*
X137840631Y-107044087D01*
X137844870Y-107041657D01*
X137851076Y-107033642D01*
X137858242Y-107026477D01*
X137860101Y-107021988D01*
X137863074Y-107018150D01*
X137865738Y-107008378D01*
X137869620Y-106999009D01*
X137869620Y-106994147D01*
X137870897Y-106989465D01*
X137869620Y-106979418D01*
X137869620Y-106969277D01*
X137867760Y-106964787D01*
X137867148Y-106959971D01*
X137862121Y-106951173D01*
X137858242Y-106941809D01*
X137854807Y-106938374D01*
X137852397Y-106934156D01*
X137844384Y-106927951D01*
X137837218Y-106920785D01*
X137832728Y-106918925D01*
X137828890Y-106915953D01*
X137819120Y-106913288D01*
X137809750Y-106909407D01*
X137802140Y-106908657D01*
X137800206Y-106908130D01*
X137798711Y-106908319D01*
X137794884Y-106907943D01*
X136954518Y-106909407D01*
X136927050Y-106920785D01*
X136906026Y-106941809D01*
X136894648Y-106969277D01*
X136894648Y-106999009D01*
X136906026Y-107026477D01*
X136927050Y-107047501D01*
X136954518Y-107058879D01*
X136969384Y-107060343D01*
X137510466Y-107059400D01*
X136936197Y-107388709D01*
X136927050Y-107392499D01*
X136923635Y-107395913D01*
X136919397Y-107398344D01*
X136913189Y-107406359D01*
X136906026Y-107413523D01*
X136904167Y-107418008D01*
X136901193Y-107421850D01*
X136898526Y-107431628D01*
X136894648Y-107440991D01*
X136894648Y-107445848D01*
X136893370Y-107450535D01*
X136801462Y-107450535D01*
X136801462Y-106394499D01*
X136893184Y-106394499D01*
X136894648Y-106605913D01*
X136906026Y-106633381D01*
X136927050Y-106654405D01*
X136954518Y-106665783D01*
X136969384Y-106667247D01*
X137809750Y-106665783D01*
X137837218Y-106654405D01*
X137858242Y-106633381D01*
X137869620Y-106605913D01*
X137871084Y-106591047D01*
X137869730Y-106395596D01*
X137870486Y-106384969D01*
X137869630Y-106381208D01*
X137869620Y-106379633D01*
X137868850Y-106377774D01*
X137867174Y-106370403D01*
X137830311Y-106263571D01*
X137830311Y-106261704D01*
X137826451Y-106252386D01*
X137821775Y-106238834D01*
X137819980Y-106236765D01*
X137818933Y-106234236D01*
X137809456Y-106222689D01*
X137730060Y-106145117D01*
X137723675Y-106137755D01*
X137720440Y-106135718D01*
X137719289Y-106134594D01*
X137717430Y-106133824D01*
X137711033Y-106129797D01*
X137636281Y-106093742D01*
X137630884Y-106089743D01*
X137619719Y-106085754D01*
X137618463Y-106085148D01*
X137617914Y-106085108D01*
X137616817Y-106084717D01*
X137463585Y-106047753D01*
X137455964Y-106044597D01*
X137446726Y-106043687D01*
X137444802Y-106043223D01*
X137443690Y-106043388D01*
X137441098Y-106043133D01*
X137327292Y-106044387D01*
X137319466Y-106043223D01*
X137310324Y-106044574D01*
X137308304Y-106044597D01*
X137307266Y-106045026D01*
X137304689Y-106045408D01*
X137153157Y-106084625D01*
X137145805Y-106085148D01*
X137134663Y-106089411D01*
X137133384Y-106089743D01*
X137132941Y-106090070D01*
X137131854Y-106090487D01*
X137053553Y-106131042D01*
X137044978Y-106134594D01*
X137042039Y-106137005D01*
X137040593Y-106137755D01*
X137039275Y-106139274D01*
X137033431Y-106144071D01*
X136963565Y-106215578D01*
X136961975Y-106216374D01*
X136955539Y-106223793D01*
X136945336Y-106234237D01*
X136944289Y-106236764D01*
X136942494Y-106238834D01*
X136936404Y-106252474D01*
X136898453Y-106370445D01*
X136894648Y-106379633D01*
X136894272Y-106383442D01*
X136893782Y-106384968D01*
X136893924Y-106386976D01*
X136893184Y-106394499D01*
X136801462Y-106394499D01*
X136801462Y-105951411D01*
X137962806Y-105951411D01*
X137962806Y-108488588D01*
G37*
X136969384Y-105702046D02*
X136969384Y-105191022D01*
X136969384Y-105191022D02*
X137283860Y-105466189D01*
X137283860Y-105466189D02*
X137283860Y-105348260D01*
X137283860Y-105348260D02*
X137323170Y-105269641D01*
X137323170Y-105269641D02*
X137362479Y-105230332D01*
X137362479Y-105230332D02*
X137441098Y-105191022D01*
X137441098Y-105191022D02*
X137637646Y-105191022D01*
X137637646Y-105191022D02*
X137716265Y-105230332D01*
X137716265Y-105230332D02*
X137755575Y-105269641D01*
X137755575Y-105269641D02*
X137794884Y-105348260D01*
X137794884Y-105348260D02*
X137794884Y-105584117D01*
X137794884Y-105584117D02*
X137755575Y-105662736D01*
X137755575Y-105662736D02*
X137716265Y-105702046D01*
X136969384Y-104955165D02*
X137794884Y-104679999D01*
X137794884Y-104679999D02*
X136969384Y-104404832D01*
X136969384Y-104208285D02*
X136969384Y-103697261D01*
X136969384Y-103697261D02*
X137283860Y-103972428D01*
X137283860Y-103972428D02*
X137283860Y-103854499D01*
X137283860Y-103854499D02*
X137323170Y-103775880D01*
X137323170Y-103775880D02*
X137362479Y-103736571D01*
X137362479Y-103736571D02*
X137441098Y-103697261D01*
X137441098Y-103697261D02*
X137637646Y-103697261D01*
X137637646Y-103697261D02*
X137716265Y-103736571D01*
X137716265Y-103736571D02*
X137755575Y-103775880D01*
X137755575Y-103775880D02*
X137794884Y-103854499D01*
X137794884Y-103854499D02*
X137794884Y-104090356D01*
X137794884Y-104090356D02*
X137755575Y-104168975D01*
X137755575Y-104168975D02*
X137716265Y-104208285D01*
X137755575Y-100602391D02*
X137794884Y-100484463D01*
X137794884Y-100484463D02*
X137794884Y-100287915D01*
X137794884Y-100287915D02*
X137755575Y-100209296D01*
X137755575Y-100209296D02*
X137716265Y-100169987D01*
X137716265Y-100169987D02*
X137637646Y-100130677D01*
X137637646Y-100130677D02*
X137559027Y-100130677D01*
X137559027Y-100130677D02*
X137480408Y-100169987D01*
X137480408Y-100169987D02*
X137441098Y-100209296D01*
X137441098Y-100209296D02*
X137401789Y-100287915D01*
X137401789Y-100287915D02*
X137362479Y-100445153D01*
X137362479Y-100445153D02*
X137323170Y-100523772D01*
X137323170Y-100523772D02*
X137283860Y-100563082D01*
X137283860Y-100563082D02*
X137205241Y-100602391D01*
X137205241Y-100602391D02*
X137126622Y-100602391D01*
X137126622Y-100602391D02*
X137048003Y-100563082D01*
X137048003Y-100563082D02*
X137008694Y-100523772D01*
X137008694Y-100523772D02*
X136969384Y-100445153D01*
X136969384Y-100445153D02*
X136969384Y-100248606D01*
X136969384Y-100248606D02*
X137008694Y-100130677D01*
X137794884Y-99776892D02*
X136969384Y-99776892D01*
X136969384Y-99776892D02*
X136969384Y-99580344D01*
X136969384Y-99580344D02*
X137008694Y-99462416D01*
X137008694Y-99462416D02*
X137087313Y-99383797D01*
X137087313Y-99383797D02*
X137165932Y-99344487D01*
X137165932Y-99344487D02*
X137323170Y-99305178D01*
X137323170Y-99305178D02*
X137441098Y-99305178D01*
X137441098Y-99305178D02*
X137598336Y-99344487D01*
X137598336Y-99344487D02*
X137676955Y-99383797D01*
X137676955Y-99383797D02*
X137755575Y-99462416D01*
X137755575Y-99462416D02*
X137794884Y-99580344D01*
X137794884Y-99580344D02*
X137794884Y-99776892D01*
X137559027Y-98990701D02*
X137559027Y-98597606D01*
X137794884Y-99069320D02*
X136969384Y-98794154D01*
X136969384Y-98794154D02*
X137794884Y-98518987D01*
X129907550Y-107377237D02*
X129907550Y-107770332D01*
X129907550Y-107770332D02*
X130300645Y-107809641D01*
X130300645Y-107809641D02*
X130261336Y-107770332D01*
X130261336Y-107770332D02*
X130222026Y-107691713D01*
X130222026Y-107691713D02*
X130222026Y-107495165D01*
X130222026Y-107495165D02*
X130261336Y-107416546D01*
X130261336Y-107416546D02*
X130300645Y-107377237D01*
X130300645Y-107377237D02*
X130379264Y-107337927D01*
X130379264Y-107337927D02*
X130575812Y-107337927D01*
X130575812Y-107337927D02*
X130654431Y-107377237D01*
X130654431Y-107377237D02*
X130693741Y-107416546D01*
X130693741Y-107416546D02*
X130733050Y-107495165D01*
X130733050Y-107495165D02*
X130733050Y-107691713D01*
X130733050Y-107691713D02*
X130693741Y-107770332D01*
X130693741Y-107770332D02*
X130654431Y-107809641D01*
X129907550Y-107102070D02*
X130733050Y-106826904D01*
X130733050Y-106826904D02*
X129907550Y-106551737D01*
D14*
G36*
X130957120Y-119827000D02*
G01*
X130957120Y-119733210D01*
X130863331Y-119733210D01*
X130863331Y-119139212D01*
X130957120Y-119139212D01*
X130957120Y-119045422D01*
X131301014Y-119045422D01*
X131301014Y-119139212D01*
X131382347Y-119139212D01*
X131382347Y-119311159D01*
X131207224Y-119311159D01*
X131207224Y-119132617D01*
X131038453Y-119132617D01*
X131038453Y-119739805D01*
X131207224Y-119739805D01*
X131207224Y-119561263D01*
X131382347Y-119561263D01*
X131382347Y-119733210D01*
X131301014Y-119733210D01*
X131301014Y-119827000D01*
X130957120Y-119827000D01*
G37*
G36*
X131913575Y-119311159D02*
G01*
X131994908Y-119311159D01*
X131994908Y-119739805D01*
X131913575Y-119739805D01*
X131913575Y-119827000D01*
X131569681Y-119827000D01*
X131569681Y-119739805D01*
X131475892Y-119739805D01*
X131475892Y-119311159D01*
X131569681Y-119311159D01*
X131569681Y-119304564D01*
X131651014Y-119304564D01*
X131651014Y-119739805D01*
X131819785Y-119739805D01*
X131819785Y-119304564D01*
X131651014Y-119304564D01*
X131569681Y-119304564D01*
X131569681Y-119217369D01*
X131913575Y-119217369D01*
X131913575Y-119311159D01*
G37*
G36*
X132526136Y-119302122D02*
G01*
X132607469Y-119302122D01*
X132607469Y-119561263D01*
X132263575Y-119561263D01*
X132263575Y-119739805D01*
X132432347Y-119739805D01*
X132432347Y-119655053D01*
X132607469Y-119655053D01*
X132607469Y-119739805D01*
X132526136Y-119739805D01*
X132526136Y-119827000D01*
X132182242Y-119827000D01*
X132182242Y-119739805D01*
X132088453Y-119739805D01*
X132088453Y-119304564D01*
X132263575Y-119304564D01*
X132263575Y-119474069D01*
X132432347Y-119474069D01*
X132432347Y-119304564D01*
X132263575Y-119304564D01*
X132088453Y-119304564D01*
X132088453Y-119302122D01*
X132182242Y-119302122D01*
X132182242Y-119217369D01*
X132526136Y-119217369D01*
X132526136Y-119302122D01*
G37*
G36*
X132701014Y-119827000D02*
G01*
X132701014Y-119739805D01*
X132872961Y-119739805D01*
X132872961Y-119132617D01*
X132701014Y-119132617D01*
X132701014Y-119045422D01*
X133048083Y-119045422D01*
X133048083Y-119739805D01*
X133232486Y-119739805D01*
X133232486Y-119827000D01*
X132701014Y-119827000D01*
G37*
G36*
X133751258Y-119302122D02*
G01*
X133832591Y-119302122D01*
X133832591Y-119827000D01*
X133407364Y-119827000D01*
X133407364Y-119733210D01*
X133313575Y-119733210D01*
X133313575Y-119561263D01*
X133407364Y-119561263D01*
X133488697Y-119561263D01*
X133488697Y-119739805D01*
X133657469Y-119739805D01*
X133657469Y-119561263D01*
X133488697Y-119561263D01*
X133407364Y-119561263D01*
X133407364Y-119474069D01*
X133657469Y-119474069D01*
X133657469Y-119304564D01*
X133488697Y-119304564D01*
X133488697Y-119389316D01*
X133313575Y-119389316D01*
X133313575Y-119302122D01*
X133407364Y-119302122D01*
X133407364Y-119217369D01*
X133751258Y-119217369D01*
X133751258Y-119302122D01*
G37*
G36*
X134281753Y-119827000D02*
G01*
X134281753Y-119733210D01*
X134187964Y-119733210D01*
X134187964Y-119139212D01*
X134281753Y-119139212D01*
X134281753Y-119045422D01*
X134625647Y-119045422D01*
X134625647Y-119139212D01*
X134706980Y-119139212D01*
X134706980Y-119311159D01*
X134531858Y-119311159D01*
X134531858Y-119132617D01*
X134363086Y-119132617D01*
X134363086Y-119739805D01*
X134531858Y-119739805D01*
X134531858Y-119561263D01*
X134706980Y-119561263D01*
X134706980Y-119733210D01*
X134625647Y-119733210D01*
X134625647Y-119827000D01*
X134281753Y-119827000D01*
G37*
G36*
X135238208Y-119302122D02*
G01*
X135319541Y-119302122D01*
X135319541Y-119827000D01*
X134894314Y-119827000D01*
X134894314Y-119733210D01*
X134800525Y-119733210D01*
X134800525Y-119561263D01*
X134894314Y-119561263D01*
X134975647Y-119561263D01*
X134975647Y-119739805D01*
X135144419Y-119739805D01*
X135144419Y-119561263D01*
X134975647Y-119561263D01*
X134894314Y-119561263D01*
X134894314Y-119474069D01*
X135144419Y-119474069D01*
X135144419Y-119304564D01*
X134975647Y-119304564D01*
X134975647Y-119389316D01*
X134800525Y-119389316D01*
X134800525Y-119302122D01*
X134894314Y-119302122D01*
X134894314Y-119217369D01*
X135238208Y-119217369D01*
X135238208Y-119302122D01*
G37*
G36*
X135413086Y-119827000D02*
G01*
X135413086Y-119217369D01*
X135844419Y-119217369D01*
X135844419Y-119311159D01*
X135932102Y-119311159D01*
X135932102Y-119827000D01*
X135756980Y-119827000D01*
X135756980Y-119304564D01*
X135588208Y-119304564D01*
X135588208Y-119827000D01*
X135413086Y-119827000D01*
G37*
G36*
X136025647Y-119389316D02*
G01*
X136025647Y-119302122D01*
X136119437Y-119302122D01*
X136119437Y-119389316D01*
X136025647Y-119389316D01*
G37*
G36*
X136119437Y-119302122D02*
G01*
X136119437Y-119217369D01*
X136025647Y-119217369D01*
X136025647Y-119045422D01*
X136197594Y-119045422D01*
X136197594Y-119302122D01*
X136119437Y-119302122D01*
G37*
G36*
X136553212Y-119827000D02*
G01*
X136553212Y-119748842D01*
X136459423Y-119748842D01*
X136459423Y-119304564D01*
X136287476Y-119304564D01*
X136287476Y-119217369D01*
X136459423Y-119217369D01*
X136459423Y-119045422D01*
X136634545Y-119045422D01*
X136634545Y-119217369D01*
X136818948Y-119217369D01*
X136818948Y-119304564D01*
X136634545Y-119304564D01*
X136634545Y-119739805D01*
X136818948Y-119739805D01*
X136818948Y-119827000D01*
X136553212Y-119827000D01*
G37*
G36*
X137084440Y-119827000D02*
G01*
X137084440Y-119655053D01*
X137259562Y-119655053D01*
X137259562Y-119827000D01*
X137084440Y-119827000D01*
G37*
G36*
X137084440Y-119561263D02*
G01*
X137084440Y-119311159D01*
X136993826Y-119311159D01*
X136993826Y-119045422D01*
X137084440Y-119045422D01*
X137084440Y-118951633D01*
X137259562Y-118951633D01*
X137259562Y-119045422D01*
X137337720Y-119045422D01*
X137337720Y-119311159D01*
X137259562Y-119311159D01*
X137259562Y-119561263D01*
X137084440Y-119561263D01*
G37*
G36*
X138711904Y-92098000D02*
G01*
X138711904Y-91610295D01*
X138924492Y-91610295D01*
X138924492Y-91685327D01*
X138999524Y-91685327D01*
X138999524Y-91610295D01*
X139127116Y-91610295D01*
X139127116Y-91685327D01*
X139202148Y-91685327D01*
X139202148Y-92098000D01*
X139062050Y-92098000D01*
X139062050Y-91747853D01*
X138999524Y-91747853D01*
X138999524Y-92035473D01*
X138924492Y-92035473D01*
X138924492Y-91747853D01*
X138852001Y-91747853D01*
X138852001Y-92098000D01*
X138711904Y-92098000D01*
G37*
G36*
X139621659Y-91685327D02*
G01*
X139686726Y-91685327D01*
X139686726Y-92028244D01*
X139621659Y-92028244D01*
X139621659Y-92098000D01*
X139346544Y-92098000D01*
X139346544Y-92028244D01*
X139271513Y-92028244D01*
X139271513Y-91685327D01*
X139346544Y-91685327D01*
X139346544Y-91680051D01*
X139411610Y-91680051D01*
X139411610Y-92028244D01*
X139546628Y-92028244D01*
X139546628Y-91680051D01*
X139411610Y-91680051D01*
X139346544Y-91680051D01*
X139346544Y-91610295D01*
X139621659Y-91610295D01*
X139621659Y-91685327D01*
G37*
G36*
X140176774Y-92098000D02*
G01*
X139831513Y-92098000D01*
X139831513Y-92028244D01*
X139761562Y-92028244D01*
X139761562Y-91685327D01*
X139831513Y-91685327D01*
X139831513Y-91680051D01*
X139901659Y-91680051D01*
X139901659Y-92028244D01*
X140036677Y-92028244D01*
X140036677Y-91680051D01*
X139901659Y-91680051D01*
X139831513Y-91680051D01*
X139831513Y-91610295D01*
X140036677Y-91610295D01*
X140036677Y-91472738D01*
X140176774Y-91472738D01*
X140176774Y-92098000D01*
G37*
G36*
X140601171Y-91610295D02*
G01*
X140806139Y-91610295D01*
X140806139Y-91685327D01*
X140876286Y-91685327D01*
X140876286Y-92028244D01*
X140806139Y-92028244D01*
X140806139Y-92098000D01*
X140461073Y-92098000D01*
X140461073Y-91680051D01*
X140601171Y-91680051D01*
X140601171Y-92028244D01*
X140736188Y-92028244D01*
X140736188Y-91680051D01*
X140601171Y-91680051D01*
X140461073Y-91680051D01*
X140461073Y-91472738D01*
X140601171Y-91472738D01*
X140601171Y-91610295D01*
G37*
G36*
X141026153Y-92310588D02*
G01*
X141026153Y-92240833D01*
X140951122Y-92240833D01*
X140951122Y-92173031D01*
X141091220Y-92173031D01*
X141091220Y-92240833D01*
X141226237Y-92240833D01*
X141226237Y-92098000D01*
X141026153Y-92098000D01*
X141026153Y-92022968D01*
X140951122Y-92022968D01*
X140951122Y-91610295D01*
X141091220Y-91610295D01*
X141091220Y-92028244D01*
X141226237Y-92028244D01*
X141226237Y-91610295D01*
X141366335Y-91610295D01*
X141366335Y-92240833D01*
X141301268Y-92240833D01*
X141301268Y-92310588D01*
X141026153Y-92310588D01*
G37*
G36*
X141650633Y-92098000D02*
G01*
X141650633Y-91610295D01*
X141863222Y-91610295D01*
X141863222Y-91685327D01*
X141938254Y-91685327D01*
X141938254Y-91610295D01*
X142065846Y-91610295D01*
X142065846Y-91685327D01*
X142140878Y-91685327D01*
X142140878Y-92098000D01*
X142000780Y-92098000D01*
X142000780Y-91747853D01*
X141938254Y-91747853D01*
X141938254Y-92035473D01*
X141863222Y-92035473D01*
X141863222Y-91747853D01*
X141790731Y-91747853D01*
X141790731Y-92098000D01*
X141650633Y-92098000D01*
G37*
G36*
X142560389Y-91678097D02*
G01*
X142625455Y-91678097D01*
X142625455Y-92098000D01*
X142285274Y-92098000D01*
X142285274Y-92022968D01*
X142210243Y-92022968D01*
X142210243Y-91885411D01*
X142285274Y-91885411D01*
X142350340Y-91885411D01*
X142350340Y-92028244D01*
X142485358Y-92028244D01*
X142485358Y-91885411D01*
X142350340Y-91885411D01*
X142285274Y-91885411D01*
X142285274Y-91815655D01*
X142485358Y-91815655D01*
X142485358Y-91680051D01*
X142350340Y-91680051D01*
X142350340Y-91747853D01*
X142210243Y-91747853D01*
X142210243Y-91678097D01*
X142285274Y-91678097D01*
X142285274Y-91610295D01*
X142560389Y-91610295D01*
X142560389Y-91678097D01*
G37*
G36*
X142912880Y-92098000D02*
G01*
X142912880Y-92035473D01*
X142837849Y-92035473D01*
X142837849Y-91680051D01*
X142700291Y-91680051D01*
X142700291Y-91610295D01*
X142837849Y-91610295D01*
X142837849Y-91472738D01*
X142977947Y-91472738D01*
X142977947Y-91610295D01*
X143125469Y-91610295D01*
X143125469Y-91680051D01*
X142977947Y-91680051D01*
X142977947Y-92028244D01*
X143125469Y-92028244D01*
X143125469Y-92098000D01*
X142912880Y-92098000D01*
G37*
G36*
X143265372Y-92098000D02*
G01*
X143265372Y-92022968D01*
X143190340Y-92022968D01*
X143190340Y-91685327D01*
X143265372Y-91685327D01*
X143265372Y-91610295D01*
X143540487Y-91610295D01*
X143540487Y-91685327D01*
X143605553Y-91685327D01*
X143605553Y-91822884D01*
X143465455Y-91822884D01*
X143465455Y-91680051D01*
X143330438Y-91680051D01*
X143330438Y-92028244D01*
X143465455Y-92028244D01*
X143465455Y-91885411D01*
X143605553Y-91885411D01*
X143605553Y-92022968D01*
X143540487Y-92022968D01*
X143540487Y-92098000D01*
X143265372Y-92098000D01*
G37*
G36*
X143680389Y-92098000D02*
G01*
X143680389Y-91472738D01*
X143820487Y-91472738D01*
X143820487Y-91610295D01*
X144025455Y-91610295D01*
X144025455Y-91685327D01*
X144095602Y-91685327D01*
X144095602Y-92098000D01*
X143955504Y-92098000D01*
X143955504Y-91680051D01*
X143820487Y-91680051D01*
X143820487Y-92098000D01*
X143680389Y-92098000D01*
G37*
G36*
X144520585Y-91678097D02*
G01*
X144585651Y-91678097D01*
X144585651Y-92098000D01*
X144245469Y-92098000D01*
X144245469Y-92022968D01*
X144170438Y-92022968D01*
X144170438Y-91885411D01*
X144245469Y-91885411D01*
X144310536Y-91885411D01*
X144310536Y-92028244D01*
X144445553Y-92028244D01*
X144445553Y-91885411D01*
X144310536Y-91885411D01*
X144245469Y-91885411D01*
X144245469Y-91815655D01*
X144445553Y-91815655D01*
X144445553Y-91680051D01*
X144310536Y-91680051D01*
X144310536Y-91747853D01*
X144170438Y-91747853D01*
X144170438Y-91678097D01*
X144245469Y-91678097D01*
X144245469Y-91610295D01*
X144520585Y-91610295D01*
X144520585Y-91678097D01*
G37*
G36*
X144660487Y-92098000D02*
G01*
X144660487Y-91960442D01*
X144800585Y-91960442D01*
X144800585Y-92098000D01*
X144660487Y-92098000D01*
G37*
G36*
X144944981Y-92098000D02*
G01*
X144944981Y-92022968D01*
X144869950Y-92022968D01*
X144869950Y-91685327D01*
X144944981Y-91685327D01*
X144944981Y-91610295D01*
X145220096Y-91610295D01*
X145220096Y-91685327D01*
X145285162Y-91685327D01*
X145285162Y-91822884D01*
X145145065Y-91822884D01*
X145145065Y-91680051D01*
X145010047Y-91680051D01*
X145010047Y-92028244D01*
X145145065Y-92028244D01*
X145145065Y-91885411D01*
X145285162Y-91885411D01*
X145285162Y-92022968D01*
X145220096Y-92022968D01*
X145220096Y-92098000D01*
X144944981Y-92098000D01*
G37*
G36*
X145710145Y-91678097D02*
G01*
X145775211Y-91678097D01*
X145775211Y-92098000D01*
X145435030Y-92098000D01*
X145435030Y-92022968D01*
X145359998Y-92022968D01*
X145359998Y-91885411D01*
X145435030Y-91885411D01*
X145500096Y-91885411D01*
X145500096Y-92028244D01*
X145635114Y-92028244D01*
X145635114Y-91885411D01*
X145500096Y-91885411D01*
X145435030Y-91885411D01*
X145435030Y-91815655D01*
X145635114Y-91815655D01*
X145635114Y-91680051D01*
X145500096Y-91680051D01*
X145500096Y-91747853D01*
X145359998Y-91747853D01*
X145359998Y-91678097D01*
X145435030Y-91678097D01*
X145435030Y-91610295D01*
X145710145Y-91610295D01*
X145710145Y-91678097D01*
G37*
G36*
X146062636Y-92098000D02*
G01*
X146062636Y-92035473D01*
X145987605Y-92035473D01*
X145987605Y-91680051D01*
X145850047Y-91680051D01*
X145850047Y-91610295D01*
X145987605Y-91610295D01*
X145987605Y-91472738D01*
X146127703Y-91472738D01*
X146127703Y-91610295D01*
X146275225Y-91610295D01*
X146275225Y-91680051D01*
X146127703Y-91680051D01*
X146127703Y-92028244D01*
X146275225Y-92028244D01*
X146275225Y-92098000D01*
X146062636Y-92098000D01*
G37*
D11*
X156305023Y-107594658D02*
X156422951Y-107633967D01*
X156422951Y-107633967D02*
X156619499Y-107633967D01*
X156619499Y-107633967D02*
X156698118Y-107594658D01*
X156698118Y-107594658D02*
X156737427Y-107555348D01*
X156737427Y-107555348D02*
X156776737Y-107476729D01*
X156776737Y-107476729D02*
X156776737Y-107398110D01*
X156776737Y-107398110D02*
X156737427Y-107319491D01*
X156737427Y-107319491D02*
X156698118Y-107280181D01*
X156698118Y-107280181D02*
X156619499Y-107240872D01*
X156619499Y-107240872D02*
X156462261Y-107201562D01*
X156462261Y-107201562D02*
X156383642Y-107162253D01*
X156383642Y-107162253D02*
X156344332Y-107122943D01*
X156344332Y-107122943D02*
X156305023Y-107044324D01*
X156305023Y-107044324D02*
X156305023Y-106965705D01*
X156305023Y-106965705D02*
X156344332Y-106887086D01*
X156344332Y-106887086D02*
X156383642Y-106847777D01*
X156383642Y-106847777D02*
X156462261Y-106808467D01*
X156462261Y-106808467D02*
X156658808Y-106808467D01*
X156658808Y-106808467D02*
X156776737Y-106847777D01*
X157602236Y-107555348D02*
X157562927Y-107594658D01*
X157562927Y-107594658D02*
X157444998Y-107633967D01*
X157444998Y-107633967D02*
X157366379Y-107633967D01*
X157366379Y-107633967D02*
X157248451Y-107594658D01*
X157248451Y-107594658D02*
X157169832Y-107516038D01*
X157169832Y-107516038D02*
X157130522Y-107437419D01*
X157130522Y-107437419D02*
X157091213Y-107280181D01*
X157091213Y-107280181D02*
X157091213Y-107162253D01*
X157091213Y-107162253D02*
X157130522Y-107005015D01*
X157130522Y-107005015D02*
X157169832Y-106926396D01*
X157169832Y-106926396D02*
X157248451Y-106847777D01*
X157248451Y-106847777D02*
X157366379Y-106808467D01*
X157366379Y-106808467D02*
X157444998Y-106808467D01*
X157444998Y-106808467D02*
X157562927Y-106847777D01*
X157562927Y-106847777D02*
X157602236Y-106887086D01*
X158349117Y-107633967D02*
X157956022Y-107633967D01*
X157956022Y-107633967D02*
X157956022Y-106808467D01*
X136969384Y-112928951D02*
X136969384Y-112457237D01*
X137794884Y-112693094D02*
X136969384Y-112693094D01*
X136969384Y-112260690D02*
X137794884Y-111710357D01*
X136969384Y-111710357D02*
X137794884Y-112260690D01*
X156265714Y-105094658D02*
X156383642Y-105133967D01*
X156383642Y-105133967D02*
X156580190Y-105133967D01*
X156580190Y-105133967D02*
X156658809Y-105094658D01*
X156658809Y-105094658D02*
X156698118Y-105055348D01*
X156698118Y-105055348D02*
X156737428Y-104976729D01*
X156737428Y-104976729D02*
X156737428Y-104898110D01*
X156737428Y-104898110D02*
X156698118Y-104819491D01*
X156698118Y-104819491D02*
X156658809Y-104780181D01*
X156658809Y-104780181D02*
X156580190Y-104740872D01*
X156580190Y-104740872D02*
X156422952Y-104701562D01*
X156422952Y-104701562D02*
X156344333Y-104662253D01*
X156344333Y-104662253D02*
X156305023Y-104622943D01*
X156305023Y-104622943D02*
X156265714Y-104544324D01*
X156265714Y-104544324D02*
X156265714Y-104465705D01*
X156265714Y-104465705D02*
X156305023Y-104387086D01*
X156305023Y-104387086D02*
X156344333Y-104347777D01*
X156344333Y-104347777D02*
X156422952Y-104308467D01*
X156422952Y-104308467D02*
X156619499Y-104308467D01*
X156619499Y-104308467D02*
X156737428Y-104347777D01*
X157091213Y-105133967D02*
X157091213Y-104308467D01*
X157091213Y-104308467D02*
X157287761Y-104308467D01*
X157287761Y-104308467D02*
X157405689Y-104347777D01*
X157405689Y-104347777D02*
X157484308Y-104426396D01*
X157484308Y-104426396D02*
X157523618Y-104505015D01*
X157523618Y-104505015D02*
X157562927Y-104662253D01*
X157562927Y-104662253D02*
X157562927Y-104780181D01*
X157562927Y-104780181D02*
X157523618Y-104937419D01*
X157523618Y-104937419D02*
X157484308Y-105016038D01*
X157484308Y-105016038D02*
X157405689Y-105094658D01*
X157405689Y-105094658D02*
X157287761Y-105133967D01*
X157287761Y-105133967D02*
X157091213Y-105133967D01*
X157877404Y-104898110D02*
X158270499Y-104898110D01*
X157798785Y-105133967D02*
X158073951Y-104308467D01*
X158073951Y-104308467D02*
X158349118Y-105133967D01*
X129986169Y-100228951D02*
X129946860Y-100189642D01*
X129946860Y-100189642D02*
X129907550Y-100111023D01*
X129907550Y-100111023D02*
X129907550Y-99914475D01*
X129907550Y-99914475D02*
X129946860Y-99835856D01*
X129946860Y-99835856D02*
X129986169Y-99796547D01*
X129986169Y-99796547D02*
X130064788Y-99757237D01*
X130064788Y-99757237D02*
X130143407Y-99757237D01*
X130143407Y-99757237D02*
X130261336Y-99796547D01*
X130261336Y-99796547D02*
X130733050Y-100268261D01*
X130733050Y-100268261D02*
X130733050Y-99757237D01*
X129907550Y-99482071D02*
X129907550Y-98971047D01*
X129907550Y-98971047D02*
X130222026Y-99246214D01*
X130222026Y-99246214D02*
X130222026Y-99128285D01*
X130222026Y-99128285D02*
X130261336Y-99049666D01*
X130261336Y-99049666D02*
X130300645Y-99010357D01*
X130300645Y-99010357D02*
X130379264Y-98971047D01*
X130379264Y-98971047D02*
X130575812Y-98971047D01*
X130575812Y-98971047D02*
X130654431Y-99010357D01*
X130654431Y-99010357D02*
X130693741Y-99049666D01*
X130693741Y-99049666D02*
X130733050Y-99128285D01*
X130733050Y-99128285D02*
X130733050Y-99364142D01*
X130733050Y-99364142D02*
X130693741Y-99442761D01*
X130693741Y-99442761D02*
X130654431Y-99482071D01*
D13*
X153328906Y-95923047D02*
X154344906Y-95923047D01*
X154344906Y-95923047D02*
X154344906Y-96310095D01*
X154344906Y-96310095D02*
X154296525Y-96406857D01*
X154296525Y-96406857D02*
X154248144Y-96455238D01*
X154248144Y-96455238D02*
X154151382Y-96503619D01*
X154151382Y-96503619D02*
X154006239Y-96503619D01*
X154006239Y-96503619D02*
X153909477Y-96455238D01*
X153909477Y-96455238D02*
X153861096Y-96406857D01*
X153861096Y-96406857D02*
X153812715Y-96310095D01*
X153812715Y-96310095D02*
X153812715Y-95923047D01*
X154344906Y-96842285D02*
X153328906Y-97084190D01*
X153328906Y-97084190D02*
X154054620Y-97277714D01*
X154054620Y-97277714D02*
X153328906Y-97471238D01*
X153328906Y-97471238D02*
X154344906Y-97713143D01*
X153328906Y-98100190D02*
X154344906Y-98100190D01*
X154344906Y-98100190D02*
X153619191Y-98438857D01*
X153619191Y-98438857D02*
X154344906Y-98777524D01*
X154344906Y-98777524D02*
X153328906Y-98777524D01*
X153861096Y-100374095D02*
X153861096Y-100035428D01*
X153328906Y-100035428D02*
X154344906Y-100035428D01*
X154344906Y-100035428D02*
X154344906Y-100519238D01*
X153328906Y-101341714D02*
X153861096Y-101341714D01*
X153861096Y-101341714D02*
X153957858Y-101293333D01*
X153957858Y-101293333D02*
X154006239Y-101196571D01*
X154006239Y-101196571D02*
X154006239Y-101003047D01*
X154006239Y-101003047D02*
X153957858Y-100906285D01*
X153377287Y-101341714D02*
X153328906Y-101244952D01*
X153328906Y-101244952D02*
X153328906Y-101003047D01*
X153328906Y-101003047D02*
X153377287Y-100906285D01*
X153377287Y-100906285D02*
X153474048Y-100857904D01*
X153474048Y-100857904D02*
X153570810Y-100857904D01*
X153570810Y-100857904D02*
X153667572Y-100906285D01*
X153667572Y-100906285D02*
X153715953Y-101003047D01*
X153715953Y-101003047D02*
X153715953Y-101244952D01*
X153715953Y-101244952D02*
X153764334Y-101341714D01*
X154006239Y-101825523D02*
X153328906Y-101825523D01*
X153909477Y-101825523D02*
X153957858Y-101873904D01*
X153957858Y-101873904D02*
X154006239Y-101970666D01*
X154006239Y-101970666D02*
X154006239Y-102115809D01*
X154006239Y-102115809D02*
X153957858Y-102212571D01*
X153957858Y-102212571D02*
X153861096Y-102260952D01*
X153861096Y-102260952D02*
X153328906Y-102260952D01*
D11*
X143520953Y-103383550D02*
X144031977Y-103383550D01*
X144031977Y-103383550D02*
X143756810Y-103698026D01*
X143756810Y-103698026D02*
X143874739Y-103698026D01*
X143874739Y-103698026D02*
X143953358Y-103737336D01*
X143953358Y-103737336D02*
X143992667Y-103776645D01*
X143992667Y-103776645D02*
X144031977Y-103855264D01*
X144031977Y-103855264D02*
X144031977Y-104051812D01*
X144031977Y-104051812D02*
X143992667Y-104130431D01*
X143992667Y-104130431D02*
X143953358Y-104169741D01*
X143953358Y-104169741D02*
X143874739Y-104209050D01*
X143874739Y-104209050D02*
X143638882Y-104209050D01*
X143638882Y-104209050D02*
X143560263Y-104169741D01*
X143560263Y-104169741D02*
X143520953Y-104130431D01*
X144267834Y-103383550D02*
X144543000Y-104209050D01*
X144543000Y-104209050D02*
X144818167Y-103383550D01*
X145014714Y-103383550D02*
X145525738Y-103383550D01*
X145525738Y-103383550D02*
X145250571Y-103698026D01*
X145250571Y-103698026D02*
X145368500Y-103698026D01*
X145368500Y-103698026D02*
X145447119Y-103737336D01*
X145447119Y-103737336D02*
X145486428Y-103776645D01*
X145486428Y-103776645D02*
X145525738Y-103855264D01*
X145525738Y-103855264D02*
X145525738Y-104051812D01*
X145525738Y-104051812D02*
X145486428Y-104130431D01*
X145486428Y-104130431D02*
X145447119Y-104169741D01*
X145447119Y-104169741D02*
X145368500Y-104209050D01*
X145368500Y-104209050D02*
X145132643Y-104209050D01*
X145132643Y-104209050D02*
X145054024Y-104169741D01*
X145054024Y-104169741D02*
X145014714Y-104130431D01*
G36*
X130505029Y-113848053D02*
G01*
X130567974Y-113878413D01*
X130626653Y-113935745D01*
X130656911Y-114023434D01*
X130657684Y-114134978D01*
X129983231Y-114136153D01*
X129982498Y-114030331D01*
X130011853Y-113939080D01*
X130067762Y-113881857D01*
X130126045Y-113851669D01*
X130265866Y-113815483D01*
X130365455Y-113814385D01*
X130505029Y-113848053D01*
G37*
G36*
X130900972Y-116108588D02*
G01*
X129739628Y-116108588D01*
X129739628Y-115547571D01*
X129831350Y-115547571D01*
X129832646Y-115665199D01*
X129831948Y-115675031D01*
X129832796Y-115678761D01*
X129832814Y-115680366D01*
X129833583Y-115682223D01*
X129835260Y-115689597D01*
X129872124Y-115796427D01*
X129872124Y-115798294D01*
X129875980Y-115807604D01*
X129880660Y-115821165D01*
X129882455Y-115823234D01*
X129883502Y-115825762D01*
X129892978Y-115837310D01*
X129972378Y-115914887D01*
X129978759Y-115922244D01*
X129981991Y-115924278D01*
X129983144Y-115925405D01*
X129985004Y-115926175D01*
X129991401Y-115930202D01*
X130066152Y-115966256D01*
X130071550Y-115970256D01*
X130082714Y-115974244D01*
X130083971Y-115974851D01*
X130084519Y-115974890D01*
X130085617Y-115975282D01*
X130238848Y-116012245D01*
X130246470Y-116015402D01*
X130255707Y-116016311D01*
X130257632Y-116016776D01*
X130258743Y-116016610D01*
X130261336Y-116016866D01*
X130375141Y-116015611D01*
X130382968Y-116016776D01*
X130392109Y-116015424D01*
X130394130Y-116015402D01*
X130395167Y-116014972D01*
X130397745Y-116014591D01*
X130549276Y-115975373D01*
X130556629Y-115974851D01*
X130567770Y-115970587D01*
X130569050Y-115970256D01*
X130569492Y-115969928D01*
X130570580Y-115969512D01*
X130648880Y-115928956D01*
X130657455Y-115925405D01*
X130660392Y-115922994D01*
X130661841Y-115922244D01*
X130663159Y-115920723D01*
X130669002Y-115915929D01*
X130738869Y-115844420D01*
X130740461Y-115843625D01*
X130746895Y-115836205D01*
X130757099Y-115825763D01*
X130758146Y-115823233D01*
X130759941Y-115821165D01*
X130766031Y-115807524D01*
X130803979Y-115689556D01*
X130807786Y-115680366D01*
X130808161Y-115676555D01*
X130808652Y-115675030D01*
X130808509Y-115673021D01*
X130809250Y-115665500D01*
X130808010Y-115586371D01*
X130808652Y-115577351D01*
X130807811Y-115573655D01*
X130807786Y-115572015D01*
X130807016Y-115570156D01*
X130805340Y-115562785D01*
X130768476Y-115455951D01*
X130768476Y-115454085D01*
X130764618Y-115444771D01*
X130759941Y-115431216D01*
X130758147Y-115429147D01*
X130757099Y-115426617D01*
X130747622Y-115415070D01*
X130696765Y-115366284D01*
X130677341Y-115358239D01*
X130669297Y-115354907D01*
X130654431Y-115353443D01*
X130364398Y-115354907D01*
X130336930Y-115366285D01*
X130315906Y-115387309D01*
X130304528Y-115414777D01*
X130303064Y-115429643D01*
X130304528Y-115601747D01*
X130315906Y-115629215D01*
X130336930Y-115650239D01*
X130364398Y-115661617D01*
X130394130Y-115661617D01*
X130421598Y-115650239D01*
X130442622Y-115629215D01*
X130454000Y-115601747D01*
X130455464Y-115586881D01*
X130454771Y-115505461D01*
X130622535Y-115504615D01*
X130626880Y-115508783D01*
X130656993Y-115596053D01*
X130657845Y-115650463D01*
X130628747Y-115740919D01*
X130572838Y-115798141D01*
X130514554Y-115828329D01*
X130374733Y-115864515D01*
X130275144Y-115865613D01*
X130135570Y-115831945D01*
X130072625Y-115801585D01*
X130013946Y-115744253D01*
X129983650Y-115656454D01*
X129982666Y-115567215D01*
X130020354Y-115489079D01*
X130022462Y-115459422D01*
X130013059Y-115431216D01*
X129993580Y-115408755D01*
X129966987Y-115395458D01*
X129937330Y-115393350D01*
X129909124Y-115402753D01*
X129886663Y-115422232D01*
X129878705Y-115434874D01*
X129845302Y-115504126D01*
X129844192Y-115505237D01*
X129840694Y-115513681D01*
X129834056Y-115527444D01*
X129833861Y-115530175D01*
X129832814Y-115532705D01*
X129831350Y-115547571D01*
X129739628Y-115547571D01*
X129739628Y-115070535D01*
X129831536Y-115070535D01*
X129832814Y-115080589D01*
X129832814Y-115090723D01*
X129834672Y-115095209D01*
X129835285Y-115100029D01*
X129840314Y-115108830D01*
X129844192Y-115118191D01*
X129847626Y-115121625D01*
X129850037Y-115125844D01*
X129858052Y-115132051D01*
X129865216Y-115139215D01*
X129869701Y-115141073D01*
X129873543Y-115144048D01*
X129883321Y-115146714D01*
X129892684Y-115150593D01*
X129900287Y-115151341D01*
X129902228Y-115151871D01*
X129903726Y-115151680D01*
X129907550Y-115152057D01*
X130747916Y-115150593D01*
X130775384Y-115139215D01*
X130796408Y-115118191D01*
X130807786Y-115090723D01*
X130807786Y-115060991D01*
X130796408Y-115033523D01*
X130775384Y-115012499D01*
X130747916Y-115001121D01*
X130733050Y-114999657D01*
X130191967Y-115000599D01*
X130766238Y-114671289D01*
X130775384Y-114667501D01*
X130778797Y-114664087D01*
X130783036Y-114661657D01*
X130789242Y-114653642D01*
X130796408Y-114646477D01*
X130798267Y-114641988D01*
X130801240Y-114638150D01*
X130803904Y-114628378D01*
X130807786Y-114619009D01*
X130807786Y-114614147D01*
X130809063Y-114609465D01*
X130807786Y-114599418D01*
X130807786Y-114589277D01*
X130805926Y-114584787D01*
X130805314Y-114579971D01*
X130800287Y-114571173D01*
X130796408Y-114561809D01*
X130792973Y-114558374D01*
X130790563Y-114554156D01*
X130782550Y-114547951D01*
X130775384Y-114540785D01*
X130770894Y-114538925D01*
X130767056Y-114535953D01*
X130757286Y-114533288D01*
X130747916Y-114529407D01*
X130740306Y-114528657D01*
X130738372Y-114528130D01*
X130736877Y-114528319D01*
X130733050Y-114527943D01*
X129892684Y-114529407D01*
X129865216Y-114540785D01*
X129844192Y-114561809D01*
X129832814Y-114589277D01*
X129832814Y-114619009D01*
X129844192Y-114646477D01*
X129865216Y-114667501D01*
X129892684Y-114678879D01*
X129907550Y-114680343D01*
X130448632Y-114679400D01*
X129874363Y-115008709D01*
X129865216Y-115012499D01*
X129861801Y-115015913D01*
X129857563Y-115018344D01*
X129851355Y-115026359D01*
X129844192Y-115033523D01*
X129842333Y-115038008D01*
X129839359Y-115041850D01*
X129836692Y-115051628D01*
X129832814Y-115060991D01*
X129832814Y-115065848D01*
X129831536Y-115070535D01*
X129739628Y-115070535D01*
X129739628Y-114014499D01*
X129831350Y-114014499D01*
X129832814Y-114225913D01*
X129844192Y-114253381D01*
X129865216Y-114274405D01*
X129892684Y-114285783D01*
X129907550Y-114287247D01*
X130747916Y-114285783D01*
X130775384Y-114274405D01*
X130796408Y-114253381D01*
X130807786Y-114225913D01*
X130809250Y-114211047D01*
X130807896Y-114015596D01*
X130808652Y-114004969D01*
X130807796Y-114001208D01*
X130807786Y-113999633D01*
X130807016Y-113997774D01*
X130805340Y-113990403D01*
X130768477Y-113883571D01*
X130768477Y-113881704D01*
X130764617Y-113872386D01*
X130759941Y-113858834D01*
X130758146Y-113856765D01*
X130757099Y-113854236D01*
X130747622Y-113842689D01*
X130668226Y-113765117D01*
X130661841Y-113757755D01*
X130658606Y-113755718D01*
X130657455Y-113754594D01*
X130655596Y-113753824D01*
X130649199Y-113749797D01*
X130574447Y-113713742D01*
X130569050Y-113709743D01*
X130557885Y-113705754D01*
X130556629Y-113705148D01*
X130556080Y-113705108D01*
X130554983Y-113704717D01*
X130401751Y-113667753D01*
X130394130Y-113664597D01*
X130384892Y-113663687D01*
X130382968Y-113663223D01*
X130381856Y-113663388D01*
X130379264Y-113663133D01*
X130265458Y-113664387D01*
X130257632Y-113663223D01*
X130248490Y-113664574D01*
X130246470Y-113664597D01*
X130245432Y-113665026D01*
X130242855Y-113665408D01*
X130091323Y-113704625D01*
X130083971Y-113705148D01*
X130072829Y-113709411D01*
X130071550Y-113709743D01*
X130071107Y-113710070D01*
X130070020Y-113710487D01*
X129991719Y-113751042D01*
X129983144Y-113754594D01*
X129980205Y-113757005D01*
X129978759Y-113757755D01*
X129977441Y-113759274D01*
X129971597Y-113764071D01*
X129901731Y-113835578D01*
X129900141Y-113836374D01*
X129893705Y-113843793D01*
X129883502Y-113854237D01*
X129882455Y-113856764D01*
X129880660Y-113858834D01*
X129874570Y-113872474D01*
X129836619Y-113990445D01*
X129832814Y-113999633D01*
X129832438Y-114003442D01*
X129831948Y-114004968D01*
X129832090Y-114006976D01*
X129831350Y-114014499D01*
X129739628Y-114014499D01*
X129739628Y-113571411D01*
X130900972Y-113571411D01*
X130900972Y-116108588D01*
G37*
G36*
X137566863Y-116388053D02*
G01*
X137629808Y-116418413D01*
X137688487Y-116475745D01*
X137718745Y-116563434D01*
X137719518Y-116674978D01*
X137045065Y-116676153D01*
X137044332Y-116570331D01*
X137073687Y-116479080D01*
X137129596Y-116421857D01*
X137187879Y-116391669D01*
X137327700Y-116355483D01*
X137427289Y-116354385D01*
X137566863Y-116388053D01*
G37*
G36*
X137962806Y-118648588D02*
G01*
X136801462Y-118648588D01*
X136801462Y-118087571D01*
X136893184Y-118087571D01*
X136894480Y-118205199D01*
X136893782Y-118215031D01*
X136894630Y-118218761D01*
X136894648Y-118220366D01*
X136895417Y-118222223D01*
X136897094Y-118229597D01*
X136933958Y-118336427D01*
X136933958Y-118338294D01*
X136937814Y-118347604D01*
X136942494Y-118361165D01*
X136944289Y-118363234D01*
X136945336Y-118365762D01*
X136954812Y-118377310D01*
X137034212Y-118454887D01*
X137040593Y-118462244D01*
X137043825Y-118464278D01*
X137044978Y-118465405D01*
X137046838Y-118466175D01*
X137053235Y-118470202D01*
X137127986Y-118506256D01*
X137133384Y-118510256D01*
X137144548Y-118514244D01*
X137145805Y-118514851D01*
X137146353Y-118514890D01*
X137147451Y-118515282D01*
X137300682Y-118552245D01*
X137308304Y-118555402D01*
X137317541Y-118556311D01*
X137319466Y-118556776D01*
X137320577Y-118556610D01*
X137323170Y-118556866D01*
X137436975Y-118555611D01*
X137444802Y-118556776D01*
X137453943Y-118555424D01*
X137455964Y-118555402D01*
X137457001Y-118554972D01*
X137459579Y-118554591D01*
X137611110Y-118515373D01*
X137618463Y-118514851D01*
X137629604Y-118510587D01*
X137630884Y-118510256D01*
X137631326Y-118509928D01*
X137632414Y-118509512D01*
X137710714Y-118468956D01*
X137719289Y-118465405D01*
X137722226Y-118462994D01*
X137723675Y-118462244D01*
X137724993Y-118460723D01*
X137730836Y-118455929D01*
X137800703Y-118384420D01*
X137802295Y-118383625D01*
X137808729Y-118376205D01*
X137818933Y-118365763D01*
X137819980Y-118363233D01*
X137821775Y-118361165D01*
X137827865Y-118347524D01*
X137865813Y-118229556D01*
X137869620Y-118220366D01*
X137869995Y-118216555D01*
X137870486Y-118215030D01*
X137870343Y-118213021D01*
X137871084Y-118205500D01*
X137869844Y-118126371D01*
X137870486Y-118117351D01*
X137869645Y-118113655D01*
X137869620Y-118112015D01*
X137868850Y-118110156D01*
X137867174Y-118102785D01*
X137830310Y-117995951D01*
X137830310Y-117994085D01*
X137826452Y-117984771D01*
X137821775Y-117971216D01*
X137819981Y-117969147D01*
X137818933Y-117966617D01*
X137809456Y-117955070D01*
X137758599Y-117906284D01*
X137739175Y-117898239D01*
X137731131Y-117894907D01*
X137716265Y-117893443D01*
X137426232Y-117894907D01*
X137398764Y-117906285D01*
X137377740Y-117927309D01*
X137366362Y-117954777D01*
X137364898Y-117969643D01*
X137366362Y-118141747D01*
X137377740Y-118169215D01*
X137398764Y-118190239D01*
X137426232Y-118201617D01*
X137455964Y-118201617D01*
X137483432Y-118190239D01*
X137504456Y-118169215D01*
X137515834Y-118141747D01*
X137517298Y-118126881D01*
X137516605Y-118045461D01*
X137684369Y-118044615D01*
X137688714Y-118048783D01*
X137718827Y-118136053D01*
X137719679Y-118190463D01*
X137690581Y-118280919D01*
X137634672Y-118338141D01*
X137576388Y-118368329D01*
X137436567Y-118404515D01*
X137336978Y-118405613D01*
X137197404Y-118371945D01*
X137134459Y-118341585D01*
X137075780Y-118284253D01*
X137045484Y-118196454D01*
X137044500Y-118107215D01*
X137082188Y-118029079D01*
X137084296Y-117999422D01*
X137074893Y-117971216D01*
X137055414Y-117948755D01*
X137028821Y-117935458D01*
X136999164Y-117933350D01*
X136970958Y-117942753D01*
X136948497Y-117962232D01*
X136940539Y-117974874D01*
X136907136Y-118044126D01*
X136906026Y-118045237D01*
X136902528Y-118053681D01*
X136895890Y-118067444D01*
X136895695Y-118070175D01*
X136894648Y-118072705D01*
X136893184Y-118087571D01*
X136801462Y-118087571D01*
X136801462Y-117610535D01*
X136893370Y-117610535D01*
X136894648Y-117620589D01*
X136894648Y-117630723D01*
X136896506Y-117635209D01*
X136897119Y-117640029D01*
X136902148Y-117648830D01*
X136906026Y-117658191D01*
X136909460Y-117661625D01*
X136911871Y-117665844D01*
X136919886Y-117672051D01*
X136927050Y-117679215D01*
X136931535Y-117681073D01*
X136935377Y-117684048D01*
X136945155Y-117686714D01*
X136954518Y-117690593D01*
X136962121Y-117691341D01*
X136964062Y-117691871D01*
X136965560Y-117691680D01*
X136969384Y-117692057D01*
X137809750Y-117690593D01*
X137837218Y-117679215D01*
X137858242Y-117658191D01*
X137869620Y-117630723D01*
X137869620Y-117600991D01*
X137858242Y-117573523D01*
X137837218Y-117552499D01*
X137809750Y-117541121D01*
X137794884Y-117539657D01*
X137253801Y-117540599D01*
X137828072Y-117211289D01*
X137837218Y-117207501D01*
X137840631Y-117204087D01*
X137844870Y-117201657D01*
X137851076Y-117193642D01*
X137858242Y-117186477D01*
X137860101Y-117181988D01*
X137863074Y-117178150D01*
X137865738Y-117168378D01*
X137869620Y-117159009D01*
X137869620Y-117154147D01*
X137870897Y-117149465D01*
X137869620Y-117139418D01*
X137869620Y-117129277D01*
X137867760Y-117124787D01*
X137867148Y-117119971D01*
X137862121Y-117111173D01*
X137858242Y-117101809D01*
X137854807Y-117098374D01*
X137852397Y-117094156D01*
X137844384Y-117087951D01*
X137837218Y-117080785D01*
X137832728Y-117078925D01*
X137828890Y-117075953D01*
X137819120Y-117073288D01*
X137809750Y-117069407D01*
X137802140Y-117068657D01*
X137800206Y-117068130D01*
X137798711Y-117068319D01*
X137794884Y-117067943D01*
X136954518Y-117069407D01*
X136927050Y-117080785D01*
X136906026Y-117101809D01*
X136894648Y-117129277D01*
X136894648Y-117159009D01*
X136906026Y-117186477D01*
X136927050Y-117207501D01*
X136954518Y-117218879D01*
X136969384Y-117220343D01*
X137510466Y-117219400D01*
X136936197Y-117548709D01*
X136927050Y-117552499D01*
X136923635Y-117555913D01*
X136919397Y-117558344D01*
X136913189Y-117566359D01*
X136906026Y-117573523D01*
X136904167Y-117578008D01*
X136901193Y-117581850D01*
X136898526Y-117591628D01*
X136894648Y-117600991D01*
X136894648Y-117605848D01*
X136893370Y-117610535D01*
X136801462Y-117610535D01*
X136801462Y-116554499D01*
X136893184Y-116554499D01*
X136894648Y-116765913D01*
X136906026Y-116793381D01*
X136927050Y-116814405D01*
X136954518Y-116825783D01*
X136969384Y-116827247D01*
X137809750Y-116825783D01*
X137837218Y-116814405D01*
X137858242Y-116793381D01*
X137869620Y-116765913D01*
X137871084Y-116751047D01*
X137869730Y-116555596D01*
X137870486Y-116544969D01*
X137869630Y-116541208D01*
X137869620Y-116539633D01*
X137868850Y-116537774D01*
X137867174Y-116530403D01*
X137830311Y-116423571D01*
X137830311Y-116421704D01*
X137826451Y-116412386D01*
X137821775Y-116398834D01*
X137819980Y-116396765D01*
X137818933Y-116394236D01*
X137809456Y-116382689D01*
X137730060Y-116305117D01*
X137723675Y-116297755D01*
X137720440Y-116295718D01*
X137719289Y-116294594D01*
X137717430Y-116293824D01*
X137711033Y-116289797D01*
X137636281Y-116253742D01*
X137630884Y-116249743D01*
X137619719Y-116245754D01*
X137618463Y-116245148D01*
X137617914Y-116245108D01*
X137616817Y-116244717D01*
X137463585Y-116207753D01*
X137455964Y-116204597D01*
X137446726Y-116203687D01*
X137444802Y-116203223D01*
X137443690Y-116203388D01*
X137441098Y-116203133D01*
X137327292Y-116204387D01*
X137319466Y-116203223D01*
X137310324Y-116204574D01*
X137308304Y-116204597D01*
X137307266Y-116205026D01*
X137304689Y-116205408D01*
X137153157Y-116244625D01*
X137145805Y-116245148D01*
X137134663Y-116249411D01*
X137133384Y-116249743D01*
X137132941Y-116250070D01*
X137131854Y-116250487D01*
X137053553Y-116291042D01*
X137044978Y-116294594D01*
X137042039Y-116297005D01*
X137040593Y-116297755D01*
X137039275Y-116299274D01*
X137033431Y-116304071D01*
X136963565Y-116375578D01*
X136961975Y-116376374D01*
X136955539Y-116383793D01*
X136945336Y-116394237D01*
X136944289Y-116396764D01*
X136942494Y-116398834D01*
X136936404Y-116412474D01*
X136898453Y-116530445D01*
X136894648Y-116539633D01*
X136894272Y-116543442D01*
X136893782Y-116544968D01*
X136893924Y-116546976D01*
X136893184Y-116554499D01*
X136801462Y-116554499D01*
X136801462Y-116111411D01*
X137962806Y-116111411D01*
X137962806Y-118648588D01*
G37*
G36*
X157308750Y-99152770D02*
G01*
X157365973Y-99208679D01*
X157396161Y-99266962D01*
X157432347Y-99406783D01*
X157433445Y-99506372D01*
X157399777Y-99645946D01*
X157369417Y-99708891D01*
X157312086Y-99767570D01*
X157224396Y-99797828D01*
X157112852Y-99798601D01*
X157111677Y-99124148D01*
X157217499Y-99123415D01*
X157308750Y-99152770D01*
G37*
G36*
X157676420Y-100041889D02*
G01*
X155139243Y-100041889D01*
X155139243Y-99402253D01*
X155230965Y-99402253D01*
X155232219Y-99516058D01*
X155231055Y-99523885D01*
X155232406Y-99533026D01*
X155232429Y-99535047D01*
X155232858Y-99536084D01*
X155233240Y-99538662D01*
X155272457Y-99690193D01*
X155272980Y-99697546D01*
X155277243Y-99708687D01*
X155277575Y-99709967D01*
X155277902Y-99710409D01*
X155278319Y-99711497D01*
X155318874Y-99789797D01*
X155322426Y-99798372D01*
X155324836Y-99801309D01*
X155325587Y-99802758D01*
X155327107Y-99804076D01*
X155331902Y-99809919D01*
X155403410Y-99879786D01*
X155404206Y-99881378D01*
X155411625Y-99887812D01*
X155422068Y-99898016D01*
X155424597Y-99899063D01*
X155426666Y-99900858D01*
X155440307Y-99906948D01*
X155558274Y-99944896D01*
X155567465Y-99948703D01*
X155571275Y-99949078D01*
X155572801Y-99949569D01*
X155574809Y-99949426D01*
X155582331Y-99950167D01*
X155661459Y-99948927D01*
X155670480Y-99949569D01*
X155674175Y-99948728D01*
X155675816Y-99948703D01*
X155677674Y-99947933D01*
X155685046Y-99946257D01*
X155791880Y-99909393D01*
X155793746Y-99909393D01*
X155803054Y-99905537D01*
X155816616Y-99900858D01*
X155818685Y-99899063D01*
X155821214Y-99898016D01*
X155832761Y-99888539D01*
X155881547Y-99837682D01*
X155892924Y-99810213D01*
X155894388Y-99795348D01*
X155892924Y-99505315D01*
X155881546Y-99477847D01*
X155860522Y-99456823D01*
X155833054Y-99445445D01*
X155818188Y-99443981D01*
X155646084Y-99445445D01*
X155618616Y-99456823D01*
X155597592Y-99477847D01*
X155586214Y-99505315D01*
X155586214Y-99535047D01*
X155597592Y-99562515D01*
X155618616Y-99583539D01*
X155646084Y-99594917D01*
X155660950Y-99596381D01*
X155742369Y-99595688D01*
X155743215Y-99763452D01*
X155739047Y-99767797D01*
X155651778Y-99797910D01*
X155597367Y-99798762D01*
X155506911Y-99769664D01*
X155449689Y-99713755D01*
X155419501Y-99655471D01*
X155383315Y-99515650D01*
X155382217Y-99416061D01*
X155415885Y-99276487D01*
X155446244Y-99213544D01*
X155503577Y-99154864D01*
X155591377Y-99124567D01*
X155680615Y-99123583D01*
X155758752Y-99161271D01*
X155788409Y-99163379D01*
X155816615Y-99153976D01*
X155839076Y-99134497D01*
X155852373Y-99107904D01*
X155854481Y-99078247D01*
X155845078Y-99050041D01*
X155843713Y-99048467D01*
X156095774Y-99048467D01*
X156097238Y-99888833D01*
X156108616Y-99916301D01*
X156129640Y-99937325D01*
X156157108Y-99948703D01*
X156186840Y-99948703D01*
X156214308Y-99937325D01*
X156235332Y-99916301D01*
X156246710Y-99888833D01*
X156248174Y-99873967D01*
X156247231Y-99332884D01*
X156576541Y-99907155D01*
X156580330Y-99916301D01*
X156583743Y-99919714D01*
X156586174Y-99923953D01*
X156594188Y-99930159D01*
X156601354Y-99937325D01*
X156605842Y-99939184D01*
X156609681Y-99942157D01*
X156619452Y-99944821D01*
X156628822Y-99948703D01*
X156633684Y-99948703D01*
X156638366Y-99949980D01*
X156648412Y-99948703D01*
X156658554Y-99948703D01*
X156663043Y-99946843D01*
X156667860Y-99946231D01*
X156676657Y-99941204D01*
X156686022Y-99937325D01*
X156689456Y-99933890D01*
X156693675Y-99931480D01*
X156699879Y-99923467D01*
X156707046Y-99916301D01*
X156708905Y-99911811D01*
X156711878Y-99907973D01*
X156714542Y-99898203D01*
X156718424Y-99888833D01*
X156719173Y-99881223D01*
X156719701Y-99879289D01*
X156719511Y-99877794D01*
X156719888Y-99873967D01*
X156718450Y-99048467D01*
X156960584Y-99048467D01*
X156962048Y-99888833D01*
X156973426Y-99916301D01*
X156994450Y-99937325D01*
X157021918Y-99948703D01*
X157036784Y-99950167D01*
X157232234Y-99948813D01*
X157242862Y-99949569D01*
X157246622Y-99948713D01*
X157248198Y-99948703D01*
X157250056Y-99947933D01*
X157257428Y-99946257D01*
X157364261Y-99909393D01*
X157366127Y-99909393D01*
X157375435Y-99905537D01*
X157388997Y-99900858D01*
X157391066Y-99899063D01*
X157393595Y-99898016D01*
X157405142Y-99888539D01*
X157482719Y-99809138D01*
X157490076Y-99802758D01*
X157492110Y-99799525D01*
X157493238Y-99798372D01*
X157494009Y-99796509D01*
X157498034Y-99790116D01*
X157534088Y-99715364D01*
X157538088Y-99709967D01*
X157542076Y-99698802D01*
X157542683Y-99697546D01*
X157542722Y-99696997D01*
X157543114Y-99695900D01*
X157580077Y-99542668D01*
X157583234Y-99535047D01*
X157584143Y-99525809D01*
X157584608Y-99523885D01*
X157584442Y-99522773D01*
X157584698Y-99520181D01*
X157583443Y-99406375D01*
X157584608Y-99398549D01*
X157583256Y-99389407D01*
X157583234Y-99387387D01*
X157582804Y-99386349D01*
X157582423Y-99383772D01*
X157543205Y-99232240D01*
X157542683Y-99224888D01*
X157538419Y-99213746D01*
X157538088Y-99212467D01*
X157537760Y-99212024D01*
X157537344Y-99210937D01*
X157496788Y-99132636D01*
X157493237Y-99124061D01*
X157490825Y-99121122D01*
X157490076Y-99119676D01*
X157488556Y-99118358D01*
X157483760Y-99112514D01*
X157412252Y-99042648D01*
X157411457Y-99041058D01*
X157404037Y-99034622D01*
X157393594Y-99024419D01*
X157391066Y-99023372D01*
X157388997Y-99021577D01*
X157375357Y-99015487D01*
X157257385Y-98977536D01*
X157248198Y-98973731D01*
X157244388Y-98973355D01*
X157242863Y-98972865D01*
X157240854Y-98973007D01*
X157233332Y-98972267D01*
X157021918Y-98973731D01*
X156994450Y-98985109D01*
X156973426Y-99006133D01*
X156962048Y-99033601D01*
X156960584Y-99048467D01*
X156718450Y-99048467D01*
X156718424Y-99033601D01*
X156707046Y-99006133D01*
X156686022Y-98985109D01*
X156658554Y-98973731D01*
X156628822Y-98973731D01*
X156601354Y-98985109D01*
X156580330Y-99006133D01*
X156568952Y-99033601D01*
X156567488Y-99048467D01*
X156568430Y-99589549D01*
X156239121Y-99015280D01*
X156235332Y-99006133D01*
X156231917Y-99002718D01*
X156229487Y-98998480D01*
X156221471Y-98992272D01*
X156214308Y-98985109D01*
X156209822Y-98983250D01*
X156205981Y-98980276D01*
X156196202Y-98977609D01*
X156186840Y-98973731D01*
X156181982Y-98973731D01*
X156177296Y-98972453D01*
X156167242Y-98973731D01*
X156157108Y-98973731D01*
X156152621Y-98975589D01*
X156147802Y-98976202D01*
X156139000Y-98981231D01*
X156129640Y-98985109D01*
X156126205Y-98988543D01*
X156121987Y-98990954D01*
X156115779Y-98998969D01*
X156108616Y-99006133D01*
X156106757Y-99010618D01*
X156103783Y-99014460D01*
X156101116Y-99024238D01*
X156097238Y-99033601D01*
X156096489Y-99041204D01*
X156095960Y-99043145D01*
X156096150Y-99044643D01*
X156095774Y-99048467D01*
X155843713Y-99048467D01*
X155825599Y-99027580D01*
X155812957Y-99019622D01*
X155743704Y-98986219D01*
X155742594Y-98985109D01*
X155734149Y-98981611D01*
X155720387Y-98974973D01*
X155717655Y-98974778D01*
X155715126Y-98973731D01*
X155700260Y-98972267D01*
X155582630Y-98973563D01*
X155572800Y-98972865D01*
X155569070Y-98973713D01*
X155567465Y-98973731D01*
X155565604Y-98974501D01*
X155558234Y-98976178D01*
X155451401Y-99013042D01*
X155449537Y-99013042D01*
X155440232Y-99016895D01*
X155426666Y-99021577D01*
X155424597Y-99023371D01*
X155422068Y-99024419D01*
X155410521Y-99033896D01*
X155332950Y-99113290D01*
X155325587Y-99119676D01*
X155323550Y-99122910D01*
X155322426Y-99124062D01*
X155321656Y-99125920D01*
X155317629Y-99132318D01*
X155281574Y-99207069D01*
X155277575Y-99212467D01*
X155273586Y-99223631D01*
X155272980Y-99224888D01*
X155272940Y-99225436D01*
X155272549Y-99226534D01*
X155235585Y-99379765D01*
X155232429Y-99387387D01*
X155231519Y-99396624D01*
X155231055Y-99398549D01*
X155231220Y-99399660D01*
X155230965Y-99402253D01*
X155139243Y-99402253D01*
X155139243Y-98880545D01*
X157676420Y-98880545D01*
X157676420Y-100041889D01*
G37*
D12*
X150151696Y-113261572D02*
X150187982Y-113152715D01*
X150187982Y-113152715D02*
X150224268Y-113116429D01*
X150224268Y-113116429D02*
X150296839Y-113080143D01*
X150296839Y-113080143D02*
X150405696Y-113080143D01*
X150405696Y-113080143D02*
X150478268Y-113116429D01*
X150478268Y-113116429D02*
X150514554Y-113152715D01*
X150514554Y-113152715D02*
X150550839Y-113225286D01*
X150550839Y-113225286D02*
X150550839Y-113515572D01*
X150550839Y-113515572D02*
X149788839Y-113515572D01*
X149788839Y-113515572D02*
X149788839Y-113261572D01*
X149788839Y-113261572D02*
X149825125Y-113189001D01*
X149825125Y-113189001D02*
X149861411Y-113152715D01*
X149861411Y-113152715D02*
X149933982Y-113116429D01*
X149933982Y-113116429D02*
X150006554Y-113116429D01*
X150006554Y-113116429D02*
X150079125Y-113152715D01*
X150079125Y-113152715D02*
X150115411Y-113189001D01*
X150115411Y-113189001D02*
X150151696Y-113261572D01*
X150151696Y-113261572D02*
X150151696Y-113515572D01*
X150042839Y-112427001D02*
X150550839Y-112427001D01*
X150042839Y-112753572D02*
X150441982Y-112753572D01*
X150441982Y-112753572D02*
X150514554Y-112717286D01*
X150514554Y-112717286D02*
X150550839Y-112644715D01*
X150550839Y-112644715D02*
X150550839Y-112535858D01*
X150550839Y-112535858D02*
X150514554Y-112463286D01*
X150514554Y-112463286D02*
X150478268Y-112427001D01*
X150042839Y-112173000D02*
X150042839Y-111882714D01*
X149788839Y-112064143D02*
X150441982Y-112064143D01*
X150441982Y-112064143D02*
X150514554Y-112027857D01*
X150514554Y-112027857D02*
X150550839Y-111955286D01*
X150550839Y-111955286D02*
X150550839Y-111882714D01*
X150042839Y-111737571D02*
X150042839Y-111447285D01*
X149788839Y-111628714D02*
X150441982Y-111628714D01*
X150441982Y-111628714D02*
X150514554Y-111592428D01*
X150514554Y-111592428D02*
X150550839Y-111519857D01*
X150550839Y-111519857D02*
X150550839Y-111447285D01*
X150550839Y-111084428D02*
X150514554Y-111156999D01*
X150514554Y-111156999D02*
X150478268Y-111193285D01*
X150478268Y-111193285D02*
X150405696Y-111229571D01*
X150405696Y-111229571D02*
X150187982Y-111229571D01*
X150187982Y-111229571D02*
X150115411Y-111193285D01*
X150115411Y-111193285D02*
X150079125Y-111156999D01*
X150079125Y-111156999D02*
X150042839Y-111084428D01*
X150042839Y-111084428D02*
X150042839Y-110975571D01*
X150042839Y-110975571D02*
X150079125Y-110902999D01*
X150079125Y-110902999D02*
X150115411Y-110866714D01*
X150115411Y-110866714D02*
X150187982Y-110830428D01*
X150187982Y-110830428D02*
X150405696Y-110830428D01*
X150405696Y-110830428D02*
X150478268Y-110866714D01*
X150478268Y-110866714D02*
X150514554Y-110902999D01*
X150514554Y-110902999D02*
X150550839Y-110975571D01*
X150550839Y-110975571D02*
X150550839Y-111084428D01*
X150042839Y-110503856D02*
X150550839Y-110503856D01*
X150115411Y-110503856D02*
X150079125Y-110467570D01*
X150079125Y-110467570D02*
X150042839Y-110394999D01*
X150042839Y-110394999D02*
X150042839Y-110286142D01*
X150042839Y-110286142D02*
X150079125Y-110213570D01*
X150079125Y-110213570D02*
X150151696Y-110177285D01*
X150151696Y-110177285D02*
X150550839Y-110177285D01*
X150514554Y-109850713D02*
X150550839Y-109778141D01*
X150550839Y-109778141D02*
X150550839Y-109632998D01*
X150550839Y-109632998D02*
X150514554Y-109560427D01*
X150514554Y-109560427D02*
X150441982Y-109524141D01*
X150441982Y-109524141D02*
X150405696Y-109524141D01*
X150405696Y-109524141D02*
X150333125Y-109560427D01*
X150333125Y-109560427D02*
X150296839Y-109632998D01*
X150296839Y-109632998D02*
X150296839Y-109741856D01*
X150296839Y-109741856D02*
X150260554Y-109814427D01*
X150260554Y-109814427D02*
X150187982Y-109850713D01*
X150187982Y-109850713D02*
X150151696Y-109850713D01*
X150151696Y-109850713D02*
X150079125Y-109814427D01*
X150079125Y-109814427D02*
X150042839Y-109741856D01*
X150042839Y-109741856D02*
X150042839Y-109632998D01*
X150042839Y-109632998D02*
X150079125Y-109560427D01*
D11*
G36*
X157308750Y-124652770D02*
G01*
X157365973Y-124708679D01*
X157396161Y-124766962D01*
X157432347Y-124906783D01*
X157433445Y-125006372D01*
X157399777Y-125145946D01*
X157369417Y-125208891D01*
X157312086Y-125267570D01*
X157224396Y-125297828D01*
X157112852Y-125298601D01*
X157111677Y-124624148D01*
X157217499Y-124623415D01*
X157308750Y-124652770D01*
G37*
G36*
X157676420Y-125541889D02*
G01*
X155139243Y-125541889D01*
X155139243Y-124902253D01*
X155230965Y-124902253D01*
X155232219Y-125016058D01*
X155231055Y-125023885D01*
X155232406Y-125033026D01*
X155232429Y-125035047D01*
X155232858Y-125036084D01*
X155233240Y-125038662D01*
X155272457Y-125190193D01*
X155272980Y-125197546D01*
X155277243Y-125208687D01*
X155277575Y-125209967D01*
X155277902Y-125210409D01*
X155278319Y-125211497D01*
X155318874Y-125289797D01*
X155322426Y-125298372D01*
X155324836Y-125301309D01*
X155325587Y-125302758D01*
X155327107Y-125304076D01*
X155331902Y-125309919D01*
X155403410Y-125379786D01*
X155404206Y-125381378D01*
X155411625Y-125387812D01*
X155422068Y-125398016D01*
X155424597Y-125399063D01*
X155426666Y-125400858D01*
X155440307Y-125406948D01*
X155558274Y-125444896D01*
X155567465Y-125448703D01*
X155571275Y-125449078D01*
X155572801Y-125449569D01*
X155574809Y-125449426D01*
X155582331Y-125450167D01*
X155661459Y-125448927D01*
X155670480Y-125449569D01*
X155674175Y-125448728D01*
X155675816Y-125448703D01*
X155677674Y-125447933D01*
X155685046Y-125446257D01*
X155791880Y-125409393D01*
X155793746Y-125409393D01*
X155803054Y-125405537D01*
X155816616Y-125400858D01*
X155818685Y-125399063D01*
X155821214Y-125398016D01*
X155832761Y-125388539D01*
X155881547Y-125337682D01*
X155892924Y-125310213D01*
X155894388Y-125295348D01*
X155892924Y-125005315D01*
X155881546Y-124977847D01*
X155860522Y-124956823D01*
X155833054Y-124945445D01*
X155818188Y-124943981D01*
X155646084Y-124945445D01*
X155618616Y-124956823D01*
X155597592Y-124977847D01*
X155586214Y-125005315D01*
X155586214Y-125035047D01*
X155597592Y-125062515D01*
X155618616Y-125083539D01*
X155646084Y-125094917D01*
X155660950Y-125096381D01*
X155742369Y-125095688D01*
X155743215Y-125263452D01*
X155739047Y-125267797D01*
X155651778Y-125297910D01*
X155597367Y-125298762D01*
X155506911Y-125269664D01*
X155449689Y-125213755D01*
X155419501Y-125155471D01*
X155383315Y-125015650D01*
X155382217Y-124916061D01*
X155415885Y-124776487D01*
X155446244Y-124713544D01*
X155503577Y-124654864D01*
X155591377Y-124624567D01*
X155680615Y-124623583D01*
X155758752Y-124661271D01*
X155788409Y-124663379D01*
X155816615Y-124653976D01*
X155839076Y-124634497D01*
X155852373Y-124607904D01*
X155854481Y-124578247D01*
X155845078Y-124550041D01*
X155843713Y-124548467D01*
X156095774Y-124548467D01*
X156097238Y-125388833D01*
X156108616Y-125416301D01*
X156129640Y-125437325D01*
X156157108Y-125448703D01*
X156186840Y-125448703D01*
X156214308Y-125437325D01*
X156235332Y-125416301D01*
X156246710Y-125388833D01*
X156248174Y-125373967D01*
X156247231Y-124832884D01*
X156576541Y-125407155D01*
X156580330Y-125416301D01*
X156583743Y-125419714D01*
X156586174Y-125423953D01*
X156594188Y-125430159D01*
X156601354Y-125437325D01*
X156605842Y-125439184D01*
X156609681Y-125442157D01*
X156619452Y-125444821D01*
X156628822Y-125448703D01*
X156633684Y-125448703D01*
X156638366Y-125449980D01*
X156648412Y-125448703D01*
X156658554Y-125448703D01*
X156663043Y-125446843D01*
X156667860Y-125446231D01*
X156676657Y-125441204D01*
X156686022Y-125437325D01*
X156689456Y-125433890D01*
X156693675Y-125431480D01*
X156699879Y-125423467D01*
X156707046Y-125416301D01*
X156708905Y-125411811D01*
X156711878Y-125407973D01*
X156714542Y-125398203D01*
X156718424Y-125388833D01*
X156719173Y-125381223D01*
X156719701Y-125379289D01*
X156719511Y-125377794D01*
X156719888Y-125373967D01*
X156718450Y-124548467D01*
X156960584Y-124548467D01*
X156962048Y-125388833D01*
X156973426Y-125416301D01*
X156994450Y-125437325D01*
X157021918Y-125448703D01*
X157036784Y-125450167D01*
X157232234Y-125448813D01*
X157242862Y-125449569D01*
X157246622Y-125448713D01*
X157248198Y-125448703D01*
X157250056Y-125447933D01*
X157257428Y-125446257D01*
X157364261Y-125409393D01*
X157366127Y-125409393D01*
X157375435Y-125405537D01*
X157388997Y-125400858D01*
X157391066Y-125399063D01*
X157393595Y-125398016D01*
X157405142Y-125388539D01*
X157482719Y-125309138D01*
X157490076Y-125302758D01*
X157492110Y-125299525D01*
X157493238Y-125298372D01*
X157494009Y-125296509D01*
X157498034Y-125290116D01*
X157534088Y-125215364D01*
X157538088Y-125209967D01*
X157542076Y-125198802D01*
X157542683Y-125197546D01*
X157542722Y-125196997D01*
X157543114Y-125195900D01*
X157580077Y-125042668D01*
X157583234Y-125035047D01*
X157584143Y-125025809D01*
X157584608Y-125023885D01*
X157584442Y-125022773D01*
X157584698Y-125020181D01*
X157583443Y-124906375D01*
X157584608Y-124898549D01*
X157583256Y-124889407D01*
X157583234Y-124887387D01*
X157582804Y-124886349D01*
X157582423Y-124883772D01*
X157543205Y-124732240D01*
X157542683Y-124724888D01*
X157538419Y-124713746D01*
X157538088Y-124712467D01*
X157537760Y-124712024D01*
X157537344Y-124710937D01*
X157496788Y-124632636D01*
X157493237Y-124624061D01*
X157490825Y-124621122D01*
X157490076Y-124619676D01*
X157488556Y-124618358D01*
X157483760Y-124612514D01*
X157412252Y-124542648D01*
X157411457Y-124541058D01*
X157404037Y-124534622D01*
X157393594Y-124524419D01*
X157391066Y-124523372D01*
X157388997Y-124521577D01*
X157375357Y-124515487D01*
X157257385Y-124477536D01*
X157248198Y-124473731D01*
X157244388Y-124473355D01*
X157242863Y-124472865D01*
X157240854Y-124473007D01*
X157233332Y-124472267D01*
X157021918Y-124473731D01*
X156994450Y-124485109D01*
X156973426Y-124506133D01*
X156962048Y-124533601D01*
X156960584Y-124548467D01*
X156718450Y-124548467D01*
X156718424Y-124533601D01*
X156707046Y-124506133D01*
X156686022Y-124485109D01*
X156658554Y-124473731D01*
X156628822Y-124473731D01*
X156601354Y-124485109D01*
X156580330Y-124506133D01*
X156568952Y-124533601D01*
X156567488Y-124548467D01*
X156568430Y-125089549D01*
X156239121Y-124515280D01*
X156235332Y-124506133D01*
X156231917Y-124502718D01*
X156229487Y-124498480D01*
X156221471Y-124492272D01*
X156214308Y-124485109D01*
X156209822Y-124483250D01*
X156205981Y-124480276D01*
X156196202Y-124477609D01*
X156186840Y-124473731D01*
X156181982Y-124473731D01*
X156177296Y-124472453D01*
X156167242Y-124473731D01*
X156157108Y-124473731D01*
X156152621Y-124475589D01*
X156147802Y-124476202D01*
X156139000Y-124481231D01*
X156129640Y-124485109D01*
X156126205Y-124488543D01*
X156121987Y-124490954D01*
X156115779Y-124498969D01*
X156108616Y-124506133D01*
X156106757Y-124510618D01*
X156103783Y-124514460D01*
X156101116Y-124524238D01*
X156097238Y-124533601D01*
X156096489Y-124541204D01*
X156095960Y-124543145D01*
X156096150Y-124544643D01*
X156095774Y-124548467D01*
X155843713Y-124548467D01*
X155825599Y-124527580D01*
X155812957Y-124519622D01*
X155743704Y-124486219D01*
X155742594Y-124485109D01*
X155734149Y-124481611D01*
X155720387Y-124474973D01*
X155717655Y-124474778D01*
X155715126Y-124473731D01*
X155700260Y-124472267D01*
X155582630Y-124473563D01*
X155572800Y-124472865D01*
X155569070Y-124473713D01*
X155567465Y-124473731D01*
X155565604Y-124474501D01*
X155558234Y-124476178D01*
X155451401Y-124513042D01*
X155449537Y-124513042D01*
X155440232Y-124516895D01*
X155426666Y-124521577D01*
X155424597Y-124523371D01*
X155422068Y-124524419D01*
X155410521Y-124533896D01*
X155332950Y-124613290D01*
X155325587Y-124619676D01*
X155323550Y-124622910D01*
X155322426Y-124624062D01*
X155321656Y-124625920D01*
X155317629Y-124632318D01*
X155281574Y-124707069D01*
X155277575Y-124712467D01*
X155273586Y-124723631D01*
X155272980Y-124724888D01*
X155272940Y-124725436D01*
X155272549Y-124726534D01*
X155235585Y-124879765D01*
X155232429Y-124887387D01*
X155231519Y-124896624D01*
X155231055Y-124898549D01*
X155231220Y-124899660D01*
X155230965Y-124902253D01*
X155139243Y-124902253D01*
X155139243Y-124380545D01*
X157676420Y-124380545D01*
X157676420Y-125541889D01*
G37*
X138037714Y-110832467D02*
X138548738Y-110832467D01*
X138548738Y-110832467D02*
X138273571Y-111146943D01*
X138273571Y-111146943D02*
X138391500Y-111146943D01*
X138391500Y-111146943D02*
X138470119Y-111186253D01*
X138470119Y-111186253D02*
X138509428Y-111225562D01*
X138509428Y-111225562D02*
X138548738Y-111304181D01*
X138548738Y-111304181D02*
X138548738Y-111500729D01*
X138548738Y-111500729D02*
X138509428Y-111579348D01*
X138509428Y-111579348D02*
X138470119Y-111618658D01*
X138470119Y-111618658D02*
X138391500Y-111657967D01*
X138391500Y-111657967D02*
X138155643Y-111657967D01*
X138155643Y-111657967D02*
X138077024Y-111618658D01*
X138077024Y-111618658D02*
X138037714Y-111579348D01*
X138784595Y-110832467D02*
X139059761Y-111657967D01*
X139059761Y-111657967D02*
X139334928Y-110832467D01*
X139531475Y-110832467D02*
X140042499Y-110832467D01*
X140042499Y-110832467D02*
X139767332Y-111146943D01*
X139767332Y-111146943D02*
X139885261Y-111146943D01*
X139885261Y-111146943D02*
X139963880Y-111186253D01*
X139963880Y-111186253D02*
X140003189Y-111225562D01*
X140003189Y-111225562D02*
X140042499Y-111304181D01*
X140042499Y-111304181D02*
X140042499Y-111500729D01*
X140042499Y-111500729D02*
X140003189Y-111579348D01*
X140003189Y-111579348D02*
X139963880Y-111618658D01*
X139963880Y-111618658D02*
X139885261Y-111657967D01*
X139885261Y-111657967D02*
X139649404Y-111657967D01*
X139649404Y-111657967D02*
X139570785Y-111618658D01*
X139570785Y-111618658D02*
X139531475Y-111579348D01*
G36*
X154584863Y-105974053D02*
G01*
X154647808Y-106004413D01*
X154706487Y-106061745D01*
X154736745Y-106149434D01*
X154737518Y-106260978D01*
X154063065Y-106262153D01*
X154062332Y-106156331D01*
X154091687Y-106065080D01*
X154147596Y-106007857D01*
X154205879Y-105977669D01*
X154345700Y-105941483D01*
X154445289Y-105940385D01*
X154584863Y-105974053D01*
G37*
G36*
X154980806Y-108234588D02*
G01*
X153819462Y-108234588D01*
X153819462Y-107673571D01*
X153911184Y-107673571D01*
X153912480Y-107791199D01*
X153911782Y-107801031D01*
X153912630Y-107804761D01*
X153912648Y-107806366D01*
X153913417Y-107808223D01*
X153915094Y-107815597D01*
X153951958Y-107922427D01*
X153951958Y-107924294D01*
X153955814Y-107933604D01*
X153960494Y-107947165D01*
X153962289Y-107949234D01*
X153963336Y-107951762D01*
X153972812Y-107963310D01*
X154052212Y-108040887D01*
X154058593Y-108048244D01*
X154061825Y-108050278D01*
X154062978Y-108051405D01*
X154064838Y-108052175D01*
X154071235Y-108056202D01*
X154145986Y-108092256D01*
X154151384Y-108096256D01*
X154162548Y-108100244D01*
X154163805Y-108100851D01*
X154164353Y-108100890D01*
X154165451Y-108101282D01*
X154318682Y-108138245D01*
X154326304Y-108141402D01*
X154335541Y-108142311D01*
X154337466Y-108142776D01*
X154338577Y-108142610D01*
X154341170Y-108142866D01*
X154454975Y-108141611D01*
X154462802Y-108142776D01*
X154471943Y-108141424D01*
X154473964Y-108141402D01*
X154475001Y-108140972D01*
X154477579Y-108140591D01*
X154629110Y-108101373D01*
X154636463Y-108100851D01*
X154647604Y-108096587D01*
X154648884Y-108096256D01*
X154649326Y-108095928D01*
X154650414Y-108095512D01*
X154728714Y-108054956D01*
X154737289Y-108051405D01*
X154740226Y-108048994D01*
X154741675Y-108048244D01*
X154742993Y-108046723D01*
X154748836Y-108041929D01*
X154818703Y-107970420D01*
X154820295Y-107969625D01*
X154826729Y-107962205D01*
X154836933Y-107951763D01*
X154837980Y-107949233D01*
X154839775Y-107947165D01*
X154845865Y-107933524D01*
X154883813Y-107815556D01*
X154887620Y-107806366D01*
X154887995Y-107802555D01*
X154888486Y-107801030D01*
X154888343Y-107799021D01*
X154889084Y-107791500D01*
X154887844Y-107712371D01*
X154888486Y-107703351D01*
X154887645Y-107699655D01*
X154887620Y-107698015D01*
X154886850Y-107696156D01*
X154885174Y-107688785D01*
X154848310Y-107581951D01*
X154848310Y-107580085D01*
X154844452Y-107570771D01*
X154839775Y-107557216D01*
X154837981Y-107555147D01*
X154836933Y-107552617D01*
X154827456Y-107541070D01*
X154776599Y-107492284D01*
X154757175Y-107484239D01*
X154749131Y-107480907D01*
X154734265Y-107479443D01*
X154444232Y-107480907D01*
X154416764Y-107492285D01*
X154395740Y-107513309D01*
X154384362Y-107540777D01*
X154382898Y-107555643D01*
X154384362Y-107727747D01*
X154395740Y-107755215D01*
X154416764Y-107776239D01*
X154444232Y-107787617D01*
X154473964Y-107787617D01*
X154501432Y-107776239D01*
X154522456Y-107755215D01*
X154533834Y-107727747D01*
X154535298Y-107712881D01*
X154534605Y-107631461D01*
X154702369Y-107630615D01*
X154706714Y-107634783D01*
X154736827Y-107722053D01*
X154737679Y-107776463D01*
X154708581Y-107866919D01*
X154652672Y-107924141D01*
X154594388Y-107954329D01*
X154454567Y-107990515D01*
X154354978Y-107991613D01*
X154215404Y-107957945D01*
X154152459Y-107927585D01*
X154093780Y-107870253D01*
X154063484Y-107782454D01*
X154062500Y-107693215D01*
X154100188Y-107615079D01*
X154102296Y-107585422D01*
X154092893Y-107557216D01*
X154073414Y-107534755D01*
X154046821Y-107521458D01*
X154017164Y-107519350D01*
X153988958Y-107528753D01*
X153966497Y-107548232D01*
X153958539Y-107560874D01*
X153925136Y-107630126D01*
X153924026Y-107631237D01*
X153920528Y-107639681D01*
X153913890Y-107653444D01*
X153913695Y-107656175D01*
X153912648Y-107658705D01*
X153911184Y-107673571D01*
X153819462Y-107673571D01*
X153819462Y-107196535D01*
X153911370Y-107196535D01*
X153912648Y-107206589D01*
X153912648Y-107216723D01*
X153914506Y-107221209D01*
X153915119Y-107226029D01*
X153920148Y-107234830D01*
X153924026Y-107244191D01*
X153927460Y-107247625D01*
X153929871Y-107251844D01*
X153937886Y-107258051D01*
X153945050Y-107265215D01*
X153949535Y-107267073D01*
X153953377Y-107270048D01*
X153963155Y-107272714D01*
X153972518Y-107276593D01*
X153980121Y-107277341D01*
X153982062Y-107277871D01*
X153983560Y-107277680D01*
X153987384Y-107278057D01*
X154827750Y-107276593D01*
X154855218Y-107265215D01*
X154876242Y-107244191D01*
X154887620Y-107216723D01*
X154887620Y-107186991D01*
X154876242Y-107159523D01*
X154855218Y-107138499D01*
X154827750Y-107127121D01*
X154812884Y-107125657D01*
X154271801Y-107126599D01*
X154846072Y-106797289D01*
X154855218Y-106793501D01*
X154858631Y-106790087D01*
X154862870Y-106787657D01*
X154869076Y-106779642D01*
X154876242Y-106772477D01*
X154878101Y-106767988D01*
X154881074Y-106764150D01*
X154883738Y-106754378D01*
X154887620Y-106745009D01*
X154887620Y-106740147D01*
X154888897Y-106735465D01*
X154887620Y-106725418D01*
X154887620Y-106715277D01*
X154885760Y-106710787D01*
X154885148Y-106705971D01*
X154880121Y-106697173D01*
X154876242Y-106687809D01*
X154872807Y-106684374D01*
X154870397Y-106680156D01*
X154862384Y-106673951D01*
X154855218Y-106666785D01*
X154850728Y-106664925D01*
X154846890Y-106661953D01*
X154837120Y-106659288D01*
X154827750Y-106655407D01*
X154820140Y-106654657D01*
X154818206Y-106654130D01*
X154816711Y-106654319D01*
X154812884Y-106653943D01*
X153972518Y-106655407D01*
X153945050Y-106666785D01*
X153924026Y-106687809D01*
X153912648Y-106715277D01*
X153912648Y-106745009D01*
X153924026Y-106772477D01*
X153945050Y-106793501D01*
X153972518Y-106804879D01*
X153987384Y-106806343D01*
X154528466Y-106805400D01*
X153954197Y-107134709D01*
X153945050Y-107138499D01*
X153941635Y-107141913D01*
X153937397Y-107144344D01*
X153931189Y-107152359D01*
X153924026Y-107159523D01*
X153922167Y-107164008D01*
X153919193Y-107167850D01*
X153916526Y-107177628D01*
X153912648Y-107186991D01*
X153912648Y-107191848D01*
X153911370Y-107196535D01*
X153819462Y-107196535D01*
X153819462Y-106140499D01*
X153911184Y-106140499D01*
X153912648Y-106351913D01*
X153924026Y-106379381D01*
X153945050Y-106400405D01*
X153972518Y-106411783D01*
X153987384Y-106413247D01*
X154827750Y-106411783D01*
X154855218Y-106400405D01*
X154876242Y-106379381D01*
X154887620Y-106351913D01*
X154889084Y-106337047D01*
X154887730Y-106141596D01*
X154888486Y-106130969D01*
X154887630Y-106127208D01*
X154887620Y-106125633D01*
X154886850Y-106123774D01*
X154885174Y-106116403D01*
X154848311Y-106009571D01*
X154848311Y-106007704D01*
X154844451Y-105998386D01*
X154839775Y-105984834D01*
X154837980Y-105982765D01*
X154836933Y-105980236D01*
X154827456Y-105968689D01*
X154748060Y-105891117D01*
X154741675Y-105883755D01*
X154738440Y-105881718D01*
X154737289Y-105880594D01*
X154735430Y-105879824D01*
X154729033Y-105875797D01*
X154654281Y-105839742D01*
X154648884Y-105835743D01*
X154637719Y-105831754D01*
X154636463Y-105831148D01*
X154635914Y-105831108D01*
X154634817Y-105830717D01*
X154481585Y-105793753D01*
X154473964Y-105790597D01*
X154464726Y-105789687D01*
X154462802Y-105789223D01*
X154461690Y-105789388D01*
X154459098Y-105789133D01*
X154345292Y-105790387D01*
X154337466Y-105789223D01*
X154328324Y-105790574D01*
X154326304Y-105790597D01*
X154325266Y-105791026D01*
X154322689Y-105791408D01*
X154171157Y-105830625D01*
X154163805Y-105831148D01*
X154152663Y-105835411D01*
X154151384Y-105835743D01*
X154150941Y-105836070D01*
X154149854Y-105836487D01*
X154071553Y-105877042D01*
X154062978Y-105880594D01*
X154060039Y-105883005D01*
X154058593Y-105883755D01*
X154057275Y-105885274D01*
X154051431Y-105890071D01*
X153981565Y-105961578D01*
X153979975Y-105962374D01*
X153973539Y-105969793D01*
X153963336Y-105980237D01*
X153962289Y-105982764D01*
X153960494Y-105984834D01*
X153954404Y-105998474D01*
X153916453Y-106116445D01*
X153912648Y-106125633D01*
X153912272Y-106129442D01*
X153911782Y-106130968D01*
X153911924Y-106132976D01*
X153911184Y-106140499D01*
X153819462Y-106140499D01*
X153819462Y-105697411D01*
X154980806Y-105697411D01*
X154980806Y-108234588D01*
G37*
G36*
X154584863Y-111054053D02*
G01*
X154647808Y-111084413D01*
X154706487Y-111141745D01*
X154736745Y-111229434D01*
X154737518Y-111340978D01*
X154063065Y-111342153D01*
X154062332Y-111236331D01*
X154091687Y-111145080D01*
X154147596Y-111087857D01*
X154205879Y-111057669D01*
X154345700Y-111021483D01*
X154445289Y-111020385D01*
X154584863Y-111054053D01*
G37*
G36*
X154980806Y-113314588D02*
G01*
X153819462Y-113314588D01*
X153819462Y-112753571D01*
X153911184Y-112753571D01*
X153912480Y-112871199D01*
X153911782Y-112881031D01*
X153912630Y-112884761D01*
X153912648Y-112886366D01*
X153913417Y-112888223D01*
X153915094Y-112895597D01*
X153951958Y-113002427D01*
X153951958Y-113004294D01*
X153955814Y-113013604D01*
X153960494Y-113027165D01*
X153962289Y-113029234D01*
X153963336Y-113031762D01*
X153972812Y-113043310D01*
X154052212Y-113120887D01*
X154058593Y-113128244D01*
X154061825Y-113130278D01*
X154062978Y-113131405D01*
X154064838Y-113132175D01*
X154071235Y-113136202D01*
X154145986Y-113172256D01*
X154151384Y-113176256D01*
X154162548Y-113180244D01*
X154163805Y-113180851D01*
X154164353Y-113180890D01*
X154165451Y-113181282D01*
X154318682Y-113218245D01*
X154326304Y-113221402D01*
X154335541Y-113222311D01*
X154337466Y-113222776D01*
X154338577Y-113222610D01*
X154341170Y-113222866D01*
X154454975Y-113221611D01*
X154462802Y-113222776D01*
X154471943Y-113221424D01*
X154473964Y-113221402D01*
X154475001Y-113220972D01*
X154477579Y-113220591D01*
X154629110Y-113181373D01*
X154636463Y-113180851D01*
X154647604Y-113176587D01*
X154648884Y-113176256D01*
X154649326Y-113175928D01*
X154650414Y-113175512D01*
X154728714Y-113134956D01*
X154737289Y-113131405D01*
X154740226Y-113128994D01*
X154741675Y-113128244D01*
X154742993Y-113126723D01*
X154748836Y-113121929D01*
X154818703Y-113050420D01*
X154820295Y-113049625D01*
X154826729Y-113042205D01*
X154836933Y-113031763D01*
X154837980Y-113029233D01*
X154839775Y-113027165D01*
X154845865Y-113013524D01*
X154883813Y-112895556D01*
X154887620Y-112886366D01*
X154887995Y-112882555D01*
X154888486Y-112881030D01*
X154888343Y-112879021D01*
X154889084Y-112871500D01*
X154887844Y-112792371D01*
X154888486Y-112783351D01*
X154887645Y-112779655D01*
X154887620Y-112778015D01*
X154886850Y-112776156D01*
X154885174Y-112768785D01*
X154848310Y-112661951D01*
X154848310Y-112660085D01*
X154844452Y-112650771D01*
X154839775Y-112637216D01*
X154837981Y-112635147D01*
X154836933Y-112632617D01*
X154827456Y-112621070D01*
X154776599Y-112572284D01*
X154757175Y-112564239D01*
X154749131Y-112560907D01*
X154734265Y-112559443D01*
X154444232Y-112560907D01*
X154416764Y-112572285D01*
X154395740Y-112593309D01*
X154384362Y-112620777D01*
X154382898Y-112635643D01*
X154384362Y-112807747D01*
X154395740Y-112835215D01*
X154416764Y-112856239D01*
X154444232Y-112867617D01*
X154473964Y-112867617D01*
X154501432Y-112856239D01*
X154522456Y-112835215D01*
X154533834Y-112807747D01*
X154535298Y-112792881D01*
X154534605Y-112711461D01*
X154702369Y-112710615D01*
X154706714Y-112714783D01*
X154736827Y-112802053D01*
X154737679Y-112856463D01*
X154708581Y-112946919D01*
X154652672Y-113004141D01*
X154594388Y-113034329D01*
X154454567Y-113070515D01*
X154354978Y-113071613D01*
X154215404Y-113037945D01*
X154152459Y-113007585D01*
X154093780Y-112950253D01*
X154063484Y-112862454D01*
X154062500Y-112773215D01*
X154100188Y-112695079D01*
X154102296Y-112665422D01*
X154092893Y-112637216D01*
X154073414Y-112614755D01*
X154046821Y-112601458D01*
X154017164Y-112599350D01*
X153988958Y-112608753D01*
X153966497Y-112628232D01*
X153958539Y-112640874D01*
X153925136Y-112710126D01*
X153924026Y-112711237D01*
X153920528Y-112719681D01*
X153913890Y-112733444D01*
X153913695Y-112736175D01*
X153912648Y-112738705D01*
X153911184Y-112753571D01*
X153819462Y-112753571D01*
X153819462Y-112276535D01*
X153911370Y-112276535D01*
X153912648Y-112286589D01*
X153912648Y-112296723D01*
X153914506Y-112301209D01*
X153915119Y-112306029D01*
X153920148Y-112314830D01*
X153924026Y-112324191D01*
X153927460Y-112327625D01*
X153929871Y-112331844D01*
X153937886Y-112338051D01*
X153945050Y-112345215D01*
X153949535Y-112347073D01*
X153953377Y-112350048D01*
X153963155Y-112352714D01*
X153972518Y-112356593D01*
X153980121Y-112357341D01*
X153982062Y-112357871D01*
X153983560Y-112357680D01*
X153987384Y-112358057D01*
X154827750Y-112356593D01*
X154855218Y-112345215D01*
X154876242Y-112324191D01*
X154887620Y-112296723D01*
X154887620Y-112266991D01*
X154876242Y-112239523D01*
X154855218Y-112218499D01*
X154827750Y-112207121D01*
X154812884Y-112205657D01*
X154271801Y-112206599D01*
X154846072Y-111877289D01*
X154855218Y-111873501D01*
X154858631Y-111870087D01*
X154862870Y-111867657D01*
X154869076Y-111859642D01*
X154876242Y-111852477D01*
X154878101Y-111847988D01*
X154881074Y-111844150D01*
X154883738Y-111834378D01*
X154887620Y-111825009D01*
X154887620Y-111820147D01*
X154888897Y-111815465D01*
X154887620Y-111805418D01*
X154887620Y-111795277D01*
X154885760Y-111790787D01*
X154885148Y-111785971D01*
X154880121Y-111777173D01*
X154876242Y-111767809D01*
X154872807Y-111764374D01*
X154870397Y-111760156D01*
X154862384Y-111753951D01*
X154855218Y-111746785D01*
X154850728Y-111744925D01*
X154846890Y-111741953D01*
X154837120Y-111739288D01*
X154827750Y-111735407D01*
X154820140Y-111734657D01*
X154818206Y-111734130D01*
X154816711Y-111734319D01*
X154812884Y-111733943D01*
X153972518Y-111735407D01*
X153945050Y-111746785D01*
X153924026Y-111767809D01*
X153912648Y-111795277D01*
X153912648Y-111825009D01*
X153924026Y-111852477D01*
X153945050Y-111873501D01*
X153972518Y-111884879D01*
X153987384Y-111886343D01*
X154528466Y-111885400D01*
X153954197Y-112214709D01*
X153945050Y-112218499D01*
X153941635Y-112221913D01*
X153937397Y-112224344D01*
X153931189Y-112232359D01*
X153924026Y-112239523D01*
X153922167Y-112244008D01*
X153919193Y-112247850D01*
X153916526Y-112257628D01*
X153912648Y-112266991D01*
X153912648Y-112271848D01*
X153911370Y-112276535D01*
X153819462Y-112276535D01*
X153819462Y-111220499D01*
X153911184Y-111220499D01*
X153912648Y-111431913D01*
X153924026Y-111459381D01*
X153945050Y-111480405D01*
X153972518Y-111491783D01*
X153987384Y-111493247D01*
X154827750Y-111491783D01*
X154855218Y-111480405D01*
X154876242Y-111459381D01*
X154887620Y-111431913D01*
X154889084Y-111417047D01*
X154887730Y-111221596D01*
X154888486Y-111210969D01*
X154887630Y-111207208D01*
X154887620Y-111205633D01*
X154886850Y-111203774D01*
X154885174Y-111196403D01*
X154848311Y-111089571D01*
X154848311Y-111087704D01*
X154844451Y-111078386D01*
X154839775Y-111064834D01*
X154837980Y-111062765D01*
X154836933Y-111060236D01*
X154827456Y-111048689D01*
X154748060Y-110971117D01*
X154741675Y-110963755D01*
X154738440Y-110961718D01*
X154737289Y-110960594D01*
X154735430Y-110959824D01*
X154729033Y-110955797D01*
X154654281Y-110919742D01*
X154648884Y-110915743D01*
X154637719Y-110911754D01*
X154636463Y-110911148D01*
X154635914Y-110911108D01*
X154634817Y-110910717D01*
X154481585Y-110873753D01*
X154473964Y-110870597D01*
X154464726Y-110869687D01*
X154462802Y-110869223D01*
X154461690Y-110869388D01*
X154459098Y-110869133D01*
X154345292Y-110870387D01*
X154337466Y-110869223D01*
X154328324Y-110870574D01*
X154326304Y-110870597D01*
X154325266Y-110871026D01*
X154322689Y-110871408D01*
X154171157Y-110910625D01*
X154163805Y-110911148D01*
X154152663Y-110915411D01*
X154151384Y-110915743D01*
X154150941Y-110916070D01*
X154149854Y-110916487D01*
X154071553Y-110957042D01*
X154062978Y-110960594D01*
X154060039Y-110963005D01*
X154058593Y-110963755D01*
X154057275Y-110965274D01*
X154051431Y-110970071D01*
X153981565Y-111041578D01*
X153979975Y-111042374D01*
X153973539Y-111049793D01*
X153963336Y-111060237D01*
X153962289Y-111062764D01*
X153960494Y-111064834D01*
X153954404Y-111078474D01*
X153916453Y-111196445D01*
X153912648Y-111205633D01*
X153912272Y-111209442D01*
X153911782Y-111210968D01*
X153911924Y-111212976D01*
X153911184Y-111220499D01*
X153819462Y-111220499D01*
X153819462Y-110777411D01*
X154980806Y-110777411D01*
X154980806Y-113314588D01*
G37*
D13*
X131555618Y-97687093D02*
X131555618Y-96671093D01*
X131555618Y-96671093D02*
X131894285Y-97396808D01*
X131894285Y-97396808D02*
X132232952Y-96671093D01*
X132232952Y-96671093D02*
X132232952Y-97687093D01*
X132716761Y-97687093D02*
X132716761Y-97009760D01*
X132716761Y-96671093D02*
X132668380Y-96719474D01*
X132668380Y-96719474D02*
X132716761Y-96767855D01*
X132716761Y-96767855D02*
X132765142Y-96719474D01*
X132765142Y-96719474D02*
X132716761Y-96671093D01*
X132716761Y-96671093D02*
X132716761Y-96767855D01*
X133152190Y-97638713D02*
X133248952Y-97687093D01*
X133248952Y-97687093D02*
X133442476Y-97687093D01*
X133442476Y-97687093D02*
X133539238Y-97638713D01*
X133539238Y-97638713D02*
X133587619Y-97541951D01*
X133587619Y-97541951D02*
X133587619Y-97493570D01*
X133587619Y-97493570D02*
X133539238Y-97396808D01*
X133539238Y-97396808D02*
X133442476Y-97348427D01*
X133442476Y-97348427D02*
X133297333Y-97348427D01*
X133297333Y-97348427D02*
X133200571Y-97300046D01*
X133200571Y-97300046D02*
X133152190Y-97203284D01*
X133152190Y-97203284D02*
X133152190Y-97154903D01*
X133152190Y-97154903D02*
X133200571Y-97058141D01*
X133200571Y-97058141D02*
X133297333Y-97009760D01*
X133297333Y-97009760D02*
X133442476Y-97009760D01*
X133442476Y-97009760D02*
X133539238Y-97058141D01*
X134458476Y-97638713D02*
X134361714Y-97687093D01*
X134361714Y-97687093D02*
X134168190Y-97687093D01*
X134168190Y-97687093D02*
X134071428Y-97638713D01*
X134071428Y-97638713D02*
X134023047Y-97590332D01*
X134023047Y-97590332D02*
X133974666Y-97493570D01*
X133974666Y-97493570D02*
X133974666Y-97203284D01*
X133974666Y-97203284D02*
X134023047Y-97106522D01*
X134023047Y-97106522D02*
X134071428Y-97058141D01*
X134071428Y-97058141D02*
X134168190Y-97009760D01*
X134168190Y-97009760D02*
X134361714Y-97009760D01*
X134361714Y-97009760D02*
X134458476Y-97058141D01*
X135667999Y-97687093D02*
X135667999Y-96671093D01*
X136345333Y-96671093D02*
X136538857Y-96671093D01*
X136538857Y-96671093D02*
X136635619Y-96719474D01*
X136635619Y-96719474D02*
X136732381Y-96816236D01*
X136732381Y-96816236D02*
X136780762Y-97009760D01*
X136780762Y-97009760D02*
X136780762Y-97348427D01*
X136780762Y-97348427D02*
X136732381Y-97541951D01*
X136732381Y-97541951D02*
X136635619Y-97638713D01*
X136635619Y-97638713D02*
X136538857Y-97687093D01*
X136538857Y-97687093D02*
X136345333Y-97687093D01*
X136345333Y-97687093D02*
X136248571Y-97638713D01*
X136248571Y-97638713D02*
X136151809Y-97541951D01*
X136151809Y-97541951D02*
X136103428Y-97348427D01*
X136103428Y-97348427D02*
X136103428Y-97009760D01*
X136103428Y-97009760D02*
X136151809Y-96816236D01*
X136151809Y-96816236D02*
X136248571Y-96719474D01*
X136248571Y-96719474D02*
X136345333Y-96671093D01*
D11*
X156305023Y-94834658D02*
X156422951Y-94873967D01*
X156422951Y-94873967D02*
X156619499Y-94873967D01*
X156619499Y-94873967D02*
X156698118Y-94834658D01*
X156698118Y-94834658D02*
X156737427Y-94795348D01*
X156737427Y-94795348D02*
X156776737Y-94716729D01*
X156776737Y-94716729D02*
X156776737Y-94638110D01*
X156776737Y-94638110D02*
X156737427Y-94559491D01*
X156737427Y-94559491D02*
X156698118Y-94520181D01*
X156698118Y-94520181D02*
X156619499Y-94480872D01*
X156619499Y-94480872D02*
X156462261Y-94441562D01*
X156462261Y-94441562D02*
X156383642Y-94402253D01*
X156383642Y-94402253D02*
X156344332Y-94362943D01*
X156344332Y-94362943D02*
X156305023Y-94284324D01*
X156305023Y-94284324D02*
X156305023Y-94205705D01*
X156305023Y-94205705D02*
X156344332Y-94127086D01*
X156344332Y-94127086D02*
X156383642Y-94087777D01*
X156383642Y-94087777D02*
X156462261Y-94048467D01*
X156462261Y-94048467D02*
X156658808Y-94048467D01*
X156658808Y-94048467D02*
X156776737Y-94087777D01*
X157602236Y-94795348D02*
X157562927Y-94834658D01*
X157562927Y-94834658D02*
X157444998Y-94873967D01*
X157444998Y-94873967D02*
X157366379Y-94873967D01*
X157366379Y-94873967D02*
X157248451Y-94834658D01*
X157248451Y-94834658D02*
X157169832Y-94756038D01*
X157169832Y-94756038D02*
X157130522Y-94677419D01*
X157130522Y-94677419D02*
X157091213Y-94520181D01*
X157091213Y-94520181D02*
X157091213Y-94402253D01*
X157091213Y-94402253D02*
X157130522Y-94245015D01*
X157130522Y-94245015D02*
X157169832Y-94166396D01*
X157169832Y-94166396D02*
X157248451Y-94087777D01*
X157248451Y-94087777D02*
X157366379Y-94048467D01*
X157366379Y-94048467D02*
X157444998Y-94048467D01*
X157444998Y-94048467D02*
X157562927Y-94087777D01*
X157562927Y-94087777D02*
X157602236Y-94127086D01*
X158349117Y-94873967D02*
X157956022Y-94873967D01*
X157956022Y-94873967D02*
X157956022Y-94048467D01*
X144501532Y-93913908D02*
X143911889Y-93913908D01*
X143911889Y-93913908D02*
X143793961Y-93875337D01*
X143793961Y-93875337D02*
X143715342Y-93798194D01*
X143715342Y-93798194D02*
X143676032Y-93682480D01*
X143676032Y-93682480D02*
X143676032Y-93605337D01*
X143676032Y-94685337D02*
X143676032Y-94299623D01*
X143676032Y-94299623D02*
X144501532Y-94299623D01*
X143754651Y-95418194D02*
X143715342Y-95379622D01*
X143715342Y-95379622D02*
X143676032Y-95263908D01*
X143676032Y-95263908D02*
X143676032Y-95186765D01*
X143676032Y-95186765D02*
X143715342Y-95071051D01*
X143715342Y-95071051D02*
X143793961Y-94993908D01*
X143793961Y-94993908D02*
X143872580Y-94955337D01*
X143872580Y-94955337D02*
X144029818Y-94916765D01*
X144029818Y-94916765D02*
X144147746Y-94916765D01*
X144147746Y-94916765D02*
X144304984Y-94955337D01*
X144304984Y-94955337D02*
X144383603Y-94993908D01*
X144383603Y-94993908D02*
X144462222Y-95071051D01*
X144462222Y-95071051D02*
X144501532Y-95186765D01*
X144501532Y-95186765D02*
X144501532Y-95263908D01*
X144501532Y-95263908D02*
X144462222Y-95379622D01*
X144462222Y-95379622D02*
X144422913Y-95418194D01*
X144501532Y-95996765D02*
X143911889Y-95996765D01*
X143911889Y-95996765D02*
X143793961Y-95958194D01*
X143793961Y-95958194D02*
X143715342Y-95881051D01*
X143715342Y-95881051D02*
X143676032Y-95765337D01*
X143676032Y-95765337D02*
X143676032Y-95688194D01*
X143676032Y-96768194D02*
X143676032Y-96382480D01*
X143676032Y-96382480D02*
X144501532Y-96382480D01*
X143754651Y-97501051D02*
X143715342Y-97462479D01*
X143715342Y-97462479D02*
X143676032Y-97346765D01*
X143676032Y-97346765D02*
X143676032Y-97269622D01*
X143676032Y-97269622D02*
X143715342Y-97153908D01*
X143715342Y-97153908D02*
X143793961Y-97076765D01*
X143793961Y-97076765D02*
X143872580Y-97038194D01*
X143872580Y-97038194D02*
X144029818Y-96999622D01*
X144029818Y-96999622D02*
X144147746Y-96999622D01*
X144147746Y-96999622D02*
X144304984Y-97038194D01*
X144304984Y-97038194D02*
X144383603Y-97076765D01*
X144383603Y-97076765D02*
X144462222Y-97153908D01*
X144462222Y-97153908D02*
X144501532Y-97269622D01*
X144501532Y-97269622D02*
X144501532Y-97346765D01*
X144501532Y-97346765D02*
X144462222Y-97462479D01*
X144462222Y-97462479D02*
X144422913Y-97501051D01*
X144501532Y-98079622D02*
X143911889Y-98079622D01*
X143911889Y-98079622D02*
X143793961Y-98041051D01*
X143793961Y-98041051D02*
X143715342Y-97963908D01*
X143715342Y-97963908D02*
X143676032Y-97848194D01*
X143676032Y-97848194D02*
X143676032Y-97771051D01*
X143676032Y-98851051D02*
X143676032Y-98465337D01*
X143676032Y-98465337D02*
X144501532Y-98465337D01*
X143754651Y-99583908D02*
X143715342Y-99545336D01*
X143715342Y-99545336D02*
X143676032Y-99429622D01*
X143676032Y-99429622D02*
X143676032Y-99352479D01*
X143676032Y-99352479D02*
X143715342Y-99236765D01*
X143715342Y-99236765D02*
X143793961Y-99159622D01*
X143793961Y-99159622D02*
X143872580Y-99121051D01*
X143872580Y-99121051D02*
X144029818Y-99082479D01*
X144029818Y-99082479D02*
X144147746Y-99082479D01*
X144147746Y-99082479D02*
X144304984Y-99121051D01*
X144304984Y-99121051D02*
X144383603Y-99159622D01*
X144383603Y-99159622D02*
X144462222Y-99236765D01*
X144462222Y-99236765D02*
X144501532Y-99352479D01*
X144501532Y-99352479D02*
X144501532Y-99429622D01*
X144501532Y-99429622D02*
X144462222Y-99545336D01*
X144462222Y-99545336D02*
X144422913Y-99583908D01*
X144501532Y-100162479D02*
X143911889Y-100162479D01*
X143911889Y-100162479D02*
X143793961Y-100123908D01*
X143793961Y-100123908D02*
X143715342Y-100046765D01*
X143715342Y-100046765D02*
X143676032Y-99931051D01*
X143676032Y-99931051D02*
X143676032Y-99853908D01*
X143676032Y-100933908D02*
X143676032Y-100548194D01*
X143676032Y-100548194D02*
X144501532Y-100548194D01*
X143754651Y-101666765D02*
X143715342Y-101628193D01*
X143715342Y-101628193D02*
X143676032Y-101512479D01*
X143676032Y-101512479D02*
X143676032Y-101435336D01*
X143676032Y-101435336D02*
X143715342Y-101319622D01*
X143715342Y-101319622D02*
X143793961Y-101242479D01*
X143793961Y-101242479D02*
X143872580Y-101203908D01*
X143872580Y-101203908D02*
X144029818Y-101165336D01*
X144029818Y-101165336D02*
X144147746Y-101165336D01*
X144147746Y-101165336D02*
X144304984Y-101203908D01*
X144304984Y-101203908D02*
X144383603Y-101242479D01*
X144383603Y-101242479D02*
X144462222Y-101319622D01*
X144462222Y-101319622D02*
X144501532Y-101435336D01*
X144501532Y-101435336D02*
X144501532Y-101512479D01*
X144501532Y-101512479D02*
X144462222Y-101628193D01*
X144462222Y-101628193D02*
X144422913Y-101666765D01*
D15*
X148553333Y-110106819D02*
X148220000Y-109630628D01*
X147981905Y-110106819D02*
X147981905Y-109106819D01*
X147981905Y-109106819D02*
X148362857Y-109106819D01*
X148362857Y-109106819D02*
X148458095Y-109154438D01*
X148458095Y-109154438D02*
X148505714Y-109202057D01*
X148505714Y-109202057D02*
X148553333Y-109297295D01*
X148553333Y-109297295D02*
X148553333Y-109440152D01*
X148553333Y-109440152D02*
X148505714Y-109535390D01*
X148505714Y-109535390D02*
X148458095Y-109583009D01*
X148458095Y-109583009D02*
X148362857Y-109630628D01*
X148362857Y-109630628D02*
X147981905Y-109630628D01*
X149410476Y-109106819D02*
X149220000Y-109106819D01*
X149220000Y-109106819D02*
X149124762Y-109154438D01*
X149124762Y-109154438D02*
X149077143Y-109202057D01*
X149077143Y-109202057D02*
X148981905Y-109344914D01*
X148981905Y-109344914D02*
X148934286Y-109535390D01*
X148934286Y-109535390D02*
X148934286Y-109916342D01*
X148934286Y-109916342D02*
X148981905Y-110011580D01*
X148981905Y-110011580D02*
X149029524Y-110059200D01*
X149029524Y-110059200D02*
X149124762Y-110106819D01*
X149124762Y-110106819D02*
X149315238Y-110106819D01*
X149315238Y-110106819D02*
X149410476Y-110059200D01*
X149410476Y-110059200D02*
X149458095Y-110011580D01*
X149458095Y-110011580D02*
X149505714Y-109916342D01*
X149505714Y-109916342D02*
X149505714Y-109678247D01*
X149505714Y-109678247D02*
X149458095Y-109583009D01*
X149458095Y-109583009D02*
X149410476Y-109535390D01*
X149410476Y-109535390D02*
X149315238Y-109487771D01*
X149315238Y-109487771D02*
X149124762Y-109487771D01*
X149124762Y-109487771D02*
X149029524Y-109535390D01*
X149029524Y-109535390D02*
X148981905Y-109583009D01*
X148981905Y-109583009D02*
X148934286Y-109678247D01*
X127105819Y-114244666D02*
X126629628Y-114577999D01*
X127105819Y-114816094D02*
X126105819Y-114816094D01*
X126105819Y-114816094D02*
X126105819Y-114435142D01*
X126105819Y-114435142D02*
X126153438Y-114339904D01*
X126153438Y-114339904D02*
X126201057Y-114292285D01*
X126201057Y-114292285D02*
X126296295Y-114244666D01*
X126296295Y-114244666D02*
X126439152Y-114244666D01*
X126439152Y-114244666D02*
X126534390Y-114292285D01*
X126534390Y-114292285D02*
X126582009Y-114339904D01*
X126582009Y-114339904D02*
X126629628Y-114435142D01*
X126629628Y-114435142D02*
X126629628Y-114816094D01*
X126105819Y-113911332D02*
X126105819Y-113292285D01*
X126105819Y-113292285D02*
X126486771Y-113625618D01*
X126486771Y-113625618D02*
X126486771Y-113482761D01*
X126486771Y-113482761D02*
X126534390Y-113387523D01*
X126534390Y-113387523D02*
X126582009Y-113339904D01*
X126582009Y-113339904D02*
X126677247Y-113292285D01*
X126677247Y-113292285D02*
X126915342Y-113292285D01*
X126915342Y-113292285D02*
X127010580Y-113339904D01*
X127010580Y-113339904D02*
X127058200Y-113387523D01*
X127058200Y-113387523D02*
X127105819Y-113482761D01*
X127105819Y-113482761D02*
X127105819Y-113768475D01*
X127105819Y-113768475D02*
X127058200Y-113863713D01*
X127058200Y-113863713D02*
X127010580Y-113911332D01*
X124238095Y-126784819D02*
X124809523Y-126784819D01*
X124523809Y-127784819D02*
X124523809Y-126784819D01*
X125666666Y-127784819D02*
X125095238Y-127784819D01*
X125380952Y-127784819D02*
X125380952Y-126784819D01*
X125380952Y-126784819D02*
X125285714Y-126927676D01*
X125285714Y-126927676D02*
X125190476Y-127022914D01*
X125190476Y-127022914D02*
X125095238Y-127070533D01*
X148553333Y-112138819D02*
X148220000Y-111662628D01*
X147981905Y-112138819D02*
X147981905Y-111138819D01*
X147981905Y-111138819D02*
X148362857Y-111138819D01*
X148362857Y-111138819D02*
X148458095Y-111186438D01*
X148458095Y-111186438D02*
X148505714Y-111234057D01*
X148505714Y-111234057D02*
X148553333Y-111329295D01*
X148553333Y-111329295D02*
X148553333Y-111472152D01*
X148553333Y-111472152D02*
X148505714Y-111567390D01*
X148505714Y-111567390D02*
X148458095Y-111615009D01*
X148458095Y-111615009D02*
X148362857Y-111662628D01*
X148362857Y-111662628D02*
X147981905Y-111662628D01*
X149458095Y-111138819D02*
X148981905Y-111138819D01*
X148981905Y-111138819D02*
X148934286Y-111615009D01*
X148934286Y-111615009D02*
X148981905Y-111567390D01*
X148981905Y-111567390D02*
X149077143Y-111519771D01*
X149077143Y-111519771D02*
X149315238Y-111519771D01*
X149315238Y-111519771D02*
X149410476Y-111567390D01*
X149410476Y-111567390D02*
X149458095Y-111615009D01*
X149458095Y-111615009D02*
X149505714Y-111710247D01*
X149505714Y-111710247D02*
X149505714Y-111948342D01*
X149505714Y-111948342D02*
X149458095Y-112043580D01*
X149458095Y-112043580D02*
X149410476Y-112091200D01*
X149410476Y-112091200D02*
X149315238Y-112138819D01*
X149315238Y-112138819D02*
X149077143Y-112138819D01*
X149077143Y-112138819D02*
X148981905Y-112091200D01*
X148981905Y-112091200D02*
X148934286Y-112043580D01*
X127105819Y-118308666D02*
X126629628Y-118641999D01*
X127105819Y-118880094D02*
X126105819Y-118880094D01*
X126105819Y-118880094D02*
X126105819Y-118499142D01*
X126105819Y-118499142D02*
X126153438Y-118403904D01*
X126153438Y-118403904D02*
X126201057Y-118356285D01*
X126201057Y-118356285D02*
X126296295Y-118308666D01*
X126296295Y-118308666D02*
X126439152Y-118308666D01*
X126439152Y-118308666D02*
X126534390Y-118356285D01*
X126534390Y-118356285D02*
X126582009Y-118403904D01*
X126582009Y-118403904D02*
X126629628Y-118499142D01*
X126629628Y-118499142D02*
X126629628Y-118880094D01*
X126439152Y-117451523D02*
X127105819Y-117451523D01*
X126058200Y-117689618D02*
X126772485Y-117927713D01*
X126772485Y-117927713D02*
X126772485Y-117308666D01*
X127105819Y-108910666D02*
X126629628Y-109243999D01*
X127105819Y-109482094D02*
X126105819Y-109482094D01*
X126105819Y-109482094D02*
X126105819Y-109101142D01*
X126105819Y-109101142D02*
X126153438Y-109005904D01*
X126153438Y-109005904D02*
X126201057Y-108958285D01*
X126201057Y-108958285D02*
X126296295Y-108910666D01*
X126296295Y-108910666D02*
X126439152Y-108910666D01*
X126439152Y-108910666D02*
X126534390Y-108958285D01*
X126534390Y-108958285D02*
X126582009Y-109005904D01*
X126582009Y-109005904D02*
X126629628Y-109101142D01*
X126629628Y-109101142D02*
X126629628Y-109482094D01*
X126201057Y-108529713D02*
X126153438Y-108482094D01*
X126153438Y-108482094D02*
X126105819Y-108386856D01*
X126105819Y-108386856D02*
X126105819Y-108148761D01*
X126105819Y-108148761D02*
X126153438Y-108053523D01*
X126153438Y-108053523D02*
X126201057Y-108005904D01*
X126201057Y-108005904D02*
X126296295Y-107958285D01*
X126296295Y-107958285D02*
X126391533Y-107958285D01*
X126391533Y-107958285D02*
X126534390Y-108005904D01*
X126534390Y-108005904D02*
X127105819Y-108577332D01*
X127105819Y-108577332D02*
X127105819Y-107958285D01*
X127105819Y-105081666D02*
X126629628Y-105414999D01*
X127105819Y-105653094D02*
X126105819Y-105653094D01*
X126105819Y-105653094D02*
X126105819Y-105272142D01*
X126105819Y-105272142D02*
X126153438Y-105176904D01*
X126153438Y-105176904D02*
X126201057Y-105129285D01*
X126201057Y-105129285D02*
X126296295Y-105081666D01*
X126296295Y-105081666D02*
X126439152Y-105081666D01*
X126439152Y-105081666D02*
X126534390Y-105129285D01*
X126534390Y-105129285D02*
X126582009Y-105176904D01*
X126582009Y-105176904D02*
X126629628Y-105272142D01*
X126629628Y-105272142D02*
X126629628Y-105653094D01*
X127105819Y-104129285D02*
X127105819Y-104700713D01*
X127105819Y-104414999D02*
X126105819Y-104414999D01*
X126105819Y-104414999D02*
X126248676Y-104510237D01*
X126248676Y-104510237D02*
X126343914Y-104605475D01*
X126343914Y-104605475D02*
X126391533Y-104700713D01*
D10*
%TO.C,J2*%
X139505000Y-101708000D02*
X139505000Y-102958000D01*
X139505000Y-102958000D02*
X140755000Y-102958000D01*
X139795000Y-92548000D02*
X139795000Y-102668000D01*
X139795000Y-102668000D02*
X145765000Y-102668000D01*
X139805000Y-92558000D02*
X139805000Y-94358000D01*
X139805000Y-94358000D02*
X140555000Y-94358000D01*
X139805000Y-95858000D02*
X139805000Y-99358000D01*
X139805000Y-99358000D02*
X140555000Y-99358000D01*
X139805000Y-100858000D02*
X139805000Y-102658000D01*
X139805000Y-102658000D02*
X140555000Y-102658000D01*
X140555000Y-92558000D02*
X139805000Y-92558000D01*
X140555000Y-94358000D02*
X140555000Y-92558000D01*
X140555000Y-95858000D02*
X139805000Y-95858000D01*
X140555000Y-99358000D02*
X140555000Y-95858000D01*
X140555000Y-100858000D02*
X139805000Y-100858000D01*
X140555000Y-102658000D02*
X140555000Y-100858000D01*
X142055000Y-92558000D02*
X142055000Y-93308000D01*
X142055000Y-93308000D02*
X145005000Y-93308000D01*
X142055000Y-101908000D02*
X145005000Y-101908000D01*
X142055000Y-102658000D02*
X142055000Y-101908000D01*
X145005000Y-93308000D02*
X145005000Y-97608000D01*
X145005000Y-101908000D02*
X145005000Y-97608000D01*
X145765000Y-92548000D02*
X139795000Y-92548000D01*
X145765000Y-102668000D02*
X145765000Y-92548000D01*
%TO.C,P1*%
X131290000Y-118710000D02*
X131290000Y-98270000D01*
X133890000Y-116110000D02*
X133890000Y-118710000D01*
X133890000Y-118710000D02*
X131290000Y-118710000D01*
X136490000Y-98270000D02*
X131290000Y-98270000D01*
X136490000Y-116110000D02*
X133890000Y-116110000D01*
X136490000Y-116110000D02*
X136490000Y-98270000D01*
X136490000Y-117380000D02*
X136490000Y-118710000D01*
X136490000Y-118710000D02*
X135160000Y-118710000D01*
%TO.C,J4*%
X140673000Y-104766000D02*
X140673000Y-107426000D01*
X145813000Y-104766000D02*
X140673000Y-104766000D01*
X145813000Y-104766000D02*
X145813000Y-107426000D01*
X145813000Y-107426000D02*
X140673000Y-107426000D01*
X147083000Y-104766000D02*
X148413000Y-104766000D01*
X148413000Y-104766000D02*
X148413000Y-106096000D01*
%TO.C,I2C1*%
X157900000Y-99200000D02*
X158500000Y-99500000D01*
X157900000Y-99800000D02*
X157900000Y-99200000D01*
X158500000Y-99500000D02*
X157900000Y-99800000D01*
X163200000Y-91750000D02*
X163200000Y-92250000D01*
X163200000Y-92250000D02*
X168700000Y-92250000D01*
X163200000Y-94250000D02*
X163200000Y-94750000D01*
X163200000Y-94750000D02*
X168700000Y-94750000D01*
X163200000Y-96750000D02*
X163200000Y-97250000D01*
X163200000Y-97250000D02*
X168700000Y-97250000D01*
X163200000Y-99250000D02*
X163200000Y-99750000D01*
X163200000Y-99750000D02*
X168700000Y-99750000D01*
X168700000Y-91750000D02*
X163200000Y-91750000D01*
X168700000Y-92250000D02*
X168700000Y-91750000D01*
X168700000Y-94250000D02*
X163200000Y-94250000D01*
X168700000Y-94750000D02*
X168700000Y-94250000D01*
X168700000Y-96750000D02*
X163200000Y-96750000D01*
X168700000Y-97250000D02*
X168700000Y-96750000D01*
X168700000Y-99250000D02*
X163200000Y-99250000D01*
X168700000Y-99750000D02*
X168700000Y-99250000D01*
%TO.C,I2C3*%
X157900000Y-124700000D02*
X158500000Y-125000000D01*
X157900000Y-125300000D02*
X157900000Y-124700000D01*
X158500000Y-125000000D02*
X157900000Y-125300000D01*
X163200000Y-117250000D02*
X163200000Y-117750000D01*
X163200000Y-117750000D02*
X168700000Y-117750000D01*
X163200000Y-119750000D02*
X163200000Y-120250000D01*
X163200000Y-120250000D02*
X168700000Y-120250000D01*
X163200000Y-122250000D02*
X163200000Y-122750000D01*
X163200000Y-122750000D02*
X168700000Y-122750000D01*
X163200000Y-124750000D02*
X163200000Y-125250000D01*
X163200000Y-125250000D02*
X168700000Y-125250000D01*
X168700000Y-117250000D02*
X163200000Y-117250000D01*
X168700000Y-117750000D02*
X168700000Y-117250000D01*
X168700000Y-119750000D02*
X163200000Y-119750000D01*
X168700000Y-120250000D02*
X168700000Y-119750000D01*
X168700000Y-122250000D02*
X163200000Y-122250000D01*
X168700000Y-122750000D02*
X168700000Y-122250000D01*
X168700000Y-124750000D02*
X163200000Y-124750000D01*
X168700000Y-125250000D02*
X168700000Y-124750000D01*
%TO.C,R6*%
X146197064Y-108517000D02*
X145742936Y-108517000D01*
X146197064Y-109987000D02*
X145742936Y-109987000D01*
%TO.C,LED1*%
X140300000Y-110324000D02*
X140300000Y-112244000D01*
X140300000Y-112244000D02*
X143160000Y-112244000D01*
X143160000Y-110324000D02*
X140300000Y-110324000D01*
%TO.C,R3*%
X127313000Y-114305064D02*
X127313000Y-113850936D01*
X128783000Y-114305064D02*
X128783000Y-113850936D01*
%TO.C,D1*%
X153718000Y-95230000D02*
X153718000Y-91220000D01*
X153718000Y-95230000D02*
X155718000Y-95230000D01*
X155718000Y-95230000D02*
X155718000Y-91220000D01*
%TO.C,R5*%
X146197064Y-110549000D02*
X145742936Y-110549000D01*
X146197064Y-112019000D02*
X145742936Y-112019000D01*
%TO.C,C4*%
X153089252Y-114515000D02*
X152566748Y-114515000D01*
X153089252Y-115985000D02*
X152566748Y-115985000D01*
%TO.C,C3*%
X153089252Y-117015000D02*
X152566748Y-117015000D01*
X153089252Y-118485000D02*
X152566748Y-118485000D01*
%TO.C,R4*%
X127313000Y-117914936D02*
X127313000Y-118369064D01*
X128783000Y-117914936D02*
X128783000Y-118369064D01*
%TO.C,LEDPWR1*%
X138688000Y-115756000D02*
X138688000Y-124476000D01*
X139988000Y-114056000D02*
X138688000Y-115756000D01*
X142808000Y-114056000D02*
X139988000Y-114056000D01*
X142808000Y-114056000D02*
X144108000Y-115756000D01*
X144108000Y-115756000D02*
X144108000Y-124476000D01*
X144108000Y-124476000D02*
X138688000Y-124476000D01*
%TO.C,I2C2*%
X157900000Y-111950000D02*
X158500000Y-112250000D01*
X157900000Y-112550000D02*
X157900000Y-111950000D01*
X158500000Y-112250000D02*
X157900000Y-112550000D01*
X163200000Y-104500000D02*
X163200000Y-105000000D01*
X163200000Y-105000000D02*
X168700000Y-105000000D01*
X163200000Y-107000000D02*
X163200000Y-107500000D01*
X163200000Y-107500000D02*
X168700000Y-107500000D01*
X163200000Y-109500000D02*
X163200000Y-110000000D01*
X163200000Y-110000000D02*
X168700000Y-110000000D01*
X163200000Y-112000000D02*
X163200000Y-112500000D01*
X163200000Y-112500000D02*
X168700000Y-112500000D01*
X168700000Y-104500000D02*
X163200000Y-104500000D01*
X168700000Y-105000000D02*
X168700000Y-104500000D01*
X168700000Y-107000000D02*
X163200000Y-107000000D01*
X168700000Y-107500000D02*
X168700000Y-107000000D01*
X168700000Y-109500000D02*
X163200000Y-109500000D01*
X168700000Y-110000000D02*
X168700000Y-109500000D01*
X168700000Y-112000000D02*
X163200000Y-112000000D01*
X168700000Y-112500000D02*
X168700000Y-112000000D01*
%TO.C,C2*%
X153089252Y-119515000D02*
X152566748Y-119515000D01*
X153089252Y-120985000D02*
X152566748Y-120985000D01*
%TO.C,LED2*%
X140300000Y-108292000D02*
X140300000Y-110212000D01*
X140300000Y-110212000D02*
X143160000Y-110212000D01*
X143160000Y-108292000D02*
X140300000Y-108292000D01*
%TO.C,R2*%
X127313000Y-108971064D02*
X127313000Y-108516936D01*
X128783000Y-108971064D02*
X128783000Y-108516936D01*
%TO.C,R1*%
X127313000Y-104672936D02*
X127313000Y-105127064D01*
X128783000Y-104672936D02*
X128783000Y-105127064D01*
%TO.C,C1*%
X153089252Y-122015000D02*
X152566748Y-122015000D01*
X153089252Y-123485000D02*
X152566748Y-123485000D01*
%TO.C,J1*%
X146738000Y-102474000D02*
X146738000Y-96724000D01*
X146788000Y-92174000D02*
X152738000Y-92174000D01*
X146788000Y-95374000D02*
X146788000Y-92174000D01*
X151628000Y-96044000D02*
X152638000Y-96044000D01*
X151628000Y-101124000D02*
X151628000Y-96044000D01*
X152638000Y-101124000D02*
X151628000Y-101124000D01*
X152738000Y-92174000D02*
X152738000Y-102474000D01*
X152738000Y-102474000D02*
X146738000Y-102474000D01*
%TO.C,B1*%
X150848000Y-110776000D02*
X150848000Y-103096000D01*
X153508000Y-103096000D02*
X150848000Y-103096000D01*
X153508000Y-110776000D02*
X150848000Y-110776000D01*
X153508000Y-110776000D02*
X153508000Y-103096000D01*
X153508000Y-112046000D02*
X153508000Y-113376000D01*
X153508000Y-113376000D02*
X152178000Y-113376000D01*
%TO.C,BCKPWR1*%
X145040000Y-115740000D02*
X145040000Y-124460000D01*
X146340000Y-114040000D02*
X145040000Y-115740000D01*
X149160000Y-114040000D02*
X146340000Y-114040000D01*
X149160000Y-114040000D02*
X150460000Y-115740000D01*
X150460000Y-115740000D02*
X150460000Y-124460000D01*
X150460000Y-124460000D02*
X145040000Y-124460000D01*
%TD*%
M02*
