G04*
G04 #@! TF.GenerationSoftware,Altium Limited,Altium Designer,24.0.1 (36)*
G04*
G04 Layer_Physical_Order=2*
G04 Layer_Color=16711680*
%FSLAX25Y25*%
%MOIN*%
G70*
G04*
G04 #@! TF.SameCoordinates,1973DDD8-50FA-473A-AABA-CD6713E7F6C3*
G04*
G04*
G04 #@! TF.FilePolarity,Positive*
G04*
G01*
G75*
%ADD13C,0.00984*%
%ADD28C,0.02362*%
%ADD32C,0.11811*%
%ADD33R,0.11811X0.11811*%
%ADD34C,0.05512*%
%ADD35R,0.05512X0.05512*%
%ADD36C,0.05906*%
%ADD37R,0.05906X0.05906*%
%ADD38C,0.12598*%
%ADD39C,0.03937*%
G36*
X152728Y69896D02*
X152228Y69744D01*
X152044Y70019D01*
X147590Y74472D01*
X146935Y74910D01*
X146273Y75042D01*
Y75271D01*
X146030Y76176D01*
X145562Y76986D01*
X144900Y77649D01*
X144089Y78117D01*
X143185Y78359D01*
X142248D01*
X142066Y78310D01*
X122057Y98319D01*
X121402Y98757D01*
X120629Y98910D01*
X110304D01*
X110113Y99372D01*
X110286Y99546D01*
X110781Y100402D01*
X111036Y101356D01*
Y102344D01*
X110781Y103299D01*
X110286Y104155D01*
X109588Y104853D01*
X108732Y105347D01*
X107778Y105603D01*
X106790D01*
X105835Y105347D01*
X104979Y104853D01*
X104281Y104155D01*
X103787Y103299D01*
X103531Y102344D01*
Y102060D01*
X103069Y101869D01*
X97819Y107119D01*
X97163Y107557D01*
X96390Y107711D01*
X69515D01*
X69247Y108211D01*
X69288Y108271D01*
X116235D01*
X139209Y85296D01*
X139161Y85114D01*
Y84178D01*
X139403Y83273D01*
X139871Y82462D01*
X140533Y81800D01*
X141344Y81332D01*
X142248Y81090D01*
X143185D01*
X144089Y81332D01*
X144900Y81800D01*
X145562Y82462D01*
X146030Y83273D01*
X146273Y84178D01*
Y85114D01*
X146030Y86018D01*
X145562Y86829D01*
X144900Y87491D01*
X144089Y87959D01*
X143185Y88202D01*
X142248D01*
X142066Y88153D01*
X122410Y107809D01*
X122601Y108271D01*
X138961D01*
Y106315D01*
X142717D01*
X146473D01*
Y108764D01*
X146619Y108862D01*
X148919Y111162D01*
X149357Y111818D01*
X149511Y112591D01*
Y130069D01*
X149357Y130842D01*
X148919Y131497D01*
X146224Y134192D01*
X146273Y134374D01*
Y135311D01*
X146030Y136215D01*
X145562Y137026D01*
X144900Y137688D01*
X144089Y138156D01*
X143185Y138399D01*
X142248D01*
X141344Y138156D01*
X140533Y137688D01*
X139871Y137026D01*
X139403Y136215D01*
X139161Y135311D01*
Y134374D01*
X139403Y133470D01*
X139871Y132659D01*
X140533Y131997D01*
X141344Y131529D01*
X142248Y131287D01*
X143185D01*
X143367Y131335D01*
X145471Y129232D01*
Y127928D01*
X145009Y127737D01*
X144900Y127845D01*
X144089Y128314D01*
X143185Y128556D01*
X142248D01*
X141344Y128314D01*
X140533Y127845D01*
X139871Y127183D01*
X139403Y126373D01*
X139161Y125468D01*
Y124532D01*
X139403Y123627D01*
X139871Y122817D01*
X140533Y122154D01*
X141344Y121686D01*
X142248Y121444D01*
X143185D01*
X144089Y121686D01*
X144900Y122154D01*
X145009Y122263D01*
X145471Y122072D01*
Y118086D01*
X145009Y117894D01*
X144900Y118003D01*
X144089Y118471D01*
X143185Y118713D01*
X142248D01*
X141344Y118471D01*
X140533Y118003D01*
X139871Y117341D01*
X139777Y117177D01*
X63558D01*
X62785Y117024D01*
X62129Y116586D01*
X55831Y110288D01*
X49845D01*
X49073Y111060D01*
X48418Y111498D01*
X47645Y111651D01*
X40938D01*
X40165Y111498D01*
X39510Y111060D01*
X38737Y110288D01*
X12412D01*
X8589Y114110D01*
X8674Y114427D01*
Y115415D01*
X8418Y116370D01*
X7924Y117226D01*
X7226Y117924D01*
X6370Y118418D01*
X5415Y118674D01*
X4427D01*
X3473Y118418D01*
X2617Y117924D01*
X1918Y117226D01*
X1424Y116370D01*
X1303Y115916D01*
X803Y115982D01*
Y123162D01*
X1303Y123283D01*
X1758Y122494D01*
X2494Y121758D01*
X3396Y121238D01*
X3921Y121097D01*
Y124921D01*
Y128746D01*
X3396Y128605D01*
X2494Y128084D01*
X1758Y127348D01*
X1303Y126559D01*
X803Y126681D01*
Y133861D01*
X1303Y133926D01*
X1424Y133473D01*
X1918Y132617D01*
X2617Y131918D01*
X3473Y131424D01*
X4427Y131169D01*
X5415D01*
X6370Y131424D01*
X7226Y131918D01*
X7924Y132617D01*
X8418Y133473D01*
X8674Y134427D01*
Y135415D01*
X8418Y136370D01*
X7924Y137226D01*
X7226Y137924D01*
X6370Y138418D01*
X6211Y138461D01*
X6277Y138961D01*
X28181D01*
X28279Y138471D01*
X27722Y138240D01*
X26029Y137203D01*
X24520Y135914D01*
X23231Y134404D01*
X22193Y132712D01*
X21434Y130878D01*
X20970Y128947D01*
X20814Y126969D01*
X20970Y124990D01*
X21434Y123059D01*
X22193Y121226D01*
X23231Y119533D01*
X24520Y118024D01*
X26029Y116735D01*
X27722Y115697D01*
X29555Y114938D01*
X31486Y114474D01*
X33465Y114319D01*
X35443Y114474D01*
X37374Y114938D01*
X39208Y115697D01*
X40900Y116735D01*
X42410Y118024D01*
X43699Y119533D01*
X44736Y121226D01*
X45495Y123059D01*
X45959Y124990D01*
X46115Y126969D01*
X45959Y128947D01*
X45495Y130878D01*
X44736Y132712D01*
X43699Y134404D01*
X42410Y135914D01*
X40900Y137203D01*
X39208Y138240D01*
X38650Y138471D01*
X38748Y138961D01*
X46912D01*
X51598Y134275D01*
X51858Y134101D01*
X52165Y134040D01*
X108268D01*
X108268Y134040D01*
X108575Y134101D01*
X108835Y134275D01*
X108835Y134275D01*
X118443Y143882D01*
X152728Y143882D01*
Y69896D01*
D02*
G37*
G36*
X103052Y96172D02*
X103331Y95803D01*
X103331D01*
X103331Y95803D01*
Y92850D01*
X107283D01*
Y91850D01*
D01*
Y92850D01*
X111236D01*
Y94871D01*
X119792D01*
X139209Y75454D01*
X139161Y75271D01*
Y74335D01*
X139403Y73431D01*
X139871Y72620D01*
X140180Y72311D01*
X139973Y71811D01*
X114465D01*
X113692Y71657D01*
X113037Y71219D01*
X111698Y69881D01*
X111236Y70072D01*
Y70850D01*
X107283D01*
X103331D01*
Y68936D01*
X49616D01*
X48843Y68783D01*
X48744Y68716D01*
X48244Y68966D01*
Y70535D01*
X44291D01*
Y72535D01*
X48244D01*
Y74471D01*
X51454D01*
X52550Y73375D01*
X53205Y72937D01*
X53978Y72783D01*
X95546D01*
X95741Y72588D01*
X96372Y72223D01*
X97076Y72035D01*
X97805D01*
X98510Y72223D01*
X99141Y72588D01*
X99656Y73103D01*
X100021Y73735D01*
X100209Y74439D01*
Y75168D01*
X100021Y75872D01*
X99656Y76503D01*
X99141Y77018D01*
X98510Y77383D01*
X97805Y77572D01*
X97076D01*
X96372Y77383D01*
X95741Y77018D01*
X95546Y76823D01*
X87614D01*
Y79709D01*
X83661D01*
X79709D01*
Y76823D01*
X75803D01*
Y79709D01*
X71850D01*
X67898D01*
Y76823D01*
X54815D01*
X53719Y77919D01*
X53063Y78357D01*
X52290Y78510D01*
X47281D01*
X47074Y79010D01*
X47294Y79231D01*
X47458Y79515D01*
X62677D01*
X63450Y79669D01*
X64105Y80107D01*
X67436Y83437D01*
X67898Y83246D01*
Y81709D01*
X70850D01*
Y84661D01*
X69313D01*
X69122Y85123D01*
X71039Y87041D01*
X71356Y86956D01*
X72344D01*
X73299Y87212D01*
X74155Y87706D01*
X74853Y88404D01*
X75017Y88689D01*
X80494D01*
X80658Y88404D01*
X81357Y87706D01*
X82213Y87212D01*
X83167Y86956D01*
X84155D01*
X85110Y87212D01*
X85966Y87706D01*
X86664Y88404D01*
X87158Y89260D01*
X87414Y90215D01*
Y91203D01*
X87158Y92157D01*
X86664Y93013D01*
X86468Y93209D01*
X86660Y93671D01*
X92607D01*
X103616Y82661D01*
X103531Y82344D01*
Y81356D01*
X103787Y80402D01*
X104281Y79546D01*
X104979Y78847D01*
X105835Y78353D01*
X106790Y78098D01*
X107778D01*
X108732Y78353D01*
X109588Y78847D01*
X110286Y79546D01*
X110781Y80402D01*
X111036Y81356D01*
Y82344D01*
X110781Y83299D01*
X110286Y84155D01*
X109588Y84853D01*
X108732Y85347D01*
X107778Y85603D01*
X106790D01*
X106472Y85518D01*
X104555Y87436D01*
X104746Y87898D01*
X106283D01*
Y90850D01*
X103331D01*
Y89313D01*
X102869Y89122D01*
X94872Y97119D01*
X94216Y97557D01*
X93443Y97711D01*
X86624D01*
X86432Y98172D01*
X86664Y98404D01*
X87158Y99260D01*
X87414Y100215D01*
Y101203D01*
X87158Y102157D01*
X86664Y103013D01*
X86468Y103209D01*
X86660Y103671D01*
X95554D01*
X103052Y96172D01*
D02*
G37*
G36*
X137378Y62479D02*
X133810Y58911D01*
X99532D01*
X99141Y59302D01*
X98510Y59666D01*
X97805Y59855D01*
X97076D01*
X96372Y59666D01*
X95741Y59302D01*
X95226Y58786D01*
X94861Y58155D01*
X94672Y57451D01*
Y56722D01*
X94861Y56018D01*
X95226Y55387D01*
X95741Y54871D01*
X96372Y54507D01*
X97076Y54318D01*
X97805D01*
X98510Y54507D01*
X99140Y54871D01*
X134647D01*
X135371Y55015D01*
X135506Y54990D01*
X135871Y54795D01*
Y19590D01*
X136024Y18817D01*
X136462Y18161D01*
X139209Y15414D01*
X139161Y15232D01*
Y14296D01*
X139403Y13391D01*
X139871Y12580D01*
X140533Y11918D01*
X141344Y11450D01*
X142248Y11208D01*
X143185D01*
X144089Y11450D01*
X144900Y11918D01*
X145562Y12580D01*
X146030Y13391D01*
X146273Y14296D01*
Y15232D01*
X146030Y16136D01*
X145562Y16947D01*
X144900Y17609D01*
X144089Y18077D01*
X143185Y18320D01*
X142248D01*
X142066Y18271D01*
X139910Y20426D01*
Y21730D01*
X140372Y21922D01*
X140533Y21761D01*
X141344Y21293D01*
X142248Y21050D01*
X143185D01*
X144089Y21293D01*
X144900Y21761D01*
X145562Y22423D01*
X146030Y23234D01*
X146273Y24138D01*
Y25074D01*
X146224Y25257D01*
X152044Y31077D01*
X152228Y31352D01*
X152728Y31200D01*
Y-4118D01*
X117384D01*
X108498Y5467D01*
X108485Y5476D01*
X108476Y5489D01*
X108359Y5568D01*
X108244Y5651D01*
X108229Y5654D01*
X108216Y5663D01*
X108077Y5691D01*
X107939Y5723D01*
X107924Y5721D01*
X107909Y5724D01*
X52165D01*
X51858Y5663D01*
X51598Y5489D01*
X51598Y5489D01*
X46912Y803D01*
X38748D01*
X38650Y1293D01*
X39208Y1524D01*
X40900Y2561D01*
X42410Y3850D01*
X43699Y5360D01*
X44736Y7052D01*
X45495Y8886D01*
X45959Y10817D01*
X46115Y12795D01*
X45959Y14774D01*
X45495Y16704D01*
X44736Y18538D01*
X43699Y20231D01*
X42410Y21740D01*
X40900Y23029D01*
X39208Y24067D01*
X37374Y24826D01*
X35443Y25290D01*
X33465Y25445D01*
X31486Y25290D01*
X29555Y24826D01*
X27722Y24067D01*
X26029Y23029D01*
X24520Y21740D01*
X23231Y20231D01*
X22193Y18538D01*
X21434Y16704D01*
X20970Y14774D01*
X20814Y12795D01*
X20970Y10817D01*
X21434Y8886D01*
X22193Y7052D01*
X23231Y5360D01*
X24520Y3850D01*
X26029Y2561D01*
X27722Y1524D01*
X28279Y1293D01*
X28181Y803D01*
X8998D01*
X8674Y1169D01*
X8674Y1303D01*
Y8674D01*
X1303D01*
X1169Y8674D01*
X803Y8998D01*
Y13861D01*
X1303Y13927D01*
X1424Y13473D01*
X1918Y12617D01*
X2617Y11918D01*
X3473Y11424D01*
X4427Y11169D01*
X5415D01*
X6370Y11424D01*
X7226Y11918D01*
X7924Y12617D01*
X8418Y13473D01*
X8674Y14427D01*
Y15415D01*
X8418Y16370D01*
X7924Y17226D01*
X7226Y17924D01*
X6370Y18418D01*
X5415Y18674D01*
X4427D01*
X3473Y18418D01*
X2617Y17924D01*
X1918Y17226D01*
X1424Y16370D01*
X1303Y15916D01*
X803Y15982D01*
Y23861D01*
X1303Y23926D01*
X1424Y23473D01*
X1918Y22617D01*
X2617Y21918D01*
X3473Y21424D01*
X4427Y21169D01*
X5415D01*
X6370Y21424D01*
X7226Y21918D01*
X7924Y22617D01*
X8418Y23473D01*
X8674Y24427D01*
Y25415D01*
X8589Y25732D01*
X27266Y44410D01*
X29151D01*
X29342Y43948D01*
X29317Y43923D01*
X28797Y43022D01*
X28656Y42496D01*
X32480D01*
Y41496D01*
X33480D01*
Y37672D01*
X34006Y37813D01*
X34907Y38333D01*
X35643Y39069D01*
X36002Y39690D01*
X36361Y39663D01*
X36540Y39621D01*
X36958Y38996D01*
X40105Y35849D01*
X40339Y35449D01*
X40339D01*
X40339Y35449D01*
Y32496D01*
X44291D01*
X48244D01*
Y35449D01*
X48244Y35449D01*
X48244D01*
X48520Y35821D01*
X60127Y47428D01*
X60404D01*
X61108Y47617D01*
X61739Y47982D01*
X62255Y48497D01*
X62619Y49128D01*
X62808Y49832D01*
Y50561D01*
X62619Y51265D01*
X62255Y51897D01*
X61739Y52412D01*
X61108Y52777D01*
X60404Y52965D01*
X59675D01*
X59196Y52837D01*
X58937Y53285D01*
X67386Y61734D01*
X115380D01*
X116153Y61888D01*
X116808Y62326D01*
X117423Y62941D01*
X137187D01*
X137378Y62479D01*
D02*
G37*
G36*
X143717Y51362D02*
X145434D01*
Y40022D01*
X143367Y37956D01*
X143185Y38005D01*
X142248D01*
X141344Y37762D01*
X140533Y37294D01*
X140372Y37133D01*
X139910Y37325D01*
Y51362D01*
X141717D01*
Y55118D01*
X143717D01*
Y51362D01*
D02*
G37*
%LPC*%
G36*
X5921Y128746D02*
Y125921D01*
X8746D01*
X8605Y126447D01*
X8084Y127348D01*
X7348Y128084D01*
X6447Y128605D01*
X5921Y128746D01*
D02*
G37*
G36*
X8746Y123921D02*
X5921D01*
Y121097D01*
X6447Y121238D01*
X7348Y121758D01*
X8084Y122494D01*
X8605Y123396D01*
X8746Y123921D01*
D02*
G37*
G36*
X146473Y104315D02*
X143717D01*
Y101559D01*
X146473D01*
Y104315D01*
D02*
G37*
G36*
X141717D02*
X138961D01*
Y101559D01*
X141717D01*
Y104315D01*
D02*
G37*
G36*
X111236Y90850D02*
X108283D01*
Y87898D01*
X111236D01*
Y90850D01*
D02*
G37*
G36*
X87614Y84661D02*
X84661D01*
Y81709D01*
X87614D01*
Y84661D01*
D02*
G37*
G36*
X75803D02*
X72850D01*
Y81709D01*
X75803D01*
Y84661D01*
D02*
G37*
G36*
X82661D02*
X79709D01*
Y81709D01*
X82661D01*
Y84661D01*
D02*
G37*
G36*
X111236Y75803D02*
X108283D01*
Y72850D01*
X111236D01*
Y75803D01*
D02*
G37*
G36*
X106283D02*
X103331D01*
Y72850D01*
X106283D01*
Y75803D01*
D02*
G37*
G36*
X101394Y44307D02*
X95488D01*
Y38401D01*
X101394D01*
Y44307D01*
D02*
G37*
G36*
X78756D02*
X72850D01*
Y38401D01*
X78756D01*
Y44307D01*
D02*
G37*
G36*
X93488D02*
X87583D01*
Y38401D01*
X93488D01*
Y44307D01*
D02*
G37*
G36*
X70850D02*
X64945D01*
Y38401D01*
X70850D01*
Y44307D01*
D02*
G37*
G36*
X31480Y40496D02*
X28656D01*
X28797Y39970D01*
X29317Y39069D01*
X30053Y38333D01*
X30955Y37813D01*
X31480Y37672D01*
Y40496D01*
D02*
G37*
G36*
X36433Y35449D02*
X33480D01*
Y32496D01*
X36433D01*
Y35449D01*
D02*
G37*
G36*
X31480D02*
X28528D01*
Y32496D01*
X31480D01*
Y35449D01*
D02*
G37*
G36*
X101394Y36402D02*
X95488D01*
Y30496D01*
X101394D01*
Y36402D01*
D02*
G37*
G36*
X93488D02*
X87583D01*
Y30496D01*
X93488D01*
Y36402D01*
D02*
G37*
G36*
X78756D02*
X72850D01*
Y30496D01*
X78756D01*
Y36402D01*
D02*
G37*
G36*
X70850D02*
X64945D01*
Y30496D01*
X70850D01*
Y36402D01*
D02*
G37*
G36*
X48244Y30496D02*
X45291D01*
Y27543D01*
X48244D01*
Y30496D01*
D02*
G37*
G36*
X43291D02*
X40339D01*
Y27543D01*
X43291D01*
Y30496D01*
D02*
G37*
G36*
X36433Y30496D02*
X33480D01*
Y27543D01*
X36433D01*
Y30496D01*
D02*
G37*
G36*
X31480D02*
X28528D01*
Y27543D01*
X31480D01*
Y30496D01*
D02*
G37*
G36*
X95149Y24422D02*
X93828D01*
X92532Y24164D01*
X91312Y23659D01*
X90214Y22925D01*
X89280Y21991D01*
X88546Y20893D01*
X88067Y19737D01*
X78272D01*
X77793Y20893D01*
X77059Y21991D01*
X76125Y22925D01*
X75027Y23659D01*
X73806Y24164D01*
X72511Y24422D01*
X71190D01*
X69894Y24164D01*
X68674Y23659D01*
X67576Y22925D01*
X66642Y21991D01*
X65908Y20893D01*
X65403Y19672D01*
X65145Y18377D01*
Y17056D01*
X65403Y15761D01*
X65908Y14540D01*
X66642Y13442D01*
X67576Y12508D01*
X68674Y11774D01*
X69894Y11269D01*
X71190Y11011D01*
X72511D01*
X73806Y11269D01*
X75027Y11774D01*
X76125Y12508D01*
X77059Y13442D01*
X77793Y14540D01*
X78272Y15697D01*
X88067D01*
X88546Y14540D01*
X89280Y13442D01*
X90214Y12508D01*
X91312Y11774D01*
X92532Y11269D01*
X93828Y11011D01*
X95149D01*
X96444Y11269D01*
X97664Y11774D01*
X98763Y12508D01*
X99697Y13442D01*
X100431Y14540D01*
X100936Y15761D01*
X101194Y17056D01*
Y18377D01*
X100936Y19672D01*
X100431Y20893D01*
X99697Y21991D01*
X98763Y22925D01*
X97664Y23659D01*
X96444Y24164D01*
X95149Y24422D01*
D02*
G37*
G36*
X146473Y8677D02*
X143717D01*
Y5921D01*
X146473D01*
Y8677D01*
D02*
G37*
G36*
X141717D02*
X138961D01*
Y5921D01*
X141717D01*
Y8677D01*
D02*
G37*
G36*
X146473Y3921D02*
X143717D01*
Y1165D01*
X146473D01*
Y3921D01*
D02*
G37*
G36*
X141717D02*
X138961D01*
Y1165D01*
X141717D01*
Y3921D01*
D02*
G37*
%LPD*%
D13*
X152559Y-4921D02*
Y144685D01*
X0Y0D02*
Y139764D01*
Y0D02*
X47244D01*
X52165Y4921D01*
X108268D01*
X118110Y-4921D01*
X152559D01*
X118110Y144685D02*
X152559D01*
X108268Y134843D02*
X118110Y144685D01*
X52165Y134843D02*
X108268D01*
X47244Y139764D02*
X52165Y134843D01*
X0Y139764D02*
X47244D01*
D28*
X56189Y104619D02*
X56490Y104318D01*
X38591Y103722D02*
X39974Y105105D01*
X52272Y100368D02*
X58126D01*
X38591Y99691D02*
Y103722D01*
X39974Y105105D02*
X40884D01*
X46335Y106469D02*
X47699Y105105D01*
X49009Y108268D02*
X56668D01*
X47645Y109631D02*
X49009Y108268D01*
X47699Y105105D02*
X52007D01*
X40884D02*
X42248Y106469D01*
X40938Y109631D02*
X47645D01*
X51105Y101535D02*
X52272Y100368D01*
X39574Y108268D02*
X40938Y109631D01*
X52007Y105105D02*
X52493Y104619D01*
X4921Y114921D02*
X11575Y108268D01*
X44291Y101535D02*
X51105D01*
X42248Y106469D02*
X46335D01*
X11575Y108268D02*
X39574D01*
X56668D02*
X63558Y115157D01*
X68049Y110291D02*
X117072D01*
X58126Y100368D02*
X68049Y110291D01*
X52493Y104619D02*
X56189D01*
X36195Y49592D02*
X44291Y41496D01*
X35343Y49592D02*
X36195D01*
X42248Y36562D02*
X46405D01*
X4921Y24921D02*
X26430Y46430D01*
X34524D02*
X38386Y42568D01*
Y40424D02*
X42248Y36562D01*
X26430Y46430D02*
X34524D01*
X46405Y36562D02*
X60039Y50197D01*
X32480Y51496D02*
X33439D01*
X38386Y40424D02*
Y42568D01*
X33439Y51496D02*
X35343Y49592D01*
X44291Y41496D02*
X66549Y63754D01*
X39286Y56490D02*
X44291Y61496D01*
X30489Y56490D02*
X39286D01*
X97441Y57087D02*
X97637Y56890D01*
X134647D01*
X52290Y76490D02*
X53978Y74803D01*
X97441D01*
X4921Y54921D02*
X14961Y64961D01*
X28908Y58071D02*
X30489Y56490D01*
X19685Y58071D02*
X28908D01*
X14961Y64961D02*
X21654D01*
X26390Y64340D02*
X28346D01*
X26070Y64659D02*
X26390Y64340D01*
X21654Y64961D02*
X21955Y64659D01*
X28346Y64340D02*
X30569Y66562D01*
X21955Y64659D02*
X26070D01*
X49262Y66562D02*
X49616Y66916D01*
X30569Y66562D02*
X49262D01*
X137891Y60135D02*
X142717Y64961D01*
X134647Y56890D02*
X137891Y60135D01*
X117072Y110291D02*
X145191D01*
X63558Y115157D02*
X142717D01*
X120629Y96890D02*
X142717Y74803D01*
X105191Y96890D02*
X120629D01*
X96390Y105691D02*
X105191Y96890D01*
X68016Y105691D02*
X96390D01*
X53861Y91535D02*
X68016Y105691D01*
X44291Y91535D02*
X53861D01*
X117072Y110291D02*
X142717Y84646D01*
X49616Y66916D02*
X111591D01*
X114465Y69791D01*
X144591D01*
X147453Y66927D01*
Y39186D02*
Y66927D01*
X142717Y34449D02*
X147453Y39186D01*
X35391Y96491D02*
X38591Y99691D01*
X27691Y96491D02*
X35391D01*
X25291Y98891D02*
X27691Y96491D01*
X17990Y98891D02*
X25291D01*
X93443Y95691D02*
X107283Y81850D01*
X67590Y95691D02*
X93443D01*
X58390Y86490D02*
X67590Y95691D01*
X27591Y86490D02*
X58390D01*
X25390Y88691D02*
X27591Y86490D01*
X8691Y88691D02*
X25390D01*
X4921Y84921D02*
X8691Y88691D01*
X4921Y104921D02*
X29055D01*
X32480Y101496D01*
X44291Y81535D02*
X62677D01*
X71850Y90709D01*
X66549Y63754D02*
X115380D01*
X116586Y64961D01*
X142717D01*
Y74803D02*
X144475Y73044D01*
X146162D01*
X150616Y68590D01*
Y32506D02*
Y68590D01*
X142717Y24606D02*
X150616Y32506D01*
X145191Y110291D02*
X147491Y112591D01*
Y130069D01*
X142717Y134843D02*
X147491Y130069D01*
X137891Y19590D02*
X142717Y14764D01*
X137891Y19590D02*
Y60135D01*
X27774Y91496D02*
X32480D01*
X24349Y94921D02*
X27774Y91496D01*
X4921Y94921D02*
X24349D01*
X21891Y81890D02*
Y83925D01*
X4921Y64921D02*
X21891Y81890D01*
X37475Y76490D02*
X52290D01*
X32480Y71496D02*
X37475Y76490D01*
X71850Y90709D02*
X83661D01*
X71850Y17717D02*
X94488D01*
D32*
D03*
X71850D02*
D03*
D33*
X94488Y37402D02*
D03*
X71850D02*
D03*
D34*
X142717Y125000D02*
D03*
Y115157D02*
D03*
Y134843D02*
D03*
Y74803D02*
D03*
Y64961D02*
D03*
Y84646D02*
D03*
Y24606D02*
D03*
Y14764D02*
D03*
Y34449D02*
D03*
D35*
Y105315D02*
D03*
Y55118D02*
D03*
Y4921D02*
D03*
D36*
X71850Y100709D02*
D03*
Y90709D02*
D03*
X44291Y81535D02*
D03*
Y91535D02*
D03*
Y101535D02*
D03*
X83661Y100709D02*
D03*
Y90709D02*
D03*
X107283Y101850D02*
D03*
Y81850D02*
D03*
X44291Y61496D02*
D03*
Y51496D02*
D03*
Y41496D02*
D03*
X32480Y41496D02*
D03*
Y51496D02*
D03*
Y61496D02*
D03*
Y71496D02*
D03*
Y81496D02*
D03*
Y91496D02*
D03*
Y101496D02*
D03*
X4921Y134921D02*
D03*
Y124921D02*
D03*
Y114921D02*
D03*
Y104921D02*
D03*
Y94921D02*
D03*
Y84921D02*
D03*
Y74921D02*
D03*
Y64921D02*
D03*
Y54921D02*
D03*
Y44921D02*
D03*
Y34921D02*
D03*
Y24921D02*
D03*
Y14921D02*
D03*
D37*
X71850Y80709D02*
D03*
X44291Y71535D02*
D03*
X83661Y80709D02*
D03*
X107283Y91850D02*
D03*
Y71850D02*
D03*
X44291Y31496D02*
D03*
X32480Y31496D02*
D03*
X4921Y4921D02*
D03*
D38*
X33465Y126969D02*
D03*
D39*
X148622Y95472D02*
D03*
X133858Y136811D02*
D03*
X130905Y130905D02*
D03*
Y36417D02*
D03*
Y24606D02*
D03*
Y12795D02*
D03*
X133858Y6890D02*
D03*
X130905Y984D02*
D03*
X127953Y136811D02*
D03*
X125000Y130905D02*
D03*
X127953Y125000D02*
D03*
X125000Y83661D02*
D03*
X127953Y77756D02*
D03*
X125000Y48228D02*
D03*
X127953Y42323D02*
D03*
X125000Y36417D02*
D03*
X127953Y30512D02*
D03*
X125000Y24606D02*
D03*
X127953Y18701D02*
D03*
X125000Y12795D02*
D03*
X127953Y6890D02*
D03*
X125000Y984D02*
D03*
X122047Y136811D02*
D03*
X119094Y130905D02*
D03*
X122047Y125000D02*
D03*
Y77756D02*
D03*
Y42323D02*
D03*
Y30512D02*
D03*
Y18701D02*
D03*
Y6890D02*
D03*
X119094Y984D02*
D03*
X116142Y136811D02*
D03*
X113189Y130905D02*
D03*
X116142Y125000D02*
D03*
X107283Y130905D02*
D03*
X110236Y125000D02*
D03*
X101378Y130905D02*
D03*
X104331Y125000D02*
D03*
X101378Y48228D02*
D03*
Y24606D02*
D03*
X95472Y130905D02*
D03*
X98425Y125000D02*
D03*
X95472Y83661D02*
D03*
Y48228D02*
D03*
X89567Y130905D02*
D03*
X92520Y125000D02*
D03*
X89567Y48228D02*
D03*
X83661Y130905D02*
D03*
X86614Y125000D02*
D03*
Y54134D02*
D03*
X83661Y48228D02*
D03*
Y36417D02*
D03*
Y24606D02*
D03*
X77756Y130905D02*
D03*
X80709Y125000D02*
D03*
Y54134D02*
D03*
X77756Y48228D02*
D03*
X71850Y130905D02*
D03*
X74803Y125000D02*
D03*
Y54134D02*
D03*
X71850Y48228D02*
D03*
X65945Y130905D02*
D03*
X68898Y125000D02*
D03*
Y54134D02*
D03*
X65945Y48228D02*
D03*
X60039Y130905D02*
D03*
X62992Y125000D02*
D03*
X60039Y119094D02*
D03*
Y36417D02*
D03*
Y24606D02*
D03*
Y12795D02*
D03*
X54134Y130905D02*
D03*
X57087Y125000D02*
D03*
X54134Y119094D02*
D03*
Y36417D02*
D03*
X57087Y30512D02*
D03*
X54134Y24606D02*
D03*
X57087Y18701D02*
D03*
X54134Y12795D02*
D03*
X51181Y125000D02*
D03*
X48228Y119094D02*
D03*
X51181Y18701D02*
D03*
X12795Y119094D02*
D03*
X15748Y6890D02*
D03*
X56490Y104318D02*
D03*
X60039Y50197D02*
D03*
X97441Y57087D02*
D03*
Y74803D02*
D03*
X19685Y58071D02*
D03*
X21654Y64961D02*
D03*
X17990Y98891D02*
D03*
X21891Y83925D02*
D03*
M02*
