%TF.GenerationSoftware,KiCad,Pcbnew,8.0.1*%
%TF.CreationDate,2024-09-10T00:04:25-04:00*%
%TF.ProjectId,SmartLED_Shield_Breakout,536d6172-744c-4454-945f-536869656c64,1.1*%
%TF.SameCoordinates,Original*%
%TF.FileFunction,Copper,L2,Bot*%
%TF.FilePolarity,Positive*%
%FSLAX46Y46*%
G04 Gerber Fmt 4.6, Leading zero omitted, Abs format (unit mm)*
G04 Created by KiCad (PCBNEW 8.0.1) date 2024-09-10 00:04:25*
%MOMM*%
%LPD*%
G01*
G04 APERTURE LIST*
G04 Aperture macros list*
%AMRoundRect*
0 Rectangle with rounded corners*
0 $1 Rounding radius*
0 $2 $3 $4 $5 $6 $7 $8 $9 X,Y pos of 4 corners*
0 Add a 4 corners polygon primitive as box body*
4,1,4,$2,$3,$4,$5,$6,$7,$8,$9,$2,$3,0*
0 Add four circle primitives for the rounded corners*
1,1,$1+$1,$2,$3*
1,1,$1+$1,$4,$5*
1,1,$1+$1,$6,$7*
1,1,$1+$1,$8,$9*
0 Add four rect primitives between the rounded corners*
20,1,$1+$1,$2,$3,$4,$5,0*
20,1,$1+$1,$4,$5,$6,$7,0*
20,1,$1+$1,$6,$7,$8,$9,0*
20,1,$1+$1,$8,$9,$2,$3,0*%
G04 Aperture macros list end*
%TA.AperFunction,Conductor*%
%ADD10C,0.000000*%
%TD*%
%TA.AperFunction,ComponentPad*%
%ADD11O,2.030000X1.730000*%
%TD*%
%TA.AperFunction,ComponentPad*%
%ADD12R,2.030000X1.730000*%
%TD*%
%TA.AperFunction,ComponentPad*%
%ADD13R,1.700000X1.700000*%
%TD*%
%TA.AperFunction,ComponentPad*%
%ADD14O,1.700000X1.700000*%
%TD*%
%TA.AperFunction,ComponentPad*%
%ADD15O,1.950000X1.700000*%
%TD*%
%TA.AperFunction,ComponentPad*%
%ADD16RoundRect,0.250000X0.725000X-0.600000X0.725000X0.600000X-0.725000X0.600000X-0.725000X-0.600000X0*%
%TD*%
%TA.AperFunction,ComponentPad*%
%ADD17R,3.000000X3.000000*%
%TD*%
%TA.AperFunction,ComponentPad*%
%ADD18C,3.000000*%
%TD*%
%TA.AperFunction,ViaPad*%
%ADD19C,0.500000*%
%TD*%
%TA.AperFunction,ViaPad*%
%ADD20C,0.600000*%
%TD*%
%TA.AperFunction,Conductor*%
%ADD21C,0.190500*%
%TD*%
%TA.AperFunction,Conductor*%
%ADD22C,0.254000*%
%TD*%
%TA.AperFunction,Conductor*%
%ADD23C,0.381000*%
%TD*%
%TA.AperFunction,Conductor*%
%ADD24C,0.508000*%
%TD*%
G04 APERTURE END LIST*
D10*
%TA.AperFunction,Conductor*%
%TO.N,unconnected-(T1-Pin_1-Pad1)*%
G36*
X125749990Y-125750130D02*
G01*
X124249870Y-125750130D01*
X124249870Y-124250010D01*
X125749990Y-124250010D01*
X125749990Y-125750130D01*
G37*
%TD.AperFunction*%
%TA.AperFunction,Conductor*%
G36*
X125749990Y-125750130D02*
G01*
X124249870Y-125750130D01*
X124249870Y-124250010D01*
X125749990Y-124250010D01*
X125749990Y-125750130D01*
G37*
%TD.AperFunction*%
%TD*%
D11*
%TO.P,J1,4,Pin_4*%
%TO.N,/TIO23*%
X149338000Y-93504000D03*
%TO.P,J1,3,Pin_3*%
%TO.N,/TIO22*%
X149338000Y-96044000D03*
%TO.P,J1,2,Pin_2*%
%TO.N,Net-(D1-K)*%
X149338000Y-98584000D03*
D12*
%TO.P,J1,1,Pin_1*%
%TO.N,GND*%
X149338000Y-101124000D03*
%TD*%
D13*
%TO.P,J4,1,Pin_1*%
%TO.N,GND*%
X147083000Y-106096000D03*
D14*
%TO.P,J4,2,Pin_2*%
%TO.N,+3V3*%
X144543000Y-106096000D03*
%TO.P,J4,3,Pin_3*%
%TO.N,/A0*%
X142003000Y-106096000D03*
%TD*%
D15*
%TO.P,J2,3,Pin_3*%
%TO.N,GND*%
X142255000Y-95108000D03*
%TO.P,J2,2,Pin_2*%
%TO.N,+3V3*%
X142255000Y-97608000D03*
D16*
%TO.P,J2,1,Pin_1*%
%TO.N,/A1*%
X142255000Y-100108000D03*
%TD*%
D13*
%TO.P,P1,1,Pin_1*%
%TO.N,GND*%
X135160000Y-117380000D03*
D14*
%TO.P,P1,2,Pin_2*%
X132620000Y-117380000D03*
%TO.P,P1,3,Pin_3*%
%TO.N,+3V3*%
X135160000Y-114840000D03*
%TO.P,P1,4,Pin_4*%
%TO.N,GND*%
X132620000Y-114840000D03*
%TO.P,P1,5,Pin_5*%
%TO.N,Net-(P1-Pin_5)*%
X135160000Y-112300000D03*
%TO.P,P1,6,Pin_6*%
%TO.N,+3V3*%
X132620000Y-112300000D03*
%TO.P,P1,7,Pin_7*%
%TO.N,Net-(P1-Pin_7)*%
X135160000Y-109760000D03*
%TO.P,P1,8,Pin_8*%
%TO.N,+3V3*%
X132620000Y-109760000D03*
%TO.P,P1,9,Pin_9*%
%TO.N,GND*%
X135160000Y-107220000D03*
%TO.P,P1,10,Pin_10*%
%TO.N,+5V*%
X132620000Y-107220000D03*
%TO.P,P1,11,Pin_11*%
%TO.N,+3V3*%
X135160000Y-104680000D03*
%TO.P,P1,12,Pin_12*%
%TO.N,+5V*%
X132620000Y-104680000D03*
%TO.P,P1,13,Pin_13*%
%TO.N,/SCL0*%
X135160000Y-102140000D03*
%TO.P,P1,14,Pin_14*%
%TO.N,unconnected-(P1-Pin_14-Pad14)*%
X132620000Y-102140000D03*
%TO.P,P1,15,Pin_15*%
%TO.N,/SDA0*%
X135160000Y-99600000D03*
%TO.P,P1,16,Pin_16*%
%TO.N,unconnected-(P1-Pin_16-Pad16)*%
X132620000Y-99600000D03*
%TD*%
D16*
%TO.P,I2C1,1,Pin_1*%
%TO.N,GND*%
X160000000Y-99500000D03*
D15*
%TO.P,I2C1,2,Pin_2*%
%TO.N,+3V3*%
X160000000Y-97000000D03*
%TO.P,I2C1,3,Pin_3*%
%TO.N,/SCL0*%
X160000000Y-94500000D03*
%TO.P,I2C1,4,Pin_4*%
%TO.N,/SDA0*%
X160000000Y-92000000D03*
%TD*%
D16*
%TO.P,I2C3,1,Pin_1*%
%TO.N,GND*%
X160000000Y-125000000D03*
D15*
%TO.P,I2C3,2,Pin_2*%
%TO.N,+3V3*%
X160000000Y-122500000D03*
%TO.P,I2C3,3,Pin_3*%
%TO.N,/SCL0*%
X160000000Y-120000000D03*
%TO.P,I2C3,4,Pin_4*%
%TO.N,/SDA0*%
X160000000Y-117500000D03*
%TD*%
D13*
%TO.P,T1,1,Pin_1*%
%TO.N,unconnected-(T1-Pin_1-Pad1)*%
X125000000Y-125000000D03*
D14*
%TO.P,T1,2,Pin_2*%
%TO.N,/A0*%
X125000000Y-122460000D03*
%TO.P,T1,3,Pin_3*%
%TO.N,/A1*%
X125000000Y-119920000D03*
%TO.P,T1,4,Pin_4*%
%TO.N,/RX4*%
X125000000Y-117380000D03*
%TO.P,T1,5,Pin_5*%
%TO.N,/TX4*%
X125000000Y-114840000D03*
%TO.P,T1,6,Pin_6*%
%TO.N,/SDA0*%
X125000000Y-112300000D03*
%TO.P,T1,7,Pin_7*%
%TO.N,/SCL0*%
X125000000Y-109760000D03*
%TO.P,T1,8,Pin_8*%
%TO.N,/TIO20*%
X125000000Y-107220000D03*
%TO.P,T1,9,Pin_9*%
%TO.N,/TIO21*%
X125000000Y-104680000D03*
%TO.P,T1,10,Pin_10*%
%TO.N,/TIO22*%
X125000000Y-102140000D03*
%TO.P,T1,11,Pin_11*%
%TO.N,/TIO23*%
X125000000Y-99600000D03*
%TO.P,T1,12,Pin_12*%
%TO.N,+3V3*%
X125000000Y-97060000D03*
%TO.P,T1,13,Pin_13*%
%TO.N,GND*%
X125000000Y-94520000D03*
%TO.P,T1,14,Pin_14*%
%TO.N,+5V*%
X125000000Y-91980000D03*
%TD*%
D17*
%TO.P,LEDPWR1,1,Pin_1*%
%TO.N,GND*%
X141398000Y-116766000D03*
D18*
%TO.P,LEDPWR1,2,Pin_2*%
%TO.N,+5V*%
X141398000Y-121766000D03*
%TD*%
D16*
%TO.P,I2C2,1,Pin_1*%
%TO.N,GND*%
X160000000Y-112250000D03*
D15*
%TO.P,I2C2,2,Pin_2*%
%TO.N,+3V3*%
X160000000Y-109750000D03*
%TO.P,I2C2,3,Pin_3*%
%TO.N,/SCL0*%
X160000000Y-107250000D03*
%TO.P,I2C2,4,Pin_4*%
%TO.N,/SDA0*%
X160000000Y-104750000D03*
%TD*%
D14*
%TO.P,B1,4,Pin_4*%
%TO.N,/TIO20*%
X152178000Y-104426000D03*
%TO.P,B1,3,Pin_3*%
%TO.N,GND*%
X152178000Y-106966000D03*
%TO.P,B1,2,Pin_2*%
%TO.N,/TIO21*%
X152178000Y-109506000D03*
D13*
%TO.P,B1,1,Pin_1*%
%TO.N,GND*%
X152178000Y-112046000D03*
%TD*%
D17*
%TO.P,BCKPWR1,1,Pin_1*%
%TO.N,GND*%
X147750000Y-116750000D03*
D18*
%TO.P,BCKPWR1,2,Pin_2*%
%TO.N,+5V*%
X147750000Y-121750000D03*
%TD*%
D19*
%TO.N,/TIO22*%
X127667000Y-97187000D03*
X130334000Y-99854000D03*
D20*
%TO.N,+5V*%
X151670000Y-96298000D03*
X154718000Y-91218000D03*
D19*
%TO.N,Net-(D1-K)*%
X154718000Y-94520000D03*
D20*
%TO.N,+5V*%
X145066000Y-94012000D03*
D19*
%TO.N,/TIO23*%
X127540000Y-96298000D03*
X130080000Y-98838000D03*
%TO.N,GND*%
X154718000Y-107220000D03*
X154718000Y-103410000D03*
X155988000Y-114840000D03*
%TO.N,/SDA0*%
X133890000Y-107982000D03*
%TO.N,/SCL0*%
X128048000Y-101378000D03*
D20*
%TO.N,+3V3*%
X137700000Y-98584000D03*
X148510000Y-109750000D03*
D19*
%TO.N,/TIO20*%
X137446000Y-105696000D03*
%TO.N,/A1*%
X138208000Y-114586000D03*
%TO.N,Net-(P1-Pin_7)*%
X128048000Y-111792000D03*
%TD*%
D21*
%TO.N,/TIO22*%
X146544000Y-98838000D02*
X149338000Y-96044000D01*
X139986000Y-98838000D02*
X146544000Y-98838000D01*
X127794000Y-97314000D02*
X138462000Y-97314000D01*
X127667000Y-97187000D02*
X127794000Y-97314000D01*
X138462000Y-97314000D02*
X139986000Y-98838000D01*
%TO.N,/TIO23*%
X144812000Y-96298000D02*
X127540000Y-96298000D01*
X147606000Y-93504000D02*
X144812000Y-96298000D01*
X149338000Y-93504000D02*
X147606000Y-93504000D01*
%TO.N,/SCL0*%
X155144000Y-102394000D02*
X160000000Y-107250000D01*
X135414000Y-102394000D02*
X155144000Y-102394000D01*
X135160000Y-102140000D02*
X135414000Y-102394000D01*
%TO.N,/TIO22*%
X130080000Y-100108000D02*
X130334000Y-99854000D01*
X129826000Y-100362000D02*
X130080000Y-100108000D01*
X126778000Y-100362000D02*
X129826000Y-100362000D01*
X125000000Y-102140000D02*
X126778000Y-100362000D01*
D22*
%TO.N,+5V*%
X151670000Y-96298000D02*
X151670000Y-94266000D01*
X151670000Y-94266000D02*
X154718000Y-91218000D01*
D21*
%TO.N,Net-(D1-K)*%
X150654000Y-98584000D02*
X154718000Y-94520000D01*
X149338000Y-98584000D02*
X150654000Y-98584000D01*
D22*
%TO.N,+5V*%
X125254000Y-91726000D02*
X125000000Y-91980000D01*
D23*
X142780000Y-91726000D02*
X125254000Y-91726000D01*
X145066000Y-94012000D02*
X142780000Y-91726000D01*
D22*
%TO.N,/SDA0*%
X157512000Y-94488000D02*
X160000000Y-92000000D01*
X157512000Y-102262000D02*
X157512000Y-94488000D01*
X160000000Y-104750000D02*
X157512000Y-102262000D01*
D21*
%TO.N,/TIO21*%
X150400000Y-109506000D02*
X152178000Y-109506000D01*
X149130000Y-108236000D02*
X150400000Y-109506000D01*
X149130000Y-105188000D02*
X149130000Y-108236000D01*
X147352000Y-103410000D02*
X149130000Y-105188000D01*
X130476000Y-104680000D02*
X131746000Y-103410000D01*
X131746000Y-103410000D02*
X147352000Y-103410000D01*
X125000000Y-104680000D02*
X130476000Y-104680000D01*
D22*
%TO.N,+3V3*%
X158284000Y-109750000D02*
X160000000Y-109750000D01*
X153448000Y-114586000D02*
X158284000Y-109750000D01*
X150654000Y-114586000D02*
X153448000Y-114586000D01*
X148510000Y-112442000D02*
X150654000Y-114586000D01*
X148510000Y-109750000D02*
X148510000Y-112442000D01*
%TO.N,/TIO23*%
X129318000Y-99600000D02*
X130080000Y-98838000D01*
X125000000Y-99600000D02*
X129318000Y-99600000D01*
D24*
%TO.N,+3V3*%
X142619000Y-104172000D02*
X144543000Y-106096000D01*
X140240000Y-104680000D02*
X140748000Y-104172000D01*
X135160000Y-104680000D02*
X140240000Y-104680000D01*
X140748000Y-104172000D02*
X142619000Y-104172000D01*
D21*
%TO.N,/SDA0*%
X128810000Y-108490000D02*
X125000000Y-112300000D01*
X133382000Y-108490000D02*
X128810000Y-108490000D01*
X133890000Y-107982000D02*
X133382000Y-108490000D01*
%TO.N,/SCL0*%
X161464000Y-108714000D02*
X161464000Y-118536000D01*
X160000000Y-107250000D02*
X161464000Y-108714000D01*
X133890000Y-100870000D02*
X135160000Y-102140000D01*
X130968000Y-101378000D02*
X131476000Y-100870000D01*
X131476000Y-100870000D02*
X133890000Y-100870000D01*
X161464000Y-118536000D02*
X160000000Y-120000000D01*
X128048000Y-101378000D02*
X130968000Y-101378000D01*
D22*
%TO.N,+3V3*%
X158571000Y-121071000D02*
X158571000Y-111179000D01*
X158571000Y-111179000D02*
X160000000Y-109750000D01*
X160000000Y-122500000D02*
X158571000Y-121071000D01*
X140250000Y-109750000D02*
X148510000Y-109750000D01*
X126016000Y-98076000D02*
X125000000Y-97060000D01*
X137192000Y-98076000D02*
X126016000Y-98076000D01*
X132620000Y-112300000D02*
X135160000Y-114840000D01*
X137700000Y-98584000D02*
X137192000Y-98076000D01*
X135160000Y-114840000D02*
X140250000Y-109750000D01*
D21*
%TO.N,/TIO20*%
X135922000Y-105696000D02*
X135668000Y-105950000D01*
X126270000Y-105950000D02*
X125400000Y-106820000D01*
X137446000Y-105696000D02*
X135922000Y-105696000D01*
X135668000Y-105950000D02*
X126270000Y-105950000D01*
%TO.N,/A1*%
X135922000Y-119920000D02*
X138208000Y-117634000D01*
X125000000Y-119920000D02*
X135922000Y-119920000D01*
X138208000Y-117634000D02*
X138208000Y-114586000D01*
D24*
%TO.N,+5V*%
X141414000Y-121750000D02*
X147750000Y-121750000D01*
D21*
%TO.N,Net-(P1-Pin_7)*%
X128810000Y-111030000D02*
X133890000Y-111030000D01*
X128048000Y-111792000D02*
X128810000Y-111030000D01*
X133890000Y-111030000D02*
X135160000Y-109760000D01*
%TD*%
%TA.AperFunction,Conductor*%
%TO.N,GND*%
G36*
X162141621Y-89820512D02*
G01*
X162188114Y-89874168D01*
X162199499Y-89926509D01*
X162199495Y-106648941D01*
X162199490Y-127073500D01*
X162179488Y-127141621D01*
X162125832Y-127188114D01*
X162073490Y-127199500D01*
X153926661Y-127199500D01*
X153858540Y-127179498D01*
X153837566Y-127162595D01*
X151434517Y-124759545D01*
X151434513Y-124759542D01*
X151434511Y-124759540D01*
X151365989Y-124719979D01*
X151365988Y-124719978D01*
X151365985Y-124719977D01*
X151289565Y-124699500D01*
X151289562Y-124699500D01*
X136960438Y-124699500D01*
X136960434Y-124699500D01*
X136884014Y-124719977D01*
X136815490Y-124759539D01*
X136815482Y-124759545D01*
X135662434Y-125912595D01*
X135600122Y-125946620D01*
X135573339Y-125949500D01*
X126230500Y-125949500D01*
X126162379Y-125929498D01*
X126115886Y-125875842D01*
X126104500Y-125823500D01*
X126104499Y-124124936D01*
X126104498Y-124124926D01*
X126089734Y-124050699D01*
X126033483Y-123966515D01*
X125949302Y-123910266D01*
X125875069Y-123895500D01*
X124176500Y-123895500D01*
X124108379Y-123875498D01*
X124061886Y-123821842D01*
X124050500Y-123769500D01*
X124050500Y-123374349D01*
X124070502Y-123306228D01*
X124124158Y-123259735D01*
X124194432Y-123249631D01*
X124259012Y-123279125D01*
X124261386Y-123281234D01*
X124331536Y-123345185D01*
X124505566Y-123452940D01*
X124505568Y-123452940D01*
X124505573Y-123452944D01*
X124696444Y-123526888D01*
X124897653Y-123564500D01*
X124897655Y-123564500D01*
X125102345Y-123564500D01*
X125102347Y-123564500D01*
X125303556Y-123526888D01*
X125494427Y-123452944D01*
X125668462Y-123345186D01*
X125819732Y-123207285D01*
X125884474Y-123121552D01*
X130395500Y-123121552D01*
X130427229Y-123362563D01*
X130427230Y-123362569D01*
X130427231Y-123362571D01*
X130490150Y-123597388D01*
X130583181Y-123821984D01*
X130583182Y-123821985D01*
X130583187Y-123821996D01*
X130704728Y-124032512D01*
X130704732Y-124032518D01*
X130852714Y-124225371D01*
X130852733Y-124225392D01*
X131024607Y-124397266D01*
X131024628Y-124397285D01*
X131217481Y-124545267D01*
X131217487Y-124545271D01*
X131428003Y-124666812D01*
X131428007Y-124666813D01*
X131428016Y-124666819D01*
X131652612Y-124759850D01*
X131887429Y-124822769D01*
X131887435Y-124822769D01*
X131887436Y-124822770D01*
X131915093Y-124826411D01*
X132128450Y-124854500D01*
X132128457Y-124854500D01*
X132371543Y-124854500D01*
X132371550Y-124854500D01*
X132612571Y-124822769D01*
X132847388Y-124759850D01*
X133071984Y-124666819D01*
X133282516Y-124545269D01*
X133475380Y-124397278D01*
X133647278Y-124225380D01*
X133795269Y-124032516D01*
X133916819Y-123821984D01*
X134009850Y-123597388D01*
X134072769Y-123362571D01*
X134104500Y-123121550D01*
X134104500Y-122878450D01*
X134072769Y-122637429D01*
X134009850Y-122402612D01*
X133916819Y-122178016D01*
X133916813Y-122178007D01*
X133916812Y-122178003D01*
X133795271Y-121967487D01*
X133795267Y-121967481D01*
X133647285Y-121774628D01*
X133647266Y-121774607D01*
X133638659Y-121766000D01*
X139638580Y-121766000D01*
X139658231Y-122028231D01*
X139716746Y-122284599D01*
X139716747Y-122284602D01*
X139812813Y-122529377D01*
X139812815Y-122529381D01*
X139944296Y-122757113D01*
X140108257Y-122962714D01*
X140250426Y-123094626D01*
X140301020Y-123141570D01*
X140301026Y-123141574D01*
X140518280Y-123289696D01*
X140518287Y-123289700D01*
X140518290Y-123289702D01*
X140755212Y-123403798D01*
X140954622Y-123465308D01*
X141006485Y-123481306D01*
X141006492Y-123481308D01*
X141266518Y-123520500D01*
X141266522Y-123520500D01*
X141529478Y-123520500D01*
X141529482Y-123520500D01*
X141789508Y-123481308D01*
X142040788Y-123403798D01*
X142277710Y-123289702D01*
X142494980Y-123141570D01*
X142687746Y-122962710D01*
X142851701Y-122757117D01*
X142983183Y-122529384D01*
X142989464Y-122513381D01*
X143058112Y-122338468D01*
X143101618Y-122282363D01*
X143168550Y-122258686D01*
X143175402Y-122258500D01*
X145978877Y-122258500D01*
X146046998Y-122278502D01*
X146093491Y-122332158D01*
X146096167Y-122338467D01*
X146164813Y-122513377D01*
X146164815Y-122513381D01*
X146296296Y-122741113D01*
X146296298Y-122741116D01*
X146296299Y-122741117D01*
X146309059Y-122757117D01*
X146460257Y-122946714D01*
X146565038Y-123043935D01*
X146653020Y-123125570D01*
X146653026Y-123125574D01*
X146870280Y-123273696D01*
X146870287Y-123273700D01*
X146870290Y-123273702D01*
X147107212Y-123387798D01*
X147318396Y-123452940D01*
X147358485Y-123465306D01*
X147358492Y-123465308D01*
X147618518Y-123504500D01*
X147618522Y-123504500D01*
X147881478Y-123504500D01*
X147881482Y-123504500D01*
X148141508Y-123465308D01*
X148392788Y-123387798D01*
X148629710Y-123273702D01*
X148846980Y-123125570D01*
X149039746Y-122946710D01*
X149203701Y-122741117D01*
X149335183Y-122513384D01*
X149431254Y-122268598D01*
X149489769Y-122012228D01*
X149509420Y-121750000D01*
X149489769Y-121487772D01*
X149431254Y-121231402D01*
X149360057Y-121049994D01*
X149335186Y-120986622D01*
X149335184Y-120986618D01*
X149203703Y-120758886D01*
X149187944Y-120739125D01*
X149039746Y-120553290D01*
X149039745Y-120553289D01*
X149039742Y-120553285D01*
X148864224Y-120390430D01*
X148846980Y-120374430D01*
X148795875Y-120339587D01*
X148629719Y-120226303D01*
X148629712Y-120226299D01*
X148392793Y-120112204D01*
X148392790Y-120112203D01*
X148392788Y-120112202D01*
X148304896Y-120085090D01*
X148141514Y-120034693D01*
X148141509Y-120034692D01*
X148141508Y-120034692D01*
X147881482Y-119995500D01*
X147618518Y-119995500D01*
X147358492Y-120034692D01*
X147358491Y-120034692D01*
X147358485Y-120034693D01*
X147107206Y-120112204D01*
X146870287Y-120226299D01*
X146870280Y-120226303D01*
X146653026Y-120374425D01*
X146653014Y-120374435D01*
X146460257Y-120553285D01*
X146296296Y-120758886D01*
X146164815Y-120986618D01*
X146164813Y-120986622D01*
X146096167Y-121161533D01*
X146052661Y-121217637D01*
X145985728Y-121241314D01*
X145978877Y-121241500D01*
X143162843Y-121241500D01*
X143094722Y-121221498D01*
X143048229Y-121167842D01*
X143045553Y-121161532D01*
X142983188Y-121002627D01*
X142983184Y-121002618D01*
X142973946Y-120986618D01*
X142890720Y-120842465D01*
X142851703Y-120774886D01*
X142844798Y-120766228D01*
X142687746Y-120569290D01*
X142687745Y-120569289D01*
X142687742Y-120569285D01*
X142531141Y-120423982D01*
X142494980Y-120390430D01*
X142471520Y-120374435D01*
X142277719Y-120242303D01*
X142277712Y-120242299D01*
X142040793Y-120128204D01*
X142040790Y-120128203D01*
X142040788Y-120128202D01*
X141952896Y-120101090D01*
X141789514Y-120050693D01*
X141789509Y-120050692D01*
X141789508Y-120050692D01*
X141529482Y-120011500D01*
X141266518Y-120011500D01*
X141006492Y-120050692D01*
X141006491Y-120050692D01*
X141006485Y-120050693D01*
X140807082Y-120112202D01*
X140767587Y-120124385D01*
X140755206Y-120128204D01*
X140518287Y-120242299D01*
X140518280Y-120242303D01*
X140301026Y-120390425D01*
X140301014Y-120390435D01*
X140108257Y-120569285D01*
X139944296Y-120774886D01*
X139812815Y-121002618D01*
X139812813Y-121002622D01*
X139716747Y-121247397D01*
X139716746Y-121247400D01*
X139658231Y-121503768D01*
X139638580Y-121766000D01*
X133638659Y-121766000D01*
X133475392Y-121602733D01*
X133475371Y-121602714D01*
X133282518Y-121454732D01*
X133282512Y-121454728D01*
X133071996Y-121333187D01*
X133071988Y-121333183D01*
X133071984Y-121333181D01*
X132847388Y-121240150D01*
X132612571Y-121177231D01*
X132612569Y-121177230D01*
X132612563Y-121177229D01*
X132371552Y-121145500D01*
X132371550Y-121145500D01*
X132128450Y-121145500D01*
X132128447Y-121145500D01*
X131887436Y-121177229D01*
X131887429Y-121177231D01*
X131652612Y-121240150D01*
X131495455Y-121305247D01*
X131428014Y-121333182D01*
X131428003Y-121333187D01*
X131217487Y-121454728D01*
X131217481Y-121454732D01*
X131024628Y-121602714D01*
X131024607Y-121602733D01*
X130852733Y-121774607D01*
X130852714Y-121774628D01*
X130704732Y-121967481D01*
X130704728Y-121967487D01*
X130583187Y-122178003D01*
X130583182Y-122178014D01*
X130583181Y-122178016D01*
X130519333Y-122332158D01*
X130490150Y-122402612D01*
X130427229Y-122637436D01*
X130395500Y-122878447D01*
X130395500Y-123121552D01*
X125884474Y-123121552D01*
X125943088Y-123043935D01*
X126034328Y-122860701D01*
X126090345Y-122663821D01*
X126104285Y-122513384D01*
X126109232Y-122460004D01*
X126109232Y-122459995D01*
X126090345Y-122256180D01*
X126086129Y-122241362D01*
X126034328Y-122059299D01*
X125943088Y-121876065D01*
X125870894Y-121780464D01*
X125819733Y-121712715D01*
X125668463Y-121574814D01*
X125494433Y-121467059D01*
X125494428Y-121467057D01*
X125494427Y-121467056D01*
X125421142Y-121438665D01*
X125303559Y-121393113D01*
X125303560Y-121393113D01*
X125303557Y-121393112D01*
X125303556Y-121393112D01*
X125102347Y-121355500D01*
X124897653Y-121355500D01*
X124696444Y-121393112D01*
X124696439Y-121393113D01*
X124505577Y-121467054D01*
X124505566Y-121467059D01*
X124331535Y-121574815D01*
X124331532Y-121574817D01*
X124261385Y-121638765D01*
X124197568Y-121669876D01*
X124127062Y-121661546D01*
X124072252Y-121616420D01*
X124050540Y-121548824D01*
X124050500Y-121545650D01*
X124050500Y-120834349D01*
X124070502Y-120766228D01*
X124124158Y-120719735D01*
X124194432Y-120709631D01*
X124259012Y-120739125D01*
X124261386Y-120741234D01*
X124331536Y-120805185D01*
X124505566Y-120912940D01*
X124505568Y-120912940D01*
X124505573Y-120912944D01*
X124696444Y-120986888D01*
X124897653Y-121024500D01*
X124897655Y-121024500D01*
X125102345Y-121024500D01*
X125102347Y-121024500D01*
X125303556Y-120986888D01*
X125494427Y-120912944D01*
X125668462Y-120805186D01*
X125819732Y-120667285D01*
X125943088Y-120503935D01*
X125943089Y-120503931D01*
X125943091Y-120503930D01*
X126024925Y-120339587D01*
X126073194Y-120287523D01*
X126137715Y-120269750D01*
X135868221Y-120269750D01*
X135868237Y-120269751D01*
X135875955Y-120269751D01*
X135968045Y-120269751D01*
X136056999Y-120245915D01*
X136090976Y-120226298D01*
X136136752Y-120199870D01*
X136201870Y-120134752D01*
X136212237Y-120124385D01*
X136212244Y-120124375D01*
X138022022Y-118314597D01*
X139390000Y-118314597D01*
X139396505Y-118375093D01*
X139447555Y-118511964D01*
X139447555Y-118511965D01*
X139535095Y-118628904D01*
X139652034Y-118716444D01*
X139788906Y-118767494D01*
X139849402Y-118773999D01*
X139849415Y-118774000D01*
X141144000Y-118774000D01*
X141144000Y-117633108D01*
X141309358Y-117666000D01*
X141486642Y-117666000D01*
X141652000Y-117633108D01*
X141652000Y-118774000D01*
X142946585Y-118774000D01*
X142946597Y-118773999D01*
X143007093Y-118767494D01*
X143143964Y-118716444D01*
X143143965Y-118716444D01*
X143260904Y-118628904D01*
X143348444Y-118511965D01*
X143348444Y-118511964D01*
X143399494Y-118375093D01*
X143405999Y-118314597D01*
X143406000Y-118314585D01*
X143406000Y-118298597D01*
X145742000Y-118298597D01*
X145748505Y-118359093D01*
X145799555Y-118495964D01*
X145799555Y-118495965D01*
X145887095Y-118612904D01*
X146004034Y-118700444D01*
X146140906Y-118751494D01*
X146201402Y-118757999D01*
X146201415Y-118758000D01*
X147496000Y-118758000D01*
X147496000Y-117617108D01*
X147661358Y-117650000D01*
X147838642Y-117650000D01*
X148004000Y-117617108D01*
X148004000Y-118758000D01*
X149298585Y-118758000D01*
X149298597Y-118757999D01*
X149359093Y-118751494D01*
X149495964Y-118700444D01*
X149495965Y-118700444D01*
X149612904Y-118612904D01*
X149700444Y-118495965D01*
X149700444Y-118495964D01*
X149751494Y-118359093D01*
X149757999Y-118298597D01*
X149758000Y-118298585D01*
X149758000Y-117004000D01*
X148617109Y-117004000D01*
X148650000Y-116838642D01*
X148650000Y-116661358D01*
X148617109Y-116496000D01*
X149758000Y-116496000D01*
X149758000Y-115201414D01*
X149757999Y-115201402D01*
X149751494Y-115140906D01*
X149700444Y-115004035D01*
X149700444Y-115004034D01*
X149612904Y-114887095D01*
X149495965Y-114799555D01*
X149359093Y-114748505D01*
X149298597Y-114742000D01*
X148004000Y-114742000D01*
X148004000Y-115882891D01*
X147838642Y-115850000D01*
X147661358Y-115850000D01*
X147496000Y-115882891D01*
X147496000Y-114742000D01*
X146201402Y-114742000D01*
X146140906Y-114748505D01*
X146004035Y-114799555D01*
X146004034Y-114799555D01*
X145887095Y-114887095D01*
X145799555Y-115004034D01*
X145799555Y-115004035D01*
X145748505Y-115140906D01*
X145742000Y-115201402D01*
X145742000Y-116496000D01*
X146882891Y-116496000D01*
X146850000Y-116661358D01*
X146850000Y-116838642D01*
X146882891Y-117004000D01*
X145742000Y-117004000D01*
X145742000Y-118298597D01*
X143406000Y-118298597D01*
X143406000Y-117020000D01*
X142265109Y-117020000D01*
X142298000Y-116854642D01*
X142298000Y-116677358D01*
X142265109Y-116512000D01*
X143406000Y-116512000D01*
X143406000Y-115217414D01*
X143405999Y-115217402D01*
X143399494Y-115156906D01*
X143348444Y-115020035D01*
X143348444Y-115020034D01*
X143260904Y-114903095D01*
X143143965Y-114815555D01*
X143007093Y-114764505D01*
X142946597Y-114758000D01*
X141652000Y-114758000D01*
X141652000Y-115898891D01*
X141486642Y-115866000D01*
X141309358Y-115866000D01*
X141144000Y-115898891D01*
X141144000Y-114758000D01*
X139849402Y-114758000D01*
X139788906Y-114764505D01*
X139652035Y-114815555D01*
X139652034Y-114815555D01*
X139535095Y-114903095D01*
X139447555Y-115020034D01*
X139447555Y-115020035D01*
X139396505Y-115156906D01*
X139390000Y-115217402D01*
X139390000Y-116512000D01*
X140530891Y-116512000D01*
X140498000Y-116677358D01*
X140498000Y-116854642D01*
X140530891Y-117020000D01*
X139390000Y-117020000D01*
X139390000Y-118314597D01*
X138022022Y-118314597D01*
X138412375Y-117924244D01*
X138412385Y-117924237D01*
X138487866Y-117848756D01*
X138487870Y-117848752D01*
X138502465Y-117823471D01*
X138517059Y-117798194D01*
X138517061Y-117798190D01*
X138533915Y-117768999D01*
X138557750Y-117680046D01*
X138557750Y-117587955D01*
X138557750Y-114999755D01*
X138577752Y-114931634D01*
X138588526Y-114917242D01*
X138598418Y-114905826D01*
X138636777Y-114861558D01*
X138697042Y-114729596D01*
X138717688Y-114586000D01*
X138697042Y-114442404D01*
X138636777Y-114310442D01*
X138541775Y-114200804D01*
X138541774Y-114200803D01*
X138480753Y-114161587D01*
X138419732Y-114122371D01*
X138419731Y-114122370D01*
X138419730Y-114122370D01*
X138280536Y-114081500D01*
X138135464Y-114081500D01*
X137996269Y-114122370D01*
X137996266Y-114122372D01*
X137874225Y-114200803D01*
X137779223Y-114310441D01*
X137718958Y-114442403D01*
X137698312Y-114586000D01*
X137718958Y-114729596D01*
X137779223Y-114861558D01*
X137827474Y-114917242D01*
X137856967Y-114981822D01*
X137858250Y-114999755D01*
X137858250Y-117436939D01*
X137838248Y-117505060D01*
X137821345Y-117526034D01*
X135814034Y-119533345D01*
X135751722Y-119567371D01*
X135724939Y-119570250D01*
X126137715Y-119570250D01*
X126069594Y-119550248D01*
X126024925Y-119500413D01*
X125943091Y-119336069D01*
X125943087Y-119336064D01*
X125819733Y-119172715D01*
X125668463Y-119034814D01*
X125494433Y-118927059D01*
X125494428Y-118927057D01*
X125494427Y-118927056D01*
X125303559Y-118853113D01*
X125303560Y-118853113D01*
X125303557Y-118853112D01*
X125303556Y-118853112D01*
X125102347Y-118815500D01*
X124897653Y-118815500D01*
X124696444Y-118853112D01*
X124696439Y-118853113D01*
X124505577Y-118927054D01*
X124505566Y-118927059D01*
X124331535Y-119034815D01*
X124331532Y-119034817D01*
X124261385Y-119098765D01*
X124197568Y-119129876D01*
X124127062Y-119121546D01*
X124072252Y-119076420D01*
X124050540Y-119008824D01*
X124050500Y-119005650D01*
X124050500Y-118294349D01*
X124070502Y-118226228D01*
X124124158Y-118179735D01*
X124194432Y-118169631D01*
X124259012Y-118199125D01*
X124261386Y-118201234D01*
X124331536Y-118265185D01*
X124505566Y-118372940D01*
X124505568Y-118372940D01*
X124505573Y-118372944D01*
X124696444Y-118446888D01*
X124897653Y-118484500D01*
X124897655Y-118484500D01*
X125102345Y-118484500D01*
X125102347Y-118484500D01*
X125303556Y-118446888D01*
X125494427Y-118372944D01*
X125668462Y-118265186D01*
X125819732Y-118127285D01*
X125943088Y-117963935D01*
X126034328Y-117780701D01*
X126090345Y-117583821D01*
X126099120Y-117489129D01*
X126109232Y-117380004D01*
X126109232Y-117379995D01*
X126090345Y-117176180D01*
X126076068Y-117126000D01*
X126034328Y-116979299D01*
X125943088Y-116796065D01*
X125894294Y-116731451D01*
X125819733Y-116632715D01*
X125668463Y-116494814D01*
X125494433Y-116387059D01*
X125494428Y-116387057D01*
X125494427Y-116387056D01*
X125303559Y-116313113D01*
X125303560Y-116313113D01*
X125303557Y-116313112D01*
X125303556Y-116313112D01*
X125102347Y-116275500D01*
X124897653Y-116275500D01*
X124696444Y-116313112D01*
X124696439Y-116313113D01*
X124505577Y-116387054D01*
X124505566Y-116387059D01*
X124331535Y-116494815D01*
X124331532Y-116494817D01*
X124261385Y-116558765D01*
X124197568Y-116589876D01*
X124127062Y-116581546D01*
X124072252Y-116536420D01*
X124050540Y-116468824D01*
X124050500Y-116465650D01*
X124050500Y-115754349D01*
X124070502Y-115686228D01*
X124124158Y-115639735D01*
X124194432Y-115629631D01*
X124259012Y-115659125D01*
X124261386Y-115661234D01*
X124331536Y-115725185D01*
X124505566Y-115832940D01*
X124505568Y-115832940D01*
X124505573Y-115832944D01*
X124696444Y-115906888D01*
X124897653Y-115944500D01*
X124897655Y-115944500D01*
X125102345Y-115944500D01*
X125102347Y-115944500D01*
X125303556Y-115906888D01*
X125494427Y-115832944D01*
X125668462Y-115725186D01*
X125819732Y-115587285D01*
X125943088Y-115423935D01*
X126034328Y-115240701D01*
X126090345Y-115043821D01*
X126099826Y-114941502D01*
X126109232Y-114840004D01*
X126109232Y-114839995D01*
X126090345Y-114636180D01*
X126076068Y-114586000D01*
X126034328Y-114439299D01*
X125943088Y-114256065D01*
X125876279Y-114167595D01*
X125819733Y-114092715D01*
X125668463Y-113954814D01*
X125494433Y-113847059D01*
X125494428Y-113847057D01*
X125494427Y-113847056D01*
X125464869Y-113835605D01*
X125303559Y-113773113D01*
X125303560Y-113773113D01*
X125303557Y-113773112D01*
X125303556Y-113773112D01*
X125102347Y-113735500D01*
X124897653Y-113735500D01*
X124696444Y-113773112D01*
X124696439Y-113773113D01*
X124505577Y-113847054D01*
X124505566Y-113847059D01*
X124331535Y-113954815D01*
X124331532Y-113954817D01*
X124261385Y-114018765D01*
X124197568Y-114049876D01*
X124127062Y-114041546D01*
X124072252Y-113996420D01*
X124050540Y-113928824D01*
X124050500Y-113925650D01*
X124050500Y-113214349D01*
X124070502Y-113146228D01*
X124124158Y-113099735D01*
X124194432Y-113089631D01*
X124259012Y-113119125D01*
X124261386Y-113121234D01*
X124331536Y-113185185D01*
X124505566Y-113292940D01*
X124505568Y-113292940D01*
X124505573Y-113292944D01*
X124696444Y-113366888D01*
X124897653Y-113404500D01*
X124897655Y-113404500D01*
X125102345Y-113404500D01*
X125102347Y-113404500D01*
X125303556Y-113366888D01*
X125494427Y-113292944D01*
X125668462Y-113185186D01*
X125819732Y-113047285D01*
X125943088Y-112883935D01*
X126034328Y-112700701D01*
X126090345Y-112503821D01*
X126109232Y-112300000D01*
X126107747Y-112283977D01*
X126090345Y-112096180D01*
X126082201Y-112067558D01*
X126034328Y-111899299D01*
X126028529Y-111887653D01*
X126016069Y-111817763D01*
X126043374Y-111752227D01*
X126052214Y-111742406D01*
X128917967Y-108876655D01*
X128980279Y-108842629D01*
X129007062Y-108839750D01*
X131677843Y-108839750D01*
X131745964Y-108859752D01*
X131792457Y-108913408D01*
X131802561Y-108983682D01*
X131778393Y-109041682D01*
X131676913Y-109176063D01*
X131585671Y-109359301D01*
X131529654Y-109556180D01*
X131510768Y-109759995D01*
X131510768Y-109760004D01*
X131529654Y-109963819D01*
X131583055Y-110151502D01*
X131585672Y-110160701D01*
X131676912Y-110343935D01*
X131676913Y-110343936D01*
X131778393Y-110478318D01*
X131803483Y-110544734D01*
X131788683Y-110614170D01*
X131738692Y-110664583D01*
X131677843Y-110680250D01*
X128863780Y-110680250D01*
X128863764Y-110680249D01*
X128856046Y-110680249D01*
X128763955Y-110680249D01*
X128763951Y-110680249D01*
X128675004Y-110704083D01*
X128595249Y-110750129D01*
X128595245Y-110750132D01*
X128094784Y-111250595D01*
X128032471Y-111284620D01*
X128005688Y-111287500D01*
X127975464Y-111287500D01*
X127836269Y-111328370D01*
X127836266Y-111328372D01*
X127714225Y-111406803D01*
X127619223Y-111516441D01*
X127558958Y-111648403D01*
X127545933Y-111738993D01*
X127538312Y-111792000D01*
X127558958Y-111935596D01*
X127619223Y-112067558D01*
X127714225Y-112177196D01*
X127836268Y-112255629D01*
X127975464Y-112296500D01*
X128120536Y-112296500D01*
X128259732Y-112255629D01*
X128381775Y-112177196D01*
X128476777Y-112067558D01*
X128537042Y-111935596D01*
X128554250Y-111815910D01*
X128583742Y-111751332D01*
X128589857Y-111744763D01*
X128917968Y-111416654D01*
X128980280Y-111382629D01*
X129007063Y-111379750D01*
X131677843Y-111379750D01*
X131745964Y-111399752D01*
X131792457Y-111453408D01*
X131802561Y-111523682D01*
X131778393Y-111581682D01*
X131676913Y-111716063D01*
X131585671Y-111899301D01*
X131529654Y-112096180D01*
X131510768Y-112299995D01*
X131510768Y-112300000D01*
X131529654Y-112503819D01*
X131585671Y-112700698D01*
X131585672Y-112700701D01*
X131676912Y-112883935D01*
X131676913Y-112883936D01*
X131800266Y-113047284D01*
X131951536Y-113185185D01*
X132125566Y-113292940D01*
X132125568Y-113292940D01*
X132125573Y-113292944D01*
X132175333Y-113312221D01*
X132188409Y-113317287D01*
X132244704Y-113360546D01*
X132268674Y-113427374D01*
X132252710Y-113496552D01*
X132201879Y-113546118D01*
X132183804Y-113553951D01*
X132072631Y-113592116D01*
X132072628Y-113592117D01*
X131874699Y-113699231D01*
X131874698Y-113699232D01*
X131697097Y-113837465D01*
X131544674Y-114003041D01*
X131421580Y-114191451D01*
X131331179Y-114397543D01*
X131331176Y-114397550D01*
X131283455Y-114585999D01*
X131283456Y-114586000D01*
X132189297Y-114586000D01*
X132154075Y-114647007D01*
X132120000Y-114774174D01*
X132120000Y-114905826D01*
X132154075Y-115032993D01*
X132189297Y-115094000D01*
X131283455Y-115094000D01*
X131331176Y-115282449D01*
X131331179Y-115282456D01*
X131421580Y-115488548D01*
X131544674Y-115676958D01*
X131697097Y-115842534D01*
X131874698Y-115980767D01*
X131874699Y-115980768D01*
X131908734Y-115999187D01*
X131959123Y-116049201D01*
X131974475Y-116118518D01*
X131949913Y-116185130D01*
X131908734Y-116220813D01*
X131874699Y-116239231D01*
X131874698Y-116239232D01*
X131697097Y-116377465D01*
X131544674Y-116543041D01*
X131421580Y-116731451D01*
X131331179Y-116937543D01*
X131331176Y-116937550D01*
X131283455Y-117125999D01*
X131283456Y-117126000D01*
X132189297Y-117126000D01*
X132154075Y-117187007D01*
X132120000Y-117314174D01*
X132120000Y-117445826D01*
X132154075Y-117572993D01*
X132189297Y-117634000D01*
X131283455Y-117634000D01*
X131331176Y-117822449D01*
X131331179Y-117822456D01*
X131421580Y-118028548D01*
X131544674Y-118216958D01*
X131697097Y-118382534D01*
X131874698Y-118520767D01*
X131874699Y-118520768D01*
X132072628Y-118627882D01*
X132072630Y-118627883D01*
X132285483Y-118700955D01*
X132285492Y-118700957D01*
X132366000Y-118714391D01*
X132366000Y-117810702D01*
X132427007Y-117845925D01*
X132554174Y-117880000D01*
X132685826Y-117880000D01*
X132812993Y-117845925D01*
X132874000Y-117810702D01*
X132874000Y-118714390D01*
X132954507Y-118700957D01*
X132954516Y-118700955D01*
X133167369Y-118627883D01*
X133167371Y-118627882D01*
X133365300Y-118520768D01*
X133365301Y-118520767D01*
X133542902Y-118382534D01*
X133604426Y-118315700D01*
X133665279Y-118279128D01*
X133736243Y-118281261D01*
X133794789Y-118321422D01*
X133815185Y-118357003D01*
X133859556Y-118475966D01*
X133947095Y-118592904D01*
X134064034Y-118680444D01*
X134200906Y-118731494D01*
X134261402Y-118737999D01*
X134261415Y-118738000D01*
X134906000Y-118738000D01*
X134906000Y-117810702D01*
X134967007Y-117845925D01*
X135094174Y-117880000D01*
X135225826Y-117880000D01*
X135352993Y-117845925D01*
X135414000Y-117810702D01*
X135414000Y-118738000D01*
X136058585Y-118738000D01*
X136058597Y-118737999D01*
X136119093Y-118731494D01*
X136255964Y-118680444D01*
X136255965Y-118680444D01*
X136372904Y-118592904D01*
X136460444Y-118475965D01*
X136460444Y-118475964D01*
X136511494Y-118339093D01*
X136517999Y-118278597D01*
X136518000Y-118278585D01*
X136518000Y-117634000D01*
X135590703Y-117634000D01*
X135625925Y-117572993D01*
X135660000Y-117445826D01*
X135660000Y-117314174D01*
X135625925Y-117187007D01*
X135590703Y-117126000D01*
X136518000Y-117126000D01*
X136518000Y-116481414D01*
X136517999Y-116481402D01*
X136511494Y-116420906D01*
X136460444Y-116284035D01*
X136460444Y-116284034D01*
X136372904Y-116167095D01*
X136255965Y-116079555D01*
X136119093Y-116028505D01*
X136058597Y-116022000D01*
X135791935Y-116022000D01*
X135723814Y-116001998D01*
X135677321Y-115948342D01*
X135667217Y-115878068D01*
X135696711Y-115813488D01*
X135725605Y-115788873D01*
X135828460Y-115725187D01*
X135828459Y-115725187D01*
X135828462Y-115725186D01*
X135979732Y-115587285D01*
X136103088Y-115423935D01*
X136194328Y-115240701D01*
X136250345Y-115043821D01*
X136259826Y-114941502D01*
X136269232Y-114840004D01*
X136269232Y-114839995D01*
X136257371Y-114712000D01*
X136250345Y-114636179D01*
X136194328Y-114439299D01*
X136194325Y-114439294D01*
X136193746Y-114437257D01*
X136194342Y-114366263D01*
X136225839Y-114313682D01*
X140371118Y-110168405D01*
X140433430Y-110134379D01*
X140460213Y-110131500D01*
X148002500Y-110131500D01*
X148070621Y-110151502D01*
X148117114Y-110205158D01*
X148128500Y-110257500D01*
X148128500Y-112492223D01*
X148128499Y-112492223D01*
X148141499Y-112540739D01*
X148154499Y-112589254D01*
X148175665Y-112625915D01*
X148204724Y-112676247D01*
X148204726Y-112676249D01*
X148204729Y-112676253D01*
X150419746Y-114891270D01*
X150419751Y-114891274D01*
X150419753Y-114891276D01*
X150419754Y-114891277D01*
X150419756Y-114891278D01*
X150506742Y-114941500D01*
X150506744Y-114941500D01*
X150506747Y-114941502D01*
X150603775Y-114967500D01*
X150603776Y-114967500D01*
X153498223Y-114967500D01*
X153498225Y-114967500D01*
X153595254Y-114941501D01*
X153595257Y-114941499D01*
X153595258Y-114941499D01*
X153657045Y-114905826D01*
X153682247Y-114891276D01*
X153753276Y-114820247D01*
X158405118Y-110168405D01*
X158467430Y-110134379D01*
X158494213Y-110131500D01*
X158752562Y-110131500D01*
X158820683Y-110151502D01*
X158864829Y-110200298D01*
X158867967Y-110206456D01*
X158872331Y-110215021D01*
X158885434Y-110284798D01*
X158858733Y-110350582D01*
X158849159Y-110361317D01*
X158336753Y-110873724D01*
X158336752Y-110873724D01*
X158265729Y-110944746D01*
X158265721Y-110944756D01*
X158215500Y-111031741D01*
X158189500Y-111128776D01*
X158189500Y-121121223D01*
X158189499Y-121121223D01*
X158215498Y-121218251D01*
X158215499Y-121218254D01*
X158248927Y-121276153D01*
X158265724Y-121305247D01*
X158849159Y-121888682D01*
X158883183Y-121950993D01*
X158878119Y-122021808D01*
X158872331Y-122034977D01*
X158851420Y-122076017D01*
X158797698Y-122241357D01*
X158797697Y-122241360D01*
X158797697Y-122241362D01*
X158770500Y-122413074D01*
X158770500Y-122586926D01*
X158797697Y-122758638D01*
X158851420Y-122923981D01*
X158930347Y-123078884D01*
X158930349Y-123078887D01*
X159032536Y-123219535D01*
X159155464Y-123342463D01*
X159258713Y-123417478D01*
X159302067Y-123473701D01*
X159308142Y-123544437D01*
X159275010Y-123607228D01*
X159213190Y-123642140D01*
X159197459Y-123644761D01*
X159120679Y-123652605D01*
X159038910Y-123679700D01*
X159038910Y-123679701D01*
X159895463Y-124536254D01*
X159816657Y-124557370D01*
X159708343Y-124619905D01*
X159619905Y-124708343D01*
X159557370Y-124816657D01*
X159536254Y-124895463D01*
X158634814Y-123994023D01*
X158583342Y-124077474D01*
X158527606Y-124245678D01*
X158527605Y-124245681D01*
X158517000Y-124349483D01*
X158517000Y-125650516D01*
X158527605Y-125754318D01*
X158527606Y-125754321D01*
X158583344Y-125922529D01*
X158634813Y-126005974D01*
X158634814Y-126005975D01*
X159536253Y-125104535D01*
X159557370Y-125183343D01*
X159619905Y-125291657D01*
X159708343Y-125380095D01*
X159816657Y-125442630D01*
X159895463Y-125463745D01*
X159038909Y-126320298D01*
X159038910Y-126320299D01*
X159120669Y-126347392D01*
X159120681Y-126347394D01*
X159224483Y-126357999D01*
X159224483Y-126358000D01*
X160775517Y-126358000D01*
X160775516Y-126357999D01*
X160879319Y-126347394D01*
X160879328Y-126347392D01*
X160961088Y-126320299D01*
X160961089Y-126320298D01*
X160104536Y-125463745D01*
X160183343Y-125442630D01*
X160291657Y-125380095D01*
X160380095Y-125291657D01*
X160442630Y-125183343D01*
X160463745Y-125104536D01*
X161365184Y-126005975D01*
X161416657Y-125922525D01*
X161472393Y-125754321D01*
X161472394Y-125754318D01*
X161482999Y-125650516D01*
X161483000Y-125650516D01*
X161483000Y-124349483D01*
X161472394Y-124245681D01*
X161472393Y-124245678D01*
X161416656Y-124077472D01*
X161365185Y-123994024D01*
X161365184Y-123994023D01*
X160463745Y-124895462D01*
X160442630Y-124816657D01*
X160380095Y-124708343D01*
X160291657Y-124619905D01*
X160183343Y-124557370D01*
X160104536Y-124536254D01*
X160961088Y-123679701D01*
X160961088Y-123679700D01*
X160879324Y-123652606D01*
X160879318Y-123652605D01*
X160802540Y-123644761D01*
X160736805Y-123617939D01*
X160696007Y-123559836D01*
X160693098Y-123488899D01*
X160729002Y-123427650D01*
X160741278Y-123417483D01*
X160844533Y-123342465D01*
X160967465Y-123219533D01*
X161069653Y-123078884D01*
X161148580Y-122923981D01*
X161202303Y-122758638D01*
X161229500Y-122586926D01*
X161229500Y-122413074D01*
X161202303Y-122241362D01*
X161148580Y-122076019D01*
X161069653Y-121921116D01*
X160967465Y-121780467D01*
X160967463Y-121780464D01*
X160844535Y-121657536D01*
X160703887Y-121555349D01*
X160703886Y-121555348D01*
X160703884Y-121555347D01*
X160548981Y-121476420D01*
X160548978Y-121476419D01*
X160548976Y-121476418D01*
X160383642Y-121422698D01*
X160383640Y-121422697D01*
X160383638Y-121422697D01*
X160211926Y-121395500D01*
X159788074Y-121395500D01*
X159678147Y-121412910D01*
X159616354Y-121422698D01*
X159616353Y-121422699D01*
X159573453Y-121436638D01*
X159502486Y-121438665D01*
X159445423Y-121405900D01*
X159222644Y-121183121D01*
X159188618Y-121120809D01*
X159193683Y-121049994D01*
X159236230Y-120993158D01*
X159302750Y-120968347D01*
X159368939Y-120981758D01*
X159451019Y-121023580D01*
X159616362Y-121077303D01*
X159788074Y-121104500D01*
X159788077Y-121104500D01*
X160211923Y-121104500D01*
X160211926Y-121104500D01*
X160383638Y-121077303D01*
X160548981Y-121023580D01*
X160703884Y-120944653D01*
X160844533Y-120842465D01*
X160967465Y-120719533D01*
X161069653Y-120578884D01*
X161148580Y-120423981D01*
X161202303Y-120258638D01*
X161229500Y-120086926D01*
X161229500Y-119913074D01*
X161202303Y-119741362D01*
X161148580Y-119576019D01*
X161135449Y-119550248D01*
X161112513Y-119505233D01*
X161099409Y-119435457D01*
X161126109Y-119369672D01*
X161135675Y-119358945D01*
X161743870Y-118750752D01*
X161789915Y-118670998D01*
X161813751Y-118582045D01*
X161813751Y-118489954D01*
X161813751Y-118482237D01*
X161813750Y-118482219D01*
X161813750Y-108770209D01*
X161813751Y-108770196D01*
X161813751Y-108667955D01*
X161813750Y-108667953D01*
X161810413Y-108655500D01*
X161789915Y-108579002D01*
X161743870Y-108499248D01*
X161135683Y-107891061D01*
X161101660Y-107828751D01*
X161106724Y-107757936D01*
X161112513Y-107744765D01*
X161148580Y-107673981D01*
X161202303Y-107508638D01*
X161229500Y-107336926D01*
X161229500Y-107163074D01*
X161202303Y-106991362D01*
X161148580Y-106826019D01*
X161069653Y-106671116D01*
X160997242Y-106571451D01*
X160967463Y-106530464D01*
X160844535Y-106407536D01*
X160703887Y-106305349D01*
X160703886Y-106305348D01*
X160703884Y-106305347D01*
X160548981Y-106226420D01*
X160548978Y-106226419D01*
X160548976Y-106226418D01*
X160383642Y-106172698D01*
X160383640Y-106172697D01*
X160383638Y-106172697D01*
X160211926Y-106145500D01*
X159788074Y-106145500D01*
X159702218Y-106159098D01*
X159616359Y-106172697D01*
X159539561Y-106197650D01*
X159468593Y-106199676D01*
X159411532Y-106166911D01*
X159123251Y-105878630D01*
X159089225Y-105816318D01*
X159094290Y-105745503D01*
X159136837Y-105688667D01*
X159203357Y-105663856D01*
X159272731Y-105678947D01*
X159286408Y-105687600D01*
X159296111Y-105694650D01*
X159296113Y-105694651D01*
X159296116Y-105694653D01*
X159451019Y-105773580D01*
X159616362Y-105827303D01*
X159788074Y-105854500D01*
X159788077Y-105854500D01*
X160211923Y-105854500D01*
X160211926Y-105854500D01*
X160383638Y-105827303D01*
X160548981Y-105773580D01*
X160703884Y-105694653D01*
X160844533Y-105592465D01*
X160967465Y-105469533D01*
X161069653Y-105328884D01*
X161148580Y-105173981D01*
X161202303Y-105008638D01*
X161229500Y-104836926D01*
X161229500Y-104663074D01*
X161202303Y-104491362D01*
X161148580Y-104326019D01*
X161069653Y-104171116D01*
X160967465Y-104030467D01*
X160967463Y-104030464D01*
X160844535Y-103907536D01*
X160703887Y-103805349D01*
X160703886Y-103805348D01*
X160703884Y-103805347D01*
X160548981Y-103726420D01*
X160548978Y-103726419D01*
X160548976Y-103726418D01*
X160383642Y-103672698D01*
X160383640Y-103672697D01*
X160383638Y-103672697D01*
X160211926Y-103645500D01*
X159788074Y-103645500D01*
X159702218Y-103659098D01*
X159616359Y-103672697D01*
X159573451Y-103686639D01*
X159502483Y-103688665D01*
X159445422Y-103655900D01*
X157930405Y-102140882D01*
X157896379Y-102078570D01*
X157893500Y-102051787D01*
X157893500Y-100150516D01*
X158517000Y-100150516D01*
X158527605Y-100254318D01*
X158527606Y-100254321D01*
X158583344Y-100422529D01*
X158634813Y-100505974D01*
X158634814Y-100505975D01*
X159536253Y-99604535D01*
X159557370Y-99683343D01*
X159619905Y-99791657D01*
X159708343Y-99880095D01*
X159816657Y-99942630D01*
X159895463Y-99963745D01*
X159038909Y-100820298D01*
X159038910Y-100820299D01*
X159120669Y-100847392D01*
X159120681Y-100847394D01*
X159224483Y-100857999D01*
X159224483Y-100858000D01*
X160775517Y-100858000D01*
X160775516Y-100857999D01*
X160879319Y-100847394D01*
X160879328Y-100847392D01*
X160961088Y-100820299D01*
X160961089Y-100820298D01*
X160104536Y-99963745D01*
X160183343Y-99942630D01*
X160291657Y-99880095D01*
X160380095Y-99791657D01*
X160442630Y-99683343D01*
X160463745Y-99604536D01*
X161365184Y-100505975D01*
X161416657Y-100422525D01*
X161472393Y-100254321D01*
X161472394Y-100254318D01*
X161482999Y-100150516D01*
X161483000Y-100150516D01*
X161483000Y-98849483D01*
X161472394Y-98745681D01*
X161472393Y-98745678D01*
X161416656Y-98577472D01*
X161365185Y-98494024D01*
X161365184Y-98494023D01*
X160463745Y-99395462D01*
X160442630Y-99316657D01*
X160380095Y-99208343D01*
X160291657Y-99119905D01*
X160183343Y-99057370D01*
X160104536Y-99036254D01*
X160961088Y-98179701D01*
X160961088Y-98179700D01*
X160879324Y-98152606D01*
X160879318Y-98152605D01*
X160802540Y-98144761D01*
X160736805Y-98117939D01*
X160696007Y-98059836D01*
X160693098Y-97988899D01*
X160729002Y-97927650D01*
X160741278Y-97917483D01*
X160844533Y-97842465D01*
X160967465Y-97719533D01*
X161069653Y-97578884D01*
X161148580Y-97423981D01*
X161202303Y-97258638D01*
X161229500Y-97086926D01*
X161229500Y-96913074D01*
X161202303Y-96741362D01*
X161148580Y-96576019D01*
X161069653Y-96421116D01*
X160967465Y-96280467D01*
X160967463Y-96280464D01*
X160844535Y-96157536D01*
X160703887Y-96055349D01*
X160703886Y-96055348D01*
X160703884Y-96055347D01*
X160548981Y-95976420D01*
X160548978Y-95976419D01*
X160548976Y-95976418D01*
X160383642Y-95922698D01*
X160383640Y-95922697D01*
X160383638Y-95922697D01*
X160211926Y-95895500D01*
X159788074Y-95895500D01*
X159616362Y-95922697D01*
X159616360Y-95922697D01*
X159616357Y-95922698D01*
X159451023Y-95976418D01*
X159451017Y-95976421D01*
X159296112Y-96055349D01*
X159155464Y-96157536D01*
X159032536Y-96280464D01*
X158930349Y-96421112D01*
X158851421Y-96576017D01*
X158851418Y-96576023D01*
X158797698Y-96741357D01*
X158797697Y-96741360D01*
X158797697Y-96741362D01*
X158770500Y-96913074D01*
X158770500Y-97086926D01*
X158797697Y-97258638D01*
X158851420Y-97423981D01*
X158930347Y-97578884D01*
X158930349Y-97578887D01*
X159032536Y-97719535D01*
X159155464Y-97842463D01*
X159258713Y-97917478D01*
X159302067Y-97973701D01*
X159308142Y-98044437D01*
X159275010Y-98107228D01*
X159213190Y-98142140D01*
X159197459Y-98144761D01*
X159120679Y-98152605D01*
X159038910Y-98179700D01*
X159038910Y-98179701D01*
X159895463Y-99036254D01*
X159816657Y-99057370D01*
X159708343Y-99119905D01*
X159619905Y-99208343D01*
X159557370Y-99316657D01*
X159536254Y-99395463D01*
X158634814Y-98494023D01*
X158583342Y-98577474D01*
X158527606Y-98745678D01*
X158527605Y-98745681D01*
X158517000Y-98849483D01*
X158517000Y-100150516D01*
X157893500Y-100150516D01*
X157893500Y-94698211D01*
X157913502Y-94630090D01*
X157930400Y-94609121D01*
X158691881Y-93847640D01*
X158754192Y-93813615D01*
X158825007Y-93818680D01*
X158881843Y-93861227D01*
X158906654Y-93927747D01*
X158893242Y-93993938D01*
X158851423Y-94076011D01*
X158851418Y-94076023D01*
X158797698Y-94241357D01*
X158797697Y-94241360D01*
X158797697Y-94241362D01*
X158770500Y-94413074D01*
X158770500Y-94586926D01*
X158795425Y-94744292D01*
X158797698Y-94758642D01*
X158850158Y-94920099D01*
X158851420Y-94923981D01*
X158921441Y-95061405D01*
X158930349Y-95078887D01*
X159032536Y-95219535D01*
X159155464Y-95342463D01*
X159155467Y-95342465D01*
X159296116Y-95444653D01*
X159451019Y-95523580D01*
X159616362Y-95577303D01*
X159788074Y-95604500D01*
X159788077Y-95604500D01*
X160211923Y-95604500D01*
X160211926Y-95604500D01*
X160383638Y-95577303D01*
X160548981Y-95523580D01*
X160703884Y-95444653D01*
X160844533Y-95342465D01*
X160967465Y-95219533D01*
X161069653Y-95078884D01*
X161148580Y-94923981D01*
X161202303Y-94758638D01*
X161229500Y-94586926D01*
X161229500Y-94413074D01*
X161202303Y-94241362D01*
X161148580Y-94076019D01*
X161069653Y-93921116D01*
X161022800Y-93856629D01*
X160967463Y-93780464D01*
X160844535Y-93657536D01*
X160703887Y-93555349D01*
X160703886Y-93555348D01*
X160703884Y-93555347D01*
X160548981Y-93476420D01*
X160548978Y-93476419D01*
X160548976Y-93476418D01*
X160383642Y-93422698D01*
X160383640Y-93422697D01*
X160383638Y-93422697D01*
X160211926Y-93395500D01*
X159788074Y-93395500D01*
X159616362Y-93422697D01*
X159616360Y-93422697D01*
X159616357Y-93422698D01*
X159451023Y-93476418D01*
X159451011Y-93476423D01*
X159368937Y-93518242D01*
X159299160Y-93531346D01*
X159233376Y-93504645D01*
X159192470Y-93446617D01*
X159189430Y-93375686D01*
X159222638Y-93316882D01*
X159445423Y-93094097D01*
X159507733Y-93060073D01*
X159573452Y-93063361D01*
X159594900Y-93070329D01*
X159616362Y-93077303D01*
X159788074Y-93104500D01*
X159788077Y-93104500D01*
X160211923Y-93104500D01*
X160211926Y-93104500D01*
X160383638Y-93077303D01*
X160548981Y-93023580D01*
X160703884Y-92944653D01*
X160844533Y-92842465D01*
X160967465Y-92719533D01*
X161069653Y-92578884D01*
X161148580Y-92423981D01*
X161202303Y-92258638D01*
X161229500Y-92086926D01*
X161229500Y-91913074D01*
X161202303Y-91741362D01*
X161148580Y-91576019D01*
X161069653Y-91421116D01*
X160989887Y-91311328D01*
X160967463Y-91280464D01*
X160844535Y-91157536D01*
X160703887Y-91055349D01*
X160703886Y-91055348D01*
X160703884Y-91055347D01*
X160548981Y-90976420D01*
X160548978Y-90976419D01*
X160548976Y-90976418D01*
X160383642Y-90922698D01*
X160383640Y-90922697D01*
X160383638Y-90922697D01*
X160211926Y-90895500D01*
X159788074Y-90895500D01*
X159616362Y-90922697D01*
X159616360Y-90922697D01*
X159616357Y-90922698D01*
X159451023Y-90976418D01*
X159451017Y-90976421D01*
X159296112Y-91055349D01*
X159155464Y-91157536D01*
X159032536Y-91280464D01*
X158930349Y-91421112D01*
X158851421Y-91576017D01*
X158851418Y-91576023D01*
X158797698Y-91741357D01*
X158797697Y-91741360D01*
X158797697Y-91741362D01*
X158770500Y-91913074D01*
X158770500Y-92086926D01*
X158788801Y-92202472D01*
X158797698Y-92258642D01*
X158851418Y-92423976D01*
X158851423Y-92423988D01*
X158872330Y-92465020D01*
X158885434Y-92534797D01*
X158858733Y-92600581D01*
X158849158Y-92611317D01*
X157260030Y-94200445D01*
X157260028Y-94200448D01*
X157206729Y-94253746D01*
X157206721Y-94253756D01*
X157156500Y-94340741D01*
X157130500Y-94437776D01*
X157130500Y-102312223D01*
X157130499Y-102312223D01*
X157156499Y-102409255D01*
X157162624Y-102419862D01*
X157162625Y-102419868D01*
X157162627Y-102419868D01*
X157162628Y-102419869D01*
X157206724Y-102496247D01*
X157206727Y-102496250D01*
X157206730Y-102496254D01*
X158849158Y-104138681D01*
X158883183Y-104200993D01*
X158878119Y-104271808D01*
X158872331Y-104284977D01*
X158851420Y-104326017D01*
X158797698Y-104491357D01*
X158797697Y-104491360D01*
X158797697Y-104491362D01*
X158770500Y-104663074D01*
X158770500Y-104836926D01*
X158797266Y-105005915D01*
X158797698Y-105008642D01*
X158851193Y-105173285D01*
X158851420Y-105173981D01*
X158930347Y-105328884D01*
X158930349Y-105328887D01*
X158937400Y-105338592D01*
X158961259Y-105405460D01*
X158945178Y-105474612D01*
X158894264Y-105524092D01*
X158824681Y-105538191D01*
X158758522Y-105512432D01*
X158746369Y-105501748D01*
X155431058Y-102186437D01*
X155431046Y-102186423D01*
X155358758Y-102114135D01*
X155358748Y-102114127D01*
X155308190Y-102084937D01*
X155308190Y-102084938D01*
X155278998Y-102068084D01*
X155278995Y-102068083D01*
X155190048Y-102044249D01*
X155190045Y-102044249D01*
X155097955Y-102044249D01*
X155090237Y-102044249D01*
X155090221Y-102044250D01*
X150987000Y-102044250D01*
X150918879Y-102024248D01*
X150872386Y-101970592D01*
X150861000Y-101918250D01*
X150861000Y-101378000D01*
X149780251Y-101378000D01*
X149813245Y-101320853D01*
X149848000Y-101191143D01*
X149848000Y-101056857D01*
X149813245Y-100927147D01*
X149780251Y-100870000D01*
X150861000Y-100870000D01*
X150861000Y-100210414D01*
X150860999Y-100210402D01*
X150854494Y-100149906D01*
X150803444Y-100013035D01*
X150803444Y-100013034D01*
X150715904Y-99896095D01*
X150598965Y-99808555D01*
X150462093Y-99757505D01*
X150401597Y-99751000D01*
X150174159Y-99751000D01*
X150106038Y-99730998D01*
X150059545Y-99677342D01*
X150049441Y-99607068D01*
X150078935Y-99542488D01*
X150100097Y-99523064D01*
X150217305Y-99437907D01*
X150341907Y-99313305D01*
X150445483Y-99170746D01*
X150525482Y-99013739D01*
X150525485Y-99013727D01*
X150526393Y-99011538D01*
X150526964Y-99010829D01*
X150527729Y-99009328D01*
X150528044Y-99009488D01*
X150570939Y-98956255D01*
X150638301Y-98933831D01*
X150642804Y-98933751D01*
X150700045Y-98933751D01*
X150788999Y-98909915D01*
X150833807Y-98884045D01*
X150868752Y-98863870D01*
X150933870Y-98798752D01*
X150944237Y-98788385D01*
X150944244Y-98788375D01*
X154671216Y-95061405D01*
X154733528Y-95027379D01*
X154760311Y-95024500D01*
X154790536Y-95024500D01*
X154929732Y-94983629D01*
X155051775Y-94905196D01*
X155146777Y-94795558D01*
X155207042Y-94663596D01*
X155227688Y-94520000D01*
X155207042Y-94376404D01*
X155146777Y-94244442D01*
X155051775Y-94134804D01*
X155051774Y-94134803D01*
X154960311Y-94076023D01*
X154929732Y-94056371D01*
X154929731Y-94056370D01*
X154929730Y-94056370D01*
X154790536Y-94015500D01*
X154645464Y-94015500D01*
X154506269Y-94056370D01*
X154506266Y-94056372D01*
X154384225Y-94134803D01*
X154289223Y-94244441D01*
X154228958Y-94376403D01*
X154228956Y-94376410D01*
X154211749Y-94496087D01*
X154182256Y-94560668D01*
X154176127Y-94567250D01*
X152435091Y-96308285D01*
X152372779Y-96342311D01*
X152301963Y-96337246D01*
X152245128Y-96294699D01*
X152221074Y-96235637D01*
X152210228Y-96153246D01*
X152154355Y-96018358D01*
X152126975Y-95982676D01*
X152077538Y-95918248D01*
X152051937Y-95852028D01*
X152051500Y-95841544D01*
X152051500Y-94476212D01*
X152071502Y-94408091D01*
X152088400Y-94387122D01*
X154664998Y-91810523D01*
X154727308Y-91776500D01*
X154737632Y-91774700D01*
X154862754Y-91758228D01*
X154997643Y-91702355D01*
X155113474Y-91613474D01*
X155202355Y-91497643D01*
X155258228Y-91362754D01*
X155277285Y-91218000D01*
X155274698Y-91198353D01*
X155258228Y-91073247D01*
X155257775Y-91072153D01*
X155202355Y-90938358D01*
X155113474Y-90822526D01*
X155113472Y-90822524D01*
X155113471Y-90822523D01*
X154997649Y-90733649D01*
X154997641Y-90733644D01*
X154862752Y-90677771D01*
X154718000Y-90658715D01*
X154573247Y-90677771D01*
X154505802Y-90705708D01*
X154438358Y-90733645D01*
X154438357Y-90733646D01*
X154438356Y-90733646D01*
X154322526Y-90822526D01*
X154233646Y-90938356D01*
X154233645Y-90938358D01*
X154217880Y-90976418D01*
X154177771Y-91073247D01*
X154161301Y-91198353D01*
X154132578Y-91263280D01*
X154125474Y-91271001D01*
X152079597Y-93316880D01*
X151435753Y-93960724D01*
X151402539Y-93993938D01*
X151364725Y-94031751D01*
X151364721Y-94031756D01*
X151314500Y-94118741D01*
X151299963Y-94172991D01*
X151289246Y-94212993D01*
X151288500Y-94215776D01*
X151288500Y-95841544D01*
X151268498Y-95909665D01*
X151262462Y-95918248D01*
X151185649Y-96018351D01*
X151185646Y-96018356D01*
X151185645Y-96018358D01*
X151165472Y-96067059D01*
X151129771Y-96153247D01*
X151110715Y-96297999D01*
X151110715Y-96298000D01*
X151129771Y-96442752D01*
X151185644Y-96577641D01*
X151185649Y-96577649D01*
X151274525Y-96693474D01*
X151381066Y-96775226D01*
X151390357Y-96782355D01*
X151525246Y-96838228D01*
X151607636Y-96849074D01*
X151672563Y-96877796D01*
X151711655Y-96937061D01*
X151712500Y-97008052D01*
X151680285Y-97063091D01*
X150669590Y-98073787D01*
X150607278Y-98107812D01*
X150536463Y-98102748D01*
X150479627Y-98060201D01*
X150468228Y-98041894D01*
X150463177Y-98031981D01*
X150445483Y-97997254D01*
X150345569Y-97859735D01*
X150341905Y-97854692D01*
X150217307Y-97730094D01*
X150107933Y-97650629D01*
X150074746Y-97626517D01*
X149917739Y-97546518D01*
X149917736Y-97546517D01*
X149917734Y-97546516D01*
X149750153Y-97492067D01*
X149750150Y-97492066D01*
X149576107Y-97464500D01*
X149099893Y-97464500D01*
X148925850Y-97492066D01*
X148925847Y-97492066D01*
X148925846Y-97492067D01*
X148758265Y-97546516D01*
X148758261Y-97546518D01*
X148601254Y-97626517D01*
X148601251Y-97626518D01*
X148596843Y-97628765D01*
X148596251Y-97627604D01*
X148533487Y-97644570D01*
X148465815Y-97623100D01*
X148420492Y-97568452D01*
X148411909Y-97497976D01*
X148442791Y-97434048D01*
X148447095Y-97429524D01*
X148731499Y-97145120D01*
X148793809Y-97111096D01*
X148859524Y-97114383D01*
X148925850Y-97135934D01*
X149099893Y-97163500D01*
X149099896Y-97163500D01*
X149576104Y-97163500D01*
X149576107Y-97163500D01*
X149750150Y-97135934D01*
X149917739Y-97081482D01*
X150074746Y-97001483D01*
X150217305Y-96897907D01*
X150341907Y-96773305D01*
X150445483Y-96630746D01*
X150525482Y-96473739D01*
X150579934Y-96306150D01*
X150607500Y-96132107D01*
X150607500Y-95955893D01*
X150579934Y-95781850D01*
X150525482Y-95614261D01*
X150445483Y-95457254D01*
X150341907Y-95314695D01*
X150341905Y-95314692D01*
X150217307Y-95190094D01*
X150152714Y-95143164D01*
X150074746Y-95086517D01*
X149917739Y-95006518D01*
X149917736Y-95006517D01*
X149917734Y-95006516D01*
X149750153Y-94952067D01*
X149750150Y-94952066D01*
X149576107Y-94924500D01*
X149099893Y-94924500D01*
X148925850Y-94952066D01*
X148925847Y-94952066D01*
X148925846Y-94952067D01*
X148758265Y-95006516D01*
X148758261Y-95006518D01*
X148601254Y-95086517D01*
X148601251Y-95086518D01*
X148601251Y-95086519D01*
X148458692Y-95190094D01*
X148334094Y-95314692D01*
X148239674Y-95444650D01*
X148230517Y-95457254D01*
X148150518Y-95614261D01*
X148133441Y-95666819D01*
X148133088Y-95667906D01*
X148093014Y-95726511D01*
X148027617Y-95754148D01*
X147957661Y-95742041D01*
X147905355Y-95694035D01*
X147896846Y-95677187D01*
X147890939Y-95662926D01*
X147802896Y-95531161D01*
X147802891Y-95531155D01*
X147690844Y-95419108D01*
X147690838Y-95419103D01*
X147605377Y-95362000D01*
X147559074Y-95331061D01*
X147412664Y-95270416D01*
X147257238Y-95239500D01*
X147257236Y-95239500D01*
X147098764Y-95239500D01*
X147098761Y-95239500D01*
X146943335Y-95270416D01*
X146943330Y-95270418D01*
X146796926Y-95331061D01*
X146665161Y-95419103D01*
X146665155Y-95419108D01*
X146553108Y-95531155D01*
X146553103Y-95531161D01*
X146465061Y-95662926D01*
X146404418Y-95809330D01*
X146404416Y-95809335D01*
X146373500Y-95964761D01*
X146373500Y-96123238D01*
X146383760Y-96174817D01*
X146404416Y-96278664D01*
X146465061Y-96425074D01*
X146507736Y-96488941D01*
X146553103Y-96556838D01*
X146553108Y-96556844D01*
X146665155Y-96668891D01*
X146665161Y-96668896D01*
X146796926Y-96756939D01*
X146943336Y-96817584D01*
X147098764Y-96848500D01*
X147098765Y-96848500D01*
X147257235Y-96848500D01*
X147257236Y-96848500D01*
X147412664Y-96817584D01*
X147559074Y-96756939D01*
X147690839Y-96668896D01*
X147802896Y-96556839D01*
X147890939Y-96425074D01*
X147896846Y-96410812D01*
X147941393Y-96355532D01*
X148008756Y-96333110D01*
X148077547Y-96350667D01*
X148125926Y-96402628D01*
X148133088Y-96420094D01*
X148150516Y-96473734D01*
X148150521Y-96473746D01*
X148197771Y-96566479D01*
X148210875Y-96636255D01*
X148184175Y-96702040D01*
X148174600Y-96712776D01*
X146436034Y-98451345D01*
X146373721Y-98485370D01*
X146346938Y-98488250D01*
X143352986Y-98488250D01*
X143284865Y-98468248D01*
X143238372Y-98414592D01*
X143228268Y-98344318D01*
X143251050Y-98288189D01*
X143324653Y-98186884D01*
X143403580Y-98031981D01*
X143457303Y-97866638D01*
X143484500Y-97694926D01*
X143484500Y-97521074D01*
X143457303Y-97349362D01*
X143403580Y-97184019D01*
X143324653Y-97029116D01*
X143277524Y-96964249D01*
X143222463Y-96888464D01*
X143196844Y-96862845D01*
X143162818Y-96800533D01*
X143167883Y-96729718D01*
X143210430Y-96672882D01*
X143276950Y-96648071D01*
X143285939Y-96647750D01*
X144758221Y-96647750D01*
X144758237Y-96647751D01*
X144765955Y-96647751D01*
X144858045Y-96647751D01*
X144921499Y-96630748D01*
X144946996Y-96623916D01*
X144946996Y-96623915D01*
X144946999Y-96623915D01*
X144976190Y-96607061D01*
X145026752Y-96577870D01*
X145091870Y-96512752D01*
X145102235Y-96502387D01*
X145102241Y-96502378D01*
X147713969Y-93890652D01*
X147776279Y-93856629D01*
X147803062Y-93853750D01*
X148033195Y-93853750D01*
X148101316Y-93873752D01*
X148147809Y-93927408D01*
X148149602Y-93931529D01*
X148150512Y-93933728D01*
X148164268Y-93960725D01*
X148230517Y-94090746D01*
X148262711Y-94135057D01*
X148334094Y-94233307D01*
X148458692Y-94357905D01*
X148458695Y-94357907D01*
X148601254Y-94461483D01*
X148758261Y-94541482D01*
X148925850Y-94595934D01*
X149099893Y-94623500D01*
X149099896Y-94623500D01*
X149576104Y-94623500D01*
X149576107Y-94623500D01*
X149750150Y-94595934D01*
X149917739Y-94541482D01*
X150074746Y-94461483D01*
X150217305Y-94357907D01*
X150341907Y-94233305D01*
X150445483Y-94090746D01*
X150525482Y-93933739D01*
X150579934Y-93766150D01*
X150607500Y-93592107D01*
X150607500Y-93415893D01*
X150579934Y-93241850D01*
X150525482Y-93074261D01*
X150445483Y-92917254D01*
X150341907Y-92774695D01*
X150341905Y-92774692D01*
X150217307Y-92650094D01*
X150119295Y-92578884D01*
X150074746Y-92546517D01*
X149917739Y-92466518D01*
X149917736Y-92466517D01*
X149917734Y-92466516D01*
X149750153Y-92412067D01*
X149750150Y-92412066D01*
X149576107Y-92384500D01*
X149099893Y-92384500D01*
X148925850Y-92412066D01*
X148925847Y-92412066D01*
X148925846Y-92412067D01*
X148758265Y-92466516D01*
X148758261Y-92466518D01*
X148601254Y-92546517D01*
X148601251Y-92546518D01*
X148601251Y-92546519D01*
X148458692Y-92650094D01*
X148334094Y-92774692D01*
X148230519Y-92917251D01*
X148150512Y-93074271D01*
X148149602Y-93076471D01*
X148149032Y-93077178D01*
X148148271Y-93078672D01*
X148147957Y-93078512D01*
X148105053Y-93131751D01*
X148037689Y-93154170D01*
X148033195Y-93154250D01*
X147659780Y-93154250D01*
X147659764Y-93154249D01*
X147652046Y-93154249D01*
X147559955Y-93154249D01*
X147559953Y-93154249D01*
X147471003Y-93178084D01*
X147471000Y-93178085D01*
X147400670Y-93218689D01*
X147391248Y-93224130D01*
X147391246Y-93224131D01*
X147391240Y-93224136D01*
X144704034Y-95911345D01*
X144641722Y-95945370D01*
X144614939Y-95948250D01*
X143681603Y-95948250D01*
X143613482Y-95928248D01*
X143566989Y-95874592D01*
X143556885Y-95804318D01*
X143569336Y-95765047D01*
X143638506Y-95629292D01*
X143638509Y-95629286D01*
X143704559Y-95426004D01*
X143714698Y-95362000D01*
X142656836Y-95362000D01*
X142697630Y-95291343D01*
X142730000Y-95170535D01*
X142730000Y-95045465D01*
X142697630Y-94924657D01*
X142656836Y-94854000D01*
X143714697Y-94854000D01*
X143704559Y-94789995D01*
X143638509Y-94586713D01*
X143638506Y-94586707D01*
X143541463Y-94396249D01*
X143415822Y-94223320D01*
X143264679Y-94072177D01*
X143091750Y-93946536D01*
X142901292Y-93849493D01*
X142901286Y-93849490D01*
X142698004Y-93783440D01*
X142509000Y-93753503D01*
X142509000Y-94706163D01*
X142438343Y-94665370D01*
X142317535Y-94633000D01*
X142192465Y-94633000D01*
X142071657Y-94665370D01*
X142001000Y-94706163D01*
X142001000Y-93753503D01*
X141811995Y-93783440D01*
X141608713Y-93849490D01*
X141608707Y-93849493D01*
X141418249Y-93946536D01*
X141245320Y-94072177D01*
X141094177Y-94223320D01*
X140968536Y-94396249D01*
X140871493Y-94586707D01*
X140871490Y-94586713D01*
X140805440Y-94789995D01*
X140795302Y-94854000D01*
X141853164Y-94854000D01*
X141812370Y-94924657D01*
X141780000Y-95045465D01*
X141780000Y-95170535D01*
X141812370Y-95291343D01*
X141853164Y-95362000D01*
X140795302Y-95362000D01*
X140805440Y-95426004D01*
X140871490Y-95629286D01*
X140871493Y-95629292D01*
X140940664Y-95765047D01*
X140953768Y-95834824D01*
X140927068Y-95900608D01*
X140869041Y-95941515D01*
X140828397Y-95948250D01*
X133025994Y-95948250D01*
X132957873Y-95928248D01*
X132911380Y-95874592D01*
X132901276Y-95804318D01*
X132930770Y-95739738D01*
X132977774Y-95705841D01*
X133071984Y-95666819D01*
X133282516Y-95545269D01*
X133475380Y-95397278D01*
X133647278Y-95225380D01*
X133795269Y-95032516D01*
X133916819Y-94821984D01*
X134009850Y-94597388D01*
X134072769Y-94362571D01*
X134104500Y-94121550D01*
X134104500Y-93878450D01*
X134072769Y-93637429D01*
X134009850Y-93402612D01*
X133916819Y-93178016D01*
X133916813Y-93178007D01*
X133916812Y-93178003D01*
X133795271Y-92967487D01*
X133795267Y-92967481D01*
X133647285Y-92774628D01*
X133647266Y-92774607D01*
X133475392Y-92602733D01*
X133475371Y-92602714D01*
X133282518Y-92454732D01*
X133282512Y-92454728D01*
X133198318Y-92406119D01*
X133149325Y-92354737D01*
X133135889Y-92285023D01*
X133162275Y-92219112D01*
X133220107Y-92177930D01*
X133261318Y-92171000D01*
X142543485Y-92171000D01*
X142611606Y-92191002D01*
X142632580Y-92207905D01*
X144487088Y-94062413D01*
X144521114Y-94124725D01*
X144522914Y-94135057D01*
X144525770Y-94156749D01*
X144525771Y-94156753D01*
X144525772Y-94156754D01*
X144581645Y-94291643D01*
X144581647Y-94291646D01*
X144581649Y-94291649D01*
X144670525Y-94407474D01*
X144786350Y-94496350D01*
X144786357Y-94496355D01*
X144921246Y-94552228D01*
X145066000Y-94571285D01*
X145210754Y-94552228D01*
X145345643Y-94496355D01*
X145461474Y-94407474D01*
X145550355Y-94291643D01*
X145606228Y-94156754D01*
X145625285Y-94012000D01*
X145618534Y-93960724D01*
X145613320Y-93921116D01*
X145606228Y-93867246D01*
X145550355Y-93732358D01*
X145461474Y-93616526D01*
X145461472Y-93616524D01*
X145461471Y-93616523D01*
X145345649Y-93527649D01*
X145345646Y-93527647D01*
X145345643Y-93527645D01*
X145210754Y-93471772D01*
X145210753Y-93471771D01*
X145210749Y-93471770D01*
X145189057Y-93468914D01*
X145124131Y-93440190D01*
X145116413Y-93433088D01*
X143053237Y-91369912D01*
X143053232Y-91369908D01*
X142951768Y-91311328D01*
X142951766Y-91311327D01*
X142951764Y-91311326D01*
X142951757Y-91311324D01*
X142902806Y-91298207D01*
X142842184Y-91261255D01*
X142811163Y-91197394D01*
X142819593Y-91126899D01*
X142864796Y-91072153D01*
X142932422Y-91050537D01*
X142935358Y-91050501D01*
X152435374Y-91050503D01*
X152435378Y-91050505D01*
X152522975Y-91050505D01*
X152539566Y-91052688D01*
X152556152Y-91050505D01*
X152557037Y-91050505D01*
X152572173Y-91041766D01*
X152615988Y-91030027D01*
X152684511Y-90990466D01*
X153837567Y-89837414D01*
X153899879Y-89803389D01*
X153926662Y-89800510D01*
X162073500Y-89800510D01*
X162141621Y-89820512D01*
G37*
%TD.AperFunction*%
%TA.AperFunction,Conductor*%
G36*
X134694075Y-117187007D02*
G01*
X134660000Y-117314174D01*
X134660000Y-117445826D01*
X134694075Y-117572993D01*
X134729297Y-117634000D01*
X133050703Y-117634000D01*
X133085925Y-117572993D01*
X133120000Y-117445826D01*
X133120000Y-117314174D01*
X133085925Y-117187007D01*
X133050703Y-117126000D01*
X134729297Y-117126000D01*
X134694075Y-117187007D01*
G37*
%TD.AperFunction*%
%TA.AperFunction,Conductor*%
G36*
X132874000Y-116949297D02*
G01*
X132812993Y-116914075D01*
X132685826Y-116880000D01*
X132554174Y-116880000D01*
X132427007Y-116914075D01*
X132366000Y-116949297D01*
X132366000Y-115270702D01*
X132427007Y-115305925D01*
X132554174Y-115340000D01*
X132685826Y-115340000D01*
X132812993Y-115305925D01*
X132874000Y-115270702D01*
X132874000Y-116949297D01*
G37*
%TD.AperFunction*%
%TA.AperFunction,Conductor*%
G36*
X155015060Y-102763752D02*
G01*
X155036034Y-102780655D01*
X158864314Y-106608935D01*
X158898340Y-106671247D01*
X158893275Y-106742062D01*
X158887487Y-106755231D01*
X158851420Y-106826017D01*
X158797698Y-106991357D01*
X158797697Y-106991360D01*
X158797697Y-106991362D01*
X158770500Y-107163074D01*
X158770500Y-107336926D01*
X158797697Y-107508638D01*
X158797698Y-107508642D01*
X158833912Y-107620099D01*
X158851420Y-107673981D01*
X158930347Y-107828884D01*
X158930349Y-107828887D01*
X159032536Y-107969535D01*
X159155464Y-108092463D01*
X159199673Y-108124583D01*
X159296116Y-108194653D01*
X159451019Y-108273580D01*
X159616362Y-108327303D01*
X159788074Y-108354500D01*
X159788077Y-108354500D01*
X160211923Y-108354500D01*
X160211926Y-108354500D01*
X160383638Y-108327303D01*
X160460435Y-108302349D01*
X160531401Y-108300322D01*
X160588465Y-108333087D01*
X160818824Y-108563446D01*
X160876743Y-108621364D01*
X160910768Y-108683677D01*
X160905704Y-108754492D01*
X160863157Y-108811328D01*
X160796637Y-108836139D01*
X160727263Y-108821048D01*
X160713589Y-108812398D01*
X160710444Y-108810113D01*
X160703884Y-108805347D01*
X160548981Y-108726420D01*
X160548978Y-108726419D01*
X160548976Y-108726418D01*
X160383642Y-108672698D01*
X160383640Y-108672697D01*
X160383638Y-108672697D01*
X160211926Y-108645500D01*
X159788074Y-108645500D01*
X159616362Y-108672697D01*
X159616360Y-108672697D01*
X159616357Y-108672698D01*
X159451023Y-108726418D01*
X159451017Y-108726421D01*
X159296112Y-108805349D01*
X159155464Y-108907536D01*
X159032536Y-109030464D01*
X158930349Y-109171112D01*
X158930347Y-109171116D01*
X158885751Y-109258642D01*
X158864829Y-109299703D01*
X158816081Y-109351318D01*
X158752562Y-109368500D01*
X158341959Y-109368500D01*
X158341943Y-109368499D01*
X158334225Y-109368499D01*
X158233775Y-109368499D01*
X158185261Y-109381498D01*
X158136745Y-109394498D01*
X158049756Y-109444721D01*
X158049746Y-109444729D01*
X153326882Y-114167595D01*
X153264570Y-114201621D01*
X153237787Y-114204500D01*
X150864213Y-114204500D01*
X150796092Y-114184498D01*
X150775118Y-114167595D01*
X148928405Y-112320882D01*
X148894379Y-112258570D01*
X148891500Y-112231787D01*
X148891500Y-110206456D01*
X148911502Y-110138335D01*
X148917529Y-110129763D01*
X148994355Y-110029643D01*
X149050228Y-109894754D01*
X149069285Y-109750000D01*
X149065434Y-109720752D01*
X149050228Y-109605247D01*
X149050228Y-109605246D01*
X148994355Y-109470358D01*
X148905474Y-109354526D01*
X148905472Y-109354524D01*
X148905471Y-109354523D01*
X148789649Y-109265649D01*
X148789641Y-109265644D01*
X148654752Y-109209771D01*
X148510000Y-109190715D01*
X148365247Y-109209771D01*
X148297802Y-109237708D01*
X148230358Y-109265645D01*
X148230357Y-109265646D01*
X148230351Y-109265649D01*
X148130248Y-109342462D01*
X148064028Y-109368063D01*
X148053544Y-109368500D01*
X140199775Y-109368500D01*
X140140390Y-109384412D01*
X140102741Y-109394500D01*
X140015756Y-109444721D01*
X140015746Y-109444729D01*
X135682925Y-113777550D01*
X135620613Y-113811576D01*
X135549797Y-113806511D01*
X135548314Y-113805947D01*
X135463557Y-113773112D01*
X135396486Y-113760574D01*
X135262347Y-113735500D01*
X135057653Y-113735500D01*
X134957048Y-113754306D01*
X134856442Y-113773112D01*
X134771684Y-113805948D01*
X134700937Y-113811904D01*
X134638202Y-113778666D01*
X134637151Y-113777629D01*
X133685839Y-112826316D01*
X133651816Y-112764007D01*
X133653747Y-112702743D01*
X133675606Y-112625915D01*
X133710345Y-112503821D01*
X133729232Y-112300000D01*
X134050768Y-112300000D01*
X134069654Y-112503819D01*
X134125671Y-112700698D01*
X134125672Y-112700701D01*
X134216912Y-112883935D01*
X134216913Y-112883936D01*
X134340266Y-113047284D01*
X134491536Y-113185185D01*
X134665566Y-113292940D01*
X134665568Y-113292940D01*
X134665573Y-113292944D01*
X134856444Y-113366888D01*
X135057653Y-113404500D01*
X135057655Y-113404500D01*
X135262345Y-113404500D01*
X135262347Y-113404500D01*
X135463556Y-113366888D01*
X135654427Y-113292944D01*
X135828462Y-113185186D01*
X135979732Y-113047285D01*
X136103088Y-112883935D01*
X136194328Y-112700701D01*
X136250345Y-112503821D01*
X136269232Y-112300000D01*
X136267747Y-112283977D01*
X136250345Y-112096180D01*
X136250345Y-112096179D01*
X136194328Y-111899299D01*
X136103088Y-111716065D01*
X136050103Y-111645901D01*
X135979733Y-111552715D01*
X135828463Y-111414814D01*
X135654433Y-111307059D01*
X135654428Y-111307057D01*
X135654427Y-111307056D01*
X135507376Y-111250088D01*
X135463559Y-111233113D01*
X135463560Y-111233113D01*
X135463557Y-111233112D01*
X135463556Y-111233112D01*
X135262347Y-111195500D01*
X135057653Y-111195500D01*
X134856444Y-111233112D01*
X134856439Y-111233113D01*
X134665577Y-111307054D01*
X134665566Y-111307059D01*
X134491536Y-111414814D01*
X134340266Y-111552715D01*
X134216913Y-111716063D01*
X134125671Y-111899301D01*
X134069654Y-112096180D01*
X134050768Y-112299995D01*
X134050768Y-112300000D01*
X133729232Y-112300000D01*
X133727747Y-112283977D01*
X133710345Y-112096180D01*
X133710345Y-112096179D01*
X133654328Y-111899299D01*
X133563088Y-111716065D01*
X133461607Y-111581682D01*
X133436517Y-111515266D01*
X133451317Y-111445830D01*
X133501308Y-111395417D01*
X133562157Y-111379750D01*
X133836221Y-111379750D01*
X133836237Y-111379751D01*
X133843955Y-111379751D01*
X133936045Y-111379751D01*
X133980522Y-111367833D01*
X134024996Y-111355916D01*
X134024996Y-111355915D01*
X134024999Y-111355915D01*
X134054190Y-111339061D01*
X134104752Y-111309870D01*
X134169870Y-111244752D01*
X134180237Y-111234385D01*
X134180244Y-111234375D01*
X134604711Y-110809908D01*
X134667021Y-110775884D01*
X134737836Y-110780949D01*
X134739292Y-110781503D01*
X134856444Y-110826888D01*
X135057653Y-110864500D01*
X135057655Y-110864500D01*
X135262345Y-110864500D01*
X135262347Y-110864500D01*
X135463556Y-110826888D01*
X135654427Y-110752944D01*
X135828462Y-110645186D01*
X135979732Y-110507285D01*
X136103088Y-110343935D01*
X136194328Y-110160701D01*
X136250345Y-109963821D01*
X136269232Y-109760000D01*
X136268305Y-109750000D01*
X136250345Y-109556180D01*
X136236066Y-109505995D01*
X136194328Y-109359299D01*
X136103088Y-109176065D01*
X136035386Y-109086413D01*
X135979733Y-109012715D01*
X135828463Y-108874814D01*
X135654433Y-108767059D01*
X135654425Y-108767055D01*
X135591589Y-108742712D01*
X135535295Y-108699452D01*
X135511325Y-108632624D01*
X135527290Y-108563446D01*
X135578121Y-108513881D01*
X135596196Y-108506048D01*
X135707365Y-108467884D01*
X135707371Y-108467881D01*
X135905298Y-108360769D01*
X135925688Y-108344898D01*
X135284947Y-107704157D01*
X135352993Y-107685925D01*
X135467007Y-107620099D01*
X135560099Y-107527007D01*
X135625925Y-107412993D01*
X135644158Y-107344947D01*
X136283077Y-107983866D01*
X136358419Y-107868548D01*
X136448820Y-107662456D01*
X136448823Y-107662449D01*
X136504067Y-107444292D01*
X136522653Y-107220000D01*
X136504067Y-106995707D01*
X136448823Y-106777550D01*
X136448820Y-106777543D01*
X136358419Y-106571451D01*
X136283077Y-106456132D01*
X135644157Y-107095051D01*
X135625925Y-107027007D01*
X135560099Y-106912993D01*
X135467007Y-106819901D01*
X135352993Y-106754075D01*
X135284947Y-106735841D01*
X135699725Y-106321063D01*
X135756206Y-106288453D01*
X135802999Y-106275915D01*
X135832190Y-106259061D01*
X135882752Y-106229870D01*
X135947870Y-106164752D01*
X135958237Y-106154385D01*
X135958244Y-106154376D01*
X136029968Y-106082653D01*
X136092280Y-106048629D01*
X136119062Y-106045750D01*
X137024323Y-106045750D01*
X137092444Y-106065752D01*
X137106838Y-106076528D01*
X137112224Y-106081195D01*
X137112225Y-106081196D01*
X137234268Y-106159629D01*
X137373464Y-106200500D01*
X137518536Y-106200500D01*
X137657732Y-106159629D01*
X137779775Y-106081196D01*
X137874777Y-105971558D01*
X137935042Y-105839596D01*
X137955688Y-105696000D01*
X137935042Y-105552404D01*
X137874777Y-105420442D01*
X137861795Y-105405460D01*
X137854475Y-105397012D01*
X137824982Y-105332431D01*
X137835086Y-105262157D01*
X137881579Y-105208502D01*
X137949700Y-105188500D01*
X140306943Y-105188500D01*
X140306945Y-105188500D01*
X140436274Y-105153847D01*
X140552227Y-105086901D01*
X140921724Y-104717403D01*
X140984035Y-104683380D01*
X141010818Y-104680500D01*
X142356182Y-104680500D01*
X142424303Y-104700502D01*
X142445277Y-104717405D01*
X142619474Y-104891602D01*
X142653500Y-104953914D01*
X142648435Y-105024729D01*
X142605888Y-105081565D01*
X142539368Y-105106376D01*
X142484862Y-105098188D01*
X142306559Y-105029113D01*
X142306560Y-105029113D01*
X142306557Y-105029112D01*
X142306556Y-105029112D01*
X142105347Y-104991500D01*
X141900653Y-104991500D01*
X141699444Y-105029112D01*
X141699439Y-105029113D01*
X141508577Y-105103054D01*
X141508566Y-105103059D01*
X141334536Y-105210814D01*
X141183266Y-105348715D01*
X141059913Y-105512063D01*
X140968671Y-105695301D01*
X140912654Y-105892180D01*
X140893768Y-106095995D01*
X140893768Y-106096004D01*
X140912654Y-106299819D01*
X140951192Y-106435266D01*
X140968672Y-106496701D01*
X141059912Y-106679935D01*
X141080186Y-106706783D01*
X141183266Y-106843284D01*
X141334536Y-106981185D01*
X141508566Y-107088940D01*
X141508568Y-107088940D01*
X141508573Y-107088944D01*
X141699444Y-107162888D01*
X141900653Y-107200500D01*
X141900655Y-107200500D01*
X142105345Y-107200500D01*
X142105347Y-107200500D01*
X142306556Y-107162888D01*
X142497427Y-107088944D01*
X142671462Y-106981186D01*
X142822732Y-106843285D01*
X142946088Y-106679935D01*
X143037328Y-106496701D01*
X143093345Y-106299821D01*
X143105861Y-106164752D01*
X143112232Y-106096004D01*
X143112232Y-106095995D01*
X143093345Y-105892180D01*
X143078811Y-105841099D01*
X143037328Y-105695299D01*
X142998944Y-105618215D01*
X142986485Y-105548322D01*
X143013792Y-105482787D01*
X143072194Y-105442418D01*
X143143151Y-105440032D01*
X143200829Y-105472956D01*
X143437376Y-105709503D01*
X143471400Y-105771814D01*
X143469470Y-105833077D01*
X143452655Y-105892176D01*
X143452654Y-105892184D01*
X143433768Y-106095995D01*
X143433768Y-106096004D01*
X143452654Y-106299819D01*
X143491192Y-106435266D01*
X143508672Y-106496701D01*
X143599912Y-106679935D01*
X143620186Y-106706783D01*
X143723266Y-106843284D01*
X143874536Y-106981185D01*
X144048566Y-107088940D01*
X144048568Y-107088940D01*
X144048573Y-107088944D01*
X144239444Y-107162888D01*
X144440653Y-107200500D01*
X144440655Y-107200500D01*
X144645345Y-107200500D01*
X144645347Y-107200500D01*
X144846556Y-107162888D01*
X145037427Y-107088944D01*
X145211462Y-106981186D01*
X145362732Y-106843285D01*
X145389639Y-106807655D01*
X145439440Y-106741707D01*
X145486088Y-106679935D01*
X145486208Y-106679693D01*
X145486296Y-106679598D01*
X145489155Y-106674982D01*
X145490057Y-106675541D01*
X145534474Y-106627630D01*
X145603228Y-106609925D01*
X145670639Y-106632202D01*
X145715305Y-106687387D01*
X145725000Y-106735854D01*
X145725000Y-106994597D01*
X145731505Y-107055093D01*
X145782555Y-107191964D01*
X145782555Y-107191965D01*
X145870095Y-107308904D01*
X145987034Y-107396444D01*
X146123906Y-107447494D01*
X146184402Y-107453999D01*
X146184415Y-107454000D01*
X146829000Y-107454000D01*
X146829000Y-106526702D01*
X146890007Y-106561925D01*
X147017174Y-106596000D01*
X147148826Y-106596000D01*
X147275993Y-106561925D01*
X147337000Y-106526702D01*
X147337000Y-107454000D01*
X147981585Y-107454000D01*
X147981597Y-107453999D01*
X148042093Y-107447494D01*
X148178964Y-107396444D01*
X148178965Y-107396444D01*
X148295904Y-107308904D01*
X148383444Y-107191965D01*
X148383444Y-107191964D01*
X148434494Y-107055093D01*
X148440999Y-106994597D01*
X148441000Y-106994585D01*
X148441000Y-106350000D01*
X147513703Y-106350000D01*
X147548925Y-106288993D01*
X147583000Y-106161826D01*
X147583000Y-106030174D01*
X147548925Y-105903007D01*
X147513703Y-105842000D01*
X148441000Y-105842000D01*
X148441000Y-105297811D01*
X148461002Y-105229690D01*
X148514658Y-105183197D01*
X148584932Y-105173093D01*
X148649512Y-105202587D01*
X148656095Y-105208716D01*
X148743345Y-105295966D01*
X148777371Y-105358278D01*
X148780250Y-105385061D01*
X148780250Y-108182220D01*
X148780249Y-108182238D01*
X148780249Y-108282048D01*
X148804082Y-108370993D01*
X148804086Y-108371003D01*
X148813946Y-108388078D01*
X148813947Y-108388084D01*
X148813949Y-108388084D01*
X148813950Y-108388085D01*
X148850130Y-108450752D01*
X148850133Y-108450755D01*
X148850136Y-108450759D01*
X148922423Y-108523046D01*
X148922437Y-108523058D01*
X150115719Y-109716340D01*
X150115740Y-109716363D01*
X150185243Y-109785866D01*
X150185246Y-109785868D01*
X150185248Y-109785870D01*
X150220195Y-109806046D01*
X150265001Y-109831915D01*
X150353954Y-109855750D01*
X150353955Y-109855750D01*
X151040285Y-109855750D01*
X151108406Y-109875752D01*
X151153075Y-109925587D01*
X151234908Y-110089930D01*
X151234912Y-110089935D01*
X151358266Y-110253284D01*
X151509538Y-110391186D01*
X151509539Y-110391187D01*
X151612395Y-110454873D01*
X151659783Y-110507740D01*
X151671066Y-110577834D01*
X151642662Y-110642901D01*
X151583589Y-110682283D01*
X151546065Y-110688000D01*
X151279402Y-110688000D01*
X151218906Y-110694505D01*
X151082035Y-110745555D01*
X151082034Y-110745555D01*
X150965095Y-110833095D01*
X150877555Y-110950034D01*
X150877555Y-110950035D01*
X150826505Y-111086906D01*
X150820000Y-111147402D01*
X150820000Y-111792000D01*
X151747297Y-111792000D01*
X151712075Y-111853007D01*
X151678000Y-111980174D01*
X151678000Y-112111826D01*
X151712075Y-112238993D01*
X151747297Y-112300000D01*
X150820000Y-112300000D01*
X150820000Y-112944597D01*
X150826505Y-113005093D01*
X150877555Y-113141964D01*
X150877555Y-113141965D01*
X150965095Y-113258904D01*
X151082034Y-113346444D01*
X151218906Y-113397494D01*
X151279402Y-113403999D01*
X151279415Y-113404000D01*
X151924000Y-113404000D01*
X151924000Y-112476702D01*
X151985007Y-112511925D01*
X152112174Y-112546000D01*
X152243826Y-112546000D01*
X152370993Y-112511925D01*
X152432000Y-112476702D01*
X152432000Y-113404000D01*
X153076585Y-113404000D01*
X153076597Y-113403999D01*
X153137093Y-113397494D01*
X153273964Y-113346444D01*
X153273965Y-113346444D01*
X153390904Y-113258904D01*
X153478444Y-113141965D01*
X153478444Y-113141964D01*
X153529494Y-113005093D01*
X153535999Y-112944597D01*
X153536000Y-112944585D01*
X153536000Y-112300000D01*
X152608703Y-112300000D01*
X152643925Y-112238993D01*
X152678000Y-112111826D01*
X152678000Y-111980174D01*
X152643925Y-111853007D01*
X152608703Y-111792000D01*
X153536000Y-111792000D01*
X153536000Y-111147414D01*
X153535999Y-111147402D01*
X153529494Y-111086906D01*
X153478444Y-110950035D01*
X153478444Y-110950034D01*
X153390904Y-110833095D01*
X153273965Y-110745555D01*
X153137093Y-110694505D01*
X153076597Y-110688000D01*
X152809935Y-110688000D01*
X152741814Y-110667998D01*
X152695321Y-110614342D01*
X152685217Y-110544068D01*
X152714711Y-110479488D01*
X152743605Y-110454873D01*
X152846460Y-110391187D01*
X152846459Y-110391187D01*
X152846462Y-110391186D01*
X152997732Y-110253285D01*
X153121088Y-110089935D01*
X153212328Y-109906701D01*
X153268345Y-109709821D01*
X153278035Y-109605247D01*
X153287232Y-109506004D01*
X153287232Y-109505995D01*
X153268345Y-109302180D01*
X153268345Y-109302179D01*
X153212328Y-109105299D01*
X153121088Y-108922065D01*
X153080538Y-108868368D01*
X152997733Y-108758715D01*
X152846463Y-108620814D01*
X152672433Y-108513059D01*
X152672425Y-108513055D01*
X152609589Y-108488712D01*
X152553295Y-108445452D01*
X152529325Y-108378624D01*
X152545290Y-108309446D01*
X152596121Y-108259881D01*
X152614196Y-108252048D01*
X152725365Y-108213884D01*
X152725371Y-108213881D01*
X152923298Y-108106769D01*
X152943688Y-108090898D01*
X152302947Y-107450157D01*
X152370993Y-107431925D01*
X152485007Y-107366099D01*
X152578099Y-107273007D01*
X152643925Y-107158993D01*
X152662158Y-107090947D01*
X153301077Y-107729866D01*
X153376419Y-107614548D01*
X153466820Y-107408456D01*
X153466823Y-107408449D01*
X153522067Y-107190292D01*
X153540653Y-106966000D01*
X153522067Y-106741707D01*
X153466823Y-106523550D01*
X153466820Y-106523543D01*
X153376419Y-106317451D01*
X153301077Y-106202132D01*
X152662157Y-106841051D01*
X152643925Y-106773007D01*
X152578099Y-106658993D01*
X152485007Y-106565901D01*
X152370993Y-106500075D01*
X152302947Y-106481841D01*
X152943688Y-105841100D01*
X152943687Y-105841099D01*
X152923308Y-105825237D01*
X152923298Y-105825231D01*
X152725371Y-105718117D01*
X152725369Y-105718116D01*
X152614195Y-105679951D01*
X152556260Y-105638914D01*
X152529708Y-105573069D01*
X152542969Y-105503322D01*
X152591834Y-105451817D01*
X152609581Y-105443290D01*
X152672427Y-105418944D01*
X152846462Y-105311186D01*
X152997732Y-105173285D01*
X153121088Y-105009935D01*
X153212328Y-104826701D01*
X153268345Y-104629821D01*
X153287232Y-104426000D01*
X153285088Y-104402865D01*
X153268345Y-104222180D01*
X153268345Y-104222179D01*
X153212328Y-104025299D01*
X153121088Y-103842065D01*
X153080538Y-103788368D01*
X152997733Y-103678715D01*
X152846463Y-103540814D01*
X152672433Y-103433059D01*
X152672428Y-103433057D01*
X152672427Y-103433056D01*
X152481559Y-103359113D01*
X152481560Y-103359113D01*
X152481557Y-103359112D01*
X152481556Y-103359112D01*
X152280347Y-103321500D01*
X152075653Y-103321500D01*
X151874444Y-103359112D01*
X151874439Y-103359113D01*
X151683577Y-103433054D01*
X151683566Y-103433059D01*
X151509536Y-103540814D01*
X151358266Y-103678715D01*
X151234913Y-103842063D01*
X151143671Y-104025301D01*
X151087654Y-104222180D01*
X151068768Y-104425995D01*
X151068768Y-104426004D01*
X151087654Y-104629819D01*
X151118343Y-104737679D01*
X151143672Y-104826701D01*
X151234912Y-105009935D01*
X151234913Y-105009936D01*
X151358266Y-105173284D01*
X151509536Y-105311185D01*
X151683566Y-105418940D01*
X151683568Y-105418940D01*
X151683573Y-105418944D01*
X151705104Y-105427285D01*
X151746409Y-105443287D01*
X151802704Y-105486546D01*
X151826674Y-105553374D01*
X151810710Y-105622552D01*
X151759879Y-105672118D01*
X151741804Y-105679951D01*
X151630631Y-105718116D01*
X151630628Y-105718118D01*
X151432700Y-105825230D01*
X151432693Y-105825235D01*
X151412311Y-105841099D01*
X151412310Y-105841100D01*
X152053052Y-106481842D01*
X151985007Y-106500075D01*
X151870993Y-106565901D01*
X151777901Y-106658993D01*
X151712075Y-106773007D01*
X151693842Y-106841052D01*
X151054921Y-106202131D01*
X151054920Y-106202132D01*
X150979586Y-106317439D01*
X150979579Y-106317453D01*
X150889179Y-106523543D01*
X150889176Y-106523550D01*
X150833932Y-106741707D01*
X150815346Y-106966000D01*
X150833932Y-107190292D01*
X150889176Y-107408449D01*
X150889179Y-107408456D01*
X150979580Y-107614548D01*
X151054921Y-107729866D01*
X151693841Y-107090946D01*
X151712075Y-107158993D01*
X151777901Y-107273007D01*
X151870993Y-107366099D01*
X151985007Y-107431925D01*
X152053051Y-107450157D01*
X151412310Y-108090898D01*
X151432697Y-108106766D01*
X151432701Y-108106768D01*
X151630628Y-108213882D01*
X151630634Y-108213884D01*
X151741803Y-108252048D01*
X151799739Y-108293084D01*
X151826291Y-108358929D01*
X151813030Y-108428676D01*
X151764166Y-108480182D01*
X151746410Y-108488712D01*
X151683574Y-108513055D01*
X151683566Y-108513059D01*
X151509536Y-108620814D01*
X151358266Y-108758715D01*
X151234912Y-108922064D01*
X151234908Y-108922069D01*
X151153075Y-109086413D01*
X151104806Y-109138477D01*
X151040285Y-109156250D01*
X150597061Y-109156250D01*
X150528940Y-109136248D01*
X150507966Y-109119345D01*
X149516655Y-108128034D01*
X149482629Y-108065722D01*
X149479750Y-108038939D01*
X149479750Y-105244209D01*
X149479751Y-105244196D01*
X149479751Y-105141955D01*
X149479750Y-105141951D01*
X149455916Y-105053004D01*
X149455915Y-105053003D01*
X149455915Y-105053001D01*
X149409870Y-104973248D01*
X147639052Y-103202431D01*
X147639041Y-103202418D01*
X147566758Y-103130135D01*
X147566748Y-103130127D01*
X147516190Y-103100937D01*
X147516190Y-103100938D01*
X147486998Y-103084084D01*
X147486995Y-103084083D01*
X147398048Y-103060249D01*
X147398045Y-103060249D01*
X147305955Y-103060249D01*
X147298237Y-103060249D01*
X147298221Y-103060250D01*
X136102157Y-103060250D01*
X136034036Y-103040248D01*
X135987543Y-102986592D01*
X135977439Y-102916318D01*
X136001607Y-102858318D01*
X136050315Y-102793818D01*
X136107329Y-102751511D01*
X136150865Y-102743750D01*
X154946939Y-102743750D01*
X155015060Y-102763752D01*
G37*
%TD.AperFunction*%
%TA.AperFunction,Conductor*%
G36*
X147223060Y-103779752D02*
G01*
X147244034Y-103796655D01*
X147970284Y-104522905D01*
X148004310Y-104585217D01*
X147999245Y-104656032D01*
X147956698Y-104712868D01*
X147890178Y-104737679D01*
X147881189Y-104738000D01*
X147337000Y-104738000D01*
X147337000Y-105665297D01*
X147275993Y-105630075D01*
X147148826Y-105596000D01*
X147017174Y-105596000D01*
X146890007Y-105630075D01*
X146829000Y-105665297D01*
X146829000Y-104738000D01*
X146184402Y-104738000D01*
X146123906Y-104744505D01*
X145987035Y-104795555D01*
X145987034Y-104795555D01*
X145870095Y-104883095D01*
X145782555Y-105000034D01*
X145782555Y-105000035D01*
X145731505Y-105136906D01*
X145725000Y-105197402D01*
X145725000Y-105456145D01*
X145704998Y-105524266D01*
X145651342Y-105570759D01*
X145581068Y-105580863D01*
X145516488Y-105551369D01*
X145489630Y-105516723D01*
X145489155Y-105517018D01*
X145486360Y-105512505D01*
X145486211Y-105512312D01*
X145486087Y-105512063D01*
X145362733Y-105348715D01*
X145211463Y-105210814D01*
X145037433Y-105103059D01*
X145037428Y-105103057D01*
X145037427Y-105103056D01*
X145024861Y-105098188D01*
X144846559Y-105029113D01*
X144846560Y-105029113D01*
X144846557Y-105029112D01*
X144846556Y-105029112D01*
X144645347Y-104991500D01*
X144440653Y-104991500D01*
X144365060Y-105005630D01*
X144267484Y-105023870D01*
X144196847Y-105016725D01*
X144155239Y-104989112D01*
X143140973Y-103974845D01*
X143106948Y-103912533D01*
X143112013Y-103841717D01*
X143154560Y-103784882D01*
X143221080Y-103760071D01*
X143230069Y-103759750D01*
X147154939Y-103759750D01*
X147223060Y-103779752D01*
G37*
%TD.AperFunction*%
%TA.AperFunction,Conductor*%
G36*
X138333060Y-97683752D02*
G01*
X138354034Y-97700655D01*
X139701719Y-99048340D01*
X139701740Y-99048363D01*
X139771240Y-99117863D01*
X139771243Y-99117865D01*
X139771248Y-99117870D01*
X139851002Y-99163915D01*
X139876496Y-99170746D01*
X139916103Y-99181359D01*
X139916110Y-99181360D01*
X139916119Y-99181363D01*
X139939954Y-99187750D01*
X139939955Y-99187750D01*
X140929523Y-99187750D01*
X140997644Y-99207752D01*
X141044137Y-99261408D01*
X141054241Y-99331682D01*
X141047579Y-99357782D01*
X141031961Y-99399654D01*
X141031960Y-99399658D01*
X141025500Y-99459737D01*
X141025500Y-100756246D01*
X141025502Y-100756270D01*
X141031959Y-100816339D01*
X141031959Y-100816341D01*
X141082657Y-100952266D01*
X141082658Y-100952267D01*
X141169596Y-101068404D01*
X141285733Y-101155342D01*
X141421658Y-101206040D01*
X141481745Y-101212500D01*
X143028254Y-101212499D01*
X143088342Y-101206040D01*
X143224267Y-101155342D01*
X143340404Y-101068404D01*
X143427342Y-100952267D01*
X143478040Y-100816342D01*
X143484500Y-100756255D01*
X143484499Y-99459746D01*
X143478040Y-99399658D01*
X143462420Y-99357781D01*
X143457355Y-99286968D01*
X143491380Y-99224655D01*
X143553691Y-99190630D01*
X143580476Y-99187750D01*
X146490221Y-99187750D01*
X146490237Y-99187751D01*
X146497955Y-99187751D01*
X146590045Y-99187751D01*
X146678999Y-99163915D01*
X146714731Y-99143285D01*
X146758752Y-99117870D01*
X146823870Y-99052752D01*
X146834237Y-99042385D01*
X146834244Y-99042375D01*
X148033506Y-97843113D01*
X148095816Y-97809089D01*
X148166631Y-97814154D01*
X148223467Y-97856701D01*
X148248278Y-97923221D01*
X148233187Y-97992595D01*
X148230720Y-97996854D01*
X148150519Y-98154259D01*
X148150516Y-98154265D01*
X148101749Y-98304358D01*
X148096066Y-98321850D01*
X148068500Y-98495893D01*
X148068500Y-98672107D01*
X148096066Y-98846150D01*
X148096067Y-98846153D01*
X148149802Y-99011538D01*
X148150518Y-99013739D01*
X148230517Y-99170746D01*
X148287164Y-99248714D01*
X148334094Y-99313307D01*
X148458688Y-99437901D01*
X148458691Y-99437903D01*
X148458695Y-99437907D01*
X148575903Y-99523064D01*
X148619256Y-99579287D01*
X148625331Y-99650023D01*
X148592199Y-99712815D01*
X148530379Y-99747726D01*
X148501841Y-99751000D01*
X148274402Y-99751000D01*
X148213906Y-99757505D01*
X148077035Y-99808555D01*
X148077034Y-99808555D01*
X147960095Y-99896095D01*
X147872555Y-100013034D01*
X147872555Y-100013035D01*
X147821505Y-100149906D01*
X147815000Y-100210402D01*
X147815000Y-100870000D01*
X148895749Y-100870000D01*
X148862755Y-100927147D01*
X148828000Y-101056857D01*
X148828000Y-101191143D01*
X148862755Y-101320853D01*
X148895749Y-101378000D01*
X147815000Y-101378000D01*
X147815000Y-101918250D01*
X147794998Y-101986371D01*
X147741342Y-102032864D01*
X147689000Y-102044250D01*
X136375176Y-102044250D01*
X136307055Y-102024248D01*
X136260562Y-101970592D01*
X136251322Y-101941405D01*
X136250345Y-101936180D01*
X136250345Y-101936179D01*
X136194328Y-101739299D01*
X136103088Y-101556065D01*
X136062538Y-101502368D01*
X135979733Y-101392715D01*
X135828463Y-101254814D01*
X135654433Y-101147059D01*
X135654428Y-101147057D01*
X135654427Y-101147056D01*
X135580677Y-101118485D01*
X135463559Y-101073113D01*
X135463560Y-101073113D01*
X135463557Y-101073112D01*
X135463556Y-101073112D01*
X135262347Y-101035500D01*
X135057653Y-101035500D01*
X134856444Y-101073112D01*
X134856442Y-101073112D01*
X134856440Y-101073113D01*
X134739319Y-101118485D01*
X134668573Y-101124441D01*
X134605837Y-101091203D01*
X134604709Y-101090088D01*
X134177058Y-100662437D01*
X134177046Y-100662423D01*
X134104758Y-100590135D01*
X134104748Y-100590127D01*
X134054190Y-100560937D01*
X134054190Y-100560938D01*
X134024998Y-100544084D01*
X134024995Y-100544083D01*
X133936048Y-100520249D01*
X133936045Y-100520249D01*
X133843955Y-100520249D01*
X133836237Y-100520249D01*
X133836221Y-100520250D01*
X133562157Y-100520250D01*
X133494036Y-100500248D01*
X133447543Y-100446592D01*
X133437439Y-100376318D01*
X133461607Y-100318318D01*
X133509937Y-100254318D01*
X133563088Y-100183935D01*
X133654328Y-100000701D01*
X133710345Y-99803821D01*
X133718778Y-99712815D01*
X133729232Y-99600004D01*
X133729232Y-99599995D01*
X133710345Y-99396180D01*
X133710345Y-99396179D01*
X133654328Y-99199299D01*
X133563088Y-99016065D01*
X133500988Y-98933831D01*
X133439733Y-98852715D01*
X133288463Y-98714814D01*
X133249399Y-98690627D01*
X133202012Y-98637760D01*
X133190729Y-98567666D01*
X133219133Y-98502599D01*
X133278206Y-98463217D01*
X133315730Y-98457500D01*
X134464270Y-98457500D01*
X134532391Y-98477502D01*
X134578884Y-98531158D01*
X134588988Y-98601432D01*
X134559494Y-98666012D01*
X134530601Y-98690627D01*
X134491536Y-98714814D01*
X134340266Y-98852715D01*
X134216913Y-99016063D01*
X134125671Y-99199301D01*
X134069654Y-99396180D01*
X134050768Y-99599995D01*
X134050768Y-99600004D01*
X134069654Y-99803819D01*
X134125266Y-99999273D01*
X134125672Y-100000701D01*
X134216912Y-100183935D01*
X134216913Y-100183936D01*
X134340266Y-100347284D01*
X134491536Y-100485185D01*
X134665566Y-100592940D01*
X134665568Y-100592940D01*
X134665573Y-100592944D01*
X134856444Y-100666888D01*
X135057653Y-100704500D01*
X135057655Y-100704500D01*
X135262345Y-100704500D01*
X135262347Y-100704500D01*
X135463556Y-100666888D01*
X135654427Y-100592944D01*
X135828462Y-100485186D01*
X135979732Y-100347285D01*
X136103088Y-100183935D01*
X136194328Y-100000701D01*
X136250345Y-99803821D01*
X136258778Y-99712815D01*
X136269232Y-99600004D01*
X136269232Y-99599995D01*
X136250345Y-99396180D01*
X136250345Y-99396179D01*
X136194328Y-99199299D01*
X136103088Y-99016065D01*
X136040988Y-98933831D01*
X135979733Y-98852715D01*
X135828463Y-98714814D01*
X135789399Y-98690627D01*
X135742012Y-98637760D01*
X135730729Y-98567666D01*
X135759133Y-98502599D01*
X135818206Y-98463217D01*
X135855730Y-98457500D01*
X136981786Y-98457500D01*
X137049907Y-98477502D01*
X137070880Y-98494403D01*
X137107473Y-98530995D01*
X137141499Y-98593307D01*
X137143301Y-98603645D01*
X137159771Y-98728752D01*
X137215644Y-98863641D01*
X137215649Y-98863649D01*
X137304525Y-98979474D01*
X137406041Y-99057370D01*
X137420357Y-99068355D01*
X137555246Y-99124228D01*
X137700000Y-99143285D01*
X137844754Y-99124228D01*
X137979643Y-99068355D01*
X138095474Y-98979474D01*
X138184355Y-98863643D01*
X138240228Y-98728754D01*
X138259285Y-98584000D01*
X138240228Y-98439246D01*
X138184355Y-98304358D01*
X138095474Y-98188526D01*
X138095472Y-98188524D01*
X138095471Y-98188523D01*
X137979649Y-98099649D01*
X137979641Y-98099644D01*
X137844752Y-98043771D01*
X137719645Y-98027301D01*
X137654718Y-97998578D01*
X137646996Y-97991474D01*
X137534368Y-97878845D01*
X137500343Y-97816533D01*
X137505409Y-97745717D01*
X137547955Y-97688881D01*
X137614476Y-97664071D01*
X137623464Y-97663750D01*
X138264939Y-97663750D01*
X138333060Y-97683752D01*
G37*
%TD.AperFunction*%
%TA.AperFunction,Conductor*%
G36*
X131306803Y-92191002D02*
G01*
X131353296Y-92244658D01*
X131363400Y-92314932D01*
X131333906Y-92379512D01*
X131301682Y-92406119D01*
X131217487Y-92454728D01*
X131217481Y-92454732D01*
X131024628Y-92602714D01*
X131024607Y-92602733D01*
X130852733Y-92774607D01*
X130852714Y-92774628D01*
X130704732Y-92967481D01*
X130704728Y-92967487D01*
X130583187Y-93178003D01*
X130583182Y-93178014D01*
X130583181Y-93178016D01*
X130514892Y-93342879D01*
X130490150Y-93402612D01*
X130427229Y-93637436D01*
X130395500Y-93878447D01*
X130395500Y-94121552D01*
X130427229Y-94362563D01*
X130427230Y-94362569D01*
X130427231Y-94362571D01*
X130490150Y-94597388D01*
X130583181Y-94821984D01*
X130583182Y-94821985D01*
X130583187Y-94821996D01*
X130704728Y-95032512D01*
X130704732Y-95032518D01*
X130852714Y-95225371D01*
X130852733Y-95225392D01*
X131024607Y-95397266D01*
X131024628Y-95397285D01*
X131217481Y-95545267D01*
X131217487Y-95545271D01*
X131428003Y-95666812D01*
X131428014Y-95666818D01*
X131428016Y-95666819D01*
X131522224Y-95705841D01*
X131577505Y-95750390D01*
X131599926Y-95817753D01*
X131582368Y-95886544D01*
X131530406Y-95934922D01*
X131474006Y-95948250D01*
X127961677Y-95948250D01*
X127893556Y-95928248D01*
X127879162Y-95917472D01*
X127873775Y-95912804D01*
X127832914Y-95886544D01*
X127751732Y-95834371D01*
X127751731Y-95834370D01*
X127751730Y-95834370D01*
X127612536Y-95793500D01*
X127467464Y-95793500D01*
X127328269Y-95834370D01*
X127328266Y-95834372D01*
X127206225Y-95912803D01*
X127111223Y-96022441D01*
X127050958Y-96154403D01*
X127030312Y-96298000D01*
X127050958Y-96441596D01*
X127111223Y-96573558D01*
X127206225Y-96683196D01*
X127231484Y-96699429D01*
X127277977Y-96753085D01*
X127288080Y-96823359D01*
X127258588Y-96887939D01*
X127238223Y-96911441D01*
X127177958Y-97043403D01*
X127157312Y-97187000D01*
X127177958Y-97330596D01*
X127238223Y-97462558D01*
X127258525Y-97485988D01*
X127288018Y-97550569D01*
X127277914Y-97620843D01*
X127231421Y-97674498D01*
X127163300Y-97694500D01*
X126226213Y-97694500D01*
X126158092Y-97674498D01*
X126137118Y-97657595D01*
X126065842Y-97586319D01*
X126031816Y-97524007D01*
X126033747Y-97462743D01*
X126044777Y-97423976D01*
X126090345Y-97263821D01*
X126105595Y-97099248D01*
X126109232Y-97060004D01*
X126109232Y-97059995D01*
X126090345Y-96856180D01*
X126088160Y-96848499D01*
X126034328Y-96659299D01*
X125943088Y-96476065D01*
X125852066Y-96355532D01*
X125819733Y-96312715D01*
X125668463Y-96174814D01*
X125494433Y-96067059D01*
X125494425Y-96067055D01*
X125431589Y-96042712D01*
X125375295Y-95999452D01*
X125351325Y-95932624D01*
X125367290Y-95863446D01*
X125418121Y-95813881D01*
X125436196Y-95806048D01*
X125547365Y-95767884D01*
X125547371Y-95767881D01*
X125745298Y-95660769D01*
X125765688Y-95644898D01*
X125124947Y-95004157D01*
X125192993Y-94985925D01*
X125307007Y-94920099D01*
X125400099Y-94827007D01*
X125465925Y-94712993D01*
X125484158Y-94644947D01*
X126123077Y-95283866D01*
X126198419Y-95168548D01*
X126288820Y-94962456D01*
X126288823Y-94962449D01*
X126344067Y-94744292D01*
X126362653Y-94520000D01*
X126344067Y-94295707D01*
X126288823Y-94077550D01*
X126288820Y-94077543D01*
X126198419Y-93871451D01*
X126123077Y-93756132D01*
X125484157Y-94395051D01*
X125465925Y-94327007D01*
X125400099Y-94212993D01*
X125307007Y-94119901D01*
X125192993Y-94054075D01*
X125124947Y-94035841D01*
X125765688Y-93395100D01*
X125765687Y-93395099D01*
X125745308Y-93379237D01*
X125745298Y-93379231D01*
X125547371Y-93272117D01*
X125547369Y-93272116D01*
X125436195Y-93233951D01*
X125378260Y-93192914D01*
X125351708Y-93127069D01*
X125364969Y-93057322D01*
X125413834Y-93005817D01*
X125431581Y-92997290D01*
X125494427Y-92972944D01*
X125668462Y-92865186D01*
X125819732Y-92727285D01*
X125943088Y-92563935D01*
X126034328Y-92380701D01*
X126067954Y-92262518D01*
X126105835Y-92202472D01*
X126170165Y-92172438D01*
X126189144Y-92171000D01*
X131238682Y-92171000D01*
X131306803Y-92191002D01*
G37*
%TD.AperFunction*%
%TD*%
M02*
