G04*
G04 #@! TF.GenerationSoftware,Altium Limited,Altium Designer,24.0.1 (36)*
G04*
G04 Layer_Color=16711935*
%FSLAX25Y25*%
%MOIN*%
G70*
G04*
G04 #@! TF.SameCoordinates,1973DDD8-50FA-473A-AABA-CD6713E7F6C3*
G04*
G04*
G04 #@! TF.FilePolarity,Positive*
G04*
G01*
G75*
%ADD13C,0.00984*%
%ADD40C,0.11811*%
%ADD41R,0.32480X1.64370*%
D13*
X152559Y-4921D02*
Y144685D01*
X0Y0D02*
Y139764D01*
Y0D02*
X47244D01*
X52165Y4921D01*
X108268D01*
X118110Y-4921D01*
X152559D01*
X118110Y144685D02*
X152559D01*
X108268Y134843D02*
X118110Y144685D01*
X52165Y134843D02*
X108268D01*
X47244Y139764D02*
X52165Y134843D01*
X0Y139764D02*
X47244D01*
D40*
X39370Y126969D02*
X39285Y127967D01*
X39033Y128936D01*
X38620Y129849D01*
X38059Y130678D01*
X37366Y131402D01*
X36561Y131997D01*
X35666Y132448D01*
X34709Y132741D01*
X33715Y132869D01*
X32714Y132826D01*
X31735Y132615D01*
X30806Y132242D01*
X29953Y131717D01*
X29201Y131055D01*
X28572Y130275D01*
X28083Y129401D01*
X27750Y128457D01*
X27580Y127469D01*
Y126468D01*
X27750Y125480D01*
X28083Y124536D01*
X28572Y123662D01*
X29201Y122882D01*
X29953Y122221D01*
X30806Y121695D01*
X31735Y121322D01*
X32714Y121111D01*
X33715Y121068D01*
X34709Y121196D01*
X35666Y121489D01*
X36561Y121940D01*
X37366Y122536D01*
X38059Y123259D01*
X38620Y124089D01*
X39033Y125001D01*
X39285Y125970D01*
X39370Y126969D01*
Y12795D02*
X39285Y13793D01*
X39033Y14763D01*
X38620Y15675D01*
X38059Y16505D01*
X37366Y17229D01*
X36561Y17824D01*
X35666Y18275D01*
X34709Y18568D01*
X33715Y18696D01*
X32714Y18653D01*
X31735Y18442D01*
X30806Y18068D01*
X29953Y17543D01*
X29201Y16882D01*
X28572Y16102D01*
X28083Y15228D01*
X27750Y14283D01*
X27580Y13296D01*
Y12295D01*
X27750Y11307D01*
X28083Y10363D01*
X28572Y9488D01*
X29201Y8709D01*
X29953Y8047D01*
X30806Y7522D01*
X31735Y7149D01*
X32714Y6938D01*
X33715Y6895D01*
X34709Y7022D01*
X35666Y7316D01*
X36561Y7767D01*
X37366Y8362D01*
X38059Y9085D01*
X38620Y9915D01*
X39033Y10828D01*
X39285Y11797D01*
X39370Y12795D01*
D41*
X169783Y71358D02*
D03*
M02*
