%TF.GenerationSoftware,KiCad,Pcbnew,8.0.1*%
%TF.CreationDate,2024-09-10T00:04:25-04:00*%
%TF.ProjectId,SmartLED_Shield_Breakout,536d6172-744c-4454-945f-536869656c64,1.1*%
%TF.SameCoordinates,Original*%
%TF.FileFunction,Copper,L1,Top*%
%TF.FilePolarity,Positive*%
%FSLAX46Y46*%
G04 Gerber Fmt 4.6, Leading zero omitted, Abs format (unit mm)*
G04 Created by KiCad (PCBNEW 8.0.1) date 2024-09-10 00:04:25*
%MOMM*%
%LPD*%
G01*
G04 APERTURE LIST*
G04 Aperture macros list*
%AMRoundRect*
0 Rectangle with rounded corners*
0 $1 Rounding radius*
0 $2 $3 $4 $5 $6 $7 $8 $9 X,Y pos of 4 corners*
0 Add a 4 corners polygon primitive as box body*
4,1,4,$2,$3,$4,$5,$6,$7,$8,$9,$2,$3,0*
0 Add four circle primitives for the rounded corners*
1,1,$1+$1,$2,$3*
1,1,$1+$1,$4,$5*
1,1,$1+$1,$6,$7*
1,1,$1+$1,$8,$9*
0 Add four rect primitives between the rounded corners*
20,1,$1+$1,$2,$3,$4,$5,0*
20,1,$1+$1,$4,$5,$6,$7,0*
20,1,$1+$1,$6,$7,$8,$9,0*
20,1,$1+$1,$8,$9,$2,$3,0*%
G04 Aperture macros list end*
%TA.AperFunction,Conductor*%
%ADD10C,0.000000*%
%TD*%
%TA.AperFunction,SMDPad,CuDef*%
%ADD11RoundRect,0.225000X0.375000X-0.225000X0.375000X0.225000X-0.375000X0.225000X-0.375000X-0.225000X0*%
%TD*%
%TA.AperFunction,ComponentPad*%
%ADD12O,2.030000X1.730000*%
%TD*%
%TA.AperFunction,ComponentPad*%
%ADD13R,2.030000X1.730000*%
%TD*%
%TA.AperFunction,ComponentPad*%
%ADD14R,1.700000X1.700000*%
%TD*%
%TA.AperFunction,ComponentPad*%
%ADD15O,1.700000X1.700000*%
%TD*%
%TA.AperFunction,ComponentPad*%
%ADD16O,1.950000X1.700000*%
%TD*%
%TA.AperFunction,ComponentPad*%
%ADD17RoundRect,0.250000X0.725000X-0.600000X0.725000X0.600000X-0.725000X0.600000X-0.725000X-0.600000X0*%
%TD*%
%TA.AperFunction,SMDPad,CuDef*%
%ADD18RoundRect,0.250000X0.350000X0.450000X-0.350000X0.450000X-0.350000X-0.450000X0.350000X-0.450000X0*%
%TD*%
%TA.AperFunction,SMDPad,CuDef*%
%ADD19RoundRect,0.250000X-0.325000X-0.450000X0.325000X-0.450000X0.325000X0.450000X-0.325000X0.450000X0*%
%TD*%
%TA.AperFunction,SMDPad,CuDef*%
%ADD20RoundRect,0.250000X0.450000X-0.350000X0.450000X0.350000X-0.450000X0.350000X-0.450000X-0.350000X0*%
%TD*%
%TA.AperFunction,SMDPad,CuDef*%
%ADD21RoundRect,0.250000X0.337500X0.475000X-0.337500X0.475000X-0.337500X-0.475000X0.337500X-0.475000X0*%
%TD*%
%TA.AperFunction,SMDPad,CuDef*%
%ADD22RoundRect,0.250000X-0.450000X0.350000X-0.450000X-0.350000X0.450000X-0.350000X0.450000X0.350000X0*%
%TD*%
%TA.AperFunction,ComponentPad*%
%ADD23R,3.000000X3.000000*%
%TD*%
%TA.AperFunction,ComponentPad*%
%ADD24C,3.000000*%
%TD*%
%TA.AperFunction,ViaPad*%
%ADD25C,0.500000*%
%TD*%
%TA.AperFunction,ViaPad*%
%ADD26C,0.600000*%
%TD*%
%TA.AperFunction,Conductor*%
%ADD27C,0.381000*%
%TD*%
%TA.AperFunction,Conductor*%
%ADD28C,0.254000*%
%TD*%
%TA.AperFunction,Conductor*%
%ADD29C,0.190500*%
%TD*%
G04 APERTURE END LIST*
D10*
%TA.AperFunction,Conductor*%
%TO.N,unconnected-(T1-Pin_1-Pad1)*%
G36*
X125749990Y-125750130D02*
G01*
X124249870Y-125750130D01*
X124249870Y-124250010D01*
X125749990Y-124250010D01*
X125749990Y-125750130D01*
G37*
%TD.AperFunction*%
%TA.AperFunction,Conductor*%
G36*
X125749990Y-125750130D02*
G01*
X124249870Y-125750130D01*
X124249870Y-124250010D01*
X125749990Y-124250010D01*
X125749990Y-125750130D01*
G37*
%TD.AperFunction*%
%TD*%
D11*
%TO.P,D1,1,K*%
%TO.N,Net-(D1-K)*%
X154718000Y-94520000D03*
%TO.P,D1,2,A*%
%TO.N,+5V*%
X154718000Y-91220000D03*
%TD*%
D12*
%TO.P,J1,4,Pin_4*%
%TO.N,/TIO23*%
X149338000Y-93504000D03*
%TO.P,J1,3,Pin_3*%
%TO.N,/TIO22*%
X149338000Y-96044000D03*
%TO.P,J1,2,Pin_2*%
%TO.N,Net-(D1-K)*%
X149338000Y-98584000D03*
D13*
%TO.P,J1,1,Pin_1*%
%TO.N,GND*%
X149338000Y-101124000D03*
%TD*%
D14*
%TO.P,J4,1,Pin_1*%
%TO.N,GND*%
X147083000Y-106096000D03*
D15*
%TO.P,J4,2,Pin_2*%
%TO.N,+3V3*%
X144543000Y-106096000D03*
%TO.P,J4,3,Pin_3*%
%TO.N,/A0*%
X142003000Y-106096000D03*
%TD*%
D16*
%TO.P,J2,3,Pin_3*%
%TO.N,GND*%
X142255000Y-95108000D03*
%TO.P,J2,2,Pin_2*%
%TO.N,+3V3*%
X142255000Y-97608000D03*
D17*
%TO.P,J2,1,Pin_1*%
%TO.N,/A1*%
X142255000Y-100108000D03*
%TD*%
D14*
%TO.P,P1,1,Pin_1*%
%TO.N,GND*%
X135160000Y-117380000D03*
D15*
%TO.P,P1,2,Pin_2*%
X132620000Y-117380000D03*
%TO.P,P1,3,Pin_3*%
%TO.N,+3V3*%
X135160000Y-114840000D03*
%TO.P,P1,4,Pin_4*%
%TO.N,GND*%
X132620000Y-114840000D03*
%TO.P,P1,5,Pin_5*%
%TO.N,Net-(P1-Pin_5)*%
X135160000Y-112300000D03*
%TO.P,P1,6,Pin_6*%
%TO.N,+3V3*%
X132620000Y-112300000D03*
%TO.P,P1,7,Pin_7*%
%TO.N,Net-(P1-Pin_7)*%
X135160000Y-109760000D03*
%TO.P,P1,8,Pin_8*%
%TO.N,+3V3*%
X132620000Y-109760000D03*
%TO.P,P1,9,Pin_9*%
%TO.N,GND*%
X135160000Y-107220000D03*
%TO.P,P1,10,Pin_10*%
%TO.N,+5V*%
X132620000Y-107220000D03*
%TO.P,P1,11,Pin_11*%
%TO.N,+3V3*%
X135160000Y-104680000D03*
%TO.P,P1,12,Pin_12*%
%TO.N,+5V*%
X132620000Y-104680000D03*
%TO.P,P1,13,Pin_13*%
%TO.N,/SCL0*%
X135160000Y-102140000D03*
%TO.P,P1,14,Pin_14*%
%TO.N,unconnected-(P1-Pin_14-Pad14)*%
X132620000Y-102140000D03*
%TO.P,P1,15,Pin_15*%
%TO.N,/SDA0*%
X135160000Y-99600000D03*
%TO.P,P1,16,Pin_16*%
%TO.N,unconnected-(P1-Pin_16-Pad16)*%
X132620000Y-99600000D03*
%TD*%
D17*
%TO.P,I2C1,1,Pin_1*%
%TO.N,GND*%
X160000000Y-99500000D03*
D16*
%TO.P,I2C1,2,Pin_2*%
%TO.N,+3V3*%
X160000000Y-97000000D03*
%TO.P,I2C1,3,Pin_3*%
%TO.N,/SCL0*%
X160000000Y-94500000D03*
%TO.P,I2C1,4,Pin_4*%
%TO.N,/SDA0*%
X160000000Y-92000000D03*
%TD*%
D17*
%TO.P,I2C3,1,Pin_1*%
%TO.N,GND*%
X160000000Y-125000000D03*
D16*
%TO.P,I2C3,2,Pin_2*%
%TO.N,+3V3*%
X160000000Y-122500000D03*
%TO.P,I2C3,3,Pin_3*%
%TO.N,/SCL0*%
X160000000Y-120000000D03*
%TO.P,I2C3,4,Pin_4*%
%TO.N,/SDA0*%
X160000000Y-117500000D03*
%TD*%
D18*
%TO.P,R6,1*%
%TO.N,+5V*%
X146970000Y-109252000D03*
%TO.P,R6,2*%
%TO.N,Net-(LED2-A)*%
X144970000Y-109252000D03*
%TD*%
D19*
%TO.P,LED1,1,K*%
%TO.N,GND*%
X141135000Y-111284000D03*
%TO.P,LED1,2,A*%
%TO.N,Net-(LED1-A)*%
X143185000Y-111284000D03*
%TD*%
D20*
%TO.P,R3,1*%
%TO.N,/TX4*%
X128048000Y-115078000D03*
%TO.P,R3,2*%
%TO.N,Net-(P1-Pin_7)*%
X128048000Y-113078000D03*
%TD*%
D14*
%TO.P,T1,1,Pin_1*%
%TO.N,unconnected-(T1-Pin_1-Pad1)*%
X125000000Y-125000000D03*
D15*
%TO.P,T1,2,Pin_2*%
%TO.N,/A0*%
X125000000Y-122460000D03*
%TO.P,T1,3,Pin_3*%
%TO.N,/A1*%
X125000000Y-119920000D03*
%TO.P,T1,4,Pin_4*%
%TO.N,/RX4*%
X125000000Y-117380000D03*
%TO.P,T1,5,Pin_5*%
%TO.N,/TX4*%
X125000000Y-114840000D03*
%TO.P,T1,6,Pin_6*%
%TO.N,/SDA0*%
X125000000Y-112300000D03*
%TO.P,T1,7,Pin_7*%
%TO.N,/SCL0*%
X125000000Y-109760000D03*
%TO.P,T1,8,Pin_8*%
%TO.N,/TIO20*%
X125000000Y-107220000D03*
%TO.P,T1,9,Pin_9*%
%TO.N,/TIO21*%
X125000000Y-104680000D03*
%TO.P,T1,10,Pin_10*%
%TO.N,/TIO22*%
X125000000Y-102140000D03*
%TO.P,T1,11,Pin_11*%
%TO.N,/TIO23*%
X125000000Y-99600000D03*
%TO.P,T1,12,Pin_12*%
%TO.N,+3V3*%
X125000000Y-97060000D03*
%TO.P,T1,13,Pin_13*%
%TO.N,GND*%
X125000000Y-94520000D03*
%TO.P,T1,14,Pin_14*%
%TO.N,+5V*%
X125000000Y-91980000D03*
%TD*%
D18*
%TO.P,R5,1*%
%TO.N,+3V3*%
X146970000Y-111284000D03*
%TO.P,R5,2*%
%TO.N,Net-(LED1-A)*%
X144970000Y-111284000D03*
%TD*%
D21*
%TO.P,C4,1*%
%TO.N,+5V*%
X153865500Y-115250000D03*
%TO.P,C4,2*%
%TO.N,GND*%
X151790500Y-115250000D03*
%TD*%
%TO.P,C3,1*%
%TO.N,+5V*%
X153865500Y-117750000D03*
%TO.P,C3,2*%
%TO.N,GND*%
X151790500Y-117750000D03*
%TD*%
D22*
%TO.P,R4,1*%
%TO.N,/RX4*%
X128048000Y-117142000D03*
%TO.P,R4,2*%
%TO.N,Net-(P1-Pin_5)*%
X128048000Y-119142000D03*
%TD*%
D23*
%TO.P,LEDPWR1,1,Pin_1*%
%TO.N,GND*%
X141398000Y-116766000D03*
D24*
%TO.P,LEDPWR1,2,Pin_2*%
%TO.N,+5V*%
X141398000Y-121766000D03*
%TD*%
D17*
%TO.P,I2C2,1,Pin_1*%
%TO.N,GND*%
X160000000Y-112250000D03*
D16*
%TO.P,I2C2,2,Pin_2*%
%TO.N,+3V3*%
X160000000Y-109750000D03*
%TO.P,I2C2,3,Pin_3*%
%TO.N,/SCL0*%
X160000000Y-107250000D03*
%TO.P,I2C2,4,Pin_4*%
%TO.N,/SDA0*%
X160000000Y-104750000D03*
%TD*%
D21*
%TO.P,C2,1*%
%TO.N,+5V*%
X153865500Y-120250000D03*
%TO.P,C2,2*%
%TO.N,GND*%
X151790500Y-120250000D03*
%TD*%
D19*
%TO.P,LED2,1,K*%
%TO.N,GND*%
X141135000Y-109252000D03*
%TO.P,LED2,2,A*%
%TO.N,Net-(LED2-A)*%
X143185000Y-109252000D03*
%TD*%
D20*
%TO.P,R2,1*%
%TO.N,/SDA0*%
X128048000Y-109744000D03*
%TO.P,R2,2*%
%TO.N,+3V3*%
X128048000Y-107744000D03*
%TD*%
D22*
%TO.P,R1,1*%
%TO.N,/SCL0*%
X128048000Y-103900000D03*
%TO.P,R1,2*%
%TO.N,+3V3*%
X128048000Y-105900000D03*
%TD*%
D21*
%TO.P,C1,1*%
%TO.N,+5V*%
X153865500Y-122750000D03*
%TO.P,C1,2*%
%TO.N,GND*%
X151790500Y-122750000D03*
%TD*%
D15*
%TO.P,B1,4,Pin_4*%
%TO.N,/TIO20*%
X152178000Y-104426000D03*
%TO.P,B1,3,Pin_3*%
%TO.N,GND*%
X152178000Y-106966000D03*
%TO.P,B1,2,Pin_2*%
%TO.N,/TIO21*%
X152178000Y-109506000D03*
D14*
%TO.P,B1,1,Pin_1*%
%TO.N,GND*%
X152178000Y-112046000D03*
%TD*%
D23*
%TO.P,BCKPWR1,1,Pin_1*%
%TO.N,GND*%
X147750000Y-116750000D03*
D24*
%TO.P,BCKPWR1,2,Pin_2*%
%TO.N,+5V*%
X147750000Y-121750000D03*
%TD*%
D25*
%TO.N,/TIO22*%
X127667000Y-97187000D03*
X130334000Y-99854000D03*
D26*
%TO.N,+5V*%
X151670000Y-96298000D03*
X154718000Y-91218000D03*
D25*
%TO.N,Net-(D1-K)*%
X154718000Y-94520000D03*
D26*
%TO.N,+5V*%
X145066000Y-94012000D03*
D25*
%TO.N,/TIO23*%
X127540000Y-96298000D03*
X130080000Y-98838000D03*
%TO.N,GND*%
X154718000Y-107220000D03*
X154718000Y-103410000D03*
X155988000Y-114840000D03*
%TO.N,/SDA0*%
X133890000Y-107982000D03*
%TO.N,/SCL0*%
X128048000Y-101378000D03*
D26*
%TO.N,+3V3*%
X137700000Y-98584000D03*
X148510000Y-109750000D03*
D25*
%TO.N,/TIO20*%
X137446000Y-105696000D03*
%TO.N,/A1*%
X138208000Y-114586000D03*
%TO.N,Net-(P1-Pin_7)*%
X128048000Y-111792000D03*
%TD*%
D27*
%TO.N,+5V*%
X155734000Y-110682500D02*
X155734000Y-111792000D01*
D28*
X153287500Y-108236000D02*
X155734000Y-110682500D01*
D27*
X155734000Y-111792000D02*
X155734000Y-101124000D01*
X155734000Y-113381500D02*
X155734000Y-111792000D01*
X155734000Y-101124000D02*
X153956000Y-99346000D01*
X153865500Y-115250000D02*
X155734000Y-113381500D01*
X151670000Y-97060000D02*
X151670000Y-96298000D01*
D28*
X153287500Y-108236000D02*
X147986000Y-108236000D01*
D27*
X153956000Y-99346000D02*
X151670000Y-97060000D01*
D28*
X147986000Y-108236000D02*
X146970000Y-109252000D01*
D29*
%TO.N,/SDA0*%
X159766000Y-92234000D02*
X160000000Y-92000000D01*
X138208000Y-94774000D02*
X140748000Y-92234000D01*
X138208000Y-96552000D02*
X138208000Y-94774000D01*
X140748000Y-92234000D02*
X159766000Y-92234000D01*
X135160000Y-99600000D02*
X138208000Y-96552000D01*
D27*
%TO.N,+5V*%
X150654000Y-97314000D02*
X151670000Y-96298000D01*
X146844000Y-97314000D02*
X150654000Y-97314000D01*
X145066000Y-95536000D02*
X146844000Y-97314000D01*
X145066000Y-94012000D02*
X145066000Y-95536000D01*
D29*
%TO.N,/TIO22*%
X130334000Y-99854000D02*
X127667000Y-97187000D01*
D28*
%TO.N,+5V*%
X154718000Y-91220000D02*
X154718000Y-91218000D01*
%TO.N,+3V3*%
X138676000Y-97608000D02*
X142255000Y-97608000D01*
X137700000Y-98584000D02*
X138676000Y-97608000D01*
X161576000Y-108174000D02*
X160000000Y-109750000D01*
X161576000Y-98576000D02*
X161576000Y-108174000D01*
X160000000Y-97000000D02*
X161576000Y-98576000D01*
%TO.N,+5V*%
X132620000Y-104680000D02*
X132620000Y-107220000D01*
D29*
%TO.N,/TIO20*%
X149638000Y-104426000D02*
X152178000Y-104426000D01*
X141002000Y-98838000D02*
X144050000Y-98838000D01*
X137954000Y-101886000D02*
X141002000Y-98838000D01*
X137954000Y-105188000D02*
X137954000Y-101886000D01*
X144050000Y-98838000D02*
X149638000Y-104426000D01*
X137446000Y-105696000D02*
X137954000Y-105188000D01*
%TO.N,/A1*%
X142255000Y-103681000D02*
X142255000Y-100108000D01*
X138970000Y-113824000D02*
X138970000Y-106966000D01*
X138208000Y-114586000D02*
X138970000Y-113824000D01*
X138970000Y-106966000D02*
X142255000Y-103681000D01*
%TO.N,/A0*%
X131854000Y-116110000D02*
X137446000Y-116110000D01*
X139732000Y-113824000D02*
X139732000Y-108367000D01*
X130476000Y-118758000D02*
X130476000Y-117488000D01*
X126774000Y-122460000D02*
X130476000Y-118758000D01*
X139732000Y-108367000D02*
X142003000Y-106096000D01*
X125000000Y-122460000D02*
X126774000Y-122460000D01*
X130476000Y-117488000D02*
X131854000Y-116110000D01*
X137446000Y-116110000D02*
X139732000Y-113824000D01*
D28*
%TO.N,/TIO23*%
X130080000Y-98838000D02*
X127540000Y-96298000D01*
%TO.N,+5V*%
X132620000Y-104680000D02*
X131096000Y-103156000D01*
X131096000Y-103156000D02*
X131096000Y-98169000D01*
X128317000Y-95390000D02*
X131096000Y-98169000D01*
X128317000Y-95390000D02*
X128317000Y-92977000D01*
X128317000Y-92977000D02*
X127320000Y-91980000D01*
X127320000Y-91980000D02*
X125000000Y-91980000D01*
D29*
%TO.N,/SDA0*%
X160000000Y-117500000D02*
X158162000Y-115662000D01*
X158162000Y-115662000D02*
X158162000Y-93838000D01*
X133890000Y-107982000D02*
X133890000Y-100870000D01*
X158162000Y-93838000D02*
X160000000Y-92000000D01*
X133890000Y-100870000D02*
X135160000Y-99600000D01*
X125550000Y-112300000D02*
X128000000Y-109850000D01*
%TO.N,/SCL0*%
X125000000Y-109760000D02*
X126666000Y-108094000D01*
X158670000Y-95830000D02*
X158670000Y-105920000D01*
X126666000Y-108094000D02*
X126666000Y-105424000D01*
X126666000Y-105424000D02*
X128190000Y-103900000D01*
X128048000Y-101378000D02*
X128048000Y-103900000D01*
X160000000Y-94500000D02*
X158670000Y-95830000D01*
X158670000Y-105920000D02*
X160000000Y-107250000D01*
D28*
%TO.N,+3V3*%
X136430000Y-103410000D02*
X135160000Y-104680000D01*
X132620000Y-109760000D02*
X132620000Y-112300000D01*
X136430000Y-99854000D02*
X136430000Y-103410000D01*
D29*
X147630000Y-110630000D02*
X148510000Y-109750000D01*
D28*
X128048000Y-105900000D02*
X128048000Y-107744000D01*
X125000000Y-97060000D02*
X129318000Y-101378000D01*
X137700000Y-98584000D02*
X136430000Y-99854000D01*
X128760000Y-105900000D02*
X129318000Y-106458000D01*
D29*
X146970000Y-110630000D02*
X147630000Y-110630000D01*
D28*
X128048000Y-105900000D02*
X128760000Y-105900000D01*
X129318000Y-101378000D02*
X129318000Y-106458000D01*
X129318000Y-106458000D02*
X132620000Y-109760000D01*
D29*
%TO.N,/RX4*%
X125000000Y-117380000D02*
X127810000Y-117380000D01*
%TO.N,/TX4*%
X125000000Y-114840000D02*
X127810000Y-114840000D01*
D27*
%TO.N,+5V*%
X153865500Y-115250000D02*
X153865500Y-122750000D01*
X152650500Y-123965000D02*
X153865500Y-122750000D01*
X147750000Y-121750000D02*
X149965000Y-123965000D01*
X149965000Y-123965000D02*
X152650500Y-123965000D01*
D29*
%TO.N,Net-(LED1-A)*%
X144970000Y-110630000D02*
X143185000Y-110630000D01*
%TO.N,Net-(LED2-A)*%
X143185000Y-108598000D02*
X144970000Y-108598000D01*
%TO.N,Net-(P1-Pin_7)*%
X128048000Y-111792000D02*
X128048000Y-113078000D01*
%TO.N,Net-(P1-Pin_5)*%
X131858000Y-113570000D02*
X129206000Y-116222000D01*
X129206000Y-118504000D02*
X128610000Y-119100000D01*
X129206000Y-116222000D02*
X129206000Y-118504000D01*
X133890000Y-113570000D02*
X131858000Y-113570000D01*
X135160000Y-112300000D02*
X133890000Y-113570000D01*
%TD*%
%TA.AperFunction,Conductor*%
%TO.N,GND*%
G36*
X148293655Y-92603752D02*
G01*
X148340148Y-92657408D01*
X148350252Y-92727682D01*
X148327471Y-92783809D01*
X148284855Y-92842465D01*
X148230517Y-92917254D01*
X148150519Y-93074259D01*
X148150516Y-93074265D01*
X148098632Y-93233951D01*
X148096066Y-93241850D01*
X148068500Y-93415893D01*
X148068500Y-93592107D01*
X148096066Y-93766150D01*
X148096067Y-93766153D01*
X148146416Y-93921116D01*
X148150518Y-93933739D01*
X148230517Y-94090746D01*
X148251700Y-94119901D01*
X148334094Y-94233307D01*
X148458692Y-94357905D01*
X148458695Y-94357907D01*
X148601254Y-94461483D01*
X148758261Y-94541482D01*
X148925850Y-94595934D01*
X149099893Y-94623500D01*
X149099896Y-94623500D01*
X149576104Y-94623500D01*
X149576107Y-94623500D01*
X149750150Y-94595934D01*
X149917739Y-94541482D01*
X150074746Y-94461483D01*
X150217305Y-94357907D01*
X150341907Y-94233305D01*
X150445483Y-94090746D01*
X150525482Y-93933739D01*
X150579934Y-93766150D01*
X150607500Y-93592107D01*
X150607500Y-93415893D01*
X150579934Y-93241850D01*
X150525482Y-93074261D01*
X150445483Y-92917254D01*
X150348529Y-92783809D01*
X150324672Y-92716944D01*
X150340752Y-92647792D01*
X150391665Y-92598312D01*
X150450466Y-92583750D01*
X158617438Y-92583750D01*
X158685559Y-92603752D01*
X158732052Y-92657408D01*
X158742156Y-92727682D01*
X158712662Y-92792262D01*
X158706533Y-92798845D01*
X157947250Y-93558128D01*
X157947248Y-93558130D01*
X157919119Y-93586259D01*
X157882130Y-93623247D01*
X157874097Y-93637160D01*
X157862335Y-93657535D01*
X157836083Y-93703003D01*
X157812249Y-93791951D01*
X157812249Y-93894195D01*
X157812250Y-93894208D01*
X157812250Y-115608220D01*
X157812249Y-115608238D01*
X157812249Y-115708048D01*
X157836083Y-115796995D01*
X157836084Y-115796998D01*
X157852937Y-115826189D01*
X157882127Y-115876748D01*
X157882135Y-115876758D01*
X157954418Y-115949041D01*
X157954431Y-115949052D01*
X158864316Y-116858938D01*
X158898340Y-116921248D01*
X158893275Y-116992064D01*
X158887487Y-117005232D01*
X158879963Y-117020000D01*
X158851420Y-117076019D01*
X158851419Y-117076021D01*
X158851419Y-117076022D01*
X158797698Y-117241357D01*
X158797697Y-117241360D01*
X158797697Y-117241362D01*
X158770500Y-117413074D01*
X158770500Y-117586926D01*
X158786352Y-117687007D01*
X158797698Y-117758642D01*
X158837129Y-117880000D01*
X158851420Y-117923981D01*
X158930347Y-118078884D01*
X158930349Y-118078887D01*
X159032536Y-118219535D01*
X159155464Y-118342463D01*
X159206195Y-118379321D01*
X159296116Y-118444653D01*
X159451019Y-118523580D01*
X159616362Y-118577303D01*
X159788074Y-118604500D01*
X159788077Y-118604500D01*
X160211923Y-118604500D01*
X160211926Y-118604500D01*
X160383638Y-118577303D01*
X160548981Y-118523580D01*
X160703884Y-118444653D01*
X160844533Y-118342465D01*
X160967465Y-118219533D01*
X161069653Y-118078884D01*
X161148580Y-117923981D01*
X161202303Y-117758638D01*
X161229500Y-117586926D01*
X161229500Y-117413074D01*
X161202303Y-117241362D01*
X161148580Y-117076019D01*
X161069653Y-116921116D01*
X161009732Y-116838642D01*
X160967463Y-116780464D01*
X160844535Y-116657536D01*
X160703887Y-116555349D01*
X160703886Y-116555348D01*
X160703884Y-116555347D01*
X160548981Y-116476420D01*
X160548978Y-116476419D01*
X160548976Y-116476418D01*
X160383642Y-116422698D01*
X160383640Y-116422697D01*
X160383638Y-116422697D01*
X160211926Y-116395500D01*
X159788074Y-116395500D01*
X159616362Y-116422697D01*
X159539563Y-116447650D01*
X159468595Y-116449676D01*
X159411533Y-116416911D01*
X158548655Y-115554033D01*
X158514629Y-115491721D01*
X158511750Y-115464938D01*
X158511750Y-113383175D01*
X158531752Y-113315054D01*
X158585408Y-113268561D01*
X158629101Y-113261688D01*
X159536253Y-112354535D01*
X159557370Y-112433343D01*
X159619905Y-112541657D01*
X159708343Y-112630095D01*
X159816657Y-112692630D01*
X159895463Y-112713745D01*
X159038909Y-113570298D01*
X159038910Y-113570299D01*
X159120669Y-113597392D01*
X159120681Y-113597394D01*
X159224483Y-113607999D01*
X159224483Y-113608000D01*
X160775517Y-113608000D01*
X160775516Y-113607999D01*
X160879319Y-113597394D01*
X160879328Y-113597392D01*
X160961088Y-113570299D01*
X160961089Y-113570298D01*
X160104536Y-112713745D01*
X160183343Y-112692630D01*
X160291657Y-112630095D01*
X160380095Y-112541657D01*
X160442630Y-112433343D01*
X160463745Y-112354536D01*
X161365184Y-113255975D01*
X161416657Y-113172525D01*
X161472393Y-113004321D01*
X161472394Y-113004318D01*
X161482999Y-112900516D01*
X161483000Y-112900516D01*
X161483000Y-111599483D01*
X161472394Y-111495681D01*
X161472393Y-111495678D01*
X161416656Y-111327472D01*
X161365185Y-111244024D01*
X161365184Y-111244023D01*
X160463745Y-112145462D01*
X160442630Y-112066657D01*
X160380095Y-111958343D01*
X160291657Y-111869905D01*
X160183343Y-111807370D01*
X160104536Y-111786254D01*
X160961088Y-110929701D01*
X160961088Y-110929700D01*
X160879324Y-110902606D01*
X160879318Y-110902605D01*
X160802540Y-110894761D01*
X160736805Y-110867939D01*
X160696007Y-110809836D01*
X160693098Y-110738899D01*
X160729002Y-110677650D01*
X160741278Y-110667483D01*
X160844533Y-110592465D01*
X160967465Y-110469533D01*
X161069653Y-110328884D01*
X161148580Y-110173981D01*
X161202303Y-110008638D01*
X161229500Y-109836926D01*
X161229500Y-109663074D01*
X161202303Y-109491362D01*
X161148580Y-109326019D01*
X161148576Y-109326011D01*
X161127669Y-109284978D01*
X161114565Y-109215201D01*
X161141266Y-109149417D01*
X161150832Y-109138689D01*
X161799871Y-108489649D01*
X161799881Y-108489642D01*
X161881270Y-108408253D01*
X161881276Y-108408247D01*
X161923209Y-108335617D01*
X161931501Y-108321255D01*
X161931502Y-108321253D01*
X161951788Y-108245542D01*
X161988740Y-108184921D01*
X162052601Y-108153900D01*
X162123095Y-108162328D01*
X162177842Y-108207531D01*
X162199459Y-108275157D01*
X162199495Y-108278155D01*
X162199490Y-127073500D01*
X162179488Y-127141621D01*
X162125832Y-127188114D01*
X162073490Y-127199500D01*
X153926661Y-127199500D01*
X153858540Y-127179498D01*
X153837566Y-127162595D01*
X152325488Y-125650516D01*
X158517000Y-125650516D01*
X158527605Y-125754318D01*
X158527606Y-125754321D01*
X158583344Y-125922529D01*
X158634813Y-126005974D01*
X158634814Y-126005975D01*
X159536253Y-125104535D01*
X159557370Y-125183343D01*
X159619905Y-125291657D01*
X159708343Y-125380095D01*
X159816657Y-125442630D01*
X159895463Y-125463745D01*
X159038909Y-126320298D01*
X159038910Y-126320299D01*
X159120669Y-126347392D01*
X159120681Y-126347394D01*
X159224483Y-126357999D01*
X159224483Y-126358000D01*
X160775517Y-126358000D01*
X160775516Y-126357999D01*
X160879319Y-126347394D01*
X160879328Y-126347392D01*
X160961088Y-126320299D01*
X160961089Y-126320298D01*
X160104536Y-125463745D01*
X160183343Y-125442630D01*
X160291657Y-125380095D01*
X160380095Y-125291657D01*
X160442630Y-125183343D01*
X160463745Y-125104536D01*
X161365184Y-126005975D01*
X161416657Y-125922525D01*
X161472393Y-125754321D01*
X161472394Y-125754318D01*
X161482999Y-125650516D01*
X161483000Y-125650516D01*
X161483000Y-124349483D01*
X161472394Y-124245681D01*
X161472393Y-124245678D01*
X161416656Y-124077472D01*
X161365185Y-123994024D01*
X161365184Y-123994023D01*
X160463745Y-124895462D01*
X160442630Y-124816657D01*
X160380095Y-124708343D01*
X160291657Y-124619905D01*
X160183343Y-124557370D01*
X160104536Y-124536254D01*
X160961088Y-123679701D01*
X160961088Y-123679700D01*
X160879324Y-123652606D01*
X160879318Y-123652605D01*
X160802540Y-123644761D01*
X160736805Y-123617939D01*
X160696007Y-123559836D01*
X160693098Y-123488899D01*
X160729002Y-123427650D01*
X160741278Y-123417483D01*
X160844533Y-123342465D01*
X160967465Y-123219533D01*
X161069653Y-123078884D01*
X161148580Y-122923981D01*
X161202303Y-122758638D01*
X161229500Y-122586926D01*
X161229500Y-122413074D01*
X161202303Y-122241362D01*
X161148580Y-122076019D01*
X161069653Y-121921116D01*
X161034592Y-121872859D01*
X160967463Y-121780464D01*
X160844535Y-121657536D01*
X160703887Y-121555349D01*
X160703886Y-121555348D01*
X160703884Y-121555347D01*
X160548981Y-121476420D01*
X160548978Y-121476419D01*
X160548976Y-121476418D01*
X160383642Y-121422698D01*
X160383640Y-121422697D01*
X160383638Y-121422697D01*
X160211926Y-121395500D01*
X159788074Y-121395500D01*
X159616362Y-121422697D01*
X159616360Y-121422697D01*
X159616357Y-121422698D01*
X159451023Y-121476418D01*
X159451017Y-121476421D01*
X159296112Y-121555349D01*
X159155464Y-121657536D01*
X159032536Y-121780464D01*
X158930349Y-121921112D01*
X158851421Y-122076017D01*
X158851418Y-122076023D01*
X158797698Y-122241357D01*
X158797697Y-122241360D01*
X158797697Y-122241362D01*
X158770500Y-122413074D01*
X158770500Y-122586926D01*
X158797697Y-122758638D01*
X158797697Y-122758640D01*
X158797698Y-122758642D01*
X158836995Y-122879587D01*
X158851420Y-122923981D01*
X158912540Y-123043935D01*
X158930349Y-123078887D01*
X159032536Y-123219535D01*
X159155464Y-123342463D01*
X159258713Y-123417478D01*
X159302067Y-123473701D01*
X159308142Y-123544437D01*
X159275010Y-123607228D01*
X159213190Y-123642140D01*
X159197459Y-123644761D01*
X159120679Y-123652605D01*
X159038910Y-123679700D01*
X159038910Y-123679701D01*
X159895463Y-124536254D01*
X159816657Y-124557370D01*
X159708343Y-124619905D01*
X159619905Y-124708343D01*
X159557370Y-124816657D01*
X159536254Y-124895463D01*
X158634814Y-123994023D01*
X158583342Y-124077474D01*
X158527606Y-124245678D01*
X158527605Y-124245681D01*
X158517000Y-124349483D01*
X158517000Y-125650516D01*
X152325488Y-125650516D01*
X151434517Y-124759545D01*
X151434513Y-124759542D01*
X151434511Y-124759540D01*
X151365989Y-124719979D01*
X151365988Y-124719978D01*
X151365985Y-124719977D01*
X151289565Y-124699500D01*
X151289562Y-124699500D01*
X136960438Y-124699500D01*
X136960434Y-124699500D01*
X136884014Y-124719977D01*
X136815490Y-124759539D01*
X136815482Y-124759545D01*
X135662434Y-125912595D01*
X135600122Y-125946620D01*
X135573339Y-125949500D01*
X126230500Y-125949500D01*
X126162379Y-125929498D01*
X126115886Y-125875842D01*
X126104500Y-125823500D01*
X126104499Y-124124936D01*
X126104498Y-124124926D01*
X126089734Y-124050699D01*
X126033483Y-123966515D01*
X125949302Y-123910266D01*
X125875069Y-123895500D01*
X124176500Y-123895500D01*
X124108379Y-123875498D01*
X124061886Y-123821842D01*
X124050500Y-123769500D01*
X124050500Y-123374349D01*
X124070502Y-123306228D01*
X124124158Y-123259735D01*
X124194432Y-123249631D01*
X124259012Y-123279125D01*
X124261386Y-123281234D01*
X124331536Y-123345185D01*
X124505566Y-123452940D01*
X124505568Y-123452940D01*
X124505573Y-123452944D01*
X124696444Y-123526888D01*
X124897653Y-123564500D01*
X124897655Y-123564500D01*
X125102345Y-123564500D01*
X125102347Y-123564500D01*
X125303556Y-123526888D01*
X125494427Y-123452944D01*
X125668462Y-123345186D01*
X125819732Y-123207285D01*
X125884474Y-123121552D01*
X130395500Y-123121552D01*
X130427229Y-123362563D01*
X130427230Y-123362569D01*
X130427231Y-123362571D01*
X130490150Y-123597388D01*
X130583181Y-123821984D01*
X130583182Y-123821985D01*
X130583187Y-123821996D01*
X130704728Y-124032512D01*
X130704732Y-124032518D01*
X130852714Y-124225371D01*
X130852733Y-124225392D01*
X131024607Y-124397266D01*
X131024628Y-124397285D01*
X131217481Y-124545267D01*
X131217487Y-124545271D01*
X131428003Y-124666812D01*
X131428007Y-124666813D01*
X131428016Y-124666819D01*
X131652612Y-124759850D01*
X131887429Y-124822769D01*
X131887435Y-124822769D01*
X131887436Y-124822770D01*
X131915093Y-124826411D01*
X132128450Y-124854500D01*
X132128457Y-124854500D01*
X132371543Y-124854500D01*
X132371550Y-124854500D01*
X132612571Y-124822769D01*
X132847388Y-124759850D01*
X133071984Y-124666819D01*
X133282516Y-124545269D01*
X133475380Y-124397278D01*
X133647278Y-124225380D01*
X133795269Y-124032516D01*
X133916819Y-123821984D01*
X134009850Y-123597388D01*
X134072769Y-123362571D01*
X134104500Y-123121550D01*
X134104500Y-122878450D01*
X134072769Y-122637429D01*
X134009850Y-122402612D01*
X133916819Y-122178016D01*
X133916813Y-122178007D01*
X133916812Y-122178003D01*
X133795271Y-121967487D01*
X133795267Y-121967481D01*
X133647285Y-121774628D01*
X133647266Y-121774607D01*
X133638659Y-121766000D01*
X139638580Y-121766000D01*
X139658231Y-122028231D01*
X139716746Y-122284599D01*
X139716747Y-122284602D01*
X139812813Y-122529377D01*
X139812815Y-122529381D01*
X139944296Y-122757113D01*
X139944298Y-122757116D01*
X139944299Y-122757117D01*
X139986273Y-122809751D01*
X140108257Y-122962714D01*
X140250426Y-123094626D01*
X140301020Y-123141570D01*
X140301026Y-123141574D01*
X140518280Y-123289696D01*
X140518287Y-123289700D01*
X140518290Y-123289702D01*
X140755212Y-123403798D01*
X140954622Y-123465308D01*
X141006485Y-123481306D01*
X141006492Y-123481308D01*
X141266518Y-123520500D01*
X141266522Y-123520500D01*
X141529478Y-123520500D01*
X141529482Y-123520500D01*
X141789508Y-123481308D01*
X142040788Y-123403798D01*
X142277710Y-123289702D01*
X142494980Y-123141570D01*
X142687746Y-122962710D01*
X142851701Y-122757117D01*
X142983183Y-122529384D01*
X142989464Y-122513382D01*
X143079252Y-122284602D01*
X143079254Y-122284598D01*
X143137769Y-122028228D01*
X143157420Y-121766000D01*
X143137769Y-121503772D01*
X143079254Y-121247402D01*
X143059998Y-121198339D01*
X142983186Y-121002622D01*
X142983184Y-121002618D01*
X142973946Y-120986618D01*
X142917961Y-120889649D01*
X142851703Y-120774886D01*
X142850402Y-120773255D01*
X142687746Y-120569290D01*
X142687745Y-120569289D01*
X142687742Y-120569285D01*
X142531141Y-120423982D01*
X142494980Y-120390430D01*
X142471520Y-120374435D01*
X142277719Y-120242303D01*
X142277712Y-120242299D01*
X142040793Y-120128204D01*
X142040790Y-120128203D01*
X142040788Y-120128202D01*
X141952896Y-120101090D01*
X141789514Y-120050693D01*
X141789509Y-120050692D01*
X141789508Y-120050692D01*
X141529482Y-120011500D01*
X141266518Y-120011500D01*
X141006492Y-120050692D01*
X141006491Y-120050692D01*
X141006485Y-120050693D01*
X140807082Y-120112202D01*
X140769422Y-120123819D01*
X140755206Y-120128204D01*
X140518287Y-120242299D01*
X140518280Y-120242303D01*
X140301026Y-120390425D01*
X140301014Y-120390435D01*
X140108257Y-120569285D01*
X139944296Y-120774886D01*
X139812815Y-121002618D01*
X139812813Y-121002622D01*
X139716747Y-121247397D01*
X139716746Y-121247400D01*
X139658231Y-121503768D01*
X139638580Y-121766000D01*
X133638659Y-121766000D01*
X133475392Y-121602733D01*
X133475371Y-121602714D01*
X133282518Y-121454732D01*
X133282512Y-121454728D01*
X133071996Y-121333187D01*
X133071988Y-121333183D01*
X133071984Y-121333181D01*
X132847388Y-121240150D01*
X132612571Y-121177231D01*
X132612569Y-121177230D01*
X132612563Y-121177229D01*
X132371552Y-121145500D01*
X132371550Y-121145500D01*
X132128450Y-121145500D01*
X132128447Y-121145500D01*
X131887436Y-121177229D01*
X131685279Y-121231397D01*
X131652612Y-121240150D01*
X131451065Y-121323634D01*
X131428014Y-121333182D01*
X131428003Y-121333187D01*
X131217487Y-121454728D01*
X131217481Y-121454732D01*
X131024628Y-121602714D01*
X131024607Y-121602733D01*
X130852733Y-121774607D01*
X130852714Y-121774628D01*
X130704732Y-121967481D01*
X130704728Y-121967487D01*
X130583187Y-122178003D01*
X130583182Y-122178014D01*
X130583181Y-122178016D01*
X130490150Y-122402612D01*
X130427229Y-122637436D01*
X130395500Y-122878447D01*
X130395500Y-123121552D01*
X125884474Y-123121552D01*
X125943088Y-123043935D01*
X125943089Y-123043931D01*
X125943091Y-123043930D01*
X126024925Y-122879587D01*
X126073194Y-122827523D01*
X126137715Y-122809750D01*
X126720221Y-122809750D01*
X126720237Y-122809751D01*
X126727955Y-122809751D01*
X126820045Y-122809751D01*
X126908999Y-122785915D01*
X126956244Y-122758638D01*
X126988752Y-122739870D01*
X127053870Y-122674752D01*
X127064235Y-122664387D01*
X127064241Y-122664378D01*
X130755870Y-118972752D01*
X130801915Y-118892998D01*
X130825751Y-118804045D01*
X130825751Y-118711954D01*
X130825751Y-118704237D01*
X130825750Y-118704219D01*
X130825750Y-117685061D01*
X130845752Y-117616940D01*
X130862655Y-117595966D01*
X131051453Y-117407168D01*
X131113765Y-117373142D01*
X131184580Y-117378207D01*
X131241416Y-117420754D01*
X131266118Y-117485858D01*
X131275932Y-117604292D01*
X131331176Y-117822449D01*
X131331179Y-117822456D01*
X131421580Y-118028548D01*
X131544674Y-118216958D01*
X131697097Y-118382534D01*
X131874698Y-118520767D01*
X131874699Y-118520768D01*
X132072628Y-118627882D01*
X132072630Y-118627883D01*
X132285483Y-118700955D01*
X132285492Y-118700957D01*
X132366000Y-118714391D01*
X132366000Y-117810702D01*
X132427007Y-117845925D01*
X132554174Y-117880000D01*
X132685826Y-117880000D01*
X132812993Y-117845925D01*
X132874000Y-117810702D01*
X132874000Y-118714390D01*
X132954507Y-118700957D01*
X132954516Y-118700955D01*
X133167369Y-118627883D01*
X133167371Y-118627882D01*
X133365300Y-118520768D01*
X133365301Y-118520767D01*
X133542902Y-118382534D01*
X133604426Y-118315700D01*
X133665279Y-118279128D01*
X133736243Y-118281261D01*
X133794789Y-118321422D01*
X133815185Y-118357003D01*
X133859556Y-118475966D01*
X133947095Y-118592904D01*
X134064034Y-118680444D01*
X134200906Y-118731494D01*
X134261402Y-118737999D01*
X134261415Y-118738000D01*
X134906000Y-118738000D01*
X134906000Y-117810702D01*
X134967007Y-117845925D01*
X135094174Y-117880000D01*
X135225826Y-117880000D01*
X135352993Y-117845925D01*
X135414000Y-117810702D01*
X135414000Y-118738000D01*
X136058585Y-118738000D01*
X136058597Y-118737999D01*
X136119093Y-118731494D01*
X136255964Y-118680444D01*
X136255965Y-118680444D01*
X136372904Y-118592904D01*
X136460444Y-118475965D01*
X136460444Y-118475964D01*
X136511494Y-118339093D01*
X136514128Y-118314597D01*
X139390000Y-118314597D01*
X139396505Y-118375093D01*
X139447555Y-118511964D01*
X139447555Y-118511965D01*
X139535095Y-118628904D01*
X139652034Y-118716444D01*
X139788906Y-118767494D01*
X139849402Y-118773999D01*
X139849415Y-118774000D01*
X141144000Y-118774000D01*
X141144000Y-117633108D01*
X141309358Y-117666000D01*
X141486642Y-117666000D01*
X141652000Y-117633108D01*
X141652000Y-118774000D01*
X142946585Y-118774000D01*
X142946597Y-118773999D01*
X143007093Y-118767494D01*
X143143964Y-118716444D01*
X143143965Y-118716444D01*
X143260904Y-118628904D01*
X143348444Y-118511965D01*
X143348444Y-118511964D01*
X143399494Y-118375093D01*
X143405999Y-118314597D01*
X143406000Y-118314585D01*
X143406000Y-118298597D01*
X145742000Y-118298597D01*
X145748505Y-118359093D01*
X145799555Y-118495964D01*
X145799555Y-118495965D01*
X145887095Y-118612904D01*
X146004034Y-118700444D01*
X146140906Y-118751494D01*
X146201402Y-118757999D01*
X146201415Y-118758000D01*
X147496000Y-118758000D01*
X147496000Y-117617108D01*
X147661358Y-117650000D01*
X147838642Y-117650000D01*
X148004000Y-117617108D01*
X148004000Y-118758000D01*
X149298585Y-118758000D01*
X149298597Y-118757999D01*
X149359093Y-118751494D01*
X149495964Y-118700444D01*
X149495965Y-118700444D01*
X149612904Y-118612904D01*
X149700444Y-118495965D01*
X149700444Y-118495964D01*
X149751494Y-118359093D01*
X149757999Y-118298597D01*
X149758000Y-118298585D01*
X149758000Y-118004000D01*
X150695000Y-118004000D01*
X150695000Y-118275516D01*
X150705605Y-118379318D01*
X150705606Y-118379321D01*
X150761342Y-118547525D01*
X150854365Y-118698339D01*
X150854370Y-118698345D01*
X150979654Y-118823629D01*
X150979660Y-118823634D01*
X151091729Y-118892759D01*
X151139207Y-118945545D01*
X151150610Y-119015620D01*
X151122318Y-119080736D01*
X151091729Y-119107241D01*
X150979660Y-119176365D01*
X150979654Y-119176370D01*
X150854370Y-119301654D01*
X150854365Y-119301660D01*
X150761342Y-119452474D01*
X150705606Y-119620678D01*
X150705605Y-119620681D01*
X150695000Y-119724483D01*
X150695000Y-119996000D01*
X151536500Y-119996000D01*
X151536500Y-118004000D01*
X150695000Y-118004000D01*
X149758000Y-118004000D01*
X149758000Y-117004000D01*
X148617109Y-117004000D01*
X148650000Y-116838642D01*
X148650000Y-116661358D01*
X148617109Y-116496000D01*
X149758000Y-116496000D01*
X149758000Y-115504000D01*
X150695000Y-115504000D01*
X150695000Y-115775516D01*
X150705605Y-115879318D01*
X150705606Y-115879321D01*
X150761342Y-116047525D01*
X150854365Y-116198339D01*
X150854370Y-116198345D01*
X150979654Y-116323629D01*
X150979660Y-116323634D01*
X151091729Y-116392759D01*
X151139207Y-116445545D01*
X151150610Y-116515620D01*
X151122318Y-116580736D01*
X151091729Y-116607241D01*
X150979660Y-116676365D01*
X150979654Y-116676370D01*
X150854370Y-116801654D01*
X150854365Y-116801660D01*
X150761342Y-116952474D01*
X150705606Y-117120678D01*
X150705605Y-117120681D01*
X150695000Y-117224483D01*
X150695000Y-117496000D01*
X151536500Y-117496000D01*
X151536500Y-115504000D01*
X150695000Y-115504000D01*
X149758000Y-115504000D01*
X149758000Y-115201414D01*
X149757999Y-115201402D01*
X149751494Y-115140906D01*
X149700444Y-115004035D01*
X149700444Y-115004034D01*
X149694430Y-114996000D01*
X150695000Y-114996000D01*
X151536500Y-114996000D01*
X151536500Y-114017000D01*
X151402483Y-114017000D01*
X151298681Y-114027605D01*
X151298678Y-114027606D01*
X151130474Y-114083342D01*
X150979660Y-114176365D01*
X150979654Y-114176370D01*
X150854370Y-114301654D01*
X150854365Y-114301660D01*
X150761342Y-114452474D01*
X150705606Y-114620678D01*
X150705605Y-114620681D01*
X150695000Y-114724483D01*
X150695000Y-114996000D01*
X149694430Y-114996000D01*
X149612904Y-114887095D01*
X149495965Y-114799555D01*
X149359093Y-114748505D01*
X149298597Y-114742000D01*
X148004000Y-114742000D01*
X148004000Y-115882891D01*
X147838642Y-115850000D01*
X147661358Y-115850000D01*
X147496000Y-115882891D01*
X147496000Y-114742000D01*
X146201402Y-114742000D01*
X146140906Y-114748505D01*
X146004035Y-114799555D01*
X146004034Y-114799555D01*
X145887095Y-114887095D01*
X145799555Y-115004034D01*
X145799555Y-115004035D01*
X145748505Y-115140906D01*
X145742000Y-115201402D01*
X145742000Y-116496000D01*
X146882891Y-116496000D01*
X146850000Y-116661358D01*
X146850000Y-116838642D01*
X146882891Y-117004000D01*
X145742000Y-117004000D01*
X145742000Y-118298597D01*
X143406000Y-118298597D01*
X143406000Y-117020000D01*
X142265109Y-117020000D01*
X142298000Y-116854642D01*
X142298000Y-116677358D01*
X142265109Y-116512000D01*
X143406000Y-116512000D01*
X143406000Y-115217414D01*
X143405999Y-115217402D01*
X143399494Y-115156906D01*
X143348444Y-115020035D01*
X143348444Y-115020034D01*
X143260904Y-114903095D01*
X143143965Y-114815555D01*
X143007093Y-114764505D01*
X142946597Y-114758000D01*
X141652000Y-114758000D01*
X141652000Y-115898891D01*
X141486642Y-115866000D01*
X141309358Y-115866000D01*
X141144000Y-115898891D01*
X141144000Y-114758000D01*
X139849402Y-114758000D01*
X139788906Y-114764505D01*
X139652035Y-114815555D01*
X139652034Y-114815555D01*
X139535095Y-114903095D01*
X139447555Y-115020034D01*
X139447555Y-115020035D01*
X139396505Y-115156906D01*
X139390000Y-115217402D01*
X139390000Y-116512000D01*
X140530891Y-116512000D01*
X140498000Y-116677358D01*
X140498000Y-116854642D01*
X140530891Y-117020000D01*
X139390000Y-117020000D01*
X139390000Y-118314597D01*
X136514128Y-118314597D01*
X136517999Y-118278597D01*
X136518000Y-118278585D01*
X136518000Y-117634000D01*
X135590703Y-117634000D01*
X135625925Y-117572993D01*
X135660000Y-117445826D01*
X135660000Y-117314174D01*
X135625925Y-117187007D01*
X135590703Y-117126000D01*
X136518000Y-117126000D01*
X136518000Y-116585750D01*
X136538002Y-116517629D01*
X136591658Y-116471136D01*
X136644000Y-116459750D01*
X137392221Y-116459750D01*
X137392237Y-116459751D01*
X137399955Y-116459751D01*
X137492045Y-116459751D01*
X137545061Y-116445545D01*
X137580996Y-116435916D01*
X137580996Y-116435915D01*
X137580999Y-116435915D01*
X137610190Y-116419061D01*
X137660752Y-116389870D01*
X137725870Y-116324752D01*
X137736237Y-116314385D01*
X137736244Y-116314375D01*
X139936375Y-114114244D01*
X139936385Y-114114237D01*
X140011866Y-114038756D01*
X140011870Y-114038752D01*
X140041061Y-113988190D01*
X140057915Y-113958999D01*
X140081750Y-113870046D01*
X140081750Y-113777955D01*
X140081750Y-113777954D01*
X140081750Y-112381915D01*
X140101752Y-112313794D01*
X140155408Y-112267301D01*
X140225682Y-112257197D01*
X140290262Y-112286691D01*
X140296845Y-112292820D01*
X140336654Y-112332629D01*
X140336660Y-112332634D01*
X140487474Y-112425657D01*
X140655678Y-112481393D01*
X140655681Y-112481394D01*
X140759483Y-112491999D01*
X140759483Y-112492000D01*
X141510517Y-112492000D01*
X141510516Y-112491999D01*
X141614318Y-112481394D01*
X141614321Y-112481393D01*
X141782527Y-112425656D01*
X141782529Y-112425655D01*
X141865974Y-112374185D01*
X141865974Y-112374184D01*
X141135000Y-111643210D01*
X140775791Y-111284001D01*
X141494210Y-111284001D01*
X142180298Y-111970089D01*
X142186424Y-111968637D01*
X142216011Y-111925904D01*
X142281567Y-111898648D01*
X142351452Y-111911161D01*
X142403479Y-111959470D01*
X142411268Y-111975722D01*
X142412657Y-111978265D01*
X142412658Y-111978267D01*
X142499596Y-112094404D01*
X142615733Y-112181342D01*
X142751658Y-112232040D01*
X142811745Y-112238500D01*
X143558254Y-112238499D01*
X143618342Y-112232040D01*
X143754267Y-112181342D01*
X143870404Y-112094404D01*
X143957342Y-111978267D01*
X143957343Y-111978265D01*
X143962742Y-111971053D01*
X143965172Y-111972872D01*
X144004610Y-111933432D01*
X144073984Y-111918338D01*
X144140505Y-111943146D01*
X144165698Y-111972220D01*
X144167258Y-111971053D01*
X144172657Y-111978265D01*
X144172658Y-111978267D01*
X144259596Y-112094404D01*
X144375733Y-112181342D01*
X144511658Y-112232040D01*
X144571745Y-112238500D01*
X145368254Y-112238499D01*
X145428342Y-112232040D01*
X145564267Y-112181342D01*
X145680404Y-112094404D01*
X145767342Y-111978267D01*
X145818040Y-111842342D01*
X145824500Y-111782255D01*
X145824499Y-110785746D01*
X145818040Y-110725658D01*
X145767342Y-110589733D01*
X145680404Y-110473596D01*
X145564267Y-110386658D01*
X145562641Y-110386051D01*
X145561253Y-110385012D01*
X145556359Y-110382340D01*
X145556743Y-110381635D01*
X145505809Y-110343501D01*
X145481003Y-110276979D01*
X145496100Y-110207606D01*
X145546305Y-110157407D01*
X145562647Y-110149945D01*
X145564267Y-110149342D01*
X145680404Y-110062404D01*
X145767342Y-109946267D01*
X145818040Y-109810342D01*
X145824500Y-109750255D01*
X145824499Y-108753746D01*
X145818040Y-108693658D01*
X145767342Y-108557733D01*
X145680404Y-108441596D01*
X145564267Y-108354658D01*
X145564265Y-108354657D01*
X145564266Y-108354657D01*
X145428349Y-108303962D01*
X145428344Y-108303960D01*
X145428342Y-108303960D01*
X145420831Y-108303152D01*
X145368262Y-108297500D01*
X145368255Y-108297500D01*
X145182780Y-108297500D01*
X145119781Y-108280620D01*
X145104999Y-108272085D01*
X145075347Y-108264140D01*
X145016045Y-108248250D01*
X143138955Y-108248250D01*
X143060508Y-108269269D01*
X143049998Y-108272086D01*
X143049997Y-108272086D01*
X143035215Y-108280621D01*
X142972219Y-108297500D01*
X142811753Y-108297500D01*
X142811729Y-108297502D01*
X142751660Y-108303959D01*
X142751658Y-108303959D01*
X142615733Y-108354657D01*
X142499596Y-108441596D01*
X142412657Y-108557734D01*
X142408340Y-108565641D01*
X142406776Y-108564787D01*
X142370697Y-108612969D01*
X142304174Y-108637771D01*
X142234802Y-108622670D01*
X142184606Y-108572461D01*
X142181927Y-108566296D01*
X142180299Y-108565910D01*
X141494210Y-109251999D01*
X141494210Y-109252001D01*
X142180298Y-109938089D01*
X142186424Y-109936637D01*
X142216011Y-109893904D01*
X142281567Y-109866648D01*
X142351452Y-109879161D01*
X142403479Y-109927470D01*
X142411268Y-109943722D01*
X142412657Y-109946265D01*
X142412658Y-109946267D01*
X142499596Y-110062404D01*
X142615733Y-110149342D01*
X142617334Y-110149939D01*
X142617350Y-110149945D01*
X142618731Y-110150979D01*
X142623641Y-110153660D01*
X142623255Y-110154365D01*
X142674185Y-110192493D01*
X142698995Y-110259013D01*
X142683903Y-110328387D01*
X142633700Y-110378589D01*
X142617350Y-110386055D01*
X142615733Y-110386658D01*
X142499596Y-110473596D01*
X142412657Y-110589734D01*
X142408340Y-110597641D01*
X142406776Y-110596787D01*
X142370697Y-110644969D01*
X142304174Y-110669771D01*
X142234802Y-110654670D01*
X142184606Y-110604461D01*
X142181927Y-110598296D01*
X142180299Y-110597910D01*
X141494210Y-111283999D01*
X141494210Y-111284001D01*
X140775791Y-111284001D01*
X140118655Y-110626864D01*
X140084629Y-110564552D01*
X140081750Y-110537769D01*
X140081750Y-110267999D01*
X140478210Y-110267999D01*
X141135000Y-110924789D01*
X141135001Y-110924789D01*
X141791789Y-110268001D01*
X141791789Y-110267999D01*
X141135000Y-109611210D01*
X141134999Y-109611210D01*
X140478210Y-110267999D01*
X140081750Y-110267999D01*
X140081750Y-109998230D01*
X140101752Y-109930109D01*
X140118655Y-109909135D01*
X141134999Y-108892790D01*
X141865974Y-108161814D01*
X141782525Y-108110342D01*
X141614321Y-108054606D01*
X141614318Y-108054605D01*
X141510516Y-108044000D01*
X140853810Y-108044000D01*
X140785689Y-108023998D01*
X140739196Y-107970342D01*
X140729092Y-107900068D01*
X140758586Y-107835488D01*
X140764693Y-107828926D01*
X141447712Y-107145907D01*
X141510021Y-107111885D01*
X141580836Y-107116949D01*
X141582292Y-107117503D01*
X141699444Y-107162888D01*
X141900653Y-107200500D01*
X141900655Y-107200500D01*
X142105345Y-107200500D01*
X142105347Y-107200500D01*
X142306556Y-107162888D01*
X142497427Y-107088944D01*
X142671462Y-106981186D01*
X142822732Y-106843285D01*
X142832009Y-106831001D01*
X142854056Y-106801805D01*
X142946088Y-106679935D01*
X143037328Y-106496701D01*
X143093345Y-106299821D01*
X143105661Y-106166911D01*
X143112232Y-106096004D01*
X143433768Y-106096004D01*
X143452654Y-106299819D01*
X143507979Y-106494267D01*
X143508672Y-106496701D01*
X143599912Y-106679935D01*
X143620186Y-106706783D01*
X143723266Y-106843284D01*
X143874536Y-106981185D01*
X144048566Y-107088940D01*
X144048568Y-107088940D01*
X144048573Y-107088944D01*
X144239444Y-107162888D01*
X144440653Y-107200500D01*
X144440655Y-107200500D01*
X144645345Y-107200500D01*
X144645347Y-107200500D01*
X144846556Y-107162888D01*
X145037427Y-107088944D01*
X145211462Y-106981186D01*
X145362732Y-106843285D01*
X145372009Y-106831001D01*
X145432238Y-106751244D01*
X145486088Y-106679935D01*
X145486208Y-106679693D01*
X145486296Y-106679598D01*
X145489155Y-106674982D01*
X145490057Y-106675541D01*
X145534474Y-106627630D01*
X145603228Y-106609925D01*
X145670639Y-106632202D01*
X145715305Y-106687387D01*
X145725000Y-106735854D01*
X145725000Y-106994597D01*
X145731505Y-107055093D01*
X145782555Y-107191964D01*
X145782555Y-107191965D01*
X145870095Y-107308904D01*
X145987034Y-107396444D01*
X146123906Y-107447494D01*
X146184402Y-107453999D01*
X146184415Y-107454000D01*
X146829000Y-107454000D01*
X146829000Y-106526702D01*
X146890007Y-106561925D01*
X147017174Y-106596000D01*
X147148826Y-106596000D01*
X147275993Y-106561925D01*
X147337000Y-106526702D01*
X147337000Y-107454000D01*
X147981585Y-107454000D01*
X147981597Y-107453999D01*
X148042093Y-107447494D01*
X148178964Y-107396444D01*
X148178965Y-107396444D01*
X148295904Y-107308904D01*
X148383444Y-107191965D01*
X148383444Y-107191964D01*
X148434494Y-107055093D01*
X148440999Y-106994597D01*
X148441000Y-106994585D01*
X148441000Y-106350000D01*
X147513703Y-106350000D01*
X147548925Y-106288993D01*
X147583000Y-106161826D01*
X147583000Y-106030174D01*
X147548925Y-105903007D01*
X147513703Y-105842000D01*
X148441000Y-105842000D01*
X148441000Y-105197414D01*
X148440999Y-105197402D01*
X148434494Y-105136906D01*
X148383444Y-105000035D01*
X148383444Y-105000034D01*
X148295904Y-104883095D01*
X148178965Y-104795555D01*
X148042093Y-104744505D01*
X147981597Y-104738000D01*
X147337000Y-104738000D01*
X147337000Y-105665297D01*
X147275993Y-105630075D01*
X147148826Y-105596000D01*
X147017174Y-105596000D01*
X146890007Y-105630075D01*
X146829000Y-105665297D01*
X146829000Y-104738000D01*
X146184402Y-104738000D01*
X146123906Y-104744505D01*
X145987035Y-104795555D01*
X145987034Y-104795555D01*
X145870095Y-104883095D01*
X145782555Y-105000034D01*
X145782555Y-105000035D01*
X145731505Y-105136906D01*
X145725000Y-105197402D01*
X145725000Y-105456145D01*
X145704998Y-105524266D01*
X145651342Y-105570759D01*
X145581068Y-105580863D01*
X145516488Y-105551369D01*
X145489630Y-105516723D01*
X145489155Y-105517018D01*
X145486360Y-105512505D01*
X145486211Y-105512312D01*
X145486087Y-105512063D01*
X145362733Y-105348715D01*
X145211463Y-105210814D01*
X145037433Y-105103059D01*
X145037428Y-105103057D01*
X145037427Y-105103056D01*
X144979722Y-105080701D01*
X144846559Y-105029113D01*
X144846560Y-105029113D01*
X144846557Y-105029112D01*
X144846556Y-105029112D01*
X144645347Y-104991500D01*
X144440653Y-104991500D01*
X144239444Y-105029112D01*
X144239439Y-105029113D01*
X144048577Y-105103054D01*
X144048566Y-105103059D01*
X143874536Y-105210814D01*
X143723266Y-105348715D01*
X143599913Y-105512063D01*
X143508671Y-105695301D01*
X143452654Y-105892180D01*
X143433768Y-106095995D01*
X143433768Y-106096004D01*
X143112232Y-106096004D01*
X143112232Y-106095995D01*
X143093345Y-105892180D01*
X143089490Y-105878630D01*
X143037328Y-105695299D01*
X142946088Y-105512065D01*
X142882171Y-105427425D01*
X142822733Y-105348715D01*
X142671463Y-105210814D01*
X142497433Y-105103059D01*
X142497428Y-105103057D01*
X142497427Y-105103056D01*
X142439722Y-105080701D01*
X142306559Y-105029113D01*
X142306560Y-105029113D01*
X142306557Y-105029112D01*
X142306556Y-105029112D01*
X142105347Y-104991500D01*
X141900653Y-104991500D01*
X141802060Y-105009930D01*
X141732974Y-105022844D01*
X141662338Y-105015699D01*
X141606777Y-104971500D01*
X141583933Y-104904279D01*
X141601058Y-104835378D01*
X141620721Y-104809900D01*
X142534870Y-103895752D01*
X142580915Y-103815998D01*
X142604751Y-103727045D01*
X142604751Y-103634954D01*
X142604751Y-103627237D01*
X142604750Y-103627219D01*
X142604750Y-101338499D01*
X142624752Y-101270378D01*
X142678408Y-101223885D01*
X142730750Y-101212499D01*
X143028247Y-101212499D01*
X143028254Y-101212499D01*
X143088342Y-101206040D01*
X143224267Y-101155342D01*
X143340404Y-101068404D01*
X143427342Y-100952267D01*
X143478040Y-100816342D01*
X143484500Y-100756255D01*
X143484499Y-99459746D01*
X143478040Y-99399658D01*
X143462420Y-99357781D01*
X143457355Y-99286968D01*
X143491380Y-99224655D01*
X143553691Y-99190630D01*
X143580476Y-99187750D01*
X143852939Y-99187750D01*
X143921060Y-99207752D01*
X143942034Y-99224655D01*
X149353719Y-104636340D01*
X149353740Y-104636363D01*
X149423240Y-104705863D01*
X149423243Y-104705865D01*
X149423248Y-104705870D01*
X149503002Y-104751915D01*
X149531724Y-104759611D01*
X149568103Y-104769359D01*
X149568110Y-104769360D01*
X149568119Y-104769363D01*
X149591954Y-104775750D01*
X149591955Y-104775750D01*
X151040285Y-104775750D01*
X151108406Y-104795752D01*
X151153075Y-104845587D01*
X151234908Y-105009930D01*
X151234912Y-105009935D01*
X151358266Y-105173284D01*
X151509536Y-105311185D01*
X151683566Y-105418940D01*
X151683568Y-105418940D01*
X151683573Y-105418944D01*
X151733333Y-105438221D01*
X151746409Y-105443287D01*
X151802704Y-105486546D01*
X151826674Y-105553374D01*
X151810710Y-105622552D01*
X151759879Y-105672118D01*
X151741804Y-105679951D01*
X151630631Y-105718116D01*
X151630628Y-105718118D01*
X151432700Y-105825230D01*
X151432693Y-105825235D01*
X151412311Y-105841099D01*
X151412310Y-105841100D01*
X152053052Y-106481842D01*
X151985007Y-106500075D01*
X151870993Y-106565901D01*
X151777901Y-106658993D01*
X151712075Y-106773007D01*
X151693842Y-106841052D01*
X151054921Y-106202131D01*
X151054920Y-106202132D01*
X150979586Y-106317439D01*
X150979579Y-106317453D01*
X150889179Y-106523543D01*
X150889176Y-106523550D01*
X150833932Y-106741707D01*
X150815346Y-106966000D01*
X150833932Y-107190292D01*
X150889176Y-107408449D01*
X150889179Y-107408456D01*
X150979581Y-107614552D01*
X150979582Y-107614553D01*
X151009003Y-107659584D01*
X151029517Y-107727552D01*
X151010029Y-107795821D01*
X150956724Y-107842717D01*
X150903521Y-107854500D01*
X147935775Y-107854500D01*
X147887260Y-107867499D01*
X147838744Y-107880499D01*
X147820118Y-107891252D01*
X147820119Y-107891253D01*
X147751756Y-107930721D01*
X147751750Y-107930726D01*
X147421880Y-108260596D01*
X147359568Y-108294621D01*
X147332785Y-108297500D01*
X146571753Y-108297500D01*
X146571729Y-108297502D01*
X146511660Y-108303959D01*
X146511658Y-108303959D01*
X146375733Y-108354657D01*
X146259596Y-108441596D01*
X146172657Y-108557734D01*
X146121962Y-108693650D01*
X146121960Y-108693658D01*
X146115500Y-108753737D01*
X146115500Y-109750246D01*
X146115502Y-109750270D01*
X146121959Y-109810339D01*
X146121959Y-109810341D01*
X146172657Y-109946266D01*
X146194515Y-109975465D01*
X146259596Y-110062404D01*
X146375733Y-110149342D01*
X146377334Y-110149939D01*
X146377350Y-110149945D01*
X146378731Y-110150979D01*
X146383641Y-110153660D01*
X146383255Y-110154365D01*
X146434185Y-110192493D01*
X146458995Y-110259013D01*
X146443903Y-110328387D01*
X146393700Y-110378589D01*
X146377350Y-110386055D01*
X146375733Y-110386658D01*
X146259596Y-110473596D01*
X146172657Y-110589734D01*
X146121962Y-110725650D01*
X146121960Y-110725658D01*
X146115500Y-110785737D01*
X146115500Y-111782246D01*
X146115502Y-111782270D01*
X146121959Y-111842339D01*
X146121959Y-111842341D01*
X146172657Y-111978266D01*
X146194515Y-112007465D01*
X146259596Y-112094404D01*
X146375733Y-112181342D01*
X146511658Y-112232040D01*
X146571745Y-112238500D01*
X147368254Y-112238499D01*
X147428342Y-112232040D01*
X147564267Y-112181342D01*
X147680404Y-112094404D01*
X147767342Y-111978267D01*
X147818040Y-111842342D01*
X147824500Y-111782255D01*
X147824499Y-110982312D01*
X147844501Y-110914192D01*
X147861399Y-110893222D01*
X147909870Y-110844752D01*
X147909870Y-110844750D01*
X147920240Y-110834381D01*
X147920244Y-110834376D01*
X148408922Y-110345697D01*
X148471232Y-110311673D01*
X148501741Y-110310403D01*
X148501741Y-110309285D01*
X148510000Y-110309285D01*
X148654754Y-110290228D01*
X148789643Y-110234355D01*
X148905474Y-110145474D01*
X148994355Y-110029643D01*
X149050228Y-109894754D01*
X149069285Y-109750000D01*
X149050228Y-109605246D01*
X148994355Y-109470358D01*
X148905474Y-109354526D01*
X148905472Y-109354524D01*
X148905471Y-109354523D01*
X148789649Y-109265649D01*
X148789641Y-109265644D01*
X148654752Y-109209771D01*
X148510000Y-109190715D01*
X148365247Y-109209771D01*
X148297802Y-109237708D01*
X148230358Y-109265645D01*
X148230357Y-109265646D01*
X148230356Y-109265646D01*
X148114525Y-109354526D01*
X148050461Y-109438016D01*
X147993123Y-109479883D01*
X147922252Y-109484104D01*
X147860349Y-109449339D01*
X147827068Y-109386626D01*
X147824499Y-109361316D01*
X147824499Y-108989213D01*
X147844501Y-108921093D01*
X147861404Y-108900118D01*
X148107119Y-108654404D01*
X148169431Y-108620379D01*
X148196214Y-108617500D01*
X151211866Y-108617500D01*
X151279987Y-108637502D01*
X151326480Y-108691158D01*
X151336584Y-108761432D01*
X151312416Y-108819432D01*
X151234913Y-108922063D01*
X151143671Y-109105301D01*
X151087654Y-109302180D01*
X151068768Y-109505995D01*
X151068768Y-109506004D01*
X151087654Y-109709819D01*
X151123818Y-109836922D01*
X151143672Y-109906701D01*
X151234912Y-110089935D01*
X151234913Y-110089936D01*
X151358266Y-110253284D01*
X151509538Y-110391186D01*
X151509539Y-110391187D01*
X151612395Y-110454873D01*
X151659783Y-110507740D01*
X151671066Y-110577834D01*
X151642662Y-110642901D01*
X151583589Y-110682283D01*
X151546065Y-110688000D01*
X151279402Y-110688000D01*
X151218906Y-110694505D01*
X151082035Y-110745555D01*
X151082034Y-110745555D01*
X150965095Y-110833095D01*
X150877555Y-110950034D01*
X150877555Y-110950035D01*
X150826505Y-111086906D01*
X150820000Y-111147402D01*
X150820000Y-111792000D01*
X151747297Y-111792000D01*
X151712075Y-111853007D01*
X151678000Y-111980174D01*
X151678000Y-112111826D01*
X151712075Y-112238993D01*
X151747297Y-112300000D01*
X150820000Y-112300000D01*
X150820000Y-112944597D01*
X150826505Y-113005093D01*
X150877555Y-113141964D01*
X150877555Y-113141965D01*
X150965095Y-113258904D01*
X151082034Y-113346444D01*
X151218906Y-113397494D01*
X151279402Y-113403999D01*
X151279415Y-113404000D01*
X151924000Y-113404000D01*
X151924000Y-112476702D01*
X151985007Y-112511925D01*
X152112174Y-112546000D01*
X152243826Y-112546000D01*
X152370993Y-112511925D01*
X152432000Y-112476702D01*
X152432000Y-113404000D01*
X153076585Y-113404000D01*
X153076597Y-113403999D01*
X153137093Y-113397494D01*
X153273964Y-113346444D01*
X153273965Y-113346444D01*
X153390904Y-113258904D01*
X153478444Y-113141965D01*
X153478444Y-113141964D01*
X153529494Y-113005093D01*
X153535999Y-112944597D01*
X153536000Y-112944585D01*
X153536000Y-112300000D01*
X152608703Y-112300000D01*
X152643925Y-112238993D01*
X152678000Y-112111826D01*
X152678000Y-111980174D01*
X152643925Y-111853007D01*
X152608703Y-111792000D01*
X153536000Y-111792000D01*
X153536000Y-111147414D01*
X153535999Y-111147402D01*
X153529494Y-111086906D01*
X153478444Y-110950035D01*
X153478444Y-110950034D01*
X153390904Y-110833095D01*
X153273965Y-110745555D01*
X153137093Y-110694505D01*
X153076597Y-110688000D01*
X152809935Y-110688000D01*
X152741814Y-110667998D01*
X152695321Y-110614342D01*
X152685217Y-110544068D01*
X152714711Y-110479488D01*
X152743605Y-110454873D01*
X152846460Y-110391187D01*
X152846459Y-110391187D01*
X152846462Y-110391186D01*
X152997732Y-110253285D01*
X153121088Y-110089935D01*
X153212328Y-109906701D01*
X153268345Y-109709821D01*
X153278035Y-109605247D01*
X153287232Y-109506004D01*
X153287232Y-109505995D01*
X153268345Y-109302180D01*
X153266584Y-109295992D01*
X153212328Y-109105299D01*
X153175066Y-109030467D01*
X153154998Y-108990164D01*
X153142538Y-108920269D01*
X153169845Y-108854734D01*
X153228248Y-108814366D01*
X153299205Y-108811981D01*
X153356883Y-108844906D01*
X155252095Y-110740117D01*
X155286120Y-110802429D01*
X155289000Y-110829212D01*
X155289000Y-113144984D01*
X155268998Y-113213105D01*
X155252095Y-113234079D01*
X154252578Y-114233595D01*
X154190266Y-114267621D01*
X154163483Y-114270500D01*
X153479753Y-114270500D01*
X153479729Y-114270502D01*
X153419660Y-114276959D01*
X153419658Y-114276959D01*
X153283733Y-114327657D01*
X153167596Y-114414596D01*
X153080657Y-114530734D01*
X153076340Y-114538641D01*
X153074774Y-114537786D01*
X153038707Y-114585962D01*
X152972185Y-114610769D01*
X152902812Y-114595674D01*
X152852612Y-114545469D01*
X152843599Y-114524723D01*
X152819659Y-114452478D01*
X152726634Y-114301660D01*
X152726629Y-114301654D01*
X152601345Y-114176370D01*
X152601339Y-114176365D01*
X152450525Y-114083342D01*
X152282321Y-114027606D01*
X152282318Y-114027605D01*
X152178516Y-114017000D01*
X152044500Y-114017000D01*
X152044500Y-122878000D01*
X152024498Y-122946121D01*
X151970842Y-122992614D01*
X151918500Y-123004000D01*
X150695000Y-123004000D01*
X150695000Y-123275516D01*
X150705797Y-123381193D01*
X150692823Y-123450994D01*
X150644171Y-123502700D01*
X150580450Y-123520000D01*
X150201515Y-123520000D01*
X150133394Y-123499998D01*
X150112420Y-123483095D01*
X149333097Y-122703772D01*
X149299071Y-122641460D01*
X149304136Y-122570645D01*
X149313070Y-122551682D01*
X149335183Y-122513384D01*
X149431254Y-122268598D01*
X149489769Y-122012228D01*
X149509420Y-121750000D01*
X149489769Y-121487772D01*
X149431254Y-121231402D01*
X149381449Y-121104500D01*
X149335186Y-120986622D01*
X149335184Y-120986618D01*
X149325166Y-120969267D01*
X149251956Y-120842463D01*
X149203703Y-120758886D01*
X149187944Y-120739125D01*
X149039746Y-120553290D01*
X149039745Y-120553289D01*
X149039742Y-120553285D01*
X148986625Y-120504000D01*
X150695000Y-120504000D01*
X150695000Y-120775516D01*
X150705605Y-120879318D01*
X150705606Y-120879321D01*
X150761342Y-121047525D01*
X150854365Y-121198339D01*
X150854370Y-121198345D01*
X150979654Y-121323629D01*
X150979660Y-121323634D01*
X151091729Y-121392759D01*
X151139207Y-121445545D01*
X151150610Y-121515620D01*
X151122318Y-121580736D01*
X151091729Y-121607241D01*
X150979660Y-121676365D01*
X150979654Y-121676370D01*
X150854370Y-121801654D01*
X150854365Y-121801660D01*
X150761342Y-121952474D01*
X150705606Y-122120678D01*
X150705605Y-122120681D01*
X150695000Y-122224483D01*
X150695000Y-122496000D01*
X151536500Y-122496000D01*
X151536500Y-120504000D01*
X150695000Y-120504000D01*
X148986625Y-120504000D01*
X148864224Y-120390430D01*
X148846980Y-120374430D01*
X148846973Y-120374425D01*
X148629719Y-120226303D01*
X148629712Y-120226299D01*
X148392793Y-120112204D01*
X148392790Y-120112203D01*
X148392788Y-120112202D01*
X148304896Y-120085090D01*
X148141514Y-120034693D01*
X148141509Y-120034692D01*
X148141508Y-120034692D01*
X147881482Y-119995500D01*
X147618518Y-119995500D01*
X147358492Y-120034692D01*
X147358491Y-120034692D01*
X147358485Y-120034693D01*
X147107206Y-120112204D01*
X146870287Y-120226299D01*
X146870280Y-120226303D01*
X146653026Y-120374425D01*
X146653014Y-120374435D01*
X146460257Y-120553285D01*
X146296296Y-120758886D01*
X146164815Y-120986618D01*
X146164813Y-120986622D01*
X146068747Y-121231397D01*
X146068746Y-121231400D01*
X146010231Y-121487768D01*
X145990580Y-121750000D01*
X146010231Y-122012231D01*
X146068746Y-122268599D01*
X146068747Y-122268602D01*
X146164813Y-122513377D01*
X146164815Y-122513381D01*
X146296296Y-122741113D01*
X146296298Y-122741116D01*
X146296299Y-122741117D01*
X146309059Y-122757117D01*
X146460257Y-122946714D01*
X146565038Y-123043935D01*
X146653020Y-123125570D01*
X146653026Y-123125574D01*
X146870280Y-123273696D01*
X146870287Y-123273700D01*
X146870290Y-123273702D01*
X147107212Y-123387798D01*
X147318396Y-123452940D01*
X147358485Y-123465306D01*
X147358492Y-123465308D01*
X147618518Y-123504500D01*
X147618522Y-123504500D01*
X147881478Y-123504500D01*
X147881482Y-123504500D01*
X148141508Y-123465308D01*
X148392788Y-123387798D01*
X148559063Y-123307723D01*
X148629114Y-123296189D01*
X148694283Y-123324358D01*
X148702826Y-123332151D01*
X149608911Y-124238236D01*
X149691764Y-124321089D01*
X149793236Y-124379674D01*
X149793242Y-124379675D01*
X149793243Y-124379676D01*
X149849823Y-124394837D01*
X149849824Y-124394837D01*
X149858890Y-124397266D01*
X149906414Y-124410000D01*
X149906415Y-124410000D01*
X152709085Y-124410000D01*
X152709086Y-124410000D01*
X152765674Y-124394837D01*
X152822264Y-124379674D01*
X152923736Y-124321089D01*
X153006589Y-124238236D01*
X153478421Y-123766404D01*
X153540733Y-123732378D01*
X153567516Y-123729499D01*
X154251247Y-123729499D01*
X154251254Y-123729499D01*
X154311342Y-123723040D01*
X154447267Y-123672342D01*
X154563404Y-123585404D01*
X154650342Y-123469267D01*
X154701040Y-123333342D01*
X154707500Y-123273255D01*
X154707499Y-122226746D01*
X154701040Y-122166658D01*
X154650342Y-122030733D01*
X154563404Y-121914596D01*
X154447267Y-121827658D01*
X154447265Y-121827657D01*
X154447266Y-121827657D01*
X154392467Y-121807218D01*
X154335631Y-121764671D01*
X154310821Y-121698151D01*
X154310500Y-121689163D01*
X154310500Y-121310836D01*
X154330502Y-121242715D01*
X154384158Y-121196222D01*
X154392438Y-121192792D01*
X154447267Y-121172342D01*
X154563404Y-121085404D01*
X154650342Y-120969267D01*
X154701040Y-120833342D01*
X154707500Y-120773255D01*
X154707499Y-120086926D01*
X158770500Y-120086926D01*
X158795110Y-120242303D01*
X158797698Y-120258642D01*
X158840518Y-120390430D01*
X158851420Y-120423981D01*
X158925459Y-120569290D01*
X158930349Y-120578887D01*
X159032536Y-120719535D01*
X159155464Y-120842463D01*
X159206195Y-120879321D01*
X159296116Y-120944653D01*
X159451019Y-121023580D01*
X159616362Y-121077303D01*
X159788074Y-121104500D01*
X159788077Y-121104500D01*
X160211923Y-121104500D01*
X160211926Y-121104500D01*
X160383638Y-121077303D01*
X160548981Y-121023580D01*
X160703884Y-120944653D01*
X160844533Y-120842465D01*
X160967465Y-120719533D01*
X161069653Y-120578884D01*
X161148580Y-120423981D01*
X161202303Y-120258638D01*
X161229500Y-120086926D01*
X161229500Y-119913074D01*
X161202303Y-119741362D01*
X161148580Y-119576019D01*
X161069653Y-119421116D01*
X161007858Y-119336063D01*
X160967463Y-119280464D01*
X160844535Y-119157536D01*
X160703887Y-119055349D01*
X160703886Y-119055348D01*
X160703884Y-119055347D01*
X160548981Y-118976420D01*
X160548978Y-118976419D01*
X160548976Y-118976418D01*
X160383642Y-118922698D01*
X160383640Y-118922697D01*
X160383638Y-118922697D01*
X160211926Y-118895500D01*
X159788074Y-118895500D01*
X159616362Y-118922697D01*
X159616360Y-118922697D01*
X159616357Y-118922698D01*
X159451023Y-118976418D01*
X159451017Y-118976421D01*
X159296112Y-119055349D01*
X159155464Y-119157536D01*
X159032536Y-119280464D01*
X158930349Y-119421112D01*
X158851421Y-119576017D01*
X158851418Y-119576023D01*
X158797698Y-119741357D01*
X158797697Y-119741360D01*
X158797697Y-119741362D01*
X158770500Y-119913074D01*
X158770500Y-120086926D01*
X154707499Y-120086926D01*
X154707499Y-119726746D01*
X154701040Y-119666658D01*
X154650342Y-119530733D01*
X154563404Y-119414596D01*
X154447267Y-119327658D01*
X154447265Y-119327657D01*
X154447266Y-119327657D01*
X154392467Y-119307218D01*
X154335631Y-119264671D01*
X154310821Y-119198151D01*
X154310500Y-119189163D01*
X154310500Y-118810836D01*
X154330502Y-118742715D01*
X154384158Y-118696222D01*
X154392438Y-118692792D01*
X154447267Y-118672342D01*
X154563404Y-118585404D01*
X154650342Y-118469267D01*
X154701040Y-118333342D01*
X154707500Y-118273255D01*
X154707499Y-117226746D01*
X154701040Y-117166658D01*
X154650342Y-117030733D01*
X154563404Y-116914596D01*
X154447267Y-116827658D01*
X154447265Y-116827657D01*
X154447266Y-116827657D01*
X154392467Y-116807218D01*
X154335631Y-116764671D01*
X154310821Y-116698151D01*
X154310500Y-116689163D01*
X154310500Y-116310836D01*
X154330502Y-116242715D01*
X154384158Y-116196222D01*
X154392438Y-116192792D01*
X154447267Y-116172342D01*
X154563404Y-116085404D01*
X154650342Y-115969267D01*
X154701040Y-115833342D01*
X154707500Y-115773255D01*
X154707499Y-115089513D01*
X154727501Y-115021393D01*
X154744395Y-115000428D01*
X156090088Y-113654737D01*
X156090089Y-113654736D01*
X156148674Y-113553264D01*
X156179000Y-113440085D01*
X156179000Y-111733415D01*
X156179000Y-101065415D01*
X156173978Y-101046674D01*
X156167389Y-101022084D01*
X156158391Y-100988501D01*
X156148674Y-100952237D01*
X156148672Y-100952232D01*
X156090091Y-100850767D01*
X156090087Y-100850762D01*
X156050178Y-100810853D01*
X156007236Y-100767911D01*
X154229237Y-98989912D01*
X152151905Y-96912580D01*
X152117879Y-96850268D01*
X152115000Y-96823485D01*
X152115000Y-96671702D01*
X152135002Y-96603581D01*
X152141039Y-96594997D01*
X152149155Y-96584420D01*
X152154355Y-96577643D01*
X152210228Y-96442754D01*
X152229285Y-96298000D01*
X152225582Y-96269876D01*
X152213068Y-96174817D01*
X152210228Y-96153246D01*
X152154355Y-96018358D01*
X152065474Y-95902526D01*
X152065472Y-95902524D01*
X152065471Y-95902523D01*
X151949649Y-95813649D01*
X151949641Y-95813644D01*
X151814752Y-95757771D01*
X151670000Y-95738715D01*
X151525247Y-95757771D01*
X151467127Y-95781846D01*
X151390358Y-95813645D01*
X151390357Y-95813646D01*
X151390356Y-95813646D01*
X151274526Y-95902526D01*
X151185646Y-96018356D01*
X151185645Y-96018358D01*
X151165472Y-96067059D01*
X151129771Y-96153247D01*
X151126916Y-96174937D01*
X151098192Y-96239863D01*
X151091090Y-96247583D01*
X150733210Y-96605464D01*
X150670897Y-96639489D01*
X150600082Y-96634425D01*
X150543246Y-96591878D01*
X150518435Y-96525358D01*
X150524281Y-96477433D01*
X150525481Y-96473740D01*
X150525482Y-96473739D01*
X150579934Y-96306150D01*
X150607500Y-96132107D01*
X150607500Y-95955893D01*
X150579934Y-95781850D01*
X150525482Y-95614261D01*
X150445483Y-95457254D01*
X150341907Y-95314695D01*
X150341905Y-95314692D01*
X150217307Y-95190094D01*
X150135043Y-95130326D01*
X150074746Y-95086517D01*
X149917739Y-95006518D01*
X149917736Y-95006517D01*
X149917734Y-95006516D01*
X149750153Y-94952067D01*
X149750150Y-94952066D01*
X149576107Y-94924500D01*
X149099893Y-94924500D01*
X148925850Y-94952066D01*
X148925847Y-94952066D01*
X148925846Y-94952067D01*
X148758265Y-95006516D01*
X148758261Y-95006518D01*
X148601254Y-95086517D01*
X148601251Y-95086518D01*
X148601251Y-95086519D01*
X148458692Y-95190094D01*
X148334094Y-95314692D01*
X148242891Y-95440223D01*
X148230517Y-95457254D01*
X148150518Y-95614261D01*
X148145636Y-95629286D01*
X148133088Y-95667906D01*
X148093014Y-95726511D01*
X148027617Y-95754148D01*
X147957661Y-95742041D01*
X147905355Y-95694035D01*
X147896846Y-95677187D01*
X147890939Y-95662926D01*
X147802896Y-95531161D01*
X147802891Y-95531155D01*
X147690844Y-95419108D01*
X147690838Y-95419103D01*
X147605377Y-95362000D01*
X147559074Y-95331061D01*
X147412664Y-95270416D01*
X147385164Y-95264946D01*
X147257238Y-95239500D01*
X147257236Y-95239500D01*
X147098764Y-95239500D01*
X147098761Y-95239500D01*
X146943335Y-95270416D01*
X146943330Y-95270418D01*
X146796926Y-95331061D01*
X146665161Y-95419103D01*
X146665155Y-95419108D01*
X146553108Y-95531155D01*
X146553103Y-95531161D01*
X146465061Y-95662926D01*
X146404418Y-95809330D01*
X146404416Y-95809335D01*
X146378108Y-95941596D01*
X146345200Y-96004505D01*
X146283505Y-96039637D01*
X146212610Y-96035837D01*
X146165434Y-96006109D01*
X145547905Y-95388580D01*
X145513879Y-95326268D01*
X145511000Y-95299485D01*
X145511000Y-94790871D01*
X153863500Y-94790871D01*
X153867730Y-94830208D01*
X153869640Y-94847973D01*
X153906175Y-94945929D01*
X153917826Y-94977166D01*
X153917827Y-94977167D01*
X153959259Y-95032512D01*
X154000456Y-95087544D01*
X154063781Y-95134949D01*
X154110832Y-95170172D01*
X154110833Y-95170173D01*
X154110835Y-95170173D01*
X154110837Y-95170175D01*
X154240027Y-95218360D01*
X154297136Y-95224500D01*
X154297141Y-95224500D01*
X155138859Y-95224500D01*
X155138864Y-95224500D01*
X155195973Y-95218360D01*
X155325163Y-95170175D01*
X155435544Y-95087544D01*
X155518175Y-94977163D01*
X155566360Y-94847973D01*
X155572500Y-94790864D01*
X155572500Y-94249136D01*
X155566360Y-94192027D01*
X155518175Y-94062837D01*
X155518173Y-94062835D01*
X155518173Y-94062833D01*
X155518172Y-94062832D01*
X155482949Y-94015781D01*
X155435544Y-93952456D01*
X155357735Y-93894208D01*
X155325167Y-93869827D01*
X155325166Y-93869826D01*
X155270642Y-93849490D01*
X155195973Y-93821640D01*
X155188834Y-93820872D01*
X155138871Y-93815500D01*
X155138864Y-93815500D01*
X154297136Y-93815500D01*
X154297128Y-93815500D01*
X154240027Y-93821640D01*
X154110833Y-93869826D01*
X154110832Y-93869827D01*
X154000456Y-93952456D01*
X153917827Y-94062832D01*
X153917826Y-94062833D01*
X153869640Y-94192027D01*
X153863500Y-94249128D01*
X153863500Y-94790871D01*
X145511000Y-94790871D01*
X145511000Y-94385702D01*
X145531002Y-94317581D01*
X145537039Y-94308997D01*
X145541390Y-94303325D01*
X145550355Y-94291643D01*
X145606228Y-94156754D01*
X145625285Y-94012000D01*
X145606228Y-93867246D01*
X145550355Y-93732358D01*
X145461474Y-93616526D01*
X145461472Y-93616524D01*
X145461471Y-93616523D01*
X145345649Y-93527649D01*
X145345641Y-93527644D01*
X145210752Y-93471771D01*
X145066000Y-93452715D01*
X144921247Y-93471771D01*
X144853802Y-93499708D01*
X144786358Y-93527645D01*
X144786357Y-93527646D01*
X144786356Y-93527646D01*
X144670526Y-93616526D01*
X144581646Y-93732356D01*
X144581645Y-93732358D01*
X144560486Y-93783440D01*
X144525771Y-93867247D01*
X144506715Y-94011999D01*
X144506715Y-94012000D01*
X144525771Y-94156752D01*
X144581644Y-94291641D01*
X144581650Y-94291650D01*
X144594961Y-94308997D01*
X144620563Y-94375217D01*
X144621000Y-94385702D01*
X144621000Y-95594587D01*
X144628947Y-95624244D01*
X144628947Y-95624246D01*
X144628948Y-95624246D01*
X144628948Y-95624247D01*
X144647648Y-95694035D01*
X144651326Y-95707763D01*
X144651328Y-95707768D01*
X144694100Y-95781850D01*
X144709909Y-95809233D01*
X144709917Y-95809243D01*
X146487911Y-97587236D01*
X146570764Y-97670089D01*
X146570765Y-97670090D01*
X146570767Y-97670091D01*
X146642088Y-97711268D01*
X146672236Y-97728674D01*
X146672242Y-97728675D01*
X146672243Y-97728676D01*
X146728823Y-97743837D01*
X146728824Y-97743837D01*
X146743987Y-97747899D01*
X146785414Y-97759000D01*
X146785415Y-97759000D01*
X148156330Y-97759000D01*
X148224451Y-97779002D01*
X148270944Y-97832658D01*
X148281048Y-97902932D01*
X148258266Y-97959059D01*
X148257848Y-97959637D01*
X148230517Y-97997254D01*
X148150519Y-98154259D01*
X148150516Y-98154265D01*
X148101749Y-98304358D01*
X148096066Y-98321850D01*
X148068500Y-98495893D01*
X148068500Y-98672107D01*
X148096066Y-98846150D01*
X148150518Y-99013739D01*
X148230517Y-99170746D01*
X148287164Y-99248714D01*
X148334094Y-99313307D01*
X148458688Y-99437901D01*
X148458691Y-99437903D01*
X148458695Y-99437907D01*
X148575439Y-99522727D01*
X148575903Y-99523064D01*
X148619256Y-99579287D01*
X148625331Y-99650023D01*
X148592199Y-99712815D01*
X148530379Y-99747726D01*
X148501841Y-99751000D01*
X148274402Y-99751000D01*
X148213906Y-99757505D01*
X148077035Y-99808555D01*
X148077034Y-99808555D01*
X147960095Y-99896095D01*
X147872555Y-100013034D01*
X147872555Y-100013035D01*
X147821505Y-100149906D01*
X147815000Y-100210402D01*
X147815000Y-100870000D01*
X148895749Y-100870000D01*
X148862755Y-100927147D01*
X148828000Y-101056857D01*
X148828000Y-101191143D01*
X148862755Y-101320853D01*
X148895749Y-101378000D01*
X147815000Y-101378000D01*
X147815000Y-101804189D01*
X147794998Y-101872310D01*
X147741342Y-101918803D01*
X147671068Y-101928907D01*
X147606488Y-101899413D01*
X147599905Y-101893284D01*
X144337058Y-98630437D01*
X144337046Y-98630423D01*
X144264758Y-98558135D01*
X144264748Y-98558127D01*
X144206503Y-98524500D01*
X144206502Y-98524500D01*
X144206500Y-98524499D01*
X144184999Y-98512085D01*
X144184996Y-98512083D01*
X144096048Y-98488249D01*
X144096045Y-98488249D01*
X144003955Y-98488249D01*
X143996237Y-98488249D01*
X143996221Y-98488250D01*
X143352986Y-98488250D01*
X143284865Y-98468248D01*
X143238372Y-98414592D01*
X143228268Y-98344318D01*
X143251050Y-98288189D01*
X143263739Y-98270724D01*
X143324653Y-98186884D01*
X143403580Y-98031981D01*
X143457303Y-97866638D01*
X143484500Y-97694926D01*
X143484500Y-97521074D01*
X143457303Y-97349362D01*
X143403580Y-97184019D01*
X143324653Y-97029116D01*
X143239984Y-96912580D01*
X143222463Y-96888464D01*
X143099535Y-96765536D01*
X142958886Y-96663348D01*
X142851761Y-96608765D01*
X142800146Y-96560016D01*
X142783080Y-96491101D01*
X142805981Y-96423900D01*
X142861579Y-96379748D01*
X142870030Y-96376664D01*
X142901291Y-96366507D01*
X142901292Y-96366506D01*
X143091750Y-96269463D01*
X143264679Y-96143822D01*
X143415822Y-95992679D01*
X143541463Y-95819750D01*
X143638506Y-95629292D01*
X143638509Y-95629286D01*
X143704559Y-95426004D01*
X143714698Y-95362000D01*
X142656836Y-95362000D01*
X142697630Y-95291343D01*
X142730000Y-95170535D01*
X142730000Y-95045465D01*
X142697630Y-94924657D01*
X142656836Y-94854000D01*
X143714697Y-94854000D01*
X143704559Y-94789995D01*
X143638509Y-94586713D01*
X143638506Y-94586707D01*
X143541463Y-94396249D01*
X143415822Y-94223320D01*
X143264679Y-94072177D01*
X143091750Y-93946536D01*
X142901292Y-93849493D01*
X142901286Y-93849490D01*
X142698004Y-93783440D01*
X142509000Y-93753503D01*
X142509000Y-94706163D01*
X142438343Y-94665370D01*
X142317535Y-94633000D01*
X142192465Y-94633000D01*
X142071657Y-94665370D01*
X142001000Y-94706163D01*
X142001000Y-93753503D01*
X141811995Y-93783440D01*
X141608713Y-93849490D01*
X141608707Y-93849493D01*
X141418249Y-93946536D01*
X141245320Y-94072177D01*
X141094177Y-94223320D01*
X140968536Y-94396249D01*
X140871493Y-94586707D01*
X140871490Y-94586713D01*
X140805440Y-94789995D01*
X140795302Y-94854000D01*
X141853164Y-94854000D01*
X141812370Y-94924657D01*
X141780000Y-95045465D01*
X141780000Y-95170535D01*
X141812370Y-95291343D01*
X141853164Y-95362000D01*
X140795302Y-95362000D01*
X140805440Y-95426004D01*
X140871490Y-95629286D01*
X140871493Y-95629292D01*
X140968536Y-95819750D01*
X141094177Y-95992679D01*
X141245320Y-96143822D01*
X141418249Y-96269463D01*
X141608707Y-96366506D01*
X141608716Y-96366510D01*
X141639970Y-96376665D01*
X141698576Y-96416738D01*
X141726214Y-96482134D01*
X141714108Y-96552091D01*
X141666102Y-96604397D01*
X141658239Y-96608764D01*
X141551115Y-96663347D01*
X141410464Y-96765536D01*
X141287536Y-96888464D01*
X141185349Y-97029112D01*
X141185347Y-97029116D01*
X141155894Y-97086922D01*
X141119829Y-97157703D01*
X141071081Y-97209318D01*
X141007562Y-97226500D01*
X138625775Y-97226500D01*
X138566390Y-97242412D01*
X138528741Y-97252500D01*
X138441756Y-97302721D01*
X138441751Y-97302725D01*
X138413881Y-97330596D01*
X138370724Y-97373753D01*
X138370722Y-97373755D01*
X138052977Y-97691500D01*
X137753002Y-97991475D01*
X137690690Y-98025500D01*
X137680354Y-98027301D01*
X137555245Y-98043772D01*
X137555238Y-98043773D01*
X137552542Y-98044891D01*
X137550084Y-98045155D01*
X137547267Y-98045910D01*
X137547149Y-98045470D01*
X137481952Y-98052478D01*
X137418466Y-98020697D01*
X137382241Y-97959637D01*
X137384777Y-97888686D01*
X137415231Y-97839388D01*
X138412375Y-96842244D01*
X138412385Y-96842237D01*
X138487864Y-96766758D01*
X138487870Y-96766752D01*
X138524902Y-96702610D01*
X138533915Y-96686999D01*
X138557751Y-96598045D01*
X138557751Y-96505955D01*
X138557751Y-96498238D01*
X138557750Y-96498220D01*
X138557750Y-94971061D01*
X138577752Y-94902940D01*
X138594655Y-94881966D01*
X140855966Y-92620655D01*
X140918278Y-92586629D01*
X140945061Y-92583750D01*
X148225534Y-92583750D01*
X148293655Y-92603752D01*
G37*
%TD.AperFunction*%
%TA.AperFunction,Conductor*%
G36*
X134694075Y-117187007D02*
G01*
X134660000Y-117314174D01*
X134660000Y-117445826D01*
X134694075Y-117572993D01*
X134729297Y-117634000D01*
X133050703Y-117634000D01*
X133085925Y-117572993D01*
X133120000Y-117445826D01*
X133120000Y-117314174D01*
X133085925Y-117187007D01*
X133050703Y-117126000D01*
X134729297Y-117126000D01*
X134694075Y-117187007D01*
G37*
%TD.AperFunction*%
%TA.AperFunction,Conductor*%
G36*
X132816121Y-116479752D02*
G01*
X132862614Y-116533408D01*
X132874000Y-116585750D01*
X132874000Y-116949297D01*
X132812993Y-116914075D01*
X132685826Y-116880000D01*
X132554174Y-116880000D01*
X132427007Y-116914075D01*
X132366000Y-116949297D01*
X132366000Y-116585750D01*
X132386002Y-116517629D01*
X132439658Y-116471136D01*
X132492000Y-116459750D01*
X132748000Y-116459750D01*
X132816121Y-116479752D01*
G37*
%TD.AperFunction*%
%TA.AperFunction,Conductor*%
G36*
X132874000Y-115634250D02*
G01*
X132853998Y-115702371D01*
X132800342Y-115748864D01*
X132748000Y-115760250D01*
X132492000Y-115760250D01*
X132423879Y-115740248D01*
X132377386Y-115686592D01*
X132366000Y-115634250D01*
X132366000Y-115270702D01*
X132427007Y-115305925D01*
X132554174Y-115340000D01*
X132685826Y-115340000D01*
X132812993Y-115305925D01*
X132874000Y-115270702D01*
X132874000Y-115634250D01*
G37*
%TD.AperFunction*%
%TA.AperFunction,Conductor*%
G36*
X127177908Y-92381502D02*
G01*
X127198882Y-92398405D01*
X127898595Y-93098118D01*
X127932621Y-93160430D01*
X127935500Y-93187213D01*
X127935500Y-95440223D01*
X127935499Y-95440223D01*
X127961500Y-95537258D01*
X128011721Y-95624243D01*
X128011729Y-95624253D01*
X130677595Y-98290117D01*
X130711620Y-98352429D01*
X130714500Y-98379212D01*
X130714500Y-98462039D01*
X130694498Y-98530160D01*
X130640842Y-98576653D01*
X130570568Y-98586757D01*
X130505988Y-98557263D01*
X130493276Y-98544552D01*
X130413774Y-98452803D01*
X130299462Y-98379339D01*
X130291732Y-98374371D01*
X130291731Y-98374370D01*
X130291730Y-98374370D01*
X130152534Y-98333499D01*
X130150229Y-98333168D01*
X130148110Y-98332200D01*
X130143889Y-98330961D01*
X130144067Y-98330353D01*
X130085649Y-98303674D01*
X130079068Y-98297546D01*
X128074332Y-96292809D01*
X128040306Y-96230497D01*
X128038712Y-96221666D01*
X128029042Y-96154404D01*
X127968777Y-96022442D01*
X127873775Y-95912804D01*
X127873774Y-95912803D01*
X127783051Y-95854499D01*
X127751732Y-95834371D01*
X127751731Y-95834370D01*
X127751730Y-95834370D01*
X127612536Y-95793500D01*
X127467464Y-95793500D01*
X127328269Y-95834370D01*
X127328266Y-95834372D01*
X127206225Y-95912803D01*
X127111223Y-96022441D01*
X127050958Y-96154403D01*
X127030312Y-96298000D01*
X127050958Y-96441596D01*
X127111223Y-96573558D01*
X127206225Y-96683196D01*
X127231484Y-96699429D01*
X127277977Y-96753085D01*
X127288080Y-96823359D01*
X127258588Y-96887939D01*
X127238223Y-96911441D01*
X127177958Y-97043403D01*
X127175572Y-97060000D01*
X127157312Y-97187000D01*
X127177958Y-97330596D01*
X127238223Y-97462558D01*
X127333225Y-97572196D01*
X127455268Y-97650629D01*
X127594464Y-97691500D01*
X127624689Y-97691500D01*
X127692810Y-97711502D01*
X127713784Y-97728405D01*
X129792127Y-99806749D01*
X129826153Y-99869061D01*
X129827749Y-99877912D01*
X129844956Y-99997589D01*
X129844958Y-99997596D01*
X129905223Y-100129558D01*
X130000225Y-100239196D01*
X130122268Y-100317629D01*
X130261464Y-100358500D01*
X130406536Y-100358500D01*
X130545732Y-100317629D01*
X130545733Y-100317628D01*
X130553002Y-100315494D01*
X130623999Y-100315494D01*
X130683725Y-100353878D01*
X130713218Y-100418459D01*
X130714500Y-100436390D01*
X130714500Y-103206223D01*
X130714499Y-103206223D01*
X130740500Y-103303258D01*
X130773131Y-103359775D01*
X130790721Y-103390243D01*
X130790723Y-103390245D01*
X130790724Y-103390247D01*
X131195294Y-103794817D01*
X131554157Y-104153679D01*
X131588182Y-104215992D01*
X131586252Y-104277256D01*
X131529654Y-104476180D01*
X131510768Y-104679995D01*
X131510768Y-104680004D01*
X131529654Y-104883819D01*
X131585482Y-105080034D01*
X131585672Y-105080701D01*
X131676912Y-105263935D01*
X131676913Y-105263936D01*
X131800266Y-105427284D01*
X131951536Y-105565185D01*
X132125566Y-105672940D01*
X132125568Y-105672940D01*
X132125573Y-105672944D01*
X132150306Y-105682525D01*
X132158017Y-105685513D01*
X132214312Y-105728772D01*
X132238282Y-105795600D01*
X132238500Y-105803004D01*
X132238500Y-106096995D01*
X132218498Y-106165116D01*
X132164842Y-106211609D01*
X132158018Y-106214486D01*
X132125576Y-106227054D01*
X132125569Y-106227058D01*
X131951536Y-106334814D01*
X131800266Y-106472715D01*
X131676913Y-106636063D01*
X131585671Y-106819301D01*
X131529654Y-107016180D01*
X131510768Y-107219995D01*
X131510768Y-107220004D01*
X131529654Y-107423819D01*
X131583922Y-107614552D01*
X131585672Y-107620701D01*
X131676912Y-107803935D01*
X131676913Y-107803936D01*
X131800266Y-107967284D01*
X131951536Y-108105185D01*
X132125566Y-108212940D01*
X132125568Y-108212940D01*
X132125573Y-108212944D01*
X132316444Y-108286888D01*
X132517653Y-108324500D01*
X132517655Y-108324500D01*
X132722345Y-108324500D01*
X132722347Y-108324500D01*
X132923556Y-108286888D01*
X133114427Y-108212944D01*
X133247342Y-108130645D01*
X133315786Y-108111792D01*
X133383561Y-108132935D01*
X133428283Y-108185431D01*
X133461221Y-108257555D01*
X133461223Y-108257558D01*
X133556225Y-108367196D01*
X133678268Y-108445629D01*
X133817464Y-108486500D01*
X133962536Y-108486500D01*
X134101732Y-108445629D01*
X134223775Y-108367196D01*
X134225716Y-108364955D01*
X134228212Y-108363351D01*
X134230584Y-108361296D01*
X134230879Y-108361636D01*
X134285438Y-108326569D01*
X134356434Y-108326564D01*
X134398335Y-108348032D01*
X134414690Y-108360762D01*
X134414699Y-108360768D01*
X134612628Y-108467882D01*
X134612634Y-108467884D01*
X134723803Y-108506048D01*
X134781739Y-108547084D01*
X134808291Y-108612929D01*
X134795030Y-108682676D01*
X134746166Y-108734182D01*
X134728410Y-108742712D01*
X134665574Y-108767055D01*
X134665566Y-108767059D01*
X134491536Y-108874814D01*
X134340266Y-109012715D01*
X134216913Y-109176063D01*
X134125671Y-109359301D01*
X134069654Y-109556180D01*
X134050768Y-109759995D01*
X134050768Y-109760004D01*
X134069654Y-109963819D01*
X134122440Y-110149341D01*
X134125672Y-110160701D01*
X134216912Y-110343935D01*
X134216913Y-110343936D01*
X134340266Y-110507284D01*
X134491536Y-110645185D01*
X134665566Y-110752940D01*
X134665568Y-110752940D01*
X134665573Y-110752944D01*
X134856444Y-110826888D01*
X135057653Y-110864500D01*
X135057655Y-110864500D01*
X135262345Y-110864500D01*
X135262347Y-110864500D01*
X135463556Y-110826888D01*
X135654427Y-110752944D01*
X135828462Y-110645186D01*
X135979732Y-110507285D01*
X136103088Y-110343935D01*
X136194328Y-110160701D01*
X136250345Y-109963821D01*
X136262104Y-109836922D01*
X136269232Y-109760004D01*
X136269232Y-109759995D01*
X136250345Y-109556180D01*
X136250345Y-109556179D01*
X136194328Y-109359299D01*
X136103088Y-109176065D01*
X135995501Y-109033596D01*
X135979733Y-109012715D01*
X135828463Y-108874814D01*
X135654433Y-108767059D01*
X135654425Y-108767055D01*
X135591589Y-108742712D01*
X135535295Y-108699452D01*
X135511325Y-108632624D01*
X135527290Y-108563446D01*
X135578121Y-108513881D01*
X135596196Y-108506048D01*
X135707365Y-108467884D01*
X135707371Y-108467881D01*
X135905298Y-108360769D01*
X135925688Y-108344898D01*
X135284947Y-107704157D01*
X135352993Y-107685925D01*
X135467007Y-107620099D01*
X135560099Y-107527007D01*
X135625925Y-107412993D01*
X135644158Y-107344947D01*
X136283077Y-107983866D01*
X136358419Y-107868548D01*
X136448820Y-107662456D01*
X136448823Y-107662449D01*
X136504067Y-107444292D01*
X136522653Y-107220000D01*
X136504067Y-106995707D01*
X136448823Y-106777550D01*
X136448820Y-106777543D01*
X136358419Y-106571451D01*
X136283077Y-106456132D01*
X135644157Y-107095051D01*
X135625925Y-107027007D01*
X135560099Y-106912993D01*
X135467007Y-106819901D01*
X135352993Y-106754075D01*
X135284947Y-106735841D01*
X135925688Y-106095100D01*
X135925687Y-106095099D01*
X135905308Y-106079237D01*
X135905298Y-106079231D01*
X135707371Y-105972117D01*
X135707369Y-105972116D01*
X135596195Y-105933951D01*
X135538260Y-105892914D01*
X135511708Y-105827069D01*
X135524969Y-105757322D01*
X135573834Y-105705817D01*
X135591581Y-105697290D01*
X135654427Y-105672944D01*
X135828462Y-105565186D01*
X135979732Y-105427285D01*
X135984901Y-105420441D01*
X136039065Y-105348715D01*
X136103088Y-105263935D01*
X136194328Y-105080701D01*
X136250345Y-104883821D01*
X136263255Y-104744505D01*
X136269232Y-104680004D01*
X136269232Y-104679995D01*
X136250345Y-104476180D01*
X136193747Y-104277256D01*
X136194343Y-104206262D01*
X136225840Y-104153681D01*
X136735276Y-103644247D01*
X136749199Y-103620131D01*
X136785501Y-103557254D01*
X136811500Y-103460225D01*
X136811500Y-100064213D01*
X136831502Y-99996092D01*
X136848400Y-99975122D01*
X137646998Y-99176523D01*
X137709309Y-99142500D01*
X137719632Y-99140700D01*
X137844754Y-99124228D01*
X137979643Y-99068355D01*
X138095474Y-98979474D01*
X138184355Y-98863643D01*
X138240228Y-98728754D01*
X138256698Y-98603644D01*
X138285420Y-98538718D01*
X138292512Y-98531008D01*
X138797118Y-98026404D01*
X138859430Y-97992379D01*
X138886213Y-97989500D01*
X141007562Y-97989500D01*
X141075683Y-98009502D01*
X141119828Y-98058296D01*
X141185347Y-98186884D01*
X141243059Y-98266318D01*
X141258950Y-98288189D01*
X141282808Y-98355056D01*
X141266728Y-98424208D01*
X141215815Y-98473688D01*
X141157014Y-98488250D01*
X141055779Y-98488250D01*
X141055763Y-98488249D01*
X141048045Y-98488249D01*
X140955955Y-98488249D01*
X140955951Y-98488249D01*
X140867002Y-98512084D01*
X140845496Y-98524499D01*
X140845497Y-98524500D01*
X140787251Y-98558127D01*
X140787246Y-98558131D01*
X140768725Y-98576653D01*
X140722130Y-98623248D01*
X140722128Y-98623250D01*
X137739250Y-101606128D01*
X137739248Y-101606130D01*
X137711378Y-101634000D01*
X137674131Y-101671246D01*
X137674130Y-101671248D01*
X137652195Y-101709242D01*
X137652147Y-101709325D01*
X137652146Y-101709326D01*
X137628083Y-101751003D01*
X137604249Y-101839951D01*
X137604249Y-101942195D01*
X137604250Y-101942208D01*
X137604250Y-104990939D01*
X137584248Y-105059060D01*
X137567345Y-105080034D01*
X137492784Y-105154595D01*
X137430472Y-105188621D01*
X137403689Y-105191500D01*
X137373464Y-105191500D01*
X137234269Y-105232370D01*
X137234266Y-105232372D01*
X137112225Y-105310803D01*
X137017223Y-105420441D01*
X136956958Y-105552403D01*
X136955120Y-105565185D01*
X136936312Y-105696000D01*
X136956958Y-105839596D01*
X137017223Y-105971558D01*
X137112225Y-106081196D01*
X137234268Y-106159629D01*
X137373464Y-106200500D01*
X137518536Y-106200500D01*
X137657732Y-106159629D01*
X137779775Y-106081196D01*
X137874777Y-105971558D01*
X137935042Y-105839596D01*
X137952250Y-105719907D01*
X137981742Y-105655330D01*
X137987858Y-105648761D01*
X138158375Y-105478244D01*
X138158385Y-105478237D01*
X138233863Y-105402759D01*
X138233870Y-105402752D01*
X138279915Y-105322998D01*
X138303750Y-105234045D01*
X138303750Y-102083060D01*
X138323752Y-102014939D01*
X138340650Y-101993970D01*
X140810407Y-99524212D01*
X140872717Y-99490189D01*
X140943532Y-99495253D01*
X141000368Y-99537800D01*
X141025179Y-99604320D01*
X141025500Y-99613309D01*
X141025500Y-100756246D01*
X141025502Y-100756270D01*
X141031959Y-100816339D01*
X141031959Y-100816341D01*
X141082657Y-100952266D01*
X141082658Y-100952267D01*
X141169596Y-101068404D01*
X141285733Y-101155342D01*
X141421658Y-101206040D01*
X141481745Y-101212500D01*
X141779251Y-101212499D01*
X141847370Y-101232501D01*
X141893863Y-101286156D01*
X141905250Y-101338499D01*
X141905250Y-103483938D01*
X141885248Y-103552059D01*
X141868345Y-103573033D01*
X138755250Y-106686128D01*
X138755248Y-106686130D01*
X138737436Y-106703942D01*
X138690133Y-106751244D01*
X138690128Y-106751251D01*
X138660939Y-106801805D01*
X138660940Y-106801806D01*
X138644084Y-106831002D01*
X138644084Y-106831003D01*
X138620249Y-106919953D01*
X138620249Y-107022195D01*
X138620250Y-107022208D01*
X138620250Y-113626937D01*
X138600248Y-113695058D01*
X138583346Y-113716032D01*
X138254784Y-114044595D01*
X138192471Y-114078620D01*
X138165688Y-114081500D01*
X138135464Y-114081500D01*
X137996269Y-114122370D01*
X137996266Y-114122372D01*
X137874225Y-114200803D01*
X137779223Y-114310441D01*
X137718958Y-114442403D01*
X137698312Y-114586000D01*
X137718958Y-114729596D01*
X137779223Y-114861558D01*
X137874225Y-114971197D01*
X137881037Y-114977099D01*
X137880173Y-114978095D01*
X137920648Y-115024804D01*
X137930754Y-115095078D01*
X137901263Y-115159660D01*
X137895132Y-115166245D01*
X137338034Y-115723345D01*
X137275721Y-115757370D01*
X137248938Y-115760250D01*
X136102157Y-115760250D01*
X136034036Y-115740248D01*
X135987543Y-115686592D01*
X135977439Y-115616318D01*
X136001607Y-115558318D01*
X136032712Y-115517128D01*
X136103088Y-115423935D01*
X136194328Y-115240701D01*
X136250345Y-115043821D01*
X136263132Y-114905826D01*
X136269232Y-114840004D01*
X136269232Y-114839995D01*
X136251348Y-114647007D01*
X136250345Y-114636179D01*
X136194328Y-114439299D01*
X136103088Y-114256065D01*
X136042905Y-114176370D01*
X135979733Y-114092715D01*
X135828463Y-113954814D01*
X135654433Y-113847059D01*
X135654428Y-113847057D01*
X135654427Y-113847056D01*
X135503027Y-113788403D01*
X135463559Y-113773113D01*
X135463560Y-113773113D01*
X135463557Y-113773112D01*
X135463556Y-113773112D01*
X135262347Y-113735500D01*
X135057653Y-113735500D01*
X134856444Y-113773112D01*
X134856439Y-113773113D01*
X134665577Y-113847054D01*
X134665566Y-113847059D01*
X134491536Y-113954814D01*
X134340266Y-114092715D01*
X134216912Y-114256064D01*
X134216908Y-114256069D01*
X134140002Y-114410518D01*
X134091733Y-114462582D01*
X134022979Y-114480284D01*
X133955568Y-114458004D01*
X133910905Y-114402817D01*
X133909432Y-114398938D01*
X133818418Y-114191447D01*
X133818417Y-114191445D01*
X133768254Y-114114667D01*
X133747740Y-114046699D01*
X133767229Y-113978430D01*
X133820533Y-113931534D01*
X133873736Y-113919751D01*
X133936045Y-113919751D01*
X134024999Y-113895915D01*
X134069807Y-113870045D01*
X134104752Y-113849870D01*
X134169870Y-113784752D01*
X134180237Y-113774385D01*
X134180244Y-113774375D01*
X134604711Y-113349908D01*
X134667021Y-113315884D01*
X134737836Y-113320949D01*
X134739292Y-113321503D01*
X134856444Y-113366888D01*
X135057653Y-113404500D01*
X135057655Y-113404500D01*
X135262345Y-113404500D01*
X135262347Y-113404500D01*
X135463556Y-113366888D01*
X135654427Y-113292944D01*
X135828462Y-113185186D01*
X135979732Y-113047285D01*
X136103088Y-112883935D01*
X136194328Y-112700701D01*
X136250345Y-112503821D01*
X136269232Y-112300000D01*
X136269211Y-112299775D01*
X136250345Y-112096180D01*
X136249840Y-112094404D01*
X136194328Y-111899299D01*
X136103088Y-111716065D01*
X136048071Y-111643210D01*
X135979733Y-111552715D01*
X135828463Y-111414814D01*
X135654433Y-111307059D01*
X135654428Y-111307057D01*
X135654427Y-111307056D01*
X135603947Y-111287500D01*
X135463559Y-111233113D01*
X135463560Y-111233113D01*
X135463557Y-111233112D01*
X135463556Y-111233112D01*
X135262347Y-111195500D01*
X135057653Y-111195500D01*
X134856444Y-111233112D01*
X134856439Y-111233113D01*
X134665577Y-111307054D01*
X134665566Y-111307059D01*
X134491536Y-111414814D01*
X134340266Y-111552715D01*
X134216913Y-111716063D01*
X134125671Y-111899301D01*
X134069654Y-112096180D01*
X134050768Y-112299995D01*
X134050768Y-112300000D01*
X134069654Y-112503819D01*
X134125669Y-112700693D01*
X134125673Y-112700705D01*
X134131469Y-112712343D01*
X134143929Y-112782238D01*
X134116622Y-112847773D01*
X134107775Y-112857602D01*
X133782034Y-113183345D01*
X133719722Y-113217370D01*
X133692938Y-113220250D01*
X133562157Y-113220250D01*
X133494036Y-113200248D01*
X133447543Y-113146592D01*
X133437439Y-113076318D01*
X133461607Y-113018318D01*
X133517287Y-112944585D01*
X133563088Y-112883935D01*
X133654328Y-112700701D01*
X133710345Y-112503821D01*
X133729232Y-112300000D01*
X133729211Y-112299775D01*
X133710345Y-112096180D01*
X133709840Y-112094404D01*
X133654328Y-111899299D01*
X133563088Y-111716065D01*
X133508071Y-111643210D01*
X133439733Y-111552715D01*
X133288463Y-111414814D01*
X133114430Y-111307058D01*
X133114427Y-111307056D01*
X133114425Y-111307055D01*
X133114423Y-111307054D01*
X133081982Y-111294486D01*
X133025687Y-111251225D01*
X133001718Y-111184397D01*
X133001500Y-111176995D01*
X133001500Y-110883004D01*
X133021502Y-110814883D01*
X133075158Y-110768390D01*
X133081983Y-110765513D01*
X133086998Y-110763569D01*
X133114427Y-110752944D01*
X133288462Y-110645186D01*
X133439732Y-110507285D01*
X133563088Y-110343935D01*
X133654328Y-110160701D01*
X133710345Y-109963821D01*
X133722104Y-109836922D01*
X133729232Y-109760004D01*
X133729232Y-109759995D01*
X133710345Y-109556180D01*
X133710345Y-109556179D01*
X133654328Y-109359299D01*
X133563088Y-109176065D01*
X133455501Y-109033596D01*
X133439733Y-109012715D01*
X133288463Y-108874814D01*
X133114433Y-108767059D01*
X133114428Y-108767057D01*
X133114427Y-108767056D01*
X133099910Y-108761432D01*
X132923559Y-108693113D01*
X132923560Y-108693113D01*
X132923557Y-108693112D01*
X132923556Y-108693112D01*
X132722347Y-108655500D01*
X132517653Y-108655500D01*
X132316444Y-108693112D01*
X132316442Y-108693112D01*
X132316440Y-108693113D01*
X132231683Y-108725947D01*
X132160936Y-108731903D01*
X132098201Y-108698665D01*
X132097073Y-108697550D01*
X129736405Y-106336882D01*
X129702379Y-106274570D01*
X129699500Y-106247787D01*
X129699500Y-101327776D01*
X129697645Y-101320853D01*
X129673501Y-101230746D01*
X129673499Y-101230743D01*
X129673499Y-101230741D01*
X129623278Y-101143756D01*
X129623274Y-101143751D01*
X129552247Y-101072724D01*
X126065842Y-97586319D01*
X126031816Y-97524007D01*
X126033747Y-97462743D01*
X126059066Y-97373755D01*
X126090345Y-97263821D01*
X126106737Y-97086926D01*
X126109232Y-97060004D01*
X126109232Y-97059995D01*
X126090345Y-96856180D01*
X126090345Y-96856179D01*
X126034328Y-96659299D01*
X125943088Y-96476065D01*
X125868024Y-96376664D01*
X125819733Y-96312715D01*
X125668463Y-96174814D01*
X125494433Y-96067059D01*
X125494425Y-96067055D01*
X125431589Y-96042712D01*
X125375295Y-95999452D01*
X125351325Y-95932624D01*
X125367290Y-95863446D01*
X125418121Y-95813881D01*
X125436196Y-95806048D01*
X125547365Y-95767884D01*
X125547371Y-95767881D01*
X125745298Y-95660769D01*
X125765688Y-95644898D01*
X125124947Y-95004157D01*
X125192993Y-94985925D01*
X125307007Y-94920099D01*
X125400099Y-94827007D01*
X125465925Y-94712993D01*
X125484158Y-94644947D01*
X126123077Y-95283866D01*
X126198419Y-95168548D01*
X126288820Y-94962456D01*
X126288823Y-94962449D01*
X126344067Y-94744292D01*
X126362653Y-94520000D01*
X126344067Y-94295707D01*
X126288823Y-94077550D01*
X126288820Y-94077543D01*
X126198419Y-93871451D01*
X126123077Y-93756132D01*
X125484157Y-94395051D01*
X125465925Y-94327007D01*
X125400099Y-94212993D01*
X125307007Y-94119901D01*
X125192993Y-94054075D01*
X125124947Y-94035841D01*
X125765688Y-93395100D01*
X125765687Y-93395099D01*
X125745308Y-93379237D01*
X125745298Y-93379231D01*
X125547371Y-93272117D01*
X125547369Y-93272116D01*
X125436195Y-93233951D01*
X125378260Y-93192914D01*
X125351708Y-93127069D01*
X125364969Y-93057322D01*
X125413834Y-93005817D01*
X125431581Y-92997290D01*
X125494427Y-92972944D01*
X125668462Y-92865186D01*
X125819732Y-92727285D01*
X125943088Y-92563935D01*
X125943089Y-92563931D01*
X125943091Y-92563930D01*
X126009115Y-92431337D01*
X126057384Y-92379273D01*
X126121905Y-92361500D01*
X127109787Y-92361500D01*
X127177908Y-92381502D01*
G37*
%TD.AperFunction*%
%TA.AperFunction,Conductor*%
G36*
X158720262Y-106465337D02*
G01*
X158726845Y-106471466D01*
X158864314Y-106608935D01*
X158898340Y-106671247D01*
X158893275Y-106742062D01*
X158887487Y-106755231D01*
X158851420Y-106826017D01*
X158797698Y-106991357D01*
X158797697Y-106991360D01*
X158797697Y-106991362D01*
X158770500Y-107163074D01*
X158770500Y-107336926D01*
X158788013Y-107447494D01*
X158797698Y-107508642D01*
X158833912Y-107620099D01*
X158851420Y-107673981D01*
X158930347Y-107828884D01*
X158930349Y-107828887D01*
X159032536Y-107969535D01*
X159155464Y-108092463D01*
X159155467Y-108092465D01*
X159296116Y-108194653D01*
X159451019Y-108273580D01*
X159616362Y-108327303D01*
X159788074Y-108354500D01*
X159788077Y-108354500D01*
X160211923Y-108354500D01*
X160211926Y-108354500D01*
X160383638Y-108327303D01*
X160548981Y-108273580D01*
X160631057Y-108231759D01*
X160700833Y-108218655D01*
X160766618Y-108245355D01*
X160807525Y-108303382D01*
X160810566Y-108374313D01*
X160777355Y-108433121D01*
X160554576Y-108655900D01*
X160492264Y-108689926D01*
X160426545Y-108686638D01*
X160383642Y-108672698D01*
X160383645Y-108672698D01*
X160351672Y-108667634D01*
X160211926Y-108645500D01*
X159788074Y-108645500D01*
X159616362Y-108672697D01*
X159616360Y-108672697D01*
X159616357Y-108672698D01*
X159451023Y-108726418D01*
X159451017Y-108726421D01*
X159296112Y-108805349D01*
X159155464Y-108907536D01*
X159032536Y-109030464D01*
X158930349Y-109171112D01*
X158851421Y-109326017D01*
X158851418Y-109326023D01*
X158797698Y-109491357D01*
X158797697Y-109491360D01*
X158797697Y-109491362D01*
X158770500Y-109663074D01*
X158770500Y-109836926D01*
X158790599Y-109963821D01*
X158797698Y-110008642D01*
X158846034Y-110157407D01*
X158851420Y-110173981D01*
X158921578Y-110311673D01*
X158930349Y-110328887D01*
X159032536Y-110469535D01*
X159155464Y-110592463D01*
X159258713Y-110667478D01*
X159302067Y-110723701D01*
X159308142Y-110794437D01*
X159275010Y-110857228D01*
X159213190Y-110892140D01*
X159197459Y-110894761D01*
X159120679Y-110902605D01*
X159038910Y-110929700D01*
X159038910Y-110929701D01*
X159895463Y-111786254D01*
X159816657Y-111807370D01*
X159708343Y-111869905D01*
X159619905Y-111958343D01*
X159557370Y-112066657D01*
X159536254Y-112145463D01*
X158628717Y-111237926D01*
X158582393Y-111230010D01*
X158529987Y-111182114D01*
X158511750Y-111116822D01*
X158511750Y-106560561D01*
X158531752Y-106492440D01*
X158585408Y-106445947D01*
X158655682Y-106435843D01*
X158720262Y-106465337D01*
G37*
%TD.AperFunction*%
%TA.AperFunction,Conductor*%
G36*
X151333031Y-97368459D02*
G01*
X151378094Y-97397420D01*
X153599912Y-99619237D01*
X155252095Y-101271420D01*
X155286121Y-101333732D01*
X155289000Y-101360515D01*
X155289000Y-109393786D01*
X155268998Y-109461907D01*
X155215342Y-109508400D01*
X155145068Y-109518504D01*
X155080488Y-109489010D01*
X155073905Y-109482881D01*
X153521753Y-107930729D01*
X153521743Y-107930721D01*
X153453381Y-107891253D01*
X153453381Y-107891252D01*
X153434754Y-107880498D01*
X153405240Y-107872590D01*
X153344618Y-107835637D01*
X153313598Y-107771776D01*
X153322028Y-107701282D01*
X153332372Y-107681967D01*
X153376419Y-107614549D01*
X153466820Y-107408456D01*
X153466823Y-107408449D01*
X153522067Y-107190292D01*
X153540653Y-106966000D01*
X153522067Y-106741707D01*
X153466823Y-106523550D01*
X153466820Y-106523543D01*
X153376419Y-106317451D01*
X153301077Y-106202132D01*
X152662157Y-106841051D01*
X152643925Y-106773007D01*
X152578099Y-106658993D01*
X152485007Y-106565901D01*
X152370993Y-106500075D01*
X152302947Y-106481841D01*
X152943688Y-105841100D01*
X152943687Y-105841099D01*
X152923308Y-105825237D01*
X152923298Y-105825231D01*
X152725371Y-105718117D01*
X152725369Y-105718116D01*
X152614195Y-105679951D01*
X152556260Y-105638914D01*
X152529708Y-105573069D01*
X152542969Y-105503322D01*
X152591834Y-105451817D01*
X152609581Y-105443290D01*
X152672427Y-105418944D01*
X152846462Y-105311186D01*
X152997732Y-105173285D01*
X153121088Y-105009935D01*
X153212328Y-104826701D01*
X153268345Y-104629821D01*
X153287232Y-104426000D01*
X153280962Y-104358342D01*
X153268345Y-104222180D01*
X153266722Y-104216476D01*
X153212328Y-104025299D01*
X153121088Y-103842065D01*
X153034230Y-103727046D01*
X152997733Y-103678715D01*
X152846463Y-103540814D01*
X152672433Y-103433059D01*
X152672428Y-103433057D01*
X152672427Y-103433056D01*
X152561914Y-103390243D01*
X152481559Y-103359113D01*
X152481560Y-103359113D01*
X152481557Y-103359112D01*
X152481556Y-103359112D01*
X152280347Y-103321500D01*
X152075653Y-103321500D01*
X151874444Y-103359112D01*
X151874439Y-103359113D01*
X151683577Y-103433054D01*
X151683566Y-103433059D01*
X151509536Y-103540814D01*
X151358266Y-103678715D01*
X151234912Y-103842064D01*
X151234908Y-103842069D01*
X151153075Y-104006413D01*
X151104806Y-104058477D01*
X151040285Y-104076250D01*
X149835061Y-104076250D01*
X149766940Y-104056248D01*
X149745966Y-104039345D01*
X148418716Y-102712095D01*
X148384690Y-102649783D01*
X148389755Y-102578968D01*
X148432302Y-102522132D01*
X148498822Y-102497321D01*
X148507811Y-102497000D01*
X149084000Y-102497000D01*
X149084000Y-101566250D01*
X149141147Y-101599245D01*
X149270857Y-101634000D01*
X149405143Y-101634000D01*
X149534853Y-101599245D01*
X149592000Y-101566250D01*
X149592000Y-102497000D01*
X150401585Y-102497000D01*
X150401597Y-102496999D01*
X150462093Y-102490494D01*
X150598964Y-102439444D01*
X150598965Y-102439444D01*
X150715904Y-102351904D01*
X150803444Y-102234965D01*
X150803444Y-102234964D01*
X150854494Y-102098093D01*
X150860999Y-102037597D01*
X150861000Y-102037585D01*
X150861000Y-101378000D01*
X149780251Y-101378000D01*
X149813245Y-101320853D01*
X149848000Y-101191143D01*
X149848000Y-101056857D01*
X149813245Y-100927147D01*
X149780251Y-100870000D01*
X150861000Y-100870000D01*
X150861000Y-100210414D01*
X150860999Y-100210402D01*
X150854494Y-100149906D01*
X150803444Y-100013035D01*
X150803444Y-100013034D01*
X150715904Y-99896095D01*
X150598965Y-99808555D01*
X150462093Y-99757505D01*
X150401597Y-99751000D01*
X150174159Y-99751000D01*
X150106038Y-99730998D01*
X150059545Y-99677342D01*
X150049441Y-99607068D01*
X150078935Y-99542488D01*
X150100097Y-99523064D01*
X150100561Y-99522727D01*
X150217305Y-99437907D01*
X150341907Y-99313305D01*
X150445483Y-99170746D01*
X150525482Y-99013739D01*
X150579934Y-98846150D01*
X150607500Y-98672107D01*
X150607500Y-98495893D01*
X150579934Y-98321850D01*
X150525482Y-98154261D01*
X150445483Y-97997254D01*
X150417733Y-97959060D01*
X150393876Y-97892194D01*
X150409956Y-97823042D01*
X150460869Y-97773562D01*
X150519670Y-97759000D01*
X150712585Y-97759000D01*
X150712586Y-97759000D01*
X150769174Y-97743837D01*
X150825764Y-97728674D01*
X150927236Y-97670089D01*
X151010089Y-97587236D01*
X151199905Y-97397418D01*
X151262215Y-97363395D01*
X151333031Y-97368459D01*
G37*
%TD.AperFunction*%
%TD*%
M02*
